version 1
nodes
  0 "nw4f_root"  -1
  1 "AllRoot"   0
  2 "JointRoot"   1
  3 "Hip"   2
  4 "LegL1"   3
  5 "LegL2"   4
  6 "FootL"   5
  7 "ToeL"   6
  8 "LegR1"   3
  9 "LegR2"   8
 10 "FootR"   9
 11 "ToeR"  10
 12 "Spine1"   2
 13 "Spine2"  12
 14 "Bag"  13
 15 "Head"  13
 16 "JoeUnder"  15
 17 "ShoulderL"  13
 18 "ArmL1"  17
 19 "ArmL1Sub"  18
 20 "ArmL2"  18
 21 "ArmL2Sub"  20
 22 "HandL"  20
 23 "ShoulderR"  13
 24 "ArmR1"  23
 25 "ArmR1Sub"  24
 26 "ArmR2"  24
 27 "ArmR2Sub"  26
 28 "HandR"  26
 29 "LuigiUnused_Eyelid3"  -1
end
skeleton
time 0
  0 0.000000 0.000000 0.000000 1.570796 -0.000000 0.000000
  1 0.000000 0.000000 0.000000 0.000000 -0.000000 0.000000
  2 0.000000 68.028503 -3.990591 0.000000 -0.000000 0.000000
  3 0.000000 -2.000000 0.000001 -1.570796 -3.141592 1.570796
  4 4.029991 2.576941 -10.147688 0.000000 -0.000000 0.000000
  5 26.211063 0.000204 -0.000088 0.000000 -0.000000 0.000000
  6 22.942825 0.000005 0.000004 0.000000 0.000000 1.134464
  7 12.169998 0.000008 0.000000 -0.000000 0.000000 0.436332
  8 4.029991 2.576937 10.147690 0.000000 -0.000000 0.000000
  9 26.211067 0.000200 0.000096 0.000000 -0.000000 0.000000
 10 22.942818 0.000005 0.000004 0.000000 0.000000 1.134464
 11 12.170002 0.000010 0.000000 -0.000000 0.000000 0.436332
 12 0.000000 4.277161 -0.000000 1.570796 -0.000000 1.570796
 13 13.929802 0.000000 0.000000 0.000000 -0.000000 0.000000
 14 22.639145 -16.116180 0.000000 -1.570796 -1.570451 0.000000
 15 20.107773 0.000587 -0.000000 0.000000 0.000000 1.570796
 16 0.073432 -15.880157 -0.000000 -3.141592 0.000000 0.575263
 17 10.084557 0.778702 3.123569 -1.570796 -1.570451 0.000000
 18 12.086020 0.000000 0.000000 0.000000 0.000000 0.000000
 19 5.370699 0.000000 0.000001 -0.000000 0.000000 0.000000
 20 12.261209 0.000000 0.000001 -0.000000 0.000000 0.000000
 21 8.518942 0.000023 -0.000006 -0.000000 0.000001 -0.000000
 22 19.602606 0.000038 0.000000 -0.000000 0.000001 -0.000000
 23 10.084557 0.778702 -3.123570 1.570796 1.570451 0.000000
 24 12.086014 0.000000 0.000000 -0.000000 0.000000 0.000000
 25 5.370700 0.000000 0.000000 0.000000 0.000000 -0.000000
 26 12.261210 0.000000 -0.000001 0.000000 0.000001 -0.000000
 27 8.518951 0.000000 0.000006 0.000000 -0.000000 0.000000
 28 19.602608 0.000000 0.000000 0.000000 -0.000000 0.000000
 29 0.000000 0.000000 0.000000 0.000000 -0.000000 0.000000
end
triangles
LuigiEyelid_alb.png
 29 4.527721 -13.392990 141.020874 -0.097848 -0.984587 0.144961 0.148241 0.760540 1 15 1.000000
 29 2.814758 -13.165512 140.898132 -0.162511 -0.986702 -0.003052 0.054810 0.760693 1 15 1.000000
 29 2.692984 -13.134510 139.859695 -0.156662 -0.987132 -0.032043 0.045624 0.705577 1 15 1.000000
LuigiEyelid_alb.png
 29 4.485577 -13.491774 142.421371 -0.068476 -0.996531 0.047304 0.149462 0.835706 1 15 1.000000
 29 2.814758 -13.165512 140.898132 -0.162511 -0.986702 -0.003052 0.054810 0.760693 1 15 1.000000
 29 4.527721 -13.392990 141.020874 -0.097848 -0.984587 0.144961 0.148241 0.760540 1 15 1.000000
LuigiEyelid_alb.png
 29 4.485577 -13.491774 142.421371 -0.068476 -0.996531 0.047304 0.149462 0.835706 1 15 1.000000
 29 3.536439 -13.152620 143.038879 -0.244877 -0.957954 0.149534 0.099092 0.874189 1 15 1.000000
 29 2.814758 -13.165512 140.898132 -0.162511 -0.986702 -0.003052 0.054810 0.760693 1 15 1.000000
LuigiEyelid_alb.png
 29 6.104885 -13.353050 141.384155 0.131031 -0.978347 0.160213 0.234638 0.776059 1 15 1.000000
 29 4.485577 -13.491774 142.421371 -0.068476 -0.996531 0.047304 0.149462 0.835706 1 15 1.000000
 29 4.527721 -13.392990 141.020874 -0.097848 -0.984587 0.144961 0.148241 0.760540 1 15 1.000000
LuigiEyelid_alb.png
 29 4.350157 -13.099493 143.869583 -0.068471 -0.965365 0.251760 0.145739 0.916518 1 15 1.000000
 29 3.536439 -13.152620 143.038879 -0.244877 -0.957954 0.149534 0.099092 0.874189 1 15 1.000000
 29 4.485577 -13.491774 142.421371 -0.068476 -0.996531 0.047304 0.149462 0.835706 1 15 1.000000
LuigiEyelid_alb.png
 29 6.053465 -13.453053 142.772964 0.150496 -0.985662 0.076297 0.232807 0.850416 1 15 1.000000
 29 4.485577 -13.491774 142.421371 -0.068476 -0.996531 0.047304 0.149462 0.835706 1 15 1.000000
 29 6.104885 -13.353050 141.384155 0.131031 -0.978347 0.160213 0.234638 0.776059 1 15 1.000000
LuigiEyelid_alb.png
 29 6.053465 -13.453053 142.772964 0.150496 -0.985662 0.076297 0.232807 0.850416 1 15 1.000000
 29 4.350157 -13.099493 143.869583 -0.068471 -0.965365 0.251760 0.145739 0.916518 1 15 1.000000
 29 4.485577 -13.491774 142.421371 -0.068476 -0.996531 0.047304 0.149462 0.835706 1 15 1.000000
LuigiEyelid_alb.png
 29 6.053465 -13.453053 142.772964 0.150496 -0.985662 0.076297 0.232807 0.850416 1 15 1.000000
 29 5.431942 -13.002115 144.404785 0.066567 -0.954733 0.289920 0.205753 0.942870 1 15 1.000000
 29 4.350157 -13.099493 143.869583 -0.068471 -0.965365 0.251760 0.145739 0.916518 1 15 1.000000
LuigiEyelid_alb.png
 29 7.693352 -12.937763 141.352753 0.344418 -0.914189 0.213622 0.323445 0.773571 1 15 1.000000
 29 6.053465 -13.453053 142.772964 0.150496 -0.985662 0.076297 0.232807 0.850416 1 15 1.000000
 29 6.104885 -13.353050 141.384155 0.131031 -0.978347 0.160213 0.234638 0.776059 1 15 1.000000
LuigiEyelid_alb.png
 29 6.573175 -12.734434 144.552063 0.238804 -0.917735 0.317388 0.269322 0.950362 1 15 1.000000
 29 5.431942 -13.002115 144.404785 0.066567 -0.954733 0.289920 0.205753 0.942870 1 15 1.000000
 29 6.053465 -13.453053 142.772964 0.150496 -0.985662 0.076297 0.232807 0.850416 1 15 1.000000
LuigiEyelid_alb.png
 29 7.879379 -12.971720 142.765228 0.361915 -0.923145 0.129698 0.331548 0.849165 1 15 1.000000
 29 6.053465 -13.453053 142.772964 0.150496 -0.985662 0.076297 0.232807 0.850416 1 15 1.000000
 29 7.693352 -12.937763 141.352753 0.344418 -0.914189 0.213622 0.323445 0.773571 1 15 1.000000
LuigiEyelid_alb.png
 29 7.879379 -12.971720 142.765228 0.361915 -0.923145 0.129698 0.331548 0.849165 1 15 1.000000
 29 6.573175 -12.734434 144.552063 0.238804 -0.917735 0.317388 0.269322 0.950362 1 15 1.000000
 29 6.053465 -13.453053 142.772964 0.150496 -0.985662 0.076297 0.232807 0.850416 1 15 1.000000
LuigiEyelid_alb.png
 29 9.051662 -12.279354 140.886810 0.585080 -0.788594 0.189209 0.406256 0.752529 1 15 1.000000
 29 7.879379 -12.971720 142.765228 0.361915 -0.923145 0.129698 0.331548 0.849165 1 15 1.000000
 29 7.693352 -12.937763 141.352753 0.344418 -0.914189 0.213622 0.323445 0.773571 1 15 1.000000
LuigiEyelid_alb.png
 29 7.959892 -12.317884 144.483826 0.410762 -0.854714 0.317394 0.347860 0.946395 1 15 1.000000
 29 6.573175 -12.734434 144.552063 0.238804 -0.917735 0.317388 0.269322 0.950362 1 15 1.000000
 29 7.879379 -12.971720 142.765228 0.361915 -0.923145 0.129698 0.331548 0.849165 1 15 1.000000
LuigiEyelid_alb.png
 29 9.436579 -12.211689 142.014999 0.603385 -0.791448 0.097655 0.424369 0.813352 1 15 1.000000
 29 7.879379 -12.971720 142.765228 0.361915 -0.923145 0.129698 0.331548 0.849165 1 15 1.000000
 29 9.051662 -12.279354 140.886810 0.585080 -0.788594 0.189209 0.406256 0.752529 1 15 1.000000
LuigiEyelid_alb.png
 29 9.436579 -12.211689 142.014999 0.603385 -0.791448 0.097655 0.424369 0.813352 1 15 1.000000
 29 7.959892 -12.317884 144.483826 0.410762 -0.854714 0.317394 0.347860 0.946395 1 15 1.000000
 29 7.879379 -12.971720 142.765228 0.361915 -0.923145 0.129698 0.331548 0.849165 1 15 1.000000
LuigiEyelid_alb.png
 29 10.387038 -11.156002 139.697922 0.669929 -0.738495 -0.076291 0.505470 0.696284 1 15 1.000000
 29 9.436579 -12.211689 142.014999 0.603385 -0.791448 0.097655 0.424369 0.813352 1 15 1.000000
 29 9.051662 -12.279354 140.886810 0.585080 -0.788594 0.189209 0.406256 0.752529 1 15 1.000000
LuigiEyelid_alb.png
 29 9.436579 -12.211689 142.014999 0.603385 -0.791448 0.097655 0.424369 0.813352 1 15 1.000000
 29 9.521136 -11.669804 143.077301 0.647377 -0.698401 0.305187 0.442679 0.874708 1 15 1.000000
 29 7.959892 -12.317884 144.483826 0.410762 -0.854714 0.317394 0.347860 0.946395 1 15 1.000000
LuigiEyelid_alb.png
 29 10.387038 -11.156002 139.697922 0.669929 -0.738495 -0.076291 0.505470 0.696284 1 15 1.000000
 29 10.205042 -11.332687 141.292618 0.774602 -0.629924 0.056460 0.489372 0.780301 1 15 1.000000
 29 9.436579 -12.211689 142.014999 0.603385 -0.791448 0.097655 0.424369 0.813352 1 15 1.000000
LuigiEyelid_alb.png
 29 10.205042 -11.332687 141.292618 0.774602 -0.629924 0.056460 0.489372 0.780301 1 15 1.000000
 29 9.521136 -11.669804 143.077301 0.647377 -0.698401 0.305187 0.442679 0.874708 1 15 1.000000
 29 9.436579 -12.211689 142.014999 0.603385 -0.791448 0.097655 0.424369 0.813352 1 15 1.000000
LuigiEyelid_alb.png
 29 -4.527721 -13.392988 141.020874 0.097848 -0.984587 0.144961 0.148241 0.760540 1 15 1.000000
 29 -2.692984 -13.134508 139.859695 0.156755 -0.987118 -0.032042 0.045624 0.705577 1 15 1.000000
 29 -2.814758 -13.165510 140.898132 0.162511 -0.986702 -0.003052 0.054810 0.760693 1 15 1.000000
LuigiEyelid_alb.png
 29 -4.485577 -13.491772 142.421371 0.068476 -0.996531 0.047304 0.149462 0.835706 1 15 1.000000
 29 -4.527721 -13.392988 141.020874 0.097848 -0.984587 0.144961 0.148241 0.760540 1 15 1.000000
 29 -2.814758 -13.165510 140.898132 0.162511 -0.986702 -0.003052 0.054810 0.760693 1 15 1.000000
LuigiEyelid_alb.png
 29 -4.485577 -13.491772 142.421371 0.068476 -0.996531 0.047304 0.149462 0.835706 1 15 1.000000
 29 -2.814758 -13.165510 140.898132 0.162511 -0.986702 -0.003052 0.054810 0.760693 1 15 1.000000
 29 -3.536440 -13.152618 143.038879 0.244966 -0.957931 0.149531 0.099092 0.874189 1 15 1.000000
LuigiEyelid_alb.png
 29 -6.104883 -13.353046 141.384155 -0.131231 -0.978318 0.160224 0.234638 0.776059 1 15 1.000000
 29 -4.527721 -13.392988 141.020874 0.097848 -0.984587 0.144961 0.148241 0.760540 1 15 1.000000
 29 -4.485577 -13.491772 142.421371 0.068476 -0.996531 0.047304 0.149462 0.835706 1 15 1.000000
LuigiEyelid_alb.png
 29 -4.350157 -13.099491 143.869583 0.068667 -0.965346 0.251779 0.145739 0.916518 1 15 1.000000
 29 -4.485577 -13.491772 142.421371 0.068476 -0.996531 0.047304 0.149462 0.835706 1 15 1.000000
 29 -3.536440 -13.152618 143.038879 0.244966 -0.957931 0.149531 0.099092 0.874189 1 15 1.000000
LuigiEyelid_alb.png
 29 -6.053465 -13.453049 142.772964 -0.150446 -0.985551 0.077822 0.232807 0.850416 1 15 1.000000
 29 -6.104883 -13.353046 141.384155 -0.131231 -0.978318 0.160224 0.234638 0.776059 1 15 1.000000
 29 -4.485577 -13.491772 142.421371 0.068476 -0.996531 0.047304 0.149462 0.835706 1 15 1.000000
LuigiEyelid_alb.png
 29 -6.053465 -13.453049 142.772964 -0.150446 -0.985551 0.077822 0.232807 0.850416 1 15 1.000000
 29 -4.485577 -13.491772 142.421371 0.068476 -0.996531 0.047304 0.149462 0.835706 1 15 1.000000
 29 -4.350157 -13.099491 143.869583 0.068667 -0.965346 0.251779 0.145739 0.916518 1 15 1.000000
LuigiEyelid_alb.png
 29 -6.053465 -13.453049 142.772964 -0.150446 -0.985551 0.077822 0.232807 0.850416 1 15 1.000000
 29 -4.350157 -13.099491 143.869583 0.068667 -0.965346 0.251779 0.145739 0.916518 1 15 1.000000
 29 -5.431942 -13.002113 144.404785 -0.066567 -0.954733 0.289920 0.205753 0.942870 1 15 1.000000
LuigiEyelid_alb.png
 29 -7.693350 -12.937759 141.352753 -0.344574 -0.914128 0.213630 0.323445 0.773571 1 15 1.000000
 29 -6.104883 -13.353046 141.384155 -0.131231 -0.978318 0.160224 0.234638 0.776059 1 15 1.000000
 29 -6.053465 -13.453049 142.772964 -0.150446 -0.985551 0.077822 0.232807 0.850416 1 15 1.000000
LuigiEyelid_alb.png
 29 -6.573175 -12.734430 144.552063 -0.238804 -0.917735 0.317388 0.269322 0.950362 1 15 1.000000
 29 -6.053465 -13.453049 142.772964 -0.150446 -0.985551 0.077822 0.232807 0.850416 1 15 1.000000
 29 -5.431942 -13.002113 144.404785 -0.066567 -0.954733 0.289920 0.205753 0.942870 1 15 1.000000
LuigiEyelid_alb.png
 29 -7.879381 -12.971718 142.765228 -0.361832 -0.923177 0.129703 0.331548 0.849165 1 15 1.000000
 29 -7.693350 -12.937759 141.352753 -0.344574 -0.914128 0.213630 0.323445 0.773571 1 15 1.000000
 29 -6.053465 -13.453049 142.772964 -0.150446 -0.985551 0.077822 0.232807 0.850416 1 15 1.000000
LuigiEyelid_alb.png
 29 -7.879381 -12.971718 142.765228 -0.361832 -0.923177 0.129703 0.331548 0.849165 1 15 1.000000
 29 -6.053465 -13.453049 142.772964 -0.150446 -0.985551 0.077822 0.232807 0.850416 1 15 1.000000
 29 -6.573175 -12.734430 144.552063 -0.238804 -0.917735 0.317388 0.269322 0.950362 1 15 1.000000
LuigiEyelid_alb.png
 29 -9.051662 -12.279352 140.886810 -0.584973 -0.788675 0.189206 0.406256 0.752529 1 15 1.000000
 29 -7.693350 -12.937759 141.352753 -0.344574 -0.914128 0.213630 0.323445 0.773571 1 15 1.000000
 29 -7.879381 -12.971718 142.765228 -0.361832 -0.923177 0.129703 0.331548 0.849165 1 15 1.000000
LuigiEyelid_alb.png
 29 -7.959892 -12.317881 144.483826 -0.410762 -0.854714 0.317394 0.347860 0.946395 1 15 1.000000
 29 -7.879381 -12.971718 142.765228 -0.361832 -0.923177 0.129703 0.331548 0.849165 1 15 1.000000
 29 -6.573175 -12.734430 144.552063 -0.238804 -0.917735 0.317388 0.269322 0.950362 1 15 1.000000
LuigiEyelid_alb.png
 29 -9.436579 -12.211689 142.014999 -0.603385 -0.791448 0.097655 0.424369 0.813352 1 15 1.000000
 29 -9.051662 -12.279352 140.886810 -0.584973 -0.788675 0.189206 0.406256 0.752529 1 15 1.000000
 29 -7.879381 -12.971718 142.765228 -0.361832 -0.923177 0.129703 0.331548 0.849165 1 15 1.000000
LuigiEyelid_alb.png
 29 -9.436579 -12.211689 142.014999 -0.603385 -0.791448 0.097655 0.424369 0.813352 1 15 1.000000
 29 -7.879381 -12.971718 142.765228 -0.361832 -0.923177 0.129703 0.331548 0.849165 1 15 1.000000
 29 -7.959892 -12.317881 144.483826 -0.410762 -0.854714 0.317394 0.347860 0.946395 1 15 1.000000
LuigiEyelid_alb.png
 29 -10.387038 -11.156002 139.697922 -0.669876 -0.738542 -0.076296 0.505470 0.696284 1 15 1.000000
 29 -9.051662 -12.279352 140.886810 -0.584973 -0.788675 0.189206 0.406256 0.752529 1 15 1.000000
 29 -9.436579 -12.211689 142.014999 -0.603385 -0.791448 0.097655 0.424369 0.813352 1 15 1.000000
LuigiEyelid_alb.png
 29 -9.436579 -12.211689 142.014999 -0.603385 -0.791448 0.097655 0.424369 0.813352 1 15 1.000000
 29 -7.959892 -12.317881 144.483826 -0.410762 -0.854714 0.317394 0.347860 0.946395 1 15 1.000000
 29 -9.521137 -11.669802 143.077301 -0.647476 -0.698309 0.305188 0.442679 0.874708 1 15 1.000000
LuigiEyelid_alb.png
 29 -10.387038 -11.156002 139.697922 -0.669876 -0.738542 -0.076296 0.505470 0.696284 1 15 1.000000
 29 -9.436579 -12.211689 142.014999 -0.603385 -0.791448 0.097655 0.424369 0.813352 1 15 1.000000
 29 -10.205042 -11.332687 141.292618 -0.774686 -0.629820 0.056459 0.489372 0.780301 1 15 1.000000
LuigiEyelid_alb.png
 29 -9.436579 -12.211689 142.014999 -0.603385 -0.791448 0.097655 0.424369 0.813352 1 15 1.000000
 29 -9.521137 -11.669802 143.077301 -0.647476 -0.698309 0.305188 0.442679 0.874708 1 15 1.000000
 29 -10.205042 -11.332687 141.292618 -0.774686 -0.629820 0.056459 0.489372 0.780301 1 15 1.000000
LuigiEyelid_alb.png
 29 8.948821 -12.288155 140.123932 0.187878 -0.610939 -0.769062 0.863478 0.583459 1 15 1.000000
 29 10.387038 -11.156002 139.697922 0.669929 -0.738495 -0.076291 0.846937 0.481636 1 15 1.000000
 29 9.159882 -12.679905 140.466064 0.589630 -0.807153 -0.028990 0.884306 0.581842 1 15 1.000000
LuigiEyelid_alb.png
 29 8.948821 -12.288155 140.123932 0.187878 -0.610939 -0.769062 0.863478 0.583459 1 15 1.000000
 29 9.159882 -12.679905 140.466064 0.589630 -0.807153 -0.028990 0.884306 0.581842 1 15 1.000000
 29 7.657059 -12.930363 140.340744 0.150981 -0.670497 -0.726388 0.866743 0.664881 1 15 1.000000
LuigiEyelid_alb.png
 29 10.387038 -11.156002 139.697922 0.669929 -0.738495 -0.076291 0.846937 0.481636 1 15 1.000000
 29 9.051662 -12.279354 140.886810 0.585080 -0.788594 0.189209 0.914015 0.579385 1 15 1.000000
 29 9.159882 -12.679905 140.466064 0.589630 -0.807153 -0.028990 0.884306 0.581842 1 15 1.000000
LuigiEyelid_alb.png
 29 7.657059 -12.930363 140.340744 0.150981 -0.670497 -0.726388 0.866743 0.664881 1 15 1.000000
 29 9.159882 -12.679905 140.466064 0.589630 -0.807153 -0.028990 0.884306 0.581842 1 15 1.000000
 29 7.797519 -13.433950 140.828583 0.352370 -0.935617 0.021362 0.900359 0.665492 1 15 1.000000
LuigiEyelid_alb.png
 29 9.159882 -12.679905 140.466064 0.589630 -0.807153 -0.028990 0.884306 0.581842 1 15 1.000000
 29 9.051662 -12.279354 140.886810 0.585080 -0.788594 0.189209 0.914015 0.579385 1 15 1.000000
 29 7.797519 -13.433950 140.828583 0.352370 -0.935617 0.021362 0.900359 0.665492 1 15 1.000000
LuigiEyelid_alb.png
 29 7.797519 -13.433950 140.828583 0.352370 -0.935617 0.021362 0.900359 0.665492 1 15 1.000000
 29 9.051662 -12.279354 140.886810 0.585080 -0.788594 0.189209 0.914015 0.579385 1 15 1.000000
 29 7.693352 -12.937763 141.352753 0.344418 -0.914189 0.213622 0.938338 0.662074 1 15 1.000000
LuigiEyelid_alb.png
 29 7.657059 -12.930363 140.340744 0.150981 -0.670497 -0.726388 0.866743 0.664881 1 15 1.000000
 29 7.797519 -13.433950 140.828583 0.352370 -0.935617 0.021362 0.900359 0.665492 1 15 1.000000
 29 6.050917 -13.352777 140.416351 0.113591 -0.716550 -0.688224 0.868421 0.756069 1 15 1.000000
LuigiEyelid_alb.png
 29 7.797519 -13.433950 140.828583 0.352370 -0.935617 0.021362 0.900359 0.665492 1 15 1.000000
 29 7.693352 -12.937763 141.352753 0.344418 -0.914189 0.213622 0.938338 0.662074 1 15 1.000000
 29 6.104885 -13.353050 141.384155 0.131031 -0.978347 0.160213 0.938750 0.752651 1 15 1.000000
LuigiEyelid_alb.png
 29 7.797519 -13.433950 140.828583 0.352370 -0.935617 0.021362 0.900359 0.665492 1 15 1.000000
 29 6.104885 -13.353050 141.384155 0.131031 -0.978347 0.160213 0.938750 0.752651 1 15 1.000000
 29 6.116796 -13.790457 140.915100 0.095939 -0.994965 0.028992 0.905226 0.754604 1 15 1.000000
LuigiEyelid_alb.png
 29 6.050917 -13.352777 140.416351 0.113591 -0.716550 -0.688224 0.868421 0.756069 1 15 1.000000
 29 7.797519 -13.433950 140.828583 0.352370 -0.935617 0.021362 0.900359 0.665492 1 15 1.000000
 29 6.116796 -13.790457 140.915100 0.095939 -0.994965 0.028992 0.905226 0.754604 1 15 1.000000
LuigiEyelid_alb.png
 29 6.116796 -13.790457 140.915100 0.095939 -0.994965 0.028992 0.905226 0.754604 1 15 1.000000
 29 6.104885 -13.353050 141.384155 0.131031 -0.978347 0.160213 0.938750 0.752651 1 15 1.000000
 29 4.527721 -13.392990 141.020874 -0.097848 -0.984587 0.144961 0.922026 0.840650 1 15 1.000000
LuigiEyelid_alb.png
 29 6.050917 -13.352777 140.416351 0.113591 -0.716550 -0.688224 0.868421 0.756069 1 15 1.000000
 29 6.116796 -13.790457 140.915100 0.095939 -0.994965 0.028992 0.905226 0.754604 1 15 1.000000
 29 4.524987 -13.709467 140.598022 -0.131127 -0.990744 -0.035094 0.892973 0.837980 1 15 1.000000
LuigiEyelid_alb.png
 29 6.116796 -13.790457 140.915100 0.095939 -0.994965 0.028992 0.905226 0.754604 1 15 1.000000
 29 4.527721 -13.392990 141.020874 -0.097848 -0.984587 0.144961 0.922026 0.840650 1 15 1.000000
 29 4.524987 -13.709467 140.598022 -0.131127 -0.990744 -0.035094 0.892973 0.837980 1 15 1.000000
LuigiEyelid_alb.png
 29 6.050917 -13.352777 140.416351 0.113591 -0.716550 -0.688224 0.868421 0.756069 1 15 1.000000
 29 4.524987 -13.709467 140.598022 -0.131127 -0.990744 -0.035094 0.892973 0.837980 1 15 1.000000
 29 4.548529 -13.334848 140.218079 0.078353 -0.722682 -0.686725 0.864103 0.839567 1 15 1.000000
LuigiEyelid_alb.png
 29 4.524987 -13.709467 140.598022 -0.131127 -0.990744 -0.035094 0.892973 0.837980 1 15 1.000000
 29 4.527721 -13.392990 141.020874 -0.097848 -0.984587 0.144961 0.922026 0.840650 1 15 1.000000
 29 2.692984 -13.134510 139.859695 -0.156662 -0.987132 -0.032043 0.863066 0.943099 1 15 1.000000
LuigiEyelid_alb.png
 29 4.524987 -13.709467 140.598022 -0.131127 -0.990744 -0.035094 0.892973 0.837980 1 15 1.000000
 29 2.692984 -13.134510 139.859695 -0.156662 -0.987132 -0.032043 0.863066 0.943099 1 15 1.000000
 29 4.548529 -13.334848 140.218079 0.078353 -0.722682 -0.686725 0.864103 0.839567 1 15 1.000000
LuigiEyelid_alb.png
 29 -8.948820 -12.288153 140.123932 -0.187878 -0.610939 -0.769062 0.863478 0.583459 1 15 1.000000
 29 -9.159882 -12.679903 140.466064 -0.589675 -0.807120 -0.028993 0.884306 0.581842 1 15 1.000000
 29 -10.387038 -11.156002 139.697922 -0.669876 -0.738542 -0.076296 0.846937 0.481636 1 15 1.000000
LuigiEyelid_alb.png
 29 -8.948820 -12.288153 140.123932 -0.187878 -0.610939 -0.769062 0.863478 0.583459 1 15 1.000000
 29 -7.657059 -12.930361 140.340744 -0.150981 -0.670497 -0.726388 0.866743 0.664881 1 15 1.000000
 29 -9.159882 -12.679903 140.466064 -0.589675 -0.807120 -0.028993 0.884306 0.581842 1 15 1.000000
LuigiEyelid_alb.png
 29 -9.159882 -12.679903 140.466064 -0.589675 -0.807120 -0.028993 0.884306 0.581842 1 15 1.000000
 29 -9.051662 -12.279352 140.886810 -0.584973 -0.788675 0.189206 0.914015 0.579385 1 15 1.000000
 29 -10.387038 -11.156002 139.697922 -0.669876 -0.738542 -0.076296 0.846937 0.481636 1 15 1.000000
LuigiEyelid_alb.png
 29 -7.657059 -12.930361 140.340744 -0.150981 -0.670497 -0.726388 0.866743 0.664881 1 15 1.000000
 29 -7.797518 -13.433947 140.828583 -0.352485 -0.935574 0.021363 0.900359 0.665492 1 15 1.000000
 29 -9.159882 -12.679903 140.466064 -0.589675 -0.807120 -0.028993 0.884306 0.581842 1 15 1.000000
LuigiEyelid_alb.png
 29 -9.159882 -12.679903 140.466064 -0.589675 -0.807120 -0.028993 0.884306 0.581842 1 15 1.000000
 29 -7.797518 -13.433947 140.828583 -0.352485 -0.935574 0.021363 0.900359 0.665492 1 15 1.000000
 29 -9.051662 -12.279352 140.886810 -0.584973 -0.788675 0.189206 0.914015 0.579385 1 15 1.000000
LuigiEyelid_alb.png
 29 -7.797518 -13.433947 140.828583 -0.352485 -0.935574 0.021363 0.900359 0.665492 1 15 1.000000
 29 -7.693350 -12.937759 141.352753 -0.344574 -0.914128 0.213630 0.938338 0.662074 1 15 1.000000
 29 -9.051662 -12.279352 140.886810 -0.584973 -0.788675 0.189206 0.914015 0.579385 1 15 1.000000
LuigiEyelid_alb.png
 29 -7.657059 -12.930361 140.340744 -0.150981 -0.670497 -0.726388 0.866743 0.664881 1 15 1.000000
 29 -6.050917 -13.352776 140.416351 -0.113403 -0.716566 -0.688239 0.868421 0.756069 1 15 1.000000
 29 -7.797518 -13.433947 140.828583 -0.352485 -0.935574 0.021363 0.900359 0.665492 1 15 1.000000
LuigiEyelid_alb.png
 29 -7.797518 -13.433947 140.828583 -0.352485 -0.935574 0.021363 0.900359 0.665492 1 15 1.000000
 29 -6.104883 -13.353046 141.384155 -0.131231 -0.978318 0.160224 0.938750 0.752651 1 15 1.000000
 29 -7.693350 -12.937759 141.352753 -0.344574 -0.914128 0.213630 0.938338 0.662074 1 15 1.000000
LuigiEyelid_alb.png
 29 -7.797518 -13.433947 140.828583 -0.352485 -0.935574 0.021363 0.900359 0.665492 1 15 1.000000
 29 -6.116795 -13.790453 140.915100 -0.096128 -0.994947 0.028991 0.905226 0.754604 1 15 1.000000
 29 -6.104883 -13.353046 141.384155 -0.131231 -0.978318 0.160224 0.938750 0.752651 1 15 1.000000
LuigiEyelid_alb.png
 29 -6.050917 -13.352776 140.416351 -0.113403 -0.716566 -0.688239 0.868421 0.756069 1 15 1.000000
 29 -6.116795 -13.790453 140.915100 -0.096128 -0.994947 0.028991 0.905226 0.754604 1 15 1.000000
 29 -7.797518 -13.433947 140.828583 -0.352485 -0.935574 0.021363 0.900359 0.665492 1 15 1.000000
LuigiEyelid_alb.png
 29 -6.116795 -13.790453 140.915100 -0.096128 -0.994947 0.028991 0.905226 0.754604 1 15 1.000000
 29 -4.527721 -13.392988 141.020874 0.097848 -0.984587 0.144961 0.922026 0.840650 1 15 1.000000
 29 -6.104883 -13.353046 141.384155 -0.131231 -0.978318 0.160224 0.938750 0.752651 1 15 1.000000
LuigiEyelid_alb.png
 29 -6.050917 -13.352776 140.416351 -0.113403 -0.716566 -0.688239 0.868421 0.756069 1 15 1.000000
 29 -4.524986 -13.709465 140.598022 0.131033 -0.990757 -0.035095 0.892973 0.837980 1 15 1.000000
 29 -6.116795 -13.790453 140.915100 -0.096128 -0.994947 0.028991 0.905226 0.754604 1 15 1.000000
LuigiEyelid_alb.png
 29 -4.524986 -13.709465 140.598022 0.131033 -0.990757 -0.035095 0.892973 0.837980 1 15 1.000000
 29 -4.527721 -13.392988 141.020874 0.097848 -0.984587 0.144961 0.922026 0.840650 1 15 1.000000
 29 -6.116795 -13.790453 140.915100 -0.096128 -0.994947 0.028991 0.905226 0.754604 1 15 1.000000
LuigiEyelid_alb.png
 29 -6.050917 -13.352776 140.416351 -0.113403 -0.716566 -0.688239 0.868421 0.756069 1 15 1.000000
 29 -4.548529 -13.334848 140.218079 -0.078253 -0.722733 -0.686683 0.864103 0.839567 1 15 1.000000
 29 -4.524986 -13.709465 140.598022 0.131033 -0.990757 -0.035095 0.892973 0.837980 1 15 1.000000
LuigiEyelid_alb.png
 29 -4.524986 -13.709465 140.598022 0.131033 -0.990757 -0.035095 0.892973 0.837980 1 15 1.000000
 29 -2.692984 -13.134508 139.859695 0.156755 -0.987118 -0.032042 0.863066 0.943099 1 15 1.000000
 29 -4.527721 -13.392988 141.020874 0.097848 -0.984587 0.144961 0.922026 0.840650 1 15 1.000000
LuigiEyelid_alb.png
 29 -4.524986 -13.709465 140.598022 0.131033 -0.990757 -0.035095 0.892973 0.837980 1 15 1.000000
 29 -4.548529 -13.334848 140.218079 -0.078253 -0.722733 -0.686683 0.864103 0.839567 1 15 1.000000
 29 -2.692984 -13.134508 139.859695 0.156755 -0.987118 -0.032042 0.863066 0.943099 1 15 1.000000
end
