version 1
nodes
  0 "nw4f_root"  -1
  1 "AllRoot"   0
  2 "JointRoot"   1
  3 "Hip"   2
  4 "LegL1"   3
  5 "LegL2"   4
  6 "FootL"   5
  7 "ToeL"   6
  8 "LegR1"   3
  9 "LegR2"   8
 10 "FootR"   9
 11 "ToeR"  10
 12 "Spine1"   2
 13 "Spine2"  12
 14 "Bag"  13
 15 "Head"  13
 16 "JoeUnder"  15
 17 "ShoulderL"  13
 18 "ArmL1"  17
 19 "ArmL1Sub"  18
 20 "ArmL2"  18
 21 "ArmL2Sub"  20
 22 "HandL"  20
 23 "ShoulderR"  13
 24 "ArmR1"  23
 25 "ArmR1Sub"  24
 26 "ArmR2"  24
 27 "ArmR2Sub"  26
 28 "HandR"  26
 29 "LuigiUnused_Eyelid2"  -1
end
skeleton
time 0
  0 0.000000 0.000000 0.000000 1.570796 -0.000000 0.000000
  1 0.000000 0.000000 0.000000 0.000000 -0.000000 0.000000
  2 0.000000 68.028503 -3.990591 0.000000 -0.000000 0.000000
  3 0.000000 -2.000000 0.000001 -1.570796 -3.141592 1.570796
  4 4.029991 2.576941 -10.147688 0.000000 -0.000000 0.000000
  5 26.211063 0.000204 -0.000088 0.000000 -0.000000 0.000000
  6 22.942825 0.000005 0.000004 0.000000 0.000000 1.134464
  7 12.169998 0.000008 0.000000 -0.000000 0.000000 0.436332
  8 4.029991 2.576937 10.147690 0.000000 -0.000000 0.000000
  9 26.211067 0.000200 0.000096 0.000000 -0.000000 0.000000
 10 22.942818 0.000005 0.000004 0.000000 0.000000 1.134464
 11 12.170002 0.000010 0.000000 -0.000000 0.000000 0.436332
 12 0.000000 4.277161 -0.000000 1.570796 -0.000000 1.570796
 13 13.929802 0.000000 0.000000 0.000000 -0.000000 0.000000
 14 22.639145 -16.116180 0.000000 -1.570796 -1.570451 0.000000
 15 20.107773 0.000587 -0.000000 0.000000 0.000000 1.570796
 16 0.073432 -15.880157 -0.000000 -3.141592 0.000000 0.575263
 17 10.084557 0.778702 3.123569 -1.570796 -1.570451 0.000000
 18 12.086020 0.000000 0.000000 0.000000 0.000000 0.000000
 19 5.370699 0.000000 0.000001 -0.000000 0.000000 0.000000
 20 12.261209 0.000000 0.000001 -0.000000 0.000000 0.000000
 21 8.518942 0.000023 -0.000006 -0.000000 0.000001 -0.000000
 22 19.602606 0.000038 0.000000 -0.000000 0.000001 -0.000000
 23 10.084557 0.778702 -3.123570 1.570796 1.570451 0.000000
 24 12.086014 0.000000 0.000000 -0.000000 0.000000 0.000000
 25 5.370700 0.000000 0.000000 0.000000 0.000000 -0.000000
 26 12.261210 0.000000 -0.000001 0.000000 0.000001 -0.000000
 27 8.518951 0.000000 0.000006 0.000000 -0.000000 0.000000
 28 19.602608 0.000000 0.000000 0.000000 -0.000000 0.000000
 29 0.000000 0.000000 0.000000 0.000000 -0.000000 0.000000
end
triangles
LuigiEyelid_alb.png
 29 -4.347925 -13.576910 136.842957 0.281911 -0.959319 -0.015259 0.756024 0.595605 1 15 1.000000
 29 -4.154209 -13.280918 136.482697 0.414497 -0.799432 -0.434857 0.780026 0.585702 1 15 1.000000
 29 -2.524206 -13.054489 137.623108 0.191874 -0.980352 -0.045775 0.728328 0.497963 1 15 1.000000
LuigiEyelid_alb.png
 29 -4.461096 -13.382187 137.259674 0.015640 -0.987448 -0.157168 0.732326 0.599588 1 15 1.000000
 29 -4.347925 -13.576910 136.842957 0.281911 -0.959319 -0.015259 0.756024 0.595605 1 15 1.000000
 29 -2.524206 -13.054489 137.623108 0.191874 -0.980352 -0.045775 0.728328 0.497963 1 15 1.000000
LuigiEyelid_alb.png
 29 -5.949415 -13.485100 136.516373 -0.125263 -0.970826 -0.204465 0.767865 0.675380 1 15 1.000000
 29 -4.461096 -13.382187 137.259674 0.015640 -0.987448 -0.157168 0.732326 0.599588 1 15 1.000000
 29 -5.924938 -13.147333 137.108673 -0.154500 -0.970587 -0.184638 0.733104 0.675990 1 15 1.000000
LuigiEyelid_alb.png
 29 -5.949415 -13.485100 136.516373 -0.125263 -0.970826 -0.204465 0.767865 0.675380 1 15 1.000000
 29 -4.347925 -13.576910 136.842957 -0.033380 -0.968777 -0.245675 0.756024 0.595605 1 15 1.000000
 29 -4.461096 -13.382187 137.259674 0.015640 -0.987448 -0.157168 0.732326 0.599588 1 15 1.000000
LuigiEyelid_alb.png
 29 -7.682102 -12.806696 137.123474 -0.342840 -0.922568 -0.176999 0.733639 0.768261 1 15 1.000000
 29 -5.949415 -13.485100 136.516373 -0.125263 -0.970826 -0.204465 0.767865 0.675380 1 15 1.000000
 29 -5.924938 -13.147333 137.108673 -0.154500 -0.970587 -0.184638 0.733104 0.675990 1 15 1.000000
LuigiEyelid_alb.png
 29 -5.847807 -12.966135 136.015167 -0.058752 -0.735928 -0.674506 0.804776 0.673426 1 15 1.000000
 29 -4.154209 -13.280918 136.482697 0.070573 -0.736341 -0.672921 0.780026 0.585702 1 15 1.000000
 29 -4.347925 -13.576910 136.842957 -0.033380 -0.968777 -0.245675 0.756024 0.595605 1 15 1.000000
LuigiEyelid_alb.png
 29 -5.949415 -13.485100 136.516373 -0.125263 -0.970826 -0.204465 0.767865 0.675380 1 15 1.000000
 29 -5.847807 -12.966135 136.015167 -0.058752 -0.735928 -0.674506 0.804776 0.673426 1 15 1.000000
 29 -4.347925 -13.576910 136.842957 -0.033380 -0.968777 -0.245675 0.756024 0.595605 1 15 1.000000
LuigiEyelid_alb.png
 29 -7.771339 -12.667620 136.029999 -0.295840 -0.701356 -0.648521 0.801526 0.773449 1 15 1.000000
 29 -5.847807 -12.966135 136.015167 -0.058752 -0.735928 -0.674506 0.804776 0.673426 1 15 1.000000
 29 -5.949415 -13.485100 136.516373 -0.125263 -0.970826 -0.204465 0.767865 0.675380 1 15 1.000000
LuigiEyelid_alb.png
 29 -7.875948 -13.067698 136.571564 -0.338370 -0.925081 -0.172427 0.766430 0.771298 1 15 1.000000
 29 -5.949415 -13.485100 136.516373 -0.125263 -0.970826 -0.204465 0.767865 0.675380 1 15 1.000000
 29 -7.682102 -12.806696 137.123474 -0.342840 -0.922568 -0.176999 0.733639 0.768261 1 15 1.000000
LuigiEyelid_alb.png
 29 -7.875948 -13.067698 136.571564 -0.338370 -0.925081 -0.172427 0.766430 0.771298 1 15 1.000000
 29 -7.771339 -12.667620 136.029999 -0.295840 -0.701356 -0.648521 0.801526 0.773449 1 15 1.000000
 29 -5.949415 -13.485100 136.516373 -0.125263 -0.970826 -0.204465 0.767865 0.675380 1 15 1.000000
LuigiEyelid_alb.png
 29 -9.139894 -12.318867 136.887939 -0.594902 -0.792503 -0.134277 0.756329 0.844068 1 15 1.000000
 29 -7.875948 -13.067698 136.571564 -0.338370 -0.925081 -0.172427 0.766430 0.771298 1 15 1.000000
 29 -7.682102 -12.806696 137.123474 -0.342840 -0.922568 -0.176999 0.733639 0.768261 1 15 1.000000
LuigiEyelid_alb.png
 29 -9.139894 -12.318867 136.887939 -0.594902 -0.792503 -0.134277 0.756329 0.844068 1 15 1.000000
 29 -7.771339 -12.667620 136.029999 -0.295840 -0.701356 -0.648521 0.801526 0.773449 1 15 1.000000
 29 -7.875948 -13.067698 136.571564 -0.338370 -0.925081 -0.172427 0.766430 0.771298 1 15 1.000000
LuigiEyelid_alb.png
 29 -9.139894 -12.318867 136.887939 -0.594902 -0.792503 -0.134277 0.756329 0.844068 1 15 1.000000
 29 -7.682102 -12.806696 137.123474 -0.342840 -0.922568 -0.176999 0.733639 0.768261 1 15 1.000000
 29 -8.963419 -12.188332 137.307465 -0.562826 -0.815344 -0.135795 0.732418 0.842130 1 15 1.000000
LuigiEyelid_alb.png
 29 -9.139894 -12.318867 136.887939 -0.594902 -0.792503 -0.134277 0.756329 0.844068 1 15 1.000000
 29 -9.122355 -11.951992 136.494125 -0.607946 -0.574759 -0.547771 0.782300 0.853086 1 15 1.000000
 29 -7.771339 -12.667620 136.029999 -0.295840 -0.701356 -0.648521 0.801526 0.773449 1 15 1.000000
LuigiEyelid_alb.png
 29 -10.356197 -11.156466 137.760757 -0.607970 -0.793841 -0.013733 0.725444 0.933135 1 15 1.000000
 29 -9.139894 -12.318867 136.887939 -0.594902 -0.792503 -0.134277 0.756329 0.844068 1 15 1.000000
 29 -8.963419 -12.188332 137.307465 -0.562826 -0.815344 -0.135795 0.732418 0.842130 1 15 1.000000
LuigiEyelid_alb.png
 29 -10.356197 -11.156466 137.760757 -0.607970 -0.793841 -0.013733 0.725444 0.933135 1 15 1.000000
 29 -9.122355 -11.951992 136.494125 -0.607946 -0.574759 -0.547771 0.782300 0.853086 1 15 1.000000
 29 -9.139894 -12.318867 136.887939 -0.594902 -0.792503 -0.134277 0.756329 0.844068 1 15 1.000000
LuigiEyelid_alb.png
 29 2.524206 -13.054493 137.623108 -0.191690 -0.980387 -0.045777 0.728328 0.497963 1 15 1.000000
 29 4.154209 -13.280920 136.482697 -0.414308 -0.799529 -0.434859 0.780026 0.585702 1 15 1.000000
 29 4.347925 -13.576912 136.842957 -0.281911 -0.959319 -0.015259 0.756024 0.595605 1 15 1.000000
LuigiEyelid_alb.png
 29 4.461096 -13.382189 137.259674 -0.015640 -0.987448 -0.157168 0.732326 0.599588 1 15 1.000000
 29 2.524206 -13.054493 137.623108 -0.191690 -0.980387 -0.045777 0.728328 0.497963 1 15 1.000000
 29 4.347925 -13.576912 136.842957 -0.281911 -0.959319 -0.015259 0.756024 0.595605 1 15 1.000000
LuigiEyelid_alb.png
 29 5.924937 -13.147335 137.108673 0.154593 -0.970573 -0.184635 0.733104 0.675990 1 15 1.000000
 29 4.461096 -13.382189 137.259674 -0.015640 -0.987448 -0.157168 0.732326 0.599588 1 15 1.000000
 29 5.949416 -13.485102 136.516373 0.125263 -0.970826 -0.204465 0.767865 0.675380 1 15 1.000000
LuigiEyelid_alb.png
 29 5.949416 -13.485102 136.516373 0.125263 -0.970826 -0.204465 0.767865 0.675380 1 15 1.000000
 29 4.461096 -13.382189 137.259674 -0.015640 -0.987448 -0.157168 0.732326 0.599588 1 15 1.000000
 29 4.347925 -13.576912 136.842957 0.033380 -0.968777 -0.245675 0.756024 0.595605 1 15 1.000000
LuigiEyelid_alb.png
 29 7.682102 -12.806698 137.123474 0.342840 -0.922568 -0.176999 0.733639 0.768261 1 15 1.000000
 29 5.924937 -13.147335 137.108673 0.154593 -0.970573 -0.184635 0.733104 0.675990 1 15 1.000000
 29 5.949416 -13.485102 136.516373 0.125263 -0.970826 -0.204465 0.767865 0.675380 1 15 1.000000
LuigiEyelid_alb.png
 29 5.847808 -12.966139 136.015167 0.058657 -0.735932 -0.674509 0.804776 0.673426 1 15 1.000000
 29 4.347925 -13.576912 136.842957 0.033380 -0.968777 -0.245675 0.756024 0.595605 1 15 1.000000
 29 4.154209 -13.280920 136.482697 -0.070383 -0.736351 -0.672930 0.780026 0.585702 1 15 1.000000
LuigiEyelid_alb.png
 29 5.949416 -13.485102 136.516373 0.125263 -0.970826 -0.204465 0.767865 0.675380 1 15 1.000000
 29 4.347925 -13.576912 136.842957 0.033380 -0.968777 -0.245675 0.756024 0.595605 1 15 1.000000
 29 5.847808 -12.966139 136.015167 0.058657 -0.735932 -0.674509 0.804776 0.673426 1 15 1.000000
LuigiEyelid_alb.png
 29 7.771339 -12.667622 136.029999 0.295840 -0.701356 -0.648521 0.801526 0.773449 1 15 1.000000
 29 5.949416 -13.485102 136.516373 0.125263 -0.970826 -0.204465 0.767865 0.675380 1 15 1.000000
 29 5.847808 -12.966139 136.015167 0.058657 -0.735932 -0.674509 0.804776 0.673426 1 15 1.000000
LuigiEyelid_alb.png
 29 7.682102 -12.806698 137.123474 0.342840 -0.922568 -0.176999 0.733639 0.768261 1 15 1.000000
 29 5.949416 -13.485102 136.516373 0.125263 -0.970826 -0.204465 0.767865 0.675380 1 15 1.000000
 29 7.875948 -13.067701 136.571564 0.338370 -0.925081 -0.172427 0.766430 0.771298 1 15 1.000000
LuigiEyelid_alb.png
 29 7.875948 -13.067701 136.571564 0.338370 -0.925081 -0.172427 0.766430 0.771298 1 15 1.000000
 29 5.949416 -13.485102 136.516373 0.125263 -0.970826 -0.204465 0.767865 0.675380 1 15 1.000000
 29 7.771339 -12.667622 136.029999 0.295840 -0.701356 -0.648521 0.801526 0.773449 1 15 1.000000
LuigiEyelid_alb.png
 29 9.139894 -12.318869 136.887939 0.594840 -0.792548 -0.134285 0.756329 0.844068 1 15 1.000000
 29 7.682102 -12.806698 137.123474 0.342840 -0.922568 -0.176999 0.733639 0.768261 1 15 1.000000
 29 7.875948 -13.067701 136.571564 0.338370 -0.925081 -0.172427 0.766430 0.771298 1 15 1.000000
LuigiEyelid_alb.png
 29 9.139894 -12.318869 136.887939 0.594840 -0.792548 -0.134285 0.756329 0.844068 1 15 1.000000
 29 7.875948 -13.067701 136.571564 0.338370 -0.925081 -0.172427 0.766430 0.771298 1 15 1.000000
 29 7.771339 -12.667622 136.029999 0.295840 -0.701356 -0.648521 0.801526 0.773449 1 15 1.000000
LuigiEyelid_alb.png
 29 8.963419 -12.188334 137.307465 0.562935 -0.815269 -0.135799 0.732418 0.842130 1 15 1.000000
 29 7.682102 -12.806698 137.123474 0.342840 -0.922568 -0.176999 0.733639 0.768261 1 15 1.000000
 29 9.139894 -12.318869 136.887939 0.594840 -0.792548 -0.134285 0.756329 0.844068 1 15 1.000000
LuigiEyelid_alb.png
 29 9.139894 -12.318869 136.887939 0.594840 -0.792548 -0.134285 0.756329 0.844068 1 15 1.000000
 29 7.771339 -12.667622 136.029999 0.295840 -0.701356 -0.648521 0.801526 0.773449 1 15 1.000000
 29 9.122354 -11.951994 136.494125 0.608701 -0.575419 -0.546238 0.782300 0.853086 1 15 1.000000
LuigiEyelid_alb.png
 29 10.356196 -11.156469 137.760757 0.608136 -0.793714 -0.013732 0.725444 0.933135 1 15 1.000000
 29 8.963419 -12.188334 137.307465 0.562935 -0.815269 -0.135799 0.732418 0.842130 1 15 1.000000
 29 9.139894 -12.318869 136.887939 0.594840 -0.792548 -0.134285 0.756329 0.844068 1 15 1.000000
LuigiEyelid_alb.png
 29 10.356196 -11.156469 137.760757 0.608136 -0.793714 -0.013732 0.725444 0.933135 1 15 1.000000
 29 9.139894 -12.318869 136.887939 0.594840 -0.792548 -0.134285 0.756329 0.844068 1 15 1.000000
 29 9.122354 -11.951994 136.494125 0.608701 -0.575419 -0.546238 0.782300 0.853086 1 15 1.000000
LuigiEyelid_alb.png
 29 -10.441151 -11.103468 139.223785 -0.768846 -0.633902 -0.083923 0.977005 0.128832 1 15 1.000000
 29 -10.356197 -11.156466 137.760757 -0.607970 -0.793841 -0.013733 0.964782 0.050477 1 15 1.000000
 29 -8.963419 -12.188332 137.307465 -0.562826 -0.815344 -0.135795 0.869596 0.030167 1 15 1.000000
LuigiEyelid_alb.png
 29 -9.335581 -12.619312 139.442078 -0.657786 -0.737899 -0.151070 0.880308 0.147250 1 15 1.000000
 29 -10.441151 -11.103468 139.223785 -0.768846 -0.633902 -0.083923 0.977005 0.128832 1 15 1.000000
 29 -8.963419 -12.188332 137.307465 -0.562826 -0.815344 -0.135795 0.869596 0.030167 1 15 1.000000
LuigiEyelid_alb.png
 29 -10.205042 -11.332687 141.292618 -0.818544 -0.567821 0.086976 0.965560 0.245792 1 15 1.000000
 29 -10.441151 -11.103468 139.223785 -0.768846 -0.633902 -0.083923 0.977005 0.128832 1 15 1.000000
 29 -9.335581 -12.619312 139.442078 -0.657786 -0.737899 -0.151070 0.880308 0.147250 1 15 1.000000
LuigiEyelid_alb.png
 29 -7.987425 -13.586843 139.340866 -0.383197 -0.901438 -0.201421 0.794385 0.145159 1 15 1.000000
 29 -9.335581 -12.619312 139.442078 -0.657786 -0.737899 -0.151070 0.880308 0.147250 1 15 1.000000
 29 -8.963419 -12.188332 137.307465 -0.562826 -0.815344 -0.135795 0.869596 0.030167 1 15 1.000000
LuigiEyelid_alb.png
 29 -7.987425 -13.586843 139.340866 -0.383197 -0.901438 -0.201421 0.794385 0.145159 1 15 1.000000
 29 -8.963419 -12.188332 137.307465 -0.562826 -0.815344 -0.135795 0.869596 0.030167 1 15 1.000000
 29 -7.682102 -12.806696 137.123474 -0.342840 -0.922568 -0.176999 0.790143 0.021683 1 15 1.000000
LuigiEyelid_alb.png
 29 -9.217535 -12.763256 141.395920 -0.684237 -0.721620 0.105282 0.874495 0.250660 1 15 1.000000
 29 -10.205042 -11.332687 141.292618 -0.818544 -0.567821 0.086976 0.965560 0.245792 1 15 1.000000
 29 -9.335581 -12.619312 139.442078 -0.657786 -0.737899 -0.151070 0.880308 0.147250 1 15 1.000000
LuigiEyelid_alb.png
 29 -9.217535 -12.763256 141.395920 -0.684237 -0.721620 0.105282 0.874495 0.250660 1 15 1.000000
 29 -9.335581 -12.619312 139.442078 -0.657786 -0.737899 -0.151070 0.880308 0.147250 1 15 1.000000
 29 -7.987425 -13.586843 139.340866 -0.383197 -0.901438 -0.201421 0.794385 0.145159 1 15 1.000000
LuigiEyelid_alb.png
 29 -9.521137 -11.669802 143.077301 -0.691546 -0.650345 0.314348 0.920958 0.346929 1 15 1.000000
 29 -10.205042 -11.332687 141.292618 -0.818544 -0.567821 0.086976 0.965560 0.245792 1 15 1.000000
 29 -9.217535 -12.763256 141.395920 -0.684237 -0.721620 0.105282 0.874495 0.250660 1 15 1.000000
LuigiEyelid_alb.png
 29 -6.007889 -14.017895 139.073700 -0.091936 -0.973245 -0.210576 0.689799 0.133822 1 15 1.000000
 29 -7.987425 -13.586843 139.340866 -0.383197 -0.901438 -0.201421 0.794385 0.145159 1 15 1.000000
 29 -7.682102 -12.806696 137.123474 -0.342840 -0.922568 -0.176999 0.790143 0.021683 1 15 1.000000
LuigiEyelid_alb.png
 29 -6.007889 -14.017895 139.073700 -0.091936 -0.973245 -0.210576 0.689799 0.133822 1 15 1.000000
 29 -7.682102 -12.806696 137.123474 -0.342840 -0.922568 -0.176999 0.790143 0.021683 1 15 1.000000
 29 -5.924938 -13.147333 137.108673 -0.154500 -0.970587 -0.184638 0.689464 0.022110 1 15 1.000000
LuigiEyelid_alb.png
 29 -6.007889 -14.017895 139.073700 -0.091936 -0.973245 -0.210576 0.689799 0.133822 1 15 1.000000
 29 -5.924938 -13.147333 137.108673 -0.154500 -0.970587 -0.184638 0.689464 0.022110 1 15 1.000000
 29 -4.461096 -13.382187 137.259674 0.015640 -0.987448 -0.157168 0.607599 0.035325 1 15 1.000000
LuigiEyelid_alb.png
 29 -7.799994 -13.233423 143.150467 -0.393800 -0.852064 0.344831 0.796597 0.344656 1 15 1.000000
 29 -9.521137 -11.669802 143.077301 -0.691546 -0.650345 0.314348 0.920958 0.346929 1 15 1.000000
 29 -9.217535 -12.763256 141.395920 -0.684237 -0.721620 0.105282 0.874495 0.250660 1 15 1.000000
LuigiEyelid_alb.png
 29 -7.959894 -12.317884 144.483826 -0.489042 -0.745293 0.453184 0.823407 0.424704 1 15 1.000000
 29 -9.521137 -11.669802 143.077301 -0.691546 -0.650345 0.314348 0.920958 0.346929 1 15 1.000000
 29 -7.799994 -13.233423 143.150467 -0.393800 -0.852064 0.344831 0.796597 0.344656 1 15 1.000000
LuigiEyelid_alb.png
 29 -7.959894 -12.317884 144.483826 -0.489042 -0.745293 0.453184 0.823407 0.424704 1 15 1.000000
 29 -7.799994 -13.233423 143.150467 -0.393800 -0.852064 0.344831 0.796597 0.344656 1 15 1.000000
 29 -6.573175 -12.734434 144.552063 -0.207369 -0.835962 0.508100 0.742031 0.431296 1 15 1.000000
LuigiEyelid_alb.png
 29 -7.799994 -13.233423 143.150467 -0.393800 -0.852064 0.344831 0.796597 0.344656 1 15 1.000000
 29 -9.217535 -12.763256 141.395920 -0.684237 -0.721620 0.105282 0.874495 0.250660 1 15 1.000000
 29 -7.919653 -13.736481 141.333038 -0.371535 -0.925404 0.074765 0.791257 0.247684 1 15 1.000000
LuigiEyelid_alb.png
 29 -7.919653 -13.736481 141.333038 -0.371535 -0.925404 0.074765 0.791257 0.247684 1 15 1.000000
 29 -9.217535 -12.763256 141.395920 -0.684237 -0.721620 0.105282 0.874495 0.250660 1 15 1.000000
 29 -7.987425 -13.586843 139.340866 -0.383197 -0.901438 -0.201421 0.794385 0.145159 1 15 1.000000
LuigiEyelid_alb.png
 29 -6.573175 -12.734434 144.552063 -0.207369 -0.835962 0.508100 0.742031 0.431296 1 15 1.000000
 29 -7.799994 -13.233423 143.150467 -0.393800 -0.852064 0.344831 0.796597 0.344656 1 15 1.000000
 29 -6.081667 -13.696821 143.098541 -0.086166 -0.947400 0.308234 0.702937 0.344442 1 15 1.000000
LuigiEyelid_alb.png
 29 -6.081667 -13.696821 143.098541 -0.086166 -0.947400 0.308234 0.702937 0.344442 1 15 1.000000
 29 -7.799994 -13.233423 143.150467 -0.393800 -0.852064 0.344831 0.796597 0.344656 1 15 1.000000
 29 -7.919653 -13.736481 141.333038 -0.371535 -0.925404 0.074765 0.791257 0.247684 1 15 1.000000
LuigiEyelid_alb.png
 29 -6.573175 -12.734434 144.552063 -0.207369 -0.835962 0.508100 0.742031 0.431296 1 15 1.000000
 29 -6.081667 -13.696821 143.098541 -0.086166 -0.947400 0.308234 0.702937 0.344442 1 15 1.000000
 29 -5.431942 -13.002113 144.404785 0.005722 -0.884274 0.466933 0.676127 0.423987 1 15 1.000000
LuigiEyelid_alb.png
 29 -5.431942 -13.002113 144.404785 0.005722 -0.884274 0.466933 0.676127 0.423987 1 15 1.000000
 29 -6.081667 -13.696821 143.098541 -0.086166 -0.947400 0.308234 0.702937 0.344442 1 15 1.000000
 29 -4.350157 -13.099491 143.869583 0.168517 -0.886073 0.431830 0.613428 0.398169 1 15 1.000000
LuigiEyelid_alb.png
 29 -6.074808 -14.178513 141.227722 -0.068285 -0.995193 0.070193 0.695186 0.244862 1 15 1.000000
 29 -7.919653 -13.736481 141.333038 -0.371535 -0.925404 0.074765 0.791257 0.247684 1 15 1.000000
 29 -7.987425 -13.586843 139.340866 -0.383197 -0.901438 -0.201421 0.794385 0.145159 1 15 1.000000
LuigiEyelid_alb.png
 29 -6.081667 -13.696821 143.098541 -0.086166 -0.947400 0.308234 0.702937 0.344442 1 15 1.000000
 29 -7.919653 -13.736481 141.333038 -0.371535 -0.925404 0.074765 0.791257 0.247684 1 15 1.000000
 29 -6.074808 -14.178513 141.227722 -0.068285 -0.995193 0.070193 0.695186 0.244862 1 15 1.000000
LuigiEyelid_alb.png
 29 -6.074808 -14.178513 141.227722 -0.068285 -0.995193 0.070193 0.695186 0.244862 1 15 1.000000
 29 -7.987425 -13.586843 139.340866 -0.383197 -0.901438 -0.201421 0.794385 0.145159 1 15 1.000000
 29 -6.007889 -14.017895 139.073700 -0.091936 -0.973245 -0.210576 0.689799 0.133822 1 15 1.000000
LuigiEyelid_alb.png
 29 -4.350157 -13.099491 143.869583 0.168517 -0.886073 0.431830 0.613428 0.398169 1 15 1.000000
 29 -6.081667 -13.696821 143.098541 -0.086166 -0.947400 0.308234 0.702937 0.344442 1 15 1.000000
 29 -4.464281 -13.663160 142.806961 0.170324 -0.947654 0.270077 0.616876 0.334401 1 15 1.000000
LuigiEyelid_alb.png
 29 -6.081667 -13.696821 143.098541 -0.086166 -0.947400 0.308234 0.702937 0.344442 1 15 1.000000
 29 -6.074808 -14.178513 141.227722 -0.068285 -0.995193 0.070193 0.695186 0.244862 1 15 1.000000
 29 -4.464281 -13.663160 142.806961 0.170324 -0.947654 0.270077 0.616876 0.334401 1 15 1.000000
LuigiEyelid_alb.png
 29 -4.350157 -13.099491 143.869583 0.168517 -0.886073 0.431830 0.613428 0.398169 1 15 1.000000
 29 -4.464281 -13.663160 142.806961 0.170324 -0.947654 0.270077 0.616876 0.334401 1 15 1.000000
 29 -3.536440 -13.152618 143.038879 0.454140 -0.855064 0.250244 0.563729 0.355383 1 15 1.000000
LuigiEyelid_alb.png
 29 -4.464281 -13.663160 142.806961 0.170324 -0.947654 0.270077 0.616876 0.334401 1 15 1.000000
 29 -6.074808 -14.178513 141.227722 -0.068285 -0.995193 0.070193 0.695186 0.244862 1 15 1.000000
 29 -4.163662 -13.971323 141.036560 0.260359 -0.964566 0.042725 0.596674 0.239689 1 15 1.000000
LuigiEyelid_alb.png
 29 -4.464281 -13.663160 142.806961 0.170324 -0.947654 0.270077 0.616876 0.334401 1 15 1.000000
 29 -4.163662 -13.971323 141.036560 0.260359 -0.964566 0.042725 0.596674 0.239689 1 15 1.000000
 29 -3.536440 -13.152618 143.038879 0.454140 -0.855064 0.250244 0.563729 0.355383 1 15 1.000000
LuigiEyelid_alb.png
 29 -6.074808 -14.178513 141.227722 -0.068285 -0.995193 0.070193 0.695186 0.244862 1 15 1.000000
 29 -6.007889 -14.017895 139.073700 -0.091936 -0.973245 -0.210576 0.689799 0.133822 1 15 1.000000
 29 -4.163662 -13.971323 141.036560 0.260359 -0.964566 0.042725 0.596674 0.239689 1 15 1.000000
LuigiEyelid_alb.png
 29 -3.536440 -13.152618 143.038879 0.454140 -0.855064 0.250244 0.563729 0.355383 1 15 1.000000
 29 -4.163662 -13.971323 141.036560 0.260359 -0.964566 0.042725 0.596674 0.239689 1 15 1.000000
 29 -2.814758 -13.165512 140.898132 0.469597 -0.882353 0.030518 0.513954 0.237018 1 15 1.000000
LuigiEyelid_alb.png
 29 -4.163662 -13.971323 141.036560 0.260359 -0.964566 0.042725 0.596674 0.239689 1 15 1.000000
 29 -6.007889 -14.017895 139.073700 -0.091936 -0.973245 -0.210576 0.689799 0.133822 1 15 1.000000
 29 -4.128826 -13.802822 138.785950 0.228931 -0.962358 -0.146485 0.591836 0.120577 1 15 1.000000
LuigiEyelid_alb.png
 29 -4.163662 -13.971323 141.036560 0.260359 -0.964566 0.042725 0.596674 0.239689 1 15 1.000000
 29 -4.128826 -13.802822 138.785950 0.228931 -0.962358 -0.146485 0.591836 0.120577 1 15 1.000000
 29 -2.814758 -13.165512 140.898132 0.469597 -0.882353 0.030518 0.513954 0.237018 1 15 1.000000
LuigiEyelid_alb.png
 29 -6.007889 -14.017895 139.073700 -0.091936 -0.973245 -0.210576 0.689799 0.133822 1 15 1.000000
 29 -4.461096 -13.382187 137.259674 0.015640 -0.987448 -0.157168 0.607599 0.035325 1 15 1.000000
 29 -4.128826 -13.802822 138.785950 0.228931 -0.962358 -0.146485 0.591836 0.120577 1 15 1.000000
LuigiEyelid_alb.png
 29 -2.814758 -13.165512 140.898132 0.469597 -0.882353 0.030518 0.513954 0.237018 1 15 1.000000
 29 -4.128826 -13.802822 138.785950 0.228931 -0.962358 -0.146485 0.591836 0.120577 1 15 1.000000
 29 -2.518166 -13.090134 138.373398 0.403264 -0.912388 -0.070191 0.500404 0.096696 1 15 1.000000
LuigiEyelid_alb.png
 29 -4.128826 -13.802822 138.785950 0.228931 -0.962358 -0.146485 0.591836 0.120577 1 15 1.000000
 29 -4.461096 -13.382187 137.259674 0.015640 -0.987448 -0.157168 0.607599 0.035325 1 15 1.000000
 29 -2.518166 -13.090134 138.373398 0.403264 -0.912388 -0.070191 0.500404 0.096696 1 15 1.000000
LuigiEyelid_alb.png
 29 -2.518166 -13.090134 138.373398 0.403264 -0.912388 -0.070191 0.500404 0.096696 1 15 1.000000
 29 -4.461096 -13.382187 137.259674 0.015640 -0.987448 -0.157168 0.607599 0.035325 1 15 1.000000
 29 -2.524206 -13.054489 137.623108 0.191874 -0.980351 -0.045775 0.501289 0.056626 1 15 1.000000
LuigiEyelid_alb.png
 29 10.441151 -11.103470 139.223785 0.768761 -0.634006 -0.083924 0.977005 0.128832 1 15 1.000000
 29 8.963419 -12.188334 137.307465 0.562935 -0.815269 -0.135799 0.869596 0.030167 1 15 1.000000
 29 10.356196 -11.156469 137.760757 0.608136 -0.793714 -0.013732 0.964782 0.050477 1 15 1.000000
LuigiEyelid_alb.png
 29 9.335582 -12.619314 139.442078 0.657740 -0.737943 -0.151060 0.880308 0.147250 1 15 1.000000
 29 8.963419 -12.188334 137.307465 0.562935 -0.815269 -0.135799 0.869596 0.030167 1 15 1.000000
 29 10.441151 -11.103470 139.223785 0.768761 -0.634006 -0.083924 0.977005 0.128832 1 15 1.000000
LuigiEyelid_alb.png
 29 10.205042 -11.332687 141.292618 0.818468 -0.567930 0.086978 0.965560 0.245792 1 15 1.000000
 29 9.335582 -12.619314 139.442078 0.657740 -0.737943 -0.151060 0.880308 0.147250 1 15 1.000000
 29 10.441151 -11.103470 139.223785 0.768761 -0.634006 -0.083924 0.977005 0.128832 1 15 1.000000
LuigiEyelid_alb.png
 29 7.987424 -13.586847 139.340866 0.383278 -0.901405 -0.201414 0.794385 0.145159 1 15 1.000000
 29 8.963419 -12.188334 137.307465 0.562935 -0.815269 -0.135799 0.869596 0.030167 1 15 1.000000
 29 9.335582 -12.619314 139.442078 0.657740 -0.737943 -0.151060 0.880308 0.147250 1 15 1.000000
LuigiEyelid_alb.png
 29 7.987424 -13.586847 139.340866 0.383278 -0.901405 -0.201414 0.794385 0.145159 1 15 1.000000
 29 7.682102 -12.806698 137.123474 0.342840 -0.922568 -0.176999 0.790143 0.021683 1 15 1.000000
 29 8.963419 -12.188334 137.307465 0.562935 -0.815269 -0.135799 0.869596 0.030167 1 15 1.000000
LuigiEyelid_alb.png
 29 9.217535 -12.763260 141.395920 0.684335 -0.721527 0.105282 0.874495 0.250660 1 15 1.000000
 29 9.335582 -12.619314 139.442078 0.657740 -0.737943 -0.151060 0.880308 0.147250 1 15 1.000000
 29 10.205042 -11.332687 141.292618 0.818468 -0.567930 0.086978 0.965560 0.245792 1 15 1.000000
LuigiEyelid_alb.png
 29 9.217535 -12.763260 141.395920 0.684335 -0.721527 0.105282 0.874495 0.250660 1 15 1.000000
 29 7.987424 -13.586847 139.340866 0.383278 -0.901405 -0.201414 0.794385 0.145159 1 15 1.000000
 29 9.335582 -12.619314 139.442078 0.657740 -0.737943 -0.151060 0.880308 0.147250 1 15 1.000000
LuigiEyelid_alb.png
 29 9.521138 -11.669804 143.077301 0.691503 -0.650400 0.314328 0.920958 0.346929 1 15 1.000000
 29 9.217535 -12.763260 141.395920 0.684335 -0.721527 0.105282 0.874495 0.250660 1 15 1.000000
 29 10.205042 -11.332687 141.292618 0.818468 -0.567930 0.086978 0.965560 0.245792 1 15 1.000000
LuigiEyelid_alb.png
 29 7.987424 -13.586847 139.340866 0.383278 -0.901405 -0.201414 0.794385 0.145159 1 15 1.000000
 29 6.007889 -14.017897 139.073700 0.092031 -0.973236 -0.210574 0.689799 0.133822 1 15 1.000000
 29 7.682102 -12.806698 137.123474 0.342840 -0.922568 -0.176999 0.790143 0.021683 1 15 1.000000
LuigiEyelid_alb.png
 29 6.007889 -14.017897 139.073700 0.092031 -0.973236 -0.210574 0.689799 0.133822 1 15 1.000000
 29 5.924937 -13.147335 137.108673 0.154593 -0.970573 -0.184635 0.689464 0.022110 1 15 1.000000
 29 7.682102 -12.806698 137.123474 0.342840 -0.922568 -0.176999 0.790143 0.021683 1 15 1.000000
LuigiEyelid_alb.png
 29 6.007889 -14.017897 139.073700 0.092031 -0.973236 -0.210574 0.689799 0.133822 1 15 1.000000
 29 4.461096 -13.382189 137.259674 -0.015640 -0.987448 -0.157168 0.607599 0.035325 1 15 1.000000
 29 5.924937 -13.147335 137.108673 0.154593 -0.970573 -0.184635 0.689464 0.022110 1 15 1.000000
LuigiEyelid_alb.png
 29 7.799994 -13.233425 143.150467 0.393719 -0.852096 0.344844 0.796597 0.344656 1 15 1.000000
 29 9.217535 -12.763260 141.395920 0.684335 -0.721527 0.105282 0.874495 0.250660 1 15 1.000000
 29 9.521138 -11.669804 143.077301 0.691503 -0.650400 0.314328 0.920958 0.346929 1 15 1.000000
LuigiEyelid_alb.png
 29 7.959894 -12.317886 144.483826 0.489042 -0.745293 0.453184 0.823407 0.424704 1 15 1.000000
 29 7.799994 -13.233425 143.150467 0.393719 -0.852096 0.344844 0.796597 0.344656 1 15 1.000000
 29 9.521138 -11.669804 143.077301 0.691503 -0.650400 0.314328 0.920958 0.346929 1 15 1.000000
LuigiEyelid_alb.png
 29 7.959894 -12.317886 144.483826 0.489042 -0.745293 0.453184 0.823407 0.424704 1 15 1.000000
 29 6.573175 -12.734436 144.552063 0.207614 -0.835892 0.508115 0.742031 0.431296 1 15 1.000000
 29 7.799994 -13.233425 143.150467 0.393719 -0.852096 0.344844 0.796597 0.344656 1 15 1.000000
LuigiEyelid_alb.png
 29 7.799994 -13.233425 143.150467 0.393719 -0.852096 0.344844 0.796597 0.344656 1 15 1.000000
 29 7.919653 -13.736485 141.333038 0.371691 -0.925341 0.074767 0.791257 0.247684 1 15 1.000000
 29 9.217535 -12.763260 141.395920 0.684335 -0.721527 0.105282 0.874495 0.250660 1 15 1.000000
LuigiEyelid_alb.png
 29 7.919653 -13.736485 141.333038 0.371691 -0.925341 0.074767 0.791257 0.247684 1 15 1.000000
 29 7.987424 -13.586847 139.340866 0.383278 -0.901405 -0.201414 0.794385 0.145159 1 15 1.000000
 29 9.217535 -12.763260 141.395920 0.684335 -0.721527 0.105282 0.874495 0.250660 1 15 1.000000
LuigiEyelid_alb.png
 29 6.573175 -12.734436 144.552063 0.207614 -0.835892 0.508115 0.742031 0.431296 1 15 1.000000
 29 6.081667 -13.696825 143.098541 0.086166 -0.947400 0.308234 0.702937 0.344442 1 15 1.000000
 29 7.799994 -13.233425 143.150467 0.393719 -0.852096 0.344844 0.796597 0.344656 1 15 1.000000
LuigiEyelid_alb.png
 29 7.799994 -13.233425 143.150467 0.393719 -0.852096 0.344844 0.796597 0.344656 1 15 1.000000
 29 6.081667 -13.696825 143.098541 0.086166 -0.947400 0.308234 0.702937 0.344442 1 15 1.000000
 29 7.919653 -13.736485 141.333038 0.371691 -0.925341 0.074767 0.791257 0.247684 1 15 1.000000
LuigiEyelid_alb.png
 29 6.573175 -12.734436 144.552063 0.207614 -0.835892 0.508115 0.742031 0.431296 1 15 1.000000
 29 5.431943 -13.002115 144.404785 -0.005818 -0.884274 0.466933 0.676127 0.423987 1 15 1.000000
 29 6.081667 -13.696825 143.098541 0.086166 -0.947400 0.308234 0.702937 0.344442 1 15 1.000000
LuigiEyelid_alb.png
 29 5.431943 -13.002115 144.404785 -0.005818 -0.884274 0.466933 0.676127 0.423987 1 15 1.000000
 29 4.350157 -13.099493 143.869583 -0.168517 -0.886073 0.431830 0.613428 0.398169 1 15 1.000000
 29 6.081667 -13.696825 143.098541 0.086166 -0.947400 0.308234 0.702937 0.344442 1 15 1.000000
LuigiEyelid_alb.png
 29 7.919653 -13.736485 141.333038 0.371691 -0.925341 0.074767 0.791257 0.247684 1 15 1.000000
 29 6.074807 -14.178516 141.227722 0.068380 -0.995187 0.070192 0.695186 0.244862 1 15 1.000000
 29 7.987424 -13.586847 139.340866 0.383278 -0.901405 -0.201414 0.794385 0.145159 1 15 1.000000
LuigiEyelid_alb.png
 29 6.081667 -13.696825 143.098541 0.086166 -0.947400 0.308234 0.702937 0.344442 1 15 1.000000
 29 6.074807 -14.178516 141.227722 0.068380 -0.995187 0.070192 0.695186 0.244862 1 15 1.000000
 29 7.919653 -13.736485 141.333038 0.371691 -0.925341 0.074767 0.791257 0.247684 1 15 1.000000
LuigiEyelid_alb.png
 29 6.074807 -14.178516 141.227722 0.068380 -0.995187 0.070192 0.695186 0.244862 1 15 1.000000
 29 6.007889 -14.017897 139.073700 0.092031 -0.973236 -0.210574 0.689799 0.133822 1 15 1.000000
 29 7.987424 -13.586847 139.340866 0.383278 -0.901405 -0.201414 0.794385 0.145159 1 15 1.000000
LuigiEyelid_alb.png
 29 6.081667 -13.696825 143.098541 0.086166 -0.947400 0.308234 0.702937 0.344442 1 15 1.000000
 29 4.350157 -13.099493 143.869583 -0.168517 -0.886073 0.431830 0.613428 0.398169 1 15 1.000000
 29 4.464281 -13.663162 142.806961 -0.170324 -0.947654 0.270077 0.616876 0.334401 1 15 1.000000
LuigiEyelid_alb.png
 29 6.081667 -13.696825 143.098541 0.086166 -0.947400 0.308234 0.702937 0.344442 1 15 1.000000
 29 4.464281 -13.663162 142.806961 -0.170324 -0.947654 0.270077 0.616876 0.334401 1 15 1.000000
 29 6.074807 -14.178516 141.227722 0.068380 -0.995187 0.070192 0.695186 0.244862 1 15 1.000000
LuigiEyelid_alb.png
 29 4.350157 -13.099493 143.869583 -0.168517 -0.886073 0.431830 0.613428 0.398169 1 15 1.000000
 29 3.536440 -13.152620 143.038879 -0.454102 -0.855083 0.250250 0.563729 0.355383 1 15 1.000000
 29 4.464281 -13.663162 142.806961 -0.170324 -0.947654 0.270077 0.616876 0.334401 1 15 1.000000
LuigiEyelid_alb.png
 29 4.464281 -13.663162 142.806961 -0.170324 -0.947654 0.270077 0.616876 0.334401 1 15 1.000000
 29 4.163662 -13.971325 141.036560 -0.260157 -0.964621 0.042724 0.596674 0.239689 1 15 1.000000
 29 6.074807 -14.178516 141.227722 0.068380 -0.995187 0.070192 0.695186 0.244862 1 15 1.000000
LuigiEyelid_alb.png
 29 4.464281 -13.663162 142.806961 -0.170324 -0.947654 0.270077 0.616876 0.334401 1 15 1.000000
 29 3.536440 -13.152620 143.038879 -0.454102 -0.855083 0.250250 0.563729 0.355383 1 15 1.000000
 29 4.163662 -13.971325 141.036560 -0.260157 -0.964621 0.042724 0.596674 0.239689 1 15 1.000000
LuigiEyelid_alb.png
 29 6.074807 -14.178516 141.227722 0.068380 -0.995187 0.070192 0.695186 0.244862 1 15 1.000000
 29 4.163662 -13.971325 141.036560 -0.260157 -0.964621 0.042724 0.596674 0.239689 1 15 1.000000
 29 6.007889 -14.017897 139.073700 0.092031 -0.973236 -0.210574 0.689799 0.133822 1 15 1.000000
LuigiEyelid_alb.png
 29 3.536440 -13.152620 143.038879 -0.454102 -0.855083 0.250250 0.563729 0.355383 1 15 1.000000
 29 2.814758 -13.165514 140.898132 -0.469597 -0.882353 0.030518 0.513954 0.237018 1 15 1.000000
 29 4.163662 -13.971325 141.036560 -0.260157 -0.964621 0.042724 0.596674 0.239689 1 15 1.000000
LuigiEyelid_alb.png
 29 4.163662 -13.971325 141.036560 -0.260157 -0.964621 0.042724 0.596674 0.239689 1 15 1.000000
 29 4.128826 -13.802824 138.785950 -0.228931 -0.962358 -0.146485 0.591836 0.120577 1 15 1.000000
 29 6.007889 -14.017897 139.073700 0.092031 -0.973236 -0.210574 0.689799 0.133822 1 15 1.000000
LuigiEyelid_alb.png
 29 4.163662 -13.971325 141.036560 -0.260157 -0.964621 0.042724 0.596674 0.239689 1 15 1.000000
 29 2.814758 -13.165514 140.898132 -0.469597 -0.882353 0.030518 0.513954 0.237018 1 15 1.000000
 29 4.128826 -13.802824 138.785950 -0.228931 -0.962358 -0.146485 0.591836 0.120577 1 15 1.000000
LuigiEyelid_alb.png
 29 6.007889 -14.017897 139.073700 0.092031 -0.973236 -0.210574 0.689799 0.133822 1 15 1.000000
 29 4.128826 -13.802824 138.785950 -0.228931 -0.962358 -0.146485 0.591836 0.120577 1 15 1.000000
 29 4.461096 -13.382189 137.259674 -0.015640 -0.987448 -0.157168 0.607599 0.035325 1 15 1.000000
LuigiEyelid_alb.png
 29 2.814758 -13.165514 140.898132 -0.469597 -0.882353 0.030518 0.513954 0.237018 1 15 1.000000
 29 2.518167 -13.090136 138.373398 -0.403324 -0.912361 -0.070189 0.500404 0.096696 1 15 1.000000
 29 4.128826 -13.802824 138.785950 -0.228931 -0.962358 -0.146485 0.591836 0.120577 1 15 1.000000
LuigiEyelid_alb.png
 29 4.128826 -13.802824 138.785950 -0.228931 -0.962358 -0.146485 0.591836 0.120577 1 15 1.000000
 29 2.518167 -13.090136 138.373398 -0.403324 -0.912361 -0.070189 0.500404 0.096696 1 15 1.000000
 29 4.461096 -13.382189 137.259674 -0.015640 -0.987448 -0.157168 0.607599 0.035325 1 15 1.000000
LuigiEyelid_alb.png
 29 4.461096 -13.382189 137.259674 -0.015640 -0.987448 -0.157168 0.607599 0.035325 1 15 1.000000
 29 2.518167 -13.090136 138.373398 -0.403324 -0.912361 -0.070189 0.500404 0.096696 1 15 1.000000
 29 2.524206 -13.054493 137.623108 -0.191690 -0.980387 -0.045777 0.501289 0.056626 1 15 1.000000
end
