version 1
nodes
  0 "nw4f_root"  -1
  1 "AllRoot"   0
  2 "JointRoot"   1
  3 "Hip"   2
  4 "LegL1"   3
  5 "LegL2"   4
  6 "FootL"   5
  7 "ToeL"   6
  8 "LegR1"   3
  9 "LegR2"   8
 10 "FootR"   9
 11 "ToeR"  10
 12 "Spine1"   2
 13 "Spine2"  12
 14 "Bag"  13
 15 "Head"  13
 16 "JoeUnder"  15
 17 "ShoulderL"  13
 18 "ArmL1"  17
 19 "ArmL1Sub"  18
 20 "ArmL2"  18
 21 "ArmL2Sub"  20
 22 "HandL"  20
 23 "ShoulderR"  13
 24 "ArmR1"  23
 25 "ArmR1Sub"  24
 26 "ArmR2"  24
 27 "ArmR2Sub"  26
 28 "HandR"  26
 29 "LuigiUnused_Eyebrow2"  -1
end
skeleton
time 0
  0 0.000000 0.000000 0.000000 1.570796 -0.000000 0.000000
  1 0.000000 0.000000 0.000000 0.000000 -0.000000 0.000000
  2 0.000000 68.028503 -3.990591 0.000000 -0.000000 0.000000
  3 0.000000 -2.000000 0.000001 -1.570796 -3.141592 1.570796
  4 4.029991 2.576941 -10.147688 0.000000 -0.000000 0.000000
  5 26.211063 0.000204 -0.000088 0.000000 -0.000000 0.000000
  6 22.942825 0.000005 0.000004 0.000000 0.000000 1.134464
  7 12.169998 0.000008 0.000000 -0.000000 0.000000 0.436332
  8 4.029991 2.576937 10.147690 0.000000 -0.000000 0.000000
  9 26.211067 0.000200 0.000096 0.000000 -0.000000 0.000000
 10 22.942818 0.000005 0.000004 0.000000 0.000000 1.134464
 11 12.170002 0.000010 0.000000 -0.000000 0.000000 0.436332
 12 0.000000 4.277161 -0.000000 1.570796 -0.000000 1.570796
 13 13.929802 0.000000 0.000000 0.000000 -0.000000 0.000000
 14 22.639145 -16.116180 0.000000 -1.570796 -1.570451 0.000000
 15 20.107773 0.000587 -0.000000 0.000000 0.000000 1.570796
 16 0.073432 -15.880157 -0.000000 -3.141592 0.000000 0.575263
 17 10.084557 0.778702 3.123569 -1.570796 -1.570451 0.000000
 18 12.086020 0.000000 0.000000 0.000000 0.000000 0.000000
 19 5.370699 0.000000 0.000001 -0.000000 0.000000 0.000000
 20 12.261209 0.000000 0.000001 -0.000000 0.000000 0.000000
 21 8.518942 0.000023 -0.000006 -0.000000 0.000001 -0.000000
 22 19.602606 0.000038 0.000000 -0.000000 0.000001 -0.000000
 23 10.084557 0.778702 -3.123570 1.570796 1.570451 0.000000
 24 12.086014 0.000000 0.000000 -0.000000 0.000000 0.000000
 25 5.370700 0.000000 0.000000 0.000000 0.000000 -0.000000
 26 12.261210 0.000000 -0.000001 0.000000 0.000001 -0.000000
 27 8.518951 0.000000 0.000006 0.000000 -0.000000 0.000000
 28 19.602608 0.000000 0.000000 0.000000 -0.000000 0.000000
 29 0.000000 0.000000 0.000000 0.000000 -0.000000 0.000000
end
triangles
LuigiHair_alb.png
 29 -11.780452 -11.020943 147.474762 -0.764283 -0.483041 0.427251 0.196063 0.269886 1 15 1.000000
 29 -11.201202 -11.477346 147.339661 0.005913 -0.729798 0.683637 0.199878 0.265095 1 15 1.000000
 29 -11.099733 -11.231148 147.472473 0.351754 -0.553137 0.755188 0.197955 0.263096 1 15 1.000000
LuigiHair_alb.png
 29 -11.780452 -11.020943 147.474762 -0.764283 -0.483041 0.427251 0.196063 0.269886 1 15 1.000000
 29 -11.213761 -10.990044 146.259979 -0.899472 0.318611 -0.299061 0.201801 0.271122 1 15 1.000000
 29 -11.206125 -11.425819 146.533997 -0.956130 0.127026 -0.263970 0.201953 0.271122 1 15 1.000000
LuigiHair_alb.png
 29 -11.780452 -11.020943 147.474762 -0.764283 -0.483041 0.427251 0.196063 0.269886 1 15 1.000000
 29 -11.206125 -11.425819 146.533997 -0.956130 0.127026 -0.263970 0.201953 0.271122 1 15 1.000000
 29 -11.219989 -11.586884 147.070953 -0.814924 -0.556094 0.163271 0.202167 0.267353 1 15 1.000000
LuigiHair_alb.png
 29 -11.780452 -11.020943 147.474762 -0.764283 -0.483041 0.427251 0.196063 0.269886 1 15 1.000000
 29 -11.219989 -11.586884 147.070953 -0.814924 -0.556094 0.163271 0.202167 0.267353 1 15 1.000000
 29 -11.201202 -11.477346 147.339661 0.005913 -0.729798 0.683637 0.199878 0.265095 1 15 1.000000
LuigiHair_alb.png
 29 -2.213600 -13.743828 151.029785 0.618314 -0.086205 0.781189 0.339269 0.316442 1 15 1.000000
 29 -2.161133 -13.914141 150.547913 0.541879 -0.815965 0.201416 0.332433 0.307942 1 15 1.000000
 29 -2.057808 -13.751299 150.467346 0.941118 0.317004 0.117494 0.330556 0.311910 1 15 1.000000
LuigiHair_alb.png
 29 -2.213600 -13.743828 151.029785 0.618314 -0.086205 0.781189 0.339269 0.316442 1 15 1.000000
 29 -2.460297 -13.896336 150.609467 -0.048806 -0.940157 0.337228 0.335286 0.305501 1 15 1.000000
 29 -2.161133 -13.914141 150.547913 0.541879 -0.815965 0.201416 0.332433 0.307942 1 15 1.000000
LuigiHair_alb.png
 29 -2.213600 -13.743828 151.029785 0.618314 -0.086205 0.781189 0.339269 0.316442 1 15 1.000000
 29 -2.560972 -13.798927 150.723068 -0.730127 -0.264166 0.630183 0.338613 0.304234 1 15 1.000000
 29 -2.460297 -13.896336 150.609467 -0.048806 -0.940157 0.337228 0.335286 0.305501 1 15 1.000000
LuigiHair_alb.png
 29 -2.213600 -13.743828 151.029785 0.618314 -0.086205 0.781189 0.339269 0.316442 1 15 1.000000
 29 -2.516230 -13.651299 150.702133 -0.786744 0.256351 0.561531 0.342901 0.305425 1 15 1.000000
 29 -2.560972 -13.798927 150.723068 -0.730127 -0.264166 0.630183 0.338613 0.304234 1 15 1.000000
LuigiHair_alb.png
 29 11.099734 -11.231148 147.472473 -0.352558 -0.554306 0.753955 0.197955 0.263096 1 15 1.000000
 29 11.201201 -11.477346 147.339661 -0.005818 -0.729798 0.683638 0.199878 0.265095 1 15 1.000000
 29 11.780453 -11.020943 147.474747 0.764877 -0.483437 0.425737 0.196063 0.269886 1 15 1.000000
LuigiHair_alb.png
 29 11.206126 -11.425819 146.533966 0.956535 0.127125 -0.262451 0.201953 0.271122 1 15 1.000000
 29 11.213764 -10.990044 146.259949 0.899372 0.318895 -0.299059 0.201801 0.271122 1 15 1.000000
 29 11.780453 -11.020943 147.474747 0.764877 -0.483437 0.425737 0.196063 0.269886 1 15 1.000000
LuigiHair_alb.png
 29 11.219988 -11.586880 147.070938 0.814688 -0.556444 0.163262 0.202167 0.267353 1 15 1.000000
 29 11.206126 -11.425819 146.533966 0.956535 0.127125 -0.262451 0.201953 0.271122 1 15 1.000000
 29 11.780453 -11.020943 147.474747 0.764877 -0.483437 0.425737 0.196063 0.269886 1 15 1.000000
LuigiHair_alb.png
 29 11.201201 -11.477346 147.339661 -0.005818 -0.729798 0.683638 0.199878 0.265095 1 15 1.000000
 29 11.219988 -11.586880 147.070938 0.814688 -0.556444 0.163262 0.202167 0.267353 1 15 1.000000
 29 11.780453 -11.020943 147.474747 0.764877 -0.483437 0.425737 0.196063 0.269886 1 15 1.000000
LuigiHair_alb.png
 29 2.057810 -13.751297 150.467331 -0.941118 0.317004 0.117494 0.330556 0.311910 1 15 1.000000
 29 2.161133 -13.914141 150.547913 -0.541879 -0.815965 0.201416 0.332433 0.307942 1 15 1.000000
 29 2.213600 -13.743830 151.029770 -0.618594 -0.086181 0.780970 0.339269 0.316442 1 15 1.000000
LuigiHair_alb.png
 29 2.161133 -13.914141 150.547913 -0.541879 -0.815965 0.201416 0.332433 0.307942 1 15 1.000000
 29 2.460295 -13.896336 150.609451 0.048901 -0.940153 0.337227 0.335286 0.305501 1 15 1.000000
 29 2.213600 -13.743830 151.029770 -0.618594 -0.086181 0.780970 0.339269 0.316442 1 15 1.000000
LuigiHair_alb.png
 29 2.460295 -13.896336 150.609451 0.048901 -0.940153 0.337227 0.335286 0.305501 1 15 1.000000
 29 2.560973 -13.798923 150.723068 0.730116 -0.264170 0.630194 0.338613 0.304234 1 15 1.000000
 29 2.213600 -13.743830 151.029770 -0.618594 -0.086181 0.780970 0.339269 0.316442 1 15 1.000000
LuigiHair_alb.png
 29 2.560973 -13.798923 150.723068 0.730116 -0.264170 0.630194 0.338613 0.304234 1 15 1.000000
 29 2.516230 -13.651299 150.702118 0.786744 0.256351 0.561531 0.342901 0.305425 1 15 1.000000
 29 2.213600 -13.743830 151.029770 -0.618594 -0.086181 0.780970 0.339269 0.316442 1 15 1.000000
LuigiHair_alb.png
 29 -10.641184 -12.190063 146.596985 -0.736171 -0.673607 0.065615 0.207843 0.264652 1 15 1.000000
 29 -11.219989 -11.586884 147.070953 -0.814924 -0.556094 0.163271 0.202167 0.267353 1 15 1.000000
 29 -10.506516 -11.919641 145.712524 -0.886352 -0.058556 -0.459293 0.208988 0.268132 1 15 1.000000
LuigiHair_alb.png
 29 -11.219989 -11.586884 147.070953 -0.814924 -0.556094 0.163271 0.202167 0.267353 1 15 1.000000
 29 -11.206125 -11.425819 146.533997 -0.956130 0.127026 -0.263970 0.201953 0.271122 1 15 1.000000
 29 -10.506516 -11.919641 145.712524 -0.886352 -0.058556 -0.459293 0.208988 0.268132 1 15 1.000000
LuigiHair_alb.png
 29 -9.732922 -12.936758 146.201279 -0.604526 -0.796211 0.024414 0.225452 0.255970 1 15 1.000000
 29 -10.641184 -12.190063 146.596985 -0.736171 -0.673607 0.065615 0.207843 0.264652 1 15 1.000000
 29 -9.531954 -12.644312 145.061035 -0.703656 -0.306961 -0.640814 0.225498 0.265644 1 15 1.000000
LuigiHair_alb.png
 29 -10.641184 -12.190063 146.596985 -0.736171 -0.673607 0.065615 0.207843 0.264652 1 15 1.000000
 29 -10.506516 -11.919641 145.712524 -0.886352 -0.058556 -0.459293 0.208988 0.268132 1 15 1.000000
 29 -9.531954 -12.644312 145.061035 -0.703656 -0.306961 -0.640814 0.225498 0.265644 1 15 1.000000
LuigiHair_alb.png
 29 -11.099733 -11.231148 147.472473 0.351754 -0.553137 0.755188 0.197955 0.263096 1 15 1.000000
 29 -11.201202 -11.477346 147.339661 0.005913 -0.729798 0.683637 0.199878 0.265095 1 15 1.000000
 29 -10.369114 -11.529589 147.426193 0.210988 -0.443617 0.871027 0.202106 0.255817 1 15 1.000000
LuigiHair_alb.png
 29 -11.201202 -11.477346 147.339661 0.005913 -0.729798 0.683637 0.199878 0.265095 1 15 1.000000
 29 -10.537305 -11.971535 147.222565 -0.172020 -0.729367 0.662142 0.205203 0.259556 1 15 1.000000
 29 -10.369114 -11.529589 147.426193 0.210988 -0.443617 0.871027 0.202106 0.255817 1 15 1.000000
LuigiHair_alb.png
 29 -11.206125 -11.425819 146.533997 -0.956130 0.127026 -0.263970 0.201953 0.271122 1 15 1.000000
 29 -11.213761 -10.990044 146.259979 -0.899472 0.318611 -0.299061 0.201801 0.271122 1 15 1.000000
 29 -10.506516 -11.919641 145.712524 -0.886352 -0.058556 -0.459293 0.208988 0.268132 1 15 1.000000
LuigiHair_alb.png
 29 -11.213761 -10.990044 146.259979 -0.899472 0.318611 -0.299061 0.201801 0.271122 1 15 1.000000
 29 -10.329480 -11.263863 145.089966 -0.797016 0.240716 -0.553915 0.208255 0.271580 1 15 1.000000
 29 -10.506516 -11.919641 145.712524 -0.886352 -0.058556 -0.459293 0.208988 0.268132 1 15 1.000000
LuigiHair_alb.png
 29 -11.201202 -11.477346 147.339661 0.005913 -0.729798 0.683637 0.199878 0.265095 1 15 1.000000
 29 -11.219989 -11.586884 147.070953 -0.814924 -0.556094 0.163271 0.202167 0.267353 1 15 1.000000
 29 -10.537305 -11.971535 147.222565 -0.172020 -0.729367 0.662142 0.205203 0.259556 1 15 1.000000
LuigiHair_alb.png
 29 -11.219989 -11.586884 147.070953 -0.814924 -0.556094 0.163271 0.202167 0.267353 1 15 1.000000
 29 -10.641184 -12.190063 146.596985 -0.736171 -0.673607 0.065615 0.207843 0.264652 1 15 1.000000
 29 -10.537305 -11.971535 147.222565 -0.172020 -0.729367 0.662142 0.205203 0.259556 1 15 1.000000
LuigiHair_alb.png
 29 -10.506516 -11.919641 145.712524 -0.886352 -0.058556 -0.459293 0.208988 0.268132 1 15 1.000000
 29 -10.329480 -11.263863 145.089966 -0.797016 0.240716 -0.553915 0.208255 0.271580 1 15 1.000000
 29 -9.531954 -12.644312 145.061035 -0.703656 -0.306961 -0.640814 0.225498 0.265644 1 15 1.000000
LuigiHair_alb.png
 29 -10.329480 -11.263863 145.089966 -0.797016 0.240716 -0.553915 0.208255 0.271580 1 15 1.000000
 29 -9.124481 -11.703787 144.696930 -0.593817 0.088047 -0.799768 0.224765 0.272023 1 15 1.000000
 29 -9.531954 -12.644312 145.061035 -0.703656 -0.306961 -0.640814 0.225498 0.265644 1 15 1.000000
LuigiHair_alb.png
 29 -10.537305 -11.971535 147.222565 -0.172020 -0.729367 0.662142 0.205203 0.259556 1 15 1.000000
 29 -10.641184 -12.190063 146.596985 -0.736171 -0.673607 0.065615 0.207843 0.264652 1 15 1.000000
 29 -9.699049 -12.514105 147.172256 -0.274089 -0.744446 0.608832 0.223758 0.246204 1 15 1.000000
LuigiHair_alb.png
 29 -10.641184 -12.190063 146.596985 -0.736171 -0.673607 0.065615 0.207843 0.264652 1 15 1.000000
 29 -9.732922 -12.936758 146.201279 -0.604526 -0.796211 0.024414 0.225452 0.255970 1 15 1.000000
 29 -9.699049 -12.514105 147.172256 -0.274089 -0.744446 0.608832 0.223758 0.246204 1 15 1.000000
LuigiHair_alb.png
 29 -10.369114 -11.529589 147.426193 0.210988 -0.443617 0.871027 0.202106 0.255817 1 15 1.000000
 29 -10.537305 -11.971535 147.222565 -0.172020 -0.729367 0.662142 0.205203 0.259556 1 15 1.000000
 29 -9.539555 -11.880817 147.409668 0.013727 -0.406295 0.913639 0.219440 0.237491 1 15 1.000000
LuigiHair_alb.png
 29 -10.537305 -11.971535 147.222565 -0.172020 -0.729367 0.662142 0.205203 0.259556 1 15 1.000000
 29 -9.699049 -12.514105 147.172256 -0.274089 -0.744446 0.608832 0.223758 0.246204 1 15 1.000000
 29 -9.539555 -11.880817 147.409668 0.013727 -0.406295 0.913639 0.219440 0.237491 1 15 1.000000
LuigiHair_alb.png
 29 -9.531954 -12.644312 145.061035 -0.703656 -0.306961 -0.640814 0.225498 0.265644 1 15 1.000000
 29 -9.124481 -11.703787 144.696930 -0.593817 0.088047 -0.799768 0.224765 0.272023 1 15 1.000000
 29 -8.115520 -13.390379 144.760864 -0.350365 -0.555969 -0.753753 0.246479 0.265721 1 15 1.000000
LuigiHair_alb.png
 29 -9.124481 -11.703787 144.696930 -0.593817 0.088047 -0.799768 0.224765 0.272023 1 15 1.000000
 29 -7.602135 -12.273252 144.582306 -0.173988 -0.150440 -0.973189 0.246509 0.275563 1 15 1.000000
 29 -8.115520 -13.390379 144.760864 -0.350365 -0.555969 -0.753753 0.246479 0.265721 1 15 1.000000
LuigiHair_alb.png
 29 -9.732922 -12.936758 146.201279 -0.604526 -0.796211 0.024414 0.225452 0.255970 1 15 1.000000
 29 -9.531954 -12.644312 145.061035 -0.703656 -0.306961 -0.640814 0.225498 0.265644 1 15 1.000000
 29 -8.366806 -13.644556 146.055817 -0.432294 -0.901686 -0.009155 0.247791 0.251469 1 15 1.000000
LuigiHair_alb.png
 29 -9.531954 -12.644312 145.061035 -0.703656 -0.306961 -0.640814 0.225498 0.265644 1 15 1.000000
 29 -8.115520 -13.390379 144.760864 -0.350365 -0.555969 -0.753753 0.246479 0.265721 1 15 1.000000
 29 -8.366806 -13.644556 146.055817 -0.432294 -0.901686 -0.009155 0.247791 0.251469 1 15 1.000000
LuigiHair_alb.png
 29 -9.699049 -12.514105 147.172256 -0.274089 -0.744446 0.608832 0.223758 0.246204 1 15 1.000000
 29 -9.732922 -12.936758 146.201279 -0.604526 -0.796211 0.024414 0.225452 0.255970 1 15 1.000000
 29 -8.410728 -13.080404 147.417847 -0.334246 -0.768052 0.546238 0.247990 0.237736 1 15 1.000000
LuigiHair_alb.png
 29 -9.732922 -12.936758 146.201279 -0.604526 -0.796211 0.024414 0.225452 0.255970 1 15 1.000000
 29 -8.366806 -13.644556 146.055817 -0.432294 -0.901686 -0.009155 0.247791 0.251469 1 15 1.000000
 29 -8.410728 -13.080404 147.417847 -0.334246 -0.768052 0.546238 0.247990 0.237736 1 15 1.000000
LuigiHair_alb.png
 29 -9.539555 -11.880817 147.409668 0.013727 -0.406295 0.913639 0.219440 0.237491 1 15 1.000000
 29 -9.699049 -12.514105 147.172256 -0.274089 -0.744446 0.608832 0.223758 0.246204 1 15 1.000000
 29 -8.256451 -12.312841 147.629303 -0.195429 -0.396768 0.896874 0.244602 0.223331 1 15 1.000000
LuigiHair_alb.png
 29 -9.699049 -12.514105 147.172256 -0.274089 -0.744446 0.608832 0.223758 0.246204 1 15 1.000000
 29 -8.410728 -13.080404 147.417847 -0.334246 -0.768052 0.546238 0.247990 0.237736 1 15 1.000000
 29 -8.256451 -12.312841 147.629303 -0.195429 -0.396768 0.896874 0.244602 0.223331 1 15 1.000000
LuigiHair_alb.png
 29 -8.115520 -13.390379 144.760864 -0.350365 -0.555969 -0.753753 0.246479 0.265721 1 15 1.000000
 29 -7.602135 -12.273252 144.582306 -0.173988 -0.150440 -0.973189 0.246509 0.275563 1 15 1.000000
 29 -6.042906 -13.996841 145.148621 0.138941 -0.729414 -0.669814 0.269551 0.269871 1 15 1.000000
LuigiHair_alb.png
 29 -7.602135 -12.273252 144.582306 -0.173988 -0.150440 -0.973189 0.246509 0.275563 1 15 1.000000
 29 -5.646845 -12.773811 144.976929 0.348470 -0.317043 -0.882073 0.267048 0.281727 1 15 1.000000
 29 -6.042906 -13.996841 145.148621 0.138941 -0.729414 -0.669814 0.269551 0.269871 1 15 1.000000
LuigiHair_alb.png
 29 -8.366806 -13.644556 146.055817 -0.432294 -0.901686 -0.009155 0.247791 0.251469 1 15 1.000000
 29 -8.115520 -13.390379 144.760864 -0.350365 -0.555969 -0.753753 0.246479 0.265721 1 15 1.000000
 29 -6.582804 -14.169609 146.410202 -0.246426 -0.968349 0.039672 0.273762 0.250736 1 15 1.000000
LuigiHair_alb.png
 29 -8.115520 -13.390379 144.760864 -0.350365 -0.555969 -0.753753 0.246479 0.265721 1 15 1.000000
 29 -6.042906 -13.996841 145.148621 0.138941 -0.729414 -0.669814 0.269551 0.269871 1 15 1.000000
 29 -6.582804 -14.169609 146.410202 -0.246426 -0.968349 0.039672 0.273762 0.250736 1 15 1.000000
LuigiHair_alb.png
 29 -8.256451 -12.312841 147.629303 -0.195429 -0.396768 0.896874 0.244602 0.223331 1 15 1.000000
 29 -8.410728 -13.080404 147.417847 -0.334246 -0.768052 0.546238 0.247990 0.237736 1 15 1.000000
 29 -6.848305 -12.703543 148.061386 -0.358628 -0.364686 0.859296 0.278798 0.218448 1 15 1.000000
LuigiHair_alb.png
 29 -8.410728 -13.080404 147.417847 -0.334246 -0.768052 0.546238 0.247990 0.237736 1 15 1.000000
 29 -6.927948 -13.534815 147.852280 -0.370466 -0.766300 0.524918 0.276783 0.234791 1 15 1.000000
 29 -6.848305 -12.703543 148.061386 -0.358628 -0.364686 0.859296 0.278798 0.218448 1 15 1.000000
LuigiHair_alb.png
 29 -8.410728 -13.080404 147.417847 -0.334246 -0.768052 0.546238 0.247990 0.237736 1 15 1.000000
 29 -8.366806 -13.644556 146.055817 -0.432294 -0.901686 -0.009155 0.247791 0.251469 1 15 1.000000
 29 -6.927948 -13.534815 147.852280 -0.370466 -0.766300 0.524918 0.276783 0.234791 1 15 1.000000
LuigiHair_alb.png
 29 -8.366806 -13.644556 146.055817 -0.432294 -0.901686 -0.009155 0.247791 0.251469 1 15 1.000000
 29 -6.582804 -14.169609 146.410202 -0.246426 -0.968349 0.039672 0.273762 0.250736 1 15 1.000000
 29 -6.927948 -13.534815 147.852280 -0.370466 -0.766300 0.524918 0.276783 0.234791 1 15 1.000000
LuigiHair_alb.png
 29 -3.925001 -13.952168 149.463425 -0.453653 -0.684474 0.570697 0.325154 0.266300 1 15 1.000000
 29 -3.931580 -13.437109 149.576218 -0.633612 -0.192213 0.749393 0.336370 0.259129 1 15 1.000000
 29 -5.320189 -13.868828 148.572327 -0.399262 -0.747405 0.531014 0.303578 0.243961 1 15 1.000000
LuigiHair_alb.png
 29 -3.931580 -13.437109 149.576218 -0.633612 -0.192213 0.749393 0.336370 0.259129 1 15 1.000000
 29 -5.412821 -13.116379 148.711212 -0.492959 -0.301144 0.816274 0.310246 0.229526 1 15 1.000000
 29 -5.320189 -13.868828 148.572327 -0.399262 -0.747405 0.531014 0.303578 0.243961 1 15 1.000000
LuigiHair_alb.png
 29 -3.925001 -13.952168 149.463425 -0.453653 -0.684474 0.570697 0.325154 0.266300 1 15 1.000000
 29 -5.320189 -13.868828 148.572327 -0.399262 -0.747405 0.531014 0.303578 0.243961 1 15 1.000000
 29 -3.449724 -14.297649 148.909836 -0.013733 -0.980948 0.193786 0.317815 0.277882 1 15 1.000000
LuigiHair_alb.png
 29 -5.320189 -13.868828 148.572327 -0.399262 -0.747405 0.531014 0.303578 0.243961 1 15 1.000000
 29 -4.763481 -14.378338 147.527390 -0.113488 -0.986199 0.120545 0.297490 0.259541 1 15 1.000000
 29 -3.449724 -14.297649 148.909836 -0.013733 -0.980948 0.193786 0.317815 0.277882 1 15 1.000000
LuigiHair_alb.png
 29 -4.763481 -14.378338 147.527390 -0.113488 -0.986199 0.120545 0.297490 0.259541 1 15 1.000000
 29 -2.823133 -14.218758 148.157089 0.592722 -0.772653 -0.227352 0.311467 0.289464 1 15 1.000000
 29 -3.449724 -14.297649 148.909836 -0.013733 -0.980948 0.193786 0.317815 0.277882 1 15 1.000000
LuigiHair_alb.png
 29 -4.763481 -14.378338 147.527390 -0.113488 -0.986199 0.120545 0.297490 0.259541 1 15 1.000000
 29 -4.075342 -14.309303 146.385529 0.440552 -0.773148 -0.456240 0.290532 0.277455 1 15 1.000000
 29 -2.823133 -14.218758 148.157089 0.592722 -0.772653 -0.227352 0.311467 0.289464 1 15 1.000000
LuigiHair_alb.png
 29 -2.823133 -14.218758 148.157089 0.592722 -0.772653 -0.227352 0.311467 0.289464 1 15 1.000000
 29 -4.075342 -14.309303 146.385529 0.440552 -0.773148 -0.456240 0.290532 0.277455 1 15 1.000000
 29 -2.555103 -13.540077 147.973877 0.906994 0.000000 -0.421144 0.307652 0.297230 1 15 1.000000
LuigiHair_alb.png
 29 -4.075342 -14.309303 146.385529 0.440552 -0.773148 -0.456240 0.290532 0.277455 1 15 1.000000
 29 -3.744953 -13.230677 146.206024 0.677699 -0.334868 -0.654666 0.287007 0.287800 1 15 1.000000
 29 -2.555103 -13.540077 147.973877 0.906994 0.000000 -0.421144 0.307652 0.297230 1 15 1.000000
LuigiHair_alb.png
 29 -6.848305 -12.703543 148.061386 -0.358628 -0.364686 0.859296 0.278798 0.218448 1 15 1.000000
 29 -6.927948 -13.534815 147.852280 -0.370466 -0.766300 0.524918 0.276783 0.234791 1 15 1.000000
 29 -5.412821 -13.116379 148.711212 -0.492959 -0.301144 0.816274 0.310246 0.229526 1 15 1.000000
LuigiHair_alb.png
 29 -6.927948 -13.534815 147.852280 -0.370466 -0.766300 0.524918 0.276783 0.234791 1 15 1.000000
 29 -5.320189 -13.868828 148.572327 -0.399262 -0.747405 0.531014 0.303578 0.243961 1 15 1.000000
 29 -5.412821 -13.116379 148.711212 -0.492959 -0.301144 0.816274 0.310246 0.229526 1 15 1.000000
LuigiHair_alb.png
 29 -6.582804 -14.169609 146.410202 -0.246426 -0.968349 0.039672 0.273762 0.250736 1 15 1.000000
 29 -6.042906 -13.996841 145.148621 0.138941 -0.729414 -0.669814 0.269551 0.269871 1 15 1.000000
 29 -4.075342 -14.309303 146.385529 0.440552 -0.773148 -0.456240 0.290532 0.277455 1 15 1.000000
LuigiHair_alb.png
 29 -4.763481 -14.378338 147.527390 -0.113488 -0.986199 0.120545 0.297490 0.259541 1 15 1.000000
 29 -6.582804 -14.169609 146.410202 -0.246426 -0.968349 0.039672 0.273762 0.250736 1 15 1.000000
 29 -4.075342 -14.309303 146.385529 0.440552 -0.773148 -0.456240 0.290532 0.277455 1 15 1.000000
LuigiHair_alb.png
 29 -5.320189 -13.868828 148.572327 -0.399262 -0.747405 0.531014 0.303578 0.243961 1 15 1.000000
 29 -6.927948 -13.534815 147.852280 -0.370466 -0.766300 0.524918 0.276783 0.234791 1 15 1.000000
 29 -4.763481 -14.378338 147.527390 -0.113488 -0.986199 0.120545 0.297490 0.259541 1 15 1.000000
LuigiHair_alb.png
 29 -6.927948 -13.534815 147.852280 -0.370466 -0.766300 0.524918 0.276783 0.234791 1 15 1.000000
 29 -6.582804 -14.169609 146.410202 -0.246426 -0.968349 0.039672 0.273762 0.250736 1 15 1.000000
 29 -4.763481 -14.378338 147.527390 -0.113488 -0.986199 0.120545 0.297490 0.259541 1 15 1.000000
LuigiHair_alb.png
 29 -6.042906 -13.996841 145.148621 0.138941 -0.729414 -0.669814 0.269551 0.269871 1 15 1.000000
 29 -5.646845 -12.773811 144.976929 0.348470 -0.317043 -0.882073 0.267048 0.281727 1 15 1.000000
 29 -4.075342 -14.309303 146.385529 0.440552 -0.773148 -0.456240 0.290532 0.277455 1 15 1.000000
LuigiHair_alb.png
 29 -5.646845 -12.773811 144.976929 0.348470 -0.317043 -0.882073 0.267048 0.281727 1 15 1.000000
 29 -3.744953 -13.230677 146.206024 0.677699 -0.334868 -0.654666 0.287007 0.287800 1 15 1.000000
 29 -4.075342 -14.309303 146.385529 0.440552 -0.773148 -0.456240 0.290532 0.277455 1 15 1.000000
LuigiHair_alb.png
 29 10.641184 -12.190065 146.596985 0.736240 -0.673679 0.064087 0.207843 0.264652 1 15 1.000000
 29 10.506516 -11.919641 145.712509 0.886352 -0.058556 -0.459293 0.208988 0.268132 1 15 1.000000
 29 11.219988 -11.586880 147.070938 0.814688 -0.556444 0.163262 0.202167 0.267353 1 15 1.000000
LuigiHair_alb.png
 29 10.506516 -11.919641 145.712509 0.886352 -0.058556 -0.459293 0.208988 0.268132 1 15 1.000000
 29 11.206126 -11.425819 146.533966 0.956535 0.127125 -0.262451 0.201953 0.271122 1 15 1.000000
 29 11.219988 -11.586880 147.070938 0.814688 -0.556444 0.163262 0.202167 0.267353 1 15 1.000000
LuigiHair_alb.png
 29 9.732924 -12.936758 146.201279 0.604502 -0.796275 0.022887 0.225452 0.255970 1 15 1.000000
 29 9.531955 -12.644310 145.061020 0.704721 -0.307487 -0.639390 0.225498 0.265644 1 15 1.000000
 29 10.641184 -12.190065 146.596985 0.736240 -0.673679 0.064087 0.207843 0.264652 1 15 1.000000
LuigiHair_alb.png
 29 9.531955 -12.644310 145.061020 0.704721 -0.307487 -0.639390 0.225498 0.265644 1 15 1.000000
 29 10.506516 -11.919641 145.712509 0.886352 -0.058556 -0.459293 0.208988 0.268132 1 15 1.000000
 29 10.641184 -12.190065 146.596985 0.736240 -0.673679 0.064087 0.207843 0.264652 1 15 1.000000
LuigiHair_alb.png
 29 11.099734 -11.231148 147.472473 -0.352558 -0.554306 0.753955 0.197955 0.263096 1 15 1.000000
 29 10.369116 -11.529591 147.426193 -0.211088 -0.443532 0.871046 0.202106 0.255817 1 15 1.000000
 29 11.201201 -11.477346 147.339661 -0.005818 -0.729798 0.683638 0.199878 0.265095 1 15 1.000000
LuigiHair_alb.png
 29 10.369116 -11.529591 147.426193 -0.211088 -0.443532 0.871046 0.202106 0.255817 1 15 1.000000
 29 10.537307 -11.971535 147.222549 0.172339 -0.730558 0.660745 0.205203 0.259556 1 15 1.000000
 29 11.201201 -11.477346 147.339661 -0.005818 -0.729798 0.683638 0.199878 0.265095 1 15 1.000000
LuigiHair_alb.png
 29 11.206126 -11.425819 146.533966 0.956535 0.127125 -0.262451 0.201953 0.271122 1 15 1.000000
 29 10.506516 -11.919641 145.712509 0.886352 -0.058556 -0.459293 0.208988 0.268132 1 15 1.000000
 29 11.213764 -10.990044 146.259949 0.899372 0.318895 -0.299059 0.201801 0.271122 1 15 1.000000
LuigiHair_alb.png
 29 10.506516 -11.919641 145.712509 0.886352 -0.058556 -0.459293 0.208988 0.268132 1 15 1.000000
 29 10.329479 -11.263863 145.089951 0.797016 0.240716 -0.553915 0.208255 0.271580 1 15 1.000000
 29 11.213764 -10.990044 146.259949 0.899372 0.318895 -0.299059 0.201801 0.271122 1 15 1.000000
LuigiHair_alb.png
 29 11.201201 -11.477346 147.339661 -0.005818 -0.729798 0.683638 0.199878 0.265095 1 15 1.000000
 29 10.537307 -11.971535 147.222549 0.172339 -0.730558 0.660745 0.205203 0.259556 1 15 1.000000
 29 11.219988 -11.586880 147.070938 0.814688 -0.556444 0.163262 0.202167 0.267353 1 15 1.000000
LuigiHair_alb.png
 29 10.537307 -11.971535 147.222549 0.172339 -0.730558 0.660745 0.205203 0.259556 1 15 1.000000
 29 10.641184 -12.190065 146.596985 0.736240 -0.673679 0.064087 0.207843 0.264652 1 15 1.000000
 29 11.219988 -11.586880 147.070938 0.814688 -0.556444 0.163262 0.202167 0.267353 1 15 1.000000
LuigiHair_alb.png
 29 9.124484 -11.703785 144.696915 0.592289 0.088004 -0.800905 0.224765 0.272023 1 15 1.000000
 29 10.329479 -11.263863 145.089951 0.797016 0.240716 -0.553915 0.208255 0.271580 1 15 1.000000
 29 9.531955 -12.644310 145.061020 0.704721 -0.307487 -0.639390 0.225498 0.265644 1 15 1.000000
LuigiHair_alb.png
 29 10.329479 -11.263863 145.089951 0.797016 0.240716 -0.553915 0.208255 0.271580 1 15 1.000000
 29 10.506516 -11.919641 145.712509 0.886352 -0.058556 -0.459293 0.208988 0.268132 1 15 1.000000
 29 9.531955 -12.644310 145.061020 0.704721 -0.307487 -0.639390 0.225498 0.265644 1 15 1.000000
LuigiHair_alb.png
 29 9.732924 -12.936758 146.201279 0.604502 -0.796275 0.022887 0.225452 0.255970 1 15 1.000000
 29 10.641184 -12.190065 146.596985 0.736240 -0.673679 0.064087 0.207843 0.264652 1 15 1.000000
 29 9.699049 -12.514105 147.172241 0.273871 -0.743324 0.610298 0.223758 0.246204 1 15 1.000000
LuigiHair_alb.png
 29 10.641184 -12.190065 146.596985 0.736240 -0.673679 0.064087 0.207843 0.264652 1 15 1.000000
 29 10.537307 -11.971535 147.222549 0.172339 -0.730558 0.660745 0.205203 0.259556 1 15 1.000000
 29 9.699049 -12.514105 147.172241 0.273871 -0.743324 0.610298 0.223758 0.246204 1 15 1.000000
LuigiHair_alb.png
 29 9.699049 -12.514105 147.172241 0.273871 -0.743324 0.610298 0.223758 0.246204 1 15 1.000000
 29 10.537307 -11.971535 147.222549 0.172339 -0.730558 0.660745 0.205203 0.259556 1 15 1.000000
 29 9.539554 -11.880817 147.409653 -0.013727 -0.406295 0.913639 0.219440 0.237491 1 15 1.000000
LuigiHair_alb.png
 29 10.537307 -11.971535 147.222549 0.172339 -0.730558 0.660745 0.205203 0.259556 1 15 1.000000
 29 10.369116 -11.529591 147.426193 -0.211088 -0.443532 0.871046 0.202106 0.255817 1 15 1.000000
 29 9.539554 -11.880817 147.409653 -0.013727 -0.406295 0.913639 0.219440 0.237491 1 15 1.000000
LuigiHair_alb.png
 29 7.602137 -12.273254 144.582275 0.174173 -0.150435 -0.973156 0.246509 0.275563 1 15 1.000000
 29 9.124484 -11.703785 144.696915 0.592289 0.088004 -0.800905 0.224765 0.272023 1 15 1.000000
 29 8.115522 -13.390379 144.760849 0.350272 -0.555742 -0.753963 0.246479 0.265721 1 15 1.000000
LuigiHair_alb.png
 29 9.124484 -11.703785 144.696915 0.592289 0.088004 -0.800905 0.224765 0.272023 1 15 1.000000
 29 9.531955 -12.644310 145.061020 0.704721 -0.307487 -0.639390 0.225498 0.265644 1 15 1.000000
 29 8.115522 -13.390379 144.760849 0.350272 -0.555742 -0.753963 0.246479 0.265721 1 15 1.000000
LuigiHair_alb.png
 29 8.115522 -13.390379 144.760849 0.350272 -0.555742 -0.753963 0.246479 0.265721 1 15 1.000000
 29 9.531955 -12.644310 145.061020 0.704721 -0.307487 -0.639390 0.225498 0.265644 1 15 1.000000
 29 8.366806 -13.644556 146.055801 0.432300 -0.901698 -0.007629 0.247791 0.251469 1 15 1.000000
LuigiHair_alb.png
 29 9.531955 -12.644310 145.061020 0.704721 -0.307487 -0.639390 0.225498 0.265644 1 15 1.000000
 29 9.732924 -12.936758 146.201279 0.604502 -0.796275 0.022887 0.225452 0.255970 1 15 1.000000
 29 8.366806 -13.644556 146.055801 0.432300 -0.901698 -0.007629 0.247791 0.251469 1 15 1.000000
LuigiHair_alb.png
 29 8.366806 -13.644556 146.055801 0.432300 -0.901698 -0.007629 0.247791 0.251469 1 15 1.000000
 29 9.732924 -12.936758 146.201279 0.604502 -0.796275 0.022887 0.225452 0.255970 1 15 1.000000
 29 8.410727 -13.080406 147.417847 0.334246 -0.768052 0.546238 0.247990 0.237736 1 15 1.000000
LuigiHair_alb.png
 29 9.732924 -12.936758 146.201279 0.604502 -0.796275 0.022887 0.225452 0.255970 1 15 1.000000
 29 9.699049 -12.514105 147.172241 0.273871 -0.743324 0.610298 0.223758 0.246204 1 15 1.000000
 29 8.410727 -13.080406 147.417847 0.334246 -0.768052 0.546238 0.247990 0.237736 1 15 1.000000
LuigiHair_alb.png
 29 8.410727 -13.080406 147.417847 0.334246 -0.768052 0.546238 0.247990 0.237736 1 15 1.000000
 29 9.699049 -12.514105 147.172241 0.273871 -0.743324 0.610298 0.223758 0.246204 1 15 1.000000
 29 8.256454 -12.312841 147.629288 0.196173 -0.398070 0.896134 0.244602 0.223331 1 15 1.000000
LuigiHair_alb.png
 29 9.699049 -12.514105 147.172241 0.273871 -0.743324 0.610298 0.223758 0.246204 1 15 1.000000
 29 9.539554 -11.880817 147.409653 -0.013727 -0.406295 0.913639 0.219440 0.237491 1 15 1.000000
 29 8.256454 -12.312841 147.629288 0.196173 -0.398070 0.896134 0.244602 0.223331 1 15 1.000000
LuigiHair_alb.png
 29 5.646846 -12.773809 144.976913 -0.348690 -0.317268 -0.881905 0.267048 0.281727 1 15 1.000000
 29 7.602137 -12.273254 144.582275 0.174173 -0.150435 -0.973156 0.246509 0.275563 1 15 1.000000
 29 6.042906 -13.996843 145.148605 -0.139107 -0.730680 -0.668399 0.269551 0.269871 1 15 1.000000
LuigiHair_alb.png
 29 7.602137 -12.273254 144.582275 0.174173 -0.150435 -0.973156 0.246509 0.275563 1 15 1.000000
 29 8.115522 -13.390379 144.760849 0.350272 -0.555742 -0.753963 0.246479 0.265721 1 15 1.000000
 29 6.042906 -13.996843 145.148605 -0.139107 -0.730680 -0.668399 0.269551 0.269871 1 15 1.000000
LuigiHair_alb.png
 29 6.042906 -13.996843 145.148605 -0.139107 -0.730680 -0.668399 0.269551 0.269871 1 15 1.000000
 29 8.115522 -13.390379 144.760849 0.350272 -0.555742 -0.753963 0.246479 0.265721 1 15 1.000000
 29 6.582806 -14.169611 146.410187 0.246426 -0.968349 0.039672 0.273762 0.250736 1 15 1.000000
LuigiHair_alb.png
 29 8.115522 -13.390379 144.760849 0.350272 -0.555742 -0.753963 0.246479 0.265721 1 15 1.000000
 29 8.366806 -13.644556 146.055801 0.432300 -0.901698 -0.007629 0.247791 0.251469 1 15 1.000000
 29 6.582806 -14.169611 146.410187 0.246426 -0.968349 0.039672 0.273762 0.250736 1 15 1.000000
LuigiHair_alb.png
 29 6.927950 -13.534813 147.852264 0.370466 -0.766300 0.524918 0.276783 0.234791 1 15 1.000000
 29 8.410727 -13.080406 147.417847 0.334246 -0.768052 0.546238 0.247990 0.237736 1 15 1.000000
 29 6.848303 -12.703547 148.061371 0.357593 -0.363646 0.860168 0.278798 0.218448 1 15 1.000000
LuigiHair_alb.png
 29 8.410727 -13.080406 147.417847 0.334246 -0.768052 0.546238 0.247990 0.237736 1 15 1.000000
 29 8.256454 -12.312841 147.629288 0.196173 -0.398070 0.896134 0.244602 0.223331 1 15 1.000000
 29 6.848303 -12.703547 148.061371 0.357593 -0.363646 0.860168 0.278798 0.218448 1 15 1.000000
LuigiHair_alb.png
 29 6.582806 -14.169611 146.410187 0.246426 -0.968349 0.039672 0.273762 0.250736 1 15 1.000000
 29 8.366806 -13.644556 146.055801 0.432300 -0.901698 -0.007629 0.247791 0.251469 1 15 1.000000
 29 6.927950 -13.534813 147.852264 0.370466 -0.766300 0.524918 0.276783 0.234791 1 15 1.000000
LuigiHair_alb.png
 29 8.366806 -13.644556 146.055801 0.432300 -0.901698 -0.007629 0.247791 0.251469 1 15 1.000000
 29 8.410727 -13.080406 147.417847 0.334246 -0.768052 0.546238 0.247990 0.237736 1 15 1.000000
 29 6.927950 -13.534813 147.852264 0.370466 -0.766300 0.524918 0.276783 0.234791 1 15 1.000000
LuigiHair_alb.png
 29 3.925001 -13.952169 149.463409 0.453710 -0.684451 0.570678 0.325154 0.266300 1 15 1.000000
 29 5.320190 -13.868828 148.572311 0.399718 -0.748219 0.529523 0.303578 0.243961 1 15 1.000000
 29 3.931583 -13.437109 149.576202 0.633612 -0.192213 0.749393 0.336370 0.259129 1 15 1.000000
LuigiHair_alb.png
 29 5.320190 -13.868828 148.572311 0.399718 -0.748219 0.529523 0.303578 0.243961 1 15 1.000000
 29 5.412822 -13.116379 148.711197 0.492945 -0.301231 0.816251 0.310246 0.229526 1 15 1.000000
 29 3.931583 -13.437109 149.576202 0.633612 -0.192213 0.749393 0.336370 0.259129 1 15 1.000000
LuigiHair_alb.png
 29 5.320190 -13.868828 148.572311 0.399718 -0.748219 0.529523 0.303578 0.243961 1 15 1.000000
 29 3.925001 -13.952169 149.463409 0.453710 -0.684451 0.570678 0.325154 0.266300 1 15 1.000000
 29 3.449722 -14.297647 148.909821 0.013733 -0.981247 0.192263 0.317815 0.277882 1 15 1.000000
LuigiHair_alb.png
 29 5.320190 -13.868828 148.572311 0.399718 -0.748219 0.529523 0.303578 0.243961 1 15 1.000000
 29 3.449722 -14.297647 148.909821 0.013733 -0.981247 0.192263 0.317815 0.277882 1 15 1.000000
 29 4.763484 -14.378338 147.527374 0.113488 -0.986012 0.122071 0.297490 0.259541 1 15 1.000000
LuigiHair_alb.png
 29 4.763484 -14.378338 147.527374 0.113488 -0.986012 0.122071 0.297490 0.259541 1 15 1.000000
 29 2.823134 -14.218754 148.157074 -0.592706 -0.772664 -0.227355 0.311467 0.289464 1 15 1.000000
 29 4.075343 -14.309305 146.385513 -0.440481 -0.773203 -0.456216 0.290532 0.277455 1 15 1.000000
LuigiHair_alb.png
 29 4.763484 -14.378338 147.527374 0.113488 -0.986012 0.122071 0.297490 0.259541 1 15 1.000000
 29 3.449722 -14.297647 148.909821 0.013733 -0.981247 0.192263 0.317815 0.277882 1 15 1.000000
 29 2.823134 -14.218754 148.157074 -0.592706 -0.772664 -0.227355 0.311467 0.289464 1 15 1.000000
LuigiHair_alb.png
 29 3.744953 -13.230677 146.206024 -0.677674 -0.334879 -0.654687 0.287007 0.287800 1 15 1.000000
 29 4.075343 -14.309305 146.385513 -0.440482 -0.773203 -0.456216 0.290532 0.277455 1 15 1.000000
 29 2.555102 -13.540077 147.973846 -0.906994 0.000000 -0.421144 0.307652 0.297230 1 15 1.000000
LuigiHair_alb.png
 29 4.075343 -14.309305 146.385513 -0.440482 -0.773203 -0.456216 0.290532 0.277455 1 15 1.000000
 29 2.823134 -14.218754 148.157074 -0.592706 -0.772664 -0.227355 0.311467 0.289464 1 15 1.000000
 29 2.555102 -13.540077 147.973846 -0.906994 0.000000 -0.421144 0.307652 0.297230 1 15 1.000000
LuigiHair_alb.png
 29 5.320190 -13.868828 148.572311 0.399718 -0.748219 0.529523 0.303578 0.243961 1 15 1.000000
 29 6.927950 -13.534813 147.852264 0.370466 -0.766300 0.524918 0.276783 0.234791 1 15 1.000000
 29 5.412822 -13.116379 148.711197 0.492945 -0.301231 0.816251 0.310246 0.229526 1 15 1.000000
LuigiHair_alb.png
 29 6.927950 -13.534813 147.852264 0.370466 -0.766300 0.524918 0.276783 0.234791 1 15 1.000000
 29 6.848303 -12.703547 148.061371 0.357593 -0.363646 0.860168 0.278798 0.218448 1 15 1.000000
 29 5.412822 -13.116379 148.711197 0.492945 -0.301231 0.816251 0.310246 0.229526 1 15 1.000000
LuigiHair_alb.png
 29 4.075343 -14.309305 146.385513 -0.440482 -0.773203 -0.456216 0.290532 0.277455 1 15 1.000000
 29 6.042906 -13.996843 145.148605 -0.139107 -0.730680 -0.668399 0.269551 0.269871 1 15 1.000000
 29 6.582806 -14.169611 146.410187 0.246426 -0.968349 0.039672 0.273762 0.250736 1 15 1.000000
LuigiHair_alb.png
 29 4.763484 -14.378338 147.527374 0.113488 -0.986012 0.122071 0.297490 0.259541 1 15 1.000000
 29 4.075343 -14.309305 146.385513 -0.440482 -0.773203 -0.456216 0.290532 0.277455 1 15 1.000000
 29 6.582806 -14.169611 146.410187 0.246426 -0.968349 0.039672 0.273762 0.250736 1 15 1.000000
LuigiHair_alb.png
 29 5.320190 -13.868828 148.572311 0.399718 -0.748219 0.529523 0.303578 0.243961 1 15 1.000000
 29 4.763484 -14.378338 147.527374 0.113488 -0.986012 0.122071 0.297490 0.259541 1 15 1.000000
 29 6.927950 -13.534813 147.852264 0.370466 -0.766300 0.524918 0.276783 0.234791 1 15 1.000000
LuigiHair_alb.png
 29 4.763484 -14.378338 147.527374 0.113488 -0.986012 0.122071 0.297490 0.259541 1 15 1.000000
 29 6.582806 -14.169611 146.410187 0.246426 -0.968349 0.039672 0.273762 0.250736 1 15 1.000000
 29 6.927950 -13.534813 147.852264 0.370466 -0.766300 0.524918 0.276783 0.234791 1 15 1.000000
LuigiHair_alb.png
 29 3.744953 -13.230677 146.206024 -0.677674 -0.334879 -0.654687 0.287007 0.287800 1 15 1.000000
 29 5.646846 -12.773809 144.976913 -0.348690 -0.317268 -0.881905 0.267048 0.281727 1 15 1.000000
 29 4.075343 -14.309305 146.385513 -0.440482 -0.773203 -0.456216 0.290532 0.277455 1 15 1.000000
LuigiHair_alb.png
 29 5.646846 -12.773809 144.976913 -0.348690 -0.317268 -0.881905 0.267048 0.281727 1 15 1.000000
 29 6.042906 -13.996843 145.148605 -0.139107 -0.730680 -0.668399 0.269551 0.269871 1 15 1.000000
 29 4.075343 -14.309305 146.385513 -0.440482 -0.773203 -0.456216 0.290532 0.277455 1 15 1.000000
LuigiHair_alb.png
 29 -3.931580 -13.437109 149.576218 -0.633612 -0.192213 0.749393 0.336370 0.259129 1 15 1.000000
 29 -3.925001 -13.952168 149.463425 -0.453653 -0.684474 0.570697 0.325154 0.266300 1 15 1.000000
 29 -3.156815 -13.875992 150.148117 -0.644306 -0.086213 0.759892 0.336629 0.293553 1 15 1.000000
LuigiHair_alb.png
 29 -3.931580 -13.437109 149.576218 -0.633612 -0.192213 0.749393 0.336370 0.259129 1 15 1.000000
 29 -3.156815 -13.875992 150.148117 -0.644306 -0.086213 0.759892 0.336629 0.293553 1 15 1.000000
 29 -3.132282 -13.539343 150.196808 -0.647685 -0.072299 0.758470 0.344381 0.292256 1 15 1.000000
LuigiHair_alb.png
 29 -3.156815 -13.875992 150.148117 -0.644306 -0.086213 0.759892 0.336629 0.293553 1 15 1.000000
 29 -2.560972 -13.798927 150.723068 -0.730127 -0.264166 0.630183 0.338613 0.304234 1 15 1.000000
 29 -3.132282 -13.539343 150.196808 -0.647685 -0.072299 0.758470 0.344381 0.292256 1 15 1.000000
LuigiHair_alb.png
 29 -3.132282 -13.539343 150.196808 -0.647685 -0.072299 0.758470 0.344381 0.292256 1 15 1.000000
 29 -2.560972 -13.798927 150.723068 -0.730127 -0.264166 0.630183 0.338613 0.304234 1 15 1.000000
 29 -2.516230 -13.651299 150.702133 -0.786744 0.256351 0.561531 0.342901 0.305425 1 15 1.000000
LuigiHair_alb.png
 29 -2.460297 -13.896336 150.609467 -0.048806 -0.940157 0.337228 0.335286 0.305501 1 15 1.000000
 29 -2.560972 -13.798927 150.723068 -0.730127 -0.264166 0.630183 0.338613 0.304234 1 15 1.000000
 29 -3.156815 -13.875992 150.148117 -0.279856 -0.880338 0.382996 0.336629 0.293553 1 15 1.000000
LuigiHair_alb.png
 29 -2.854465 -14.095873 149.909698 -0.279721 -0.881698 0.379955 0.331655 0.297246 1 15 1.000000
 29 -2.460297 -13.896336 150.609467 -0.048806 -0.940157 0.337228 0.335286 0.305501 1 15 1.000000
 29 -3.156815 -13.875992 150.148117 -0.279856 -0.880338 0.382996 0.336629 0.293553 1 15 1.000000
LuigiHair_alb.png
 29 -2.854465 -14.095873 149.909698 -0.279721 -0.881698 0.379955 0.331655 0.297246 1 15 1.000000
 29 -3.156815 -13.875992 150.148117 -0.279856 -0.880338 0.382996 0.336629 0.293553 1 15 1.000000
 29 -3.925001 -13.952168 149.463425 -0.453653 -0.684474 0.570697 0.325154 0.266300 1 15 1.000000
LuigiHair_alb.png
 29 -3.449724 -14.297649 148.909836 -0.013733 -0.980948 0.193786 0.317815 0.277882 1 15 1.000000
 29 -2.854465 -14.095873 149.909698 -0.279721 -0.881698 0.379955 0.331655 0.297246 1 15 1.000000
 29 -3.925001 -13.952168 149.463425 -0.453653 -0.684474 0.570697 0.325154 0.266300 1 15 1.000000
LuigiHair_alb.png
 29 -3.449724 -14.297649 148.909836 -0.013733 -0.980948 0.193786 0.317815 0.277882 1 15 1.000000
 29 -2.823133 -14.218758 148.157089 0.592722 -0.772653 -0.227352 0.311467 0.289464 1 15 1.000000
 29 -2.378176 -14.083008 149.560120 0.140791 -0.985654 0.093082 0.327016 0.301595 1 15 1.000000
LuigiHair_alb.png
 29 -3.449724 -14.297649 148.909836 -0.013733 -0.980948 0.193786 0.317815 0.277882 1 15 1.000000
 29 -2.378176 -14.083008 149.560120 0.140791 -0.985654 0.093082 0.327016 0.301595 1 15 1.000000
 29 -2.854465 -14.095873 149.909698 0.133135 -0.985159 0.108339 0.331655 0.297246 1 15 1.000000
LuigiHair_alb.png
 29 -2.378176 -14.083008 149.560120 0.140791 -0.985654 0.093082 0.327016 0.301595 1 15 1.000000
 29 -2.161133 -13.914141 150.547913 0.598947 -0.800789 0.000000 0.332433 0.307942 1 15 1.000000
 29 -2.854465 -14.095873 149.909698 0.133135 -0.985159 0.108339 0.331655 0.297246 1 15 1.000000
LuigiHair_alb.png
 29 -2.854465 -14.095873 149.909698 0.133135 -0.985159 0.108339 0.331655 0.297246 1 15 1.000000
 29 -2.161133 -13.914141 150.547913 0.598947 -0.800789 0.000000 0.332433 0.307942 1 15 1.000000
 29 -2.460297 -13.896336 150.609467 -0.048806 -0.940157 0.337228 0.335286 0.305501 1 15 1.000000
LuigiHair_alb.png
 29 -2.057808 -13.751299 150.467346 0.941118 0.317004 0.117494 0.330556 0.311910 1 15 1.000000
 29 -2.161133 -13.914141 150.547913 0.541879 -0.815965 0.201416 0.332433 0.307942 1 15 1.000000
 29 -2.378176 -14.083008 149.560120 0.861217 -0.461865 -0.212098 0.327016 0.301595 1 15 1.000000
LuigiHair_alb.png
 29 -2.176779 -13.676558 149.433121 0.861812 -0.456429 -0.221253 0.322438 0.307210 1 15 1.000000
 29 -2.057808 -13.751299 150.467346 0.941118 0.317004 0.117494 0.330556 0.311910 1 15 1.000000
 29 -2.378176 -14.083008 149.560120 0.861217 -0.461865 -0.212098 0.327016 0.301595 1 15 1.000000
LuigiHair_alb.png
 29 -2.176779 -13.676558 149.433121 0.861812 -0.456429 -0.221253 0.322438 0.307210 1 15 1.000000
 29 -2.378176 -14.083008 149.560120 0.861217 -0.461865 -0.212098 0.327016 0.301595 1 15 1.000000
 29 -2.823133 -14.218758 148.157089 0.592722 -0.772653 -0.227352 0.311467 0.289464 1 15 1.000000
LuigiHair_alb.png
 29 -2.555103 -13.540077 147.973877 0.906994 0.000000 -0.421144 0.307652 0.297230 1 15 1.000000
 29 -2.176779 -13.676558 149.433121 0.861812 -0.456429 -0.221253 0.322438 0.307210 1 15 1.000000
 29 -2.823133 -14.218758 148.157089 0.592722 -0.772653 -0.227352 0.311467 0.289464 1 15 1.000000
LuigiHair_alb.png
 29 3.925001 -13.952169 149.463409 0.453710 -0.684451 0.570678 0.325154 0.266300 1 15 1.000000
 29 3.931583 -13.437109 149.576202 0.633612 -0.192213 0.749393 0.336370 0.259129 1 15 1.000000
 29 3.156815 -13.875994 150.148117 0.644334 -0.086210 0.759869 0.336629 0.293553 1 15 1.000000
LuigiHair_alb.png
 29 3.931583 -13.437109 149.576202 0.633612 -0.192213 0.749393 0.336370 0.259129 1 15 1.000000
 29 3.132282 -13.539343 150.196808 0.647727 -0.072295 0.758435 0.344381 0.292256 1 15 1.000000
 29 3.156815 -13.875994 150.148117 0.644334 -0.086210 0.759869 0.336629 0.293553 1 15 1.000000
LuigiHair_alb.png
 29 3.156815 -13.875994 150.148117 0.644334 -0.086210 0.759869 0.336629 0.293553 1 15 1.000000
 29 3.132282 -13.539343 150.196808 0.647727 -0.072295 0.758435 0.344381 0.292256 1 15 1.000000
 29 2.560973 -13.798923 150.723068 0.730116 -0.264170 0.630194 0.338613 0.304234 1 15 1.000000
LuigiHair_alb.png
 29 3.132282 -13.539343 150.196808 0.647727 -0.072295 0.758435 0.344381 0.292256 1 15 1.000000
 29 2.516230 -13.651299 150.702118 0.786744 0.256351 0.561531 0.342901 0.305425 1 15 1.000000
 29 2.560973 -13.798923 150.723068 0.730116 -0.264170 0.630194 0.338613 0.304234 1 15 1.000000
LuigiHair_alb.png
 29 3.449722 -14.297647 148.909821 0.013733 -0.981247 0.192263 0.317815 0.277882 1 15 1.000000
 29 3.925001 -13.952169 149.463409 0.453710 -0.684451 0.570678 0.325154 0.266300 1 15 1.000000
 29 2.854469 -14.095873 149.909698 0.279718 -0.882356 0.378425 0.331655 0.297246 1 15 1.000000
LuigiHair_alb.png
 29 3.925001 -13.952169 149.463409 0.453710 -0.684451 0.570678 0.325154 0.266300 1 15 1.000000
 29 3.156815 -13.875994 150.148117 0.279631 -0.881736 0.379931 0.336629 0.293553 1 15 1.000000
 29 2.854469 -14.095873 149.909698 0.279718 -0.882356 0.378425 0.331655 0.297246 1 15 1.000000
LuigiHair_alb.png
 29 2.854469 -14.095873 149.909698 0.279718 -0.882356 0.378425 0.331655 0.297246 1 15 1.000000
 29 3.156815 -13.875994 150.148117 0.279631 -0.881736 0.379931 0.336629 0.293553 1 15 1.000000
 29 2.460295 -13.896336 150.609451 0.048901 -0.940153 0.337227 0.335286 0.305501 1 15 1.000000
LuigiHair_alb.png
 29 3.156815 -13.875994 150.148117 0.279631 -0.881736 0.379931 0.336629 0.293553 1 15 1.000000
 29 2.560973 -13.798923 150.723068 0.730116 -0.264170 0.630194 0.338613 0.304234 1 15 1.000000
 29 2.460295 -13.896336 150.609451 0.048901 -0.940153 0.337227 0.335286 0.305501 1 15 1.000000
LuigiHair_alb.png
 29 2.823134 -14.218754 148.157074 -0.592706 -0.772664 -0.227355 0.311467 0.289464 1 15 1.000000
 29 3.449722 -14.297647 148.909821 0.013733 -0.981247 0.192263 0.317815 0.277882 1 15 1.000000
 29 2.378176 -14.083008 149.560089 -0.140760 -0.985513 0.094603 0.327016 0.301595 1 15 1.000000
LuigiHair_alb.png
 29 3.449722 -14.297647 148.909821 0.013733 -0.981247 0.192263 0.317815 0.277882 1 15 1.000000
 29 2.854469 -14.095873 149.909698 -0.133249 -0.985310 0.106809 0.331655 0.297246 1 15 1.000000
 29 2.378176 -14.083008 149.560089 -0.140760 -0.985513 0.094603 0.327016 0.301595 1 15 1.000000
LuigiHair_alb.png
 29 2.378176 -14.083008 149.560089 -0.140760 -0.985513 0.094603 0.327016 0.301595 1 15 1.000000
 29 2.854469 -14.095873 149.909698 -0.133249 -0.985310 0.106809 0.331655 0.297246 1 15 1.000000
 29 2.161133 -13.914141 150.547913 -0.599038 -0.800720 0.000000 0.332433 0.307942 1 15 1.000000
LuigiHair_alb.png
 29 2.854469 -14.095873 149.909698 -0.133249 -0.985310 0.106809 0.331655 0.297246 1 15 1.000000
 29 2.460295 -13.896336 150.609451 0.048901 -0.940153 0.337227 0.335286 0.305501 1 15 1.000000
 29 2.161133 -13.914141 150.547913 -0.599038 -0.800720 0.000000 0.332433 0.307942 1 15 1.000000
LuigiHair_alb.png
 29 2.555102 -13.540077 147.973846 -0.906994 0.000000 -0.421144 0.307652 0.297230 1 15 1.000000
 29 2.823134 -14.218754 148.157074 -0.592706 -0.772664 -0.227355 0.311467 0.289464 1 15 1.000000
 29 2.176779 -13.676558 149.433105 -0.861812 -0.456429 -0.221253 0.322438 0.307210 1 15 1.000000
LuigiHair_alb.png
 29 2.823134 -14.218754 148.157074 -0.592706 -0.772664 -0.227355 0.311467 0.289464 1 15 1.000000
 29 2.378176 -14.083008 149.560089 -0.862101 -0.456621 -0.219727 0.327016 0.301595 1 15 1.000000
 29 2.176779 -13.676558 149.433105 -0.861812 -0.456429 -0.221253 0.322438 0.307210 1 15 1.000000
LuigiHair_alb.png
 29 2.176779 -13.676558 149.433105 -0.861812 -0.456429 -0.221253 0.322438 0.307210 1 15 1.000000
 29 2.378176 -14.083008 149.560089 -0.862101 -0.456621 -0.219727 0.327016 0.301595 1 15 1.000000
 29 2.057810 -13.751297 150.467331 -0.941118 0.317004 0.117494 0.330556 0.311910 1 15 1.000000
LuigiHair_alb.png
 29 2.378176 -14.083008 149.560089 -0.862101 -0.456621 -0.219727 0.327016 0.301595 1 15 1.000000
 29 2.161133 -13.914141 150.547913 -0.541879 -0.815965 0.201416 0.332433 0.307942 1 15 1.000000
 29 2.057810 -13.751297 150.467331 -0.941118 0.317004 0.117494 0.330556 0.311910 1 15 1.000000
end
