version 1
nodes
  0 "nw4f_root"  -1
  1 "AllRoot"   0
  2 "JointRoot"   1
  3 "Hip"   2
  4 "LegL1"   3
  5 "LegL2"   4
  6 "FootL"   5
  7 "ToeL"   6
  8 "LegR1"   3
  9 "LegR2"   8
 10 "FootR"   9
 11 "ToeR"  10
 12 "Spine1"   2
 13 "Spine2"  12
 14 "Bag"  13
 15 "Head"  13
 16 "JoeUnder"  15
 17 "ShoulderL"  13
 18 "ArmL1"  17
 19 "ArmL1Sub"  18
 20 "ArmL2"  18
 21 "ArmL2Sub"  20
 22 "HandL"  20
 23 "ShoulderR"  13
 24 "ArmR1"  23
 25 "ArmR1Sub"  24
 26 "ArmR2"  24
 27 "ArmR2Sub"  26
 28 "HandR"  26
 29 "LuigiUnused_Eyebrow1"  -1
end
skeleton
time 0
  0 0.000000 0.000000 0.000000 1.570796 -0.000000 0.000000
  1 0.000000 0.000000 0.000000 0.000000 -0.000000 0.000000
  2 0.000000 68.028503 -3.990591 0.000000 -0.000000 0.000000
  3 0.000000 -2.000000 0.000001 -1.570796 -3.141592 1.570796
  4 4.029991 2.576941 -10.147688 0.000000 -0.000000 0.000000
  5 26.211063 0.000204 -0.000088 0.000000 -0.000000 0.000000
  6 22.942825 0.000005 0.000004 0.000000 0.000000 1.134464
  7 12.169998 0.000008 0.000000 -0.000000 0.000000 0.436332
  8 4.029991 2.576937 10.147690 0.000000 -0.000000 0.000000
  9 26.211067 0.000200 0.000096 0.000000 -0.000000 0.000000
 10 22.942818 0.000005 0.000004 0.000000 0.000000 1.134464
 11 12.170002 0.000010 0.000000 -0.000000 0.000000 0.436332
 12 0.000000 4.277161 -0.000000 1.570796 -0.000000 1.570796
 13 13.929802 0.000000 0.000000 0.000000 -0.000000 0.000000
 14 22.639145 -16.116180 0.000000 -1.570796 -1.570451 0.000000
 15 20.107773 0.000587 -0.000000 0.000000 0.000000 1.570796
 16 0.073432 -15.880157 -0.000000 -3.141592 0.000000 0.575263
 17 10.084557 0.778702 3.123569 -1.570796 -1.570451 0.000000
 18 12.086020 0.000000 0.000000 0.000000 0.000000 0.000000
 19 5.370699 0.000000 0.000001 -0.000000 0.000000 0.000000
 20 12.261209 0.000000 0.000001 -0.000000 0.000000 0.000000
 21 8.518942 0.000023 -0.000006 -0.000000 0.000001 -0.000000
 22 19.602606 0.000038 0.000000 -0.000000 0.000001 -0.000000
 23 10.084557 0.778702 -3.123570 1.570796 1.570451 0.000000
 24 12.086014 0.000000 0.000000 -0.000000 0.000000 0.000000
 25 5.370700 0.000000 0.000000 0.000000 0.000000 -0.000000
 26 12.261210 0.000000 -0.000001 0.000000 0.000001 -0.000000
 27 8.518951 0.000000 0.000006 0.000000 -0.000000 0.000000
 28 19.602608 0.000000 0.000000 0.000000 -0.000000 0.000000
 29 0.000000 0.000000 0.000000 0.000000 -0.000000 0.000000
end
triangles
LuigiHair_alb.png
 29 -12.122703 -11.022308 143.679581 -0.584687 -0.797925 -0.146482 0.202152 0.267262 1 15 1.000000
 29 -11.810601 -11.205002 144.021133 0.021458 -0.889597 -0.456243 0.208667 0.267918 1 15 1.000000
 29 -12.041793 -11.172558 144.121887 -0.642042 -0.763450 -0.070194 0.207752 0.264714 1 15 1.000000
LuigiHair_alb.png
 29 -12.122703 -11.022308 143.679581 -0.584687 -0.797925 -0.146482 0.202152 0.267262 1 15 1.000000
 29 -12.016802 -11.027126 143.584274 0.346075 -0.779695 -0.521831 0.201984 0.269123 1 15 1.000000
 29 -11.810601 -11.205002 144.021133 0.021458 -0.889597 -0.456243 0.208667 0.267918 1 15 1.000000
LuigiHair_alb.png
 29 -12.122703 -11.022308 143.679581 -0.584687 -0.797925 -0.146482 0.202152 0.267262 1 15 1.000000
 29 -12.198564 -10.844345 143.207306 -0.586544 0.183754 -0.788797 0.196063 0.269886 1 15 1.000000
 29 -12.016802 -11.027126 143.584274 0.346075 -0.779695 -0.521831 0.201984 0.269123 1 15 1.000000
LuigiHair_alb.png
 29 -12.122703 -11.022308 143.679581 -0.584687 -0.797925 -0.146482 0.202152 0.267262 1 15 1.000000
 29 -12.300205 -10.851740 143.667862 -0.949783 -0.303465 -0.076295 0.199802 0.265049 1 15 1.000000
 29 -12.198564 -10.844345 143.207306 -0.586544 0.183754 -0.788797 0.196063 0.269886 1 15 1.000000
LuigiHair_alb.png
 29 -12.016802 -11.027126 143.584274 0.346075 -0.779695 -0.521831 0.201984 0.269123 1 15 1.000000
 29 -12.198564 -10.844345 143.207306 -0.586544 0.183754 -0.788797 0.196063 0.269886 1 15 1.000000
 29 -11.959067 -10.883282 143.577118 0.724213 -0.414844 -0.550836 0.201801 0.271122 1 15 1.000000
LuigiHair_alb.png
 29 -12.300205 -10.851740 143.667862 -0.949783 -0.303465 -0.076295 0.199802 0.265049 1 15 1.000000
 29 -12.122703 -11.022308 143.679581 -0.584687 -0.797925 -0.146482 0.202152 0.267262 1 15 1.000000
 29 -12.299828 -10.870396 144.265991 -0.969340 -0.217444 0.114444 0.205249 0.259663 1 15 1.000000
LuigiHair_alb.png
 29 -12.300205 -10.851740 143.667862 -0.949783 -0.303465 -0.076295 0.199802 0.265049 1 15 1.000000
 29 -12.299828 -10.870396 144.265991 -0.969340 -0.217444 0.114444 0.205249 0.259663 1 15 1.000000
 29 -12.264816 -10.650705 143.701294 -0.530601 0.814402 -0.234975 0.198016 0.262974 1 15 1.000000
LuigiHair_alb.png
 29 -12.122703 -11.022308 143.679581 -0.584687 -0.797925 -0.146482 0.202152 0.267262 1 15 1.000000
 29 -12.041793 -11.172558 144.121887 -0.642042 -0.763450 -0.070194 0.207752 0.264714 1 15 1.000000
 29 -12.299828 -10.870396 144.265991 -0.969340 -0.217444 0.114444 0.205249 0.259663 1 15 1.000000
LuigiHair_alb.png
 29 -12.299828 -10.870396 144.265991 -0.969340 -0.217444 0.114444 0.205249 0.259663 1 15 1.000000
 29 -12.255662 -10.486599 144.307968 -0.593744 0.803262 0.047301 0.202152 0.255604 1 15 1.000000
 29 -12.264816 -10.650705 143.701294 -0.530601 0.814402 -0.234975 0.198016 0.262974 1 15 1.000000
LuigiHair_alb.png
 29 12.017059 -11.069275 146.021805 0.929611 -0.158686 0.332630 0.223697 0.246052 1 15 1.000000
 29 11.688306 -11.590139 145.535706 0.627795 -0.778378 -0.001526 0.225223 0.256306 1 15 1.000000
 29 12.299828 -10.870396 144.265991 0.969340 -0.217444 0.114444 0.205249 0.259663 1 15 1.000000
LuigiHair_alb.png
 29 11.688306 -11.590139 145.535706 0.627795 -0.778378 -0.001526 0.225223 0.256306 1 15 1.000000
 29 11.206933 -11.723577 145.046982 0.129227 -0.908120 -0.398268 0.225574 0.265461 1 15 1.000000
 29 12.041792 -11.172558 144.121887 0.642098 -0.763403 -0.070189 0.207752 0.264714 1 15 1.000000
LuigiHair_alb.png
 29 11.688306 -11.590139 145.535706 0.627795 -0.778378 -0.001526 0.225223 0.256306 1 15 1.000000
 29 12.041792 -11.172558 144.121887 0.642098 -0.763403 -0.070189 0.207752 0.264714 1 15 1.000000
 29 12.299828 -10.870396 144.265991 0.969340 -0.217444 0.114444 0.205249 0.259663 1 15 1.000000
LuigiHair_alb.png
 29 11.206933 -11.723577 145.046982 0.129227 -0.908120 -0.398268 0.225574 0.265461 1 15 1.000000
 29 11.810600 -11.205002 144.021149 -0.021553 -0.888815 -0.457759 0.208667 0.267918 1 15 1.000000
 29 12.041792 -11.172558 144.121887 0.642098 -0.763403 -0.070189 0.207752 0.264714 1 15 1.000000
LuigiHair_alb.png
 29 12.299828 -10.870396 144.265991 0.969340 -0.217444 0.114444 0.205249 0.259663 1 15 1.000000
 29 12.255661 -10.486599 144.307968 0.593744 0.803262 0.047301 0.202152 0.255604 1 15 1.000000
 29 12.017059 -11.069275 146.021805 0.929611 -0.158686 0.332630 0.223697 0.246052 1 15 1.000000
LuigiHair_alb.png
 29 12.255661 -10.486599 144.307968 0.593744 0.803262 0.047301 0.202152 0.255604 1 15 1.000000
 29 11.783090 -10.355295 146.057129 0.665796 0.655973 0.355549 0.219150 0.237461 1 15 1.000000
 29 12.017059 -11.069275 146.021805 0.929611 -0.158686 0.332630 0.223697 0.246052 1 15 1.000000
LuigiHair_alb.png
 29 12.255661 -10.486599 144.307968 0.593744 0.803262 0.047301 0.290501 0.181430 1 15 1.000000
 29 11.424247 -10.570995 145.485229 -0.319100 0.937941 -0.135804 0.257038 0.192386 1 15 1.000000
 29 11.783090 -10.355295 146.057129 0.665796 0.655973 0.355549 0.246265 0.178866 1 15 1.000000
LuigiHair_alb.png
 29 12.255661 -10.486599 144.307968 0.593744 0.803262 0.047301 0.290501 0.181430 1 15 1.000000
 29 11.825411 -10.635639 144.142349 -0.285619 0.943258 -0.169369 0.291249 0.193225 1 15 1.000000
 29 11.424247 -10.570995 145.485229 -0.319100 0.937941 -0.135804 0.257038 0.192386 1 15 1.000000
LuigiHair_alb.png
 29 11.424247 -10.570995 145.485229 -0.319100 0.937941 -0.135804 0.257038 0.192386 1 15 1.000000
 29 10.690715 -10.582384 147.772247 0.682403 0.302962 0.665238 0.198444 0.193179 1 15 1.000000
 29 11.783090 -10.355295 146.057129 0.665796 0.655973 0.355549 0.246265 0.178866 1 15 1.000000
LuigiHair_alb.png
 29 11.825411 -10.635639 144.142349 -0.285619 0.943258 -0.169369 0.291249 0.193225 1 15 1.000000
 29 12.255661 -10.486599 144.307968 0.593744 0.803262 0.047301 0.290501 0.181430 1 15 1.000000
 29 12.264816 -10.650705 143.701294 0.530532 0.814443 -0.234987 0.304936 0.186633 1 15 1.000000
LuigiHair_alb.png
 29 11.825411 -10.635639 144.142349 -0.285619 0.943258 -0.169369 0.291249 0.193225 1 15 1.000000
 29 12.264816 -10.650705 143.701294 0.530532 0.814443 -0.234987 0.304936 0.186633 1 15 1.000000
 29 11.988950 -10.716660 143.706573 -0.226973 0.935262 -0.271605 0.302785 0.193210 1 15 1.000000
LuigiHair_alb.png
 29 11.988950 -10.716660 143.706573 -0.226973 0.935262 -0.271605 0.302785 0.193210 1 15 1.000000
 29 12.264816 -10.650705 143.701294 0.530532 0.814443 -0.234987 0.304936 0.186633 1 15 1.000000
 29 12.198563 -10.844345 143.207306 0.586606 0.183744 -0.788753 0.316350 0.192950 1 15 1.000000
LuigiHair_alb.png
 29 11.206933 -11.723577 145.046982 0.129227 -0.908120 -0.398268 0.225574 0.265461 1 15 1.000000
 29 10.892700 -11.380955 144.835632 -0.307077 -0.686442 -0.659167 0.224613 0.272053 1 15 1.000000
 29 11.810600 -11.205002 144.021149 -0.021553 -0.888815 -0.457759 0.208667 0.267918 1 15 1.000000
LuigiHair_alb.png
 29 10.892700 -11.380955 144.835632 -0.307077 -0.686442 -0.659167 0.224613 0.272053 1 15 1.000000
 29 11.206933 -11.723577 145.046982 0.129227 -0.908120 -0.398268 0.225574 0.265461 1 15 1.000000
 29 9.649522 -11.889072 145.778534 -0.127009 -0.691684 -0.710945 0.246464 0.275670 1 15 1.000000
LuigiHair_alb.png
 29 10.892700 -11.380955 144.835632 -0.307077 -0.686442 -0.659167 0.224613 0.272053 1 15 1.000000
 29 11.684391 -10.968719 143.963043 -0.501452 -0.599206 -0.624097 0.208148 0.271473 1 15 1.000000
 29 11.810600 -11.205002 144.021149 -0.021553 -0.888815 -0.457759 0.208667 0.267918 1 15 1.000000
LuigiHair_alb.png
 29 11.206933 -11.723577 145.046982 0.129227 -0.908120 -0.398268 0.225574 0.265461 1 15 1.000000
 29 11.688306 -11.590139 145.535706 0.627795 -0.778378 -0.001526 0.225223 0.256306 1 15 1.000000
 29 10.185891 -12.333164 146.101379 0.209425 -0.912087 -0.352475 0.246509 0.265568 1 15 1.000000
LuigiHair_alb.png
 29 11.206933 -11.723577 145.046982 0.129227 -0.908120 -0.398268 0.225574 0.265461 1 15 1.000000
 29 10.185891 -12.333164 146.101379 0.209425 -0.912087 -0.352475 0.246509 0.265568 1 15 1.000000
 29 9.649522 -11.889072 145.778534 -0.127009 -0.691684 -0.710945 0.246464 0.275670 1 15 1.000000
LuigiHair_alb.png
 29 11.688306 -11.590139 145.535706 0.627795 -0.778378 -0.001526 0.225223 0.256306 1 15 1.000000
 29 12.017059 -11.069275 146.021805 0.929611 -0.158686 0.332630 0.223697 0.246052 1 15 1.000000
 29 10.796131 -12.224566 147.023499 0.549822 -0.831648 0.077824 0.247730 0.251194 1 15 1.000000
LuigiHair_alb.png
 29 11.688306 -11.590139 145.535706 0.627795 -0.778378 -0.001526 0.225223 0.256306 1 15 1.000000
 29 10.796131 -12.224566 147.023499 0.549822 -0.831648 0.077824 0.247730 0.251194 1 15 1.000000
 29 10.185891 -12.333164 146.101379 0.209425 -0.912087 -0.352475 0.246509 0.265568 1 15 1.000000
LuigiHair_alb.png
 29 12.017059 -11.069275 146.021805 0.929611 -0.158686 0.332630 0.223697 0.246052 1 15 1.000000
 29 11.135918 -11.632172 147.808319 0.797312 -0.213348 0.564603 0.247990 0.237827 1 15 1.000000
 29 10.796131 -12.224566 147.023499 0.549822 -0.831648 0.077824 0.247730 0.251194 1 15 1.000000
LuigiHair_alb.png
 29 11.135918 -11.632172 147.808319 0.797312 -0.213348 0.564603 0.247990 0.237827 1 15 1.000000
 29 12.017059 -11.069275 146.021805 0.929611 -0.158686 0.332630 0.223697 0.246052 1 15 1.000000
 29 10.690715 -10.582384 147.772247 0.682403 0.302962 0.665238 0.244388 0.223346 1 15 1.000000
LuigiHair_alb.png
 29 12.017059 -11.069275 146.021805 0.929611 -0.158686 0.332630 0.223697 0.246052 1 15 1.000000
 29 11.783090 -10.355295 146.057129 0.665796 0.655973 0.355549 0.219150 0.237461 1 15 1.000000
 29 10.690715 -10.582384 147.772247 0.682403 0.302962 0.665238 0.244388 0.223346 1 15 1.000000
LuigiHair_alb.png
 29 3.083322 -14.030190 145.017334 -0.248518 -0.927508 -0.279225 0.339269 0.316442 1 15 1.000000
 29 3.596744 -13.772053 145.482971 0.679565 -0.331055 -0.654671 0.330556 0.311910 1 15 1.000000
 29 3.612730 -14.076450 145.662689 0.520756 -0.669673 -0.529482 0.332555 0.307774 1 15 1.000000
LuigiHair_alb.png
 29 3.596744 -13.772053 145.482971 0.679565 -0.331055 -0.654671 0.330556 0.311910 1 15 1.000000
 29 4.118077 -13.564543 145.902924 0.510285 -0.359769 -0.781137 0.322454 0.307225 1 15 1.000000
 29 3.612730 -14.076450 145.662689 0.520756 -0.669673 -0.529482 0.332555 0.307774 1 15 1.000000
LuigiHair_alb.png
 29 3.612730 -14.076450 145.662689 0.520756 -0.669673 -0.529482 0.332555 0.307774 1 15 1.000000
 29 4.063595 -14.088215 146.093506 0.381694 -0.779028 -0.497418 0.327062 0.301625 1 15 1.000000
 29 3.424454 -14.168161 145.840347 -0.260445 -0.965487 -0.001526 0.335409 0.305562 1 15 1.000000
LuigiHair_alb.png
 29 4.118077 -13.564543 145.902924 0.510285 -0.359769 -0.781137 0.322454 0.307225 1 15 1.000000
 29 4.063595 -14.088215 146.093506 0.381694 -0.779028 -0.497418 0.327062 0.301625 1 15 1.000000
 29 3.612730 -14.076450 145.662689 0.520756 -0.669673 -0.529482 0.332555 0.307774 1 15 1.000000
LuigiHair_alb.png
 29 4.063595 -14.088215 146.093506 0.381694 -0.779028 -0.497418 0.327062 0.301625 1 15 1.000000
 29 3.787187 -14.247190 146.455338 -0.133128 -0.984820 0.111385 0.331594 0.297276 1 15 1.000000
 29 3.424454 -14.168161 145.840347 -0.260445 -0.965487 -0.001526 0.335409 0.305562 1 15 1.000000
LuigiHair_alb.png
 29 3.083322 -14.030190 145.017334 -0.248518 -0.927508 -0.279225 0.339269 0.316442 1 15 1.000000
 29 3.278767 -13.992746 145.967972 -0.835579 -0.463768 0.294492 0.338491 0.303914 1 15 1.000000
 29 3.147841 -13.704857 145.811783 -0.915746 -0.279714 0.288392 0.342763 0.305440 1 15 1.000000
LuigiHair_alb.png
 29 3.278767 -13.992746 145.967972 -0.835579 -0.463768 0.294492 0.338491 0.303914 1 15 1.000000
 29 3.787187 -14.247190 146.455338 -0.133128 -0.984820 0.111385 0.331594 0.297276 1 15 1.000000
 29 3.554326 -13.949217 146.745941 -0.679009 -0.522436 0.515760 0.336599 0.293477 1 15 1.000000
LuigiHair_alb.png
 29 3.278767 -13.992746 145.967972 -0.835579 -0.463768 0.294492 0.338491 0.303914 1 15 1.000000
 29 3.424454 -14.168161 145.840347 -0.260445 -0.965487 -0.001526 0.335409 0.305562 1 15 1.000000
 29 3.787187 -14.247190 146.455338 -0.133128 -0.984820 0.111385 0.331594 0.297276 1 15 1.000000
LuigiHair_alb.png
 29 3.424454 -14.168161 145.840347 -0.260445 -0.965487 -0.001526 0.335409 0.305562 1 15 1.000000
 29 3.278767 -13.992746 145.967972 -0.835579 -0.463768 0.294492 0.338491 0.303914 1 15 1.000000
 29 3.083322 -14.030190 145.017334 -0.248518 -0.927508 -0.279225 0.339269 0.316442 1 15 1.000000
LuigiHair_alb.png
 29 3.554326 -13.949217 146.745941 -0.679009 -0.522436 0.515760 0.336599 0.293477 1 15 1.000000
 29 3.353443 -13.376535 146.675232 -0.807429 -0.222867 0.546249 0.344411 0.292439 1 15 1.000000
 29 3.278767 -13.992746 145.967972 -0.835579 -0.463768 0.294492 0.338491 0.303914 1 15 1.000000
LuigiHair_alb.png
 29 3.353443 -13.376535 146.675232 -0.807429 -0.222867 0.546249 0.344411 0.292439 1 15 1.000000
 29 3.147841 -13.704857 145.811783 -0.915746 -0.279714 0.288392 0.342763 0.305440 1 15 1.000000
 29 3.278767 -13.992746 145.967972 -0.835579 -0.463768 0.294492 0.338491 0.303914 1 15 1.000000
LuigiHair_alb.png
 29 3.612730 -14.076450 145.662689 0.520756 -0.669673 -0.529482 0.332555 0.307774 1 15 1.000000
 29 3.424454 -14.168161 145.840347 -0.260445 -0.965487 -0.001526 0.335409 0.305562 1 15 1.000000
 29 3.083322 -14.030190 145.017334 -0.248518 -0.927508 -0.279225 0.339269 0.316442 1 15 1.000000
LuigiHair_alb.png
 29 12.264816 -10.650705 143.701294 0.530532 0.814443 -0.234987 0.198016 0.262974 1 15 1.000000
 29 12.300205 -10.851740 143.667862 0.949783 -0.303465 -0.076295 0.199802 0.265049 1 15 1.000000
 29 12.198563 -10.844345 143.207306 0.586606 0.183744 -0.788753 0.196063 0.269886 1 15 1.000000
LuigiHair_alb.png
 29 12.264816 -10.650705 143.701294 0.530532 0.814443 -0.234987 0.198016 0.262974 1 15 1.000000
 29 12.255661 -10.486599 144.307968 0.593744 0.803262 0.047301 0.202152 0.255604 1 15 1.000000
 29 12.299828 -10.870396 144.265991 0.969340 -0.217444 0.114444 0.205249 0.259663 1 15 1.000000
LuigiHair_alb.png
 29 12.264816 -10.650705 143.701294 0.530532 0.814443 -0.234987 0.198016 0.262974 1 15 1.000000
 29 12.299828 -10.870396 144.265991 0.969340 -0.217444 0.114444 0.205249 0.259663 1 15 1.000000
 29 12.300205 -10.851740 143.667862 0.949783 -0.303465 -0.076295 0.199802 0.265049 1 15 1.000000
LuigiHair_alb.png
 29 12.300205 -10.851740 143.667862 0.949783 -0.303465 -0.076295 0.199802 0.265049 1 15 1.000000
 29 12.299828 -10.870396 144.265991 0.969340 -0.217444 0.114444 0.205249 0.259663 1 15 1.000000
 29 12.122703 -11.022308 143.679581 0.584624 -0.797969 -0.146490 0.202152 0.267262 1 15 1.000000
LuigiHair_alb.png
 29 12.300205 -10.851740 143.667862 0.949783 -0.303465 -0.076295 0.199802 0.265049 1 15 1.000000
 29 12.122703 -11.022308 143.679581 0.584624 -0.797969 -0.146490 0.202152 0.267262 1 15 1.000000
 29 12.198563 -10.844345 143.207306 0.586606 0.183744 -0.788753 0.196063 0.269886 1 15 1.000000
LuigiHair_alb.png
 29 12.299828 -10.870396 144.265991 0.969340 -0.217444 0.114444 0.205249 0.259663 1 15 1.000000
 29 12.041792 -11.172558 144.121887 0.642098 -0.763403 -0.070189 0.207752 0.264714 1 15 1.000000
 29 12.122703 -11.022308 143.679581 0.584624 -0.797969 -0.146490 0.202152 0.267262 1 15 1.000000
LuigiHair_alb.png
 29 12.122703 -11.022308 143.679581 0.584624 -0.797969 -0.146490 0.202152 0.267262 1 15 1.000000
 29 12.041792 -11.172558 144.121887 0.642098 -0.763403 -0.070189 0.207752 0.264714 1 15 1.000000
 29 11.810600 -11.205002 144.021149 -0.021553 -0.888815 -0.457759 0.208667 0.267918 1 15 1.000000
LuigiHair_alb.png
 29 12.122703 -11.022308 143.679581 0.584624 -0.797969 -0.146490 0.202152 0.267262 1 15 1.000000
 29 11.810600 -11.205002 144.021149 -0.021553 -0.888815 -0.457759 0.208667 0.267918 1 15 1.000000
 29 12.016801 -11.027126 143.584274 -0.345908 -0.779746 -0.521865 0.201984 0.269123 1 15 1.000000
LuigiHair_alb.png
 29 12.122703 -11.022308 143.679581 0.584624 -0.797969 -0.146490 0.202152 0.267262 1 15 1.000000
 29 12.016801 -11.027126 143.584274 -0.345908 -0.779746 -0.521865 0.201984 0.269123 1 15 1.000000
 29 12.198563 -10.844345 143.207306 0.586606 0.183744 -0.788753 0.196063 0.269886 1 15 1.000000
LuigiHair_alb.png
 29 12.016801 -11.027126 143.584274 -0.345908 -0.779746 -0.521865 0.201984 0.269123 1 15 1.000000
 29 11.959066 -10.883282 143.577118 -0.724213 -0.414844 -0.550836 0.201801 0.271122 1 15 1.000000
 29 12.198563 -10.844345 143.207306 0.586606 0.183744 -0.788753 0.196063 0.269886 1 15 1.000000
LuigiHair_alb.png
 29 11.959066 -10.883282 143.577118 -0.724213 -0.414844 -0.550836 0.201801 0.271122 1 15 1.000000
 29 12.016801 -11.027126 143.584274 -0.345908 -0.779746 -0.521865 0.201984 0.269123 1 15 1.000000
 29 11.684391 -10.968719 143.963043 -0.501452 -0.599206 -0.624097 0.208148 0.271473 1 15 1.000000
LuigiHair_alb.png
 29 12.016801 -11.027126 143.584274 -0.345908 -0.779746 -0.521865 0.201984 0.269123 1 15 1.000000
 29 11.810600 -11.205002 144.021149 -0.021553 -0.888815 -0.457759 0.208667 0.267918 1 15 1.000000
 29 11.684391 -10.968719 143.963043 -0.501452 -0.599206 -0.624097 0.208148 0.271473 1 15 1.000000
LuigiHair_alb.png
 29 4.620536 -12.686466 148.644821 -0.571719 -0.162517 0.804193 0.336599 0.258839 1 15 1.000000
 29 3.353443 -13.376535 146.675232 -0.807429 -0.222867 0.546249 0.344411 0.292439 1 15 1.000000
 29 3.554326 -13.949217 146.745941 -0.679009 -0.522436 0.515760 0.336599 0.293477 1 15 1.000000
LuigiHair_alb.png
 29 4.620536 -12.686466 148.644821 -0.571719 -0.162517 0.804193 0.336599 0.258839 1 15 1.000000
 29 3.554326 -13.949217 146.745941 -0.679009 -0.522436 0.515760 0.336599 0.293477 1 15 1.000000
 29 4.917002 -13.703356 148.656311 -0.393427 -0.559818 0.729260 0.325017 0.266346 1 15 1.000000
LuigiHair_alb.png
 29 4.917002 -13.703356 148.656311 -0.393427 -0.559818 0.729260 0.325017 0.266346 1 15 1.000000
 29 3.554326 -13.949217 146.745941 -0.679009 -0.522436 0.515760 0.336599 0.293477 1 15 1.000000
 29 5.210290 -14.197491 147.755890 0.043012 -0.984612 0.169379 0.317800 0.277867 1 15 1.000000
LuigiHair_alb.png
 29 3.554326 -13.949217 146.745941 -0.679009 -0.522436 0.515760 0.336599 0.293477 1 15 1.000000
 29 3.787187 -14.247190 146.455338 -0.133128 -0.984820 0.111385 0.331594 0.297276 1 15 1.000000
 29 5.210290 -14.197491 147.755890 0.043012 -0.984612 0.169379 0.317800 0.277867 1 15 1.000000
LuigiHair_alb.png
 29 5.210290 -14.197491 147.755890 0.043012 -0.984612 0.169379 0.317800 0.277867 1 15 1.000000
 29 3.787187 -14.247190 146.455338 -0.133128 -0.984820 0.111385 0.331594 0.297276 1 15 1.000000
 29 5.369524 -13.923275 146.781189 0.309140 -0.844973 -0.436410 0.311559 0.289509 1 15 1.000000
LuigiHair_alb.png
 29 3.787187 -14.247190 146.455338 -0.133128 -0.984820 0.111385 0.331594 0.297276 1 15 1.000000
 29 4.063595 -14.088215 146.093506 0.381694 -0.779028 -0.497418 0.327062 0.301625 1 15 1.000000
 29 5.369524 -13.923275 146.781189 0.309140 -0.844973 -0.436410 0.311559 0.289509 1 15 1.000000
LuigiHair_alb.png
 29 4.063595 -14.088215 146.093506 0.381694 -0.779028 -0.497418 0.327062 0.301625 1 15 1.000000
 29 4.118077 -13.564543 145.902924 0.510285 -0.359769 -0.781137 0.322454 0.307225 1 15 1.000000
 29 5.276582 -13.352303 146.455261 0.338392 -0.465462 -0.817824 0.307759 0.297276 1 15 1.000000
LuigiHair_alb.png
 29 4.063595 -14.088215 146.093506 0.381694 -0.779028 -0.497418 0.327062 0.301625 1 15 1.000000
 29 5.276582 -13.352303 146.455261 0.338392 -0.465462 -0.817824 0.307759 0.297276 1 15 1.000000
 29 5.369524 -13.923275 146.781189 0.309140 -0.844973 -0.436410 0.311559 0.289509 1 15 1.000000
LuigiHair_alb.png
 29 6.886778 -11.882465 149.841507 -0.111437 -0.040991 0.992926 0.310689 0.229740 1 15 1.000000
 29 4.620536 -12.686466 148.644821 -0.571719 -0.162517 0.804193 0.336599 0.258839 1 15 1.000000
 29 7.184334 -13.120344 149.794098 0.027472 -0.497738 0.866892 0.303319 0.244022 1 15 1.000000
LuigiHair_alb.png
 29 4.620536 -12.686466 148.644821 -0.571719 -0.162517 0.804193 0.336599 0.258839 1 15 1.000000
 29 4.917002 -13.703356 148.656311 -0.393427 -0.559818 0.729260 0.325017 0.266346 1 15 1.000000
 29 7.184334 -13.120344 149.794098 0.027472 -0.497738 0.866892 0.303319 0.244022 1 15 1.000000
LuigiHair_alb.png
 29 7.184334 -13.120344 149.794098 0.027472 -0.497738 0.866892 0.303319 0.244022 1 15 1.000000
 29 4.917002 -13.703356 148.656311 -0.393427 -0.559818 0.729260 0.325017 0.266346 1 15 1.000000
 29 7.263675 -13.693890 148.583679 0.240374 -0.948238 0.207520 0.297459 0.259525 1 15 1.000000
LuigiHair_alb.png
 29 4.917002 -13.703356 148.656311 -0.393427 -0.559818 0.729260 0.325017 0.266346 1 15 1.000000
 29 5.210290 -14.197491 147.755890 0.043012 -0.984612 0.169379 0.317800 0.277867 1 15 1.000000
 29 7.263675 -13.693890 148.583679 0.240374 -0.948238 0.207520 0.297459 0.259525 1 15 1.000000
LuigiHair_alb.png
 29 7.263675 -13.693890 148.583679 0.240374 -0.948238 0.207520 0.297459 0.259525 1 15 1.000000
 29 5.210290 -14.197491 147.755890 0.043012 -0.984612 0.169379 0.317800 0.277867 1 15 1.000000
 29 7.117355 -13.501530 147.114258 0.271983 -0.890525 -0.364679 0.290593 0.277333 1 15 1.000000
LuigiHair_alb.png
 29 5.210290 -14.197491 147.755890 0.043012 -0.984612 0.169379 0.317800 0.277867 1 15 1.000000
 29 5.369524 -13.923275 146.781189 0.309140 -0.844973 -0.436410 0.311559 0.289509 1 15 1.000000
 29 7.117355 -13.501530 147.114258 0.271983 -0.890525 -0.364679 0.290593 0.277333 1 15 1.000000
LuigiHair_alb.png
 29 7.117355 -13.501530 147.114258 0.271983 -0.890525 -0.364679 0.290593 0.277333 1 15 1.000000
 29 5.369524 -13.923275 146.781189 0.309140 -0.844973 -0.436410 0.311559 0.289509 1 15 1.000000
 29 6.854788 -12.889650 146.562500 0.170168 -0.588867 -0.790113 0.286976 0.288029 1 15 1.000000
LuigiHair_alb.png
 29 5.369524 -13.923275 146.781189 0.309140 -0.844973 -0.436410 0.311559 0.289509 1 15 1.000000
 29 5.276582 -13.352303 146.455261 0.338392 -0.465462 -0.817824 0.307759 0.297276 1 15 1.000000
 29 6.854788 -12.889650 146.562500 0.170168 -0.588867 -0.790113 0.286976 0.288029 1 15 1.000000
LuigiHair_alb.png
 29 8.988890 -11.098862 149.402069 0.403980 0.150944 0.902228 0.278950 0.218448 1 15 1.000000
 29 6.886778 -11.882465 149.841507 -0.111437 -0.040991 0.992926 0.310689 0.229740 1 15 1.000000
 29 9.459308 -12.333166 149.405045 0.519701 -0.332166 0.787132 0.276722 0.234653 1 15 1.000000
LuigiHair_alb.png
 29 6.886778 -11.882465 149.841507 -0.111437 -0.040991 0.992926 0.310689 0.229740 1 15 1.000000
 29 7.184334 -13.120344 149.794098 0.027472 -0.497738 0.866892 0.303319 0.244022 1 15 1.000000
 29 9.459308 -12.333166 149.405045 0.519701 -0.332166 0.787132 0.276722 0.234653 1 15 1.000000
LuigiHair_alb.png
 29 9.459308 -12.333166 149.405045 0.519701 -0.332166 0.787132 0.276722 0.234653 1 15 1.000000
 29 7.184334 -13.120344 149.794098 0.027472 -0.497738 0.866892 0.303319 0.244022 1 15 1.000000
 29 9.235649 -12.990496 148.282410 0.428769 -0.888818 0.161742 0.273808 0.250782 1 15 1.000000
LuigiHair_alb.png
 29 7.184334 -13.120344 149.794098 0.027472 -0.497738 0.866892 0.303319 0.244022 1 15 1.000000
 29 7.263675 -13.693890 148.583679 0.240374 -0.948238 0.207520 0.297459 0.259525 1 15 1.000000
 29 9.235649 -12.990496 148.282410 0.428769 -0.888818 0.161742 0.273808 0.250782 1 15 1.000000
LuigiHair_alb.png
 29 7.263675 -13.693890 148.583679 0.240374 -0.948238 0.207520 0.297459 0.259525 1 15 1.000000
 29 7.117355 -13.501530 147.114258 0.271983 -0.890525 -0.364679 0.290593 0.277333 1 15 1.000000
 29 8.703200 -12.961777 146.851074 0.242796 -0.906719 -0.344835 0.269490 0.270008 1 15 1.000000
LuigiHair_alb.png
 29 7.263675 -13.693890 148.583679 0.240374 -0.948238 0.207520 0.297459 0.259525 1 15 1.000000
 29 8.703200 -12.961777 146.851074 0.242796 -0.906719 -0.344835 0.269490 0.270008 1 15 1.000000
 29 9.235649 -12.990496 148.282410 0.428769 -0.888818 0.161742 0.273808 0.250782 1 15 1.000000
LuigiHair_alb.png
 29 8.703200 -12.961777 146.851074 0.242796 -0.906719 -0.344835 0.269490 0.270008 1 15 1.000000
 29 7.117355 -13.501530 147.114258 0.271983 -0.890525 -0.364679 0.290593 0.277333 1 15 1.000000
 29 8.246470 -12.385107 146.312576 0.021556 -0.661856 -0.749321 0.267262 0.281727 1 15 1.000000
LuigiHair_alb.png
 29 7.117355 -13.501530 147.114258 0.271983 -0.890525 -0.364679 0.290593 0.277333 1 15 1.000000
 29 6.854788 -12.889650 146.562500 0.170168 -0.588867 -0.790113 0.286976 0.288029 1 15 1.000000
 29 8.246470 -12.385107 146.312576 0.021556 -0.661856 -0.749321 0.267262 0.281727 1 15 1.000000
LuigiHair_alb.png
 29 10.185891 -12.333164 146.101379 0.209425 -0.912087 -0.352475 0.246509 0.265568 1 15 1.000000
 29 8.703200 -12.961777 146.851074 0.242796 -0.906719 -0.344835 0.269490 0.270008 1 15 1.000000
 29 9.649522 -11.889072 145.778534 -0.127009 -0.691684 -0.710945 0.246464 0.275670 1 15 1.000000
LuigiHair_alb.png
 29 8.703200 -12.961777 146.851074 0.242796 -0.906719 -0.344835 0.269490 0.270008 1 15 1.000000
 29 8.246470 -12.385107 146.312576 0.021556 -0.661856 -0.749321 0.267262 0.281727 1 15 1.000000
 29 9.649522 -11.889072 145.778534 -0.127009 -0.691684 -0.710945 0.246464 0.275670 1 15 1.000000
LuigiHair_alb.png
 29 10.185891 -12.333164 146.101379 0.209425 -0.912087 -0.352475 0.246509 0.265568 1 15 1.000000
 29 10.796131 -12.224566 147.023499 0.549822 -0.831648 0.077824 0.247730 0.251194 1 15 1.000000
 29 8.703200 -12.961777 146.851074 0.242796 -0.906719 -0.344835 0.269490 0.270008 1 15 1.000000
LuigiHair_alb.png
 29 10.796131 -12.224566 147.023499 0.549822 -0.831648 0.077824 0.247730 0.251194 1 15 1.000000
 29 11.135918 -11.632172 147.808319 0.797312 -0.213348 0.564603 0.247990 0.237827 1 15 1.000000
 29 9.235649 -12.990496 148.282410 0.428769 -0.888818 0.161742 0.273808 0.250782 1 15 1.000000
LuigiHair_alb.png
 29 10.796131 -12.224566 147.023499 0.549822 -0.831648 0.077824 0.247730 0.251194 1 15 1.000000
 29 9.235649 -12.990496 148.282410 0.428769 -0.888818 0.161742 0.273808 0.250782 1 15 1.000000
 29 8.703200 -12.961777 146.851074 0.242796 -0.906719 -0.344835 0.269490 0.270008 1 15 1.000000
LuigiHair_alb.png
 29 11.135918 -11.632172 147.808319 0.797312 -0.213348 0.564603 0.247990 0.237827 1 15 1.000000
 29 10.690715 -10.582384 147.772247 0.682403 0.302962 0.665238 0.244388 0.223346 1 15 1.000000
 29 9.459308 -12.333166 149.405045 0.519701 -0.332166 0.787132 0.276722 0.234653 1 15 1.000000
LuigiHair_alb.png
 29 11.135918 -11.632172 147.808319 0.797312 -0.213348 0.564603 0.247990 0.237827 1 15 1.000000
 29 9.459308 -12.333166 149.405045 0.519701 -0.332166 0.787132 0.276722 0.234653 1 15 1.000000
 29 9.235649 -12.990496 148.282410 0.428769 -0.888818 0.161742 0.273808 0.250782 1 15 1.000000
LuigiHair_alb.png
 29 10.690715 -10.582384 147.772247 0.682403 0.302962 0.665238 0.244388 0.223346 1 15 1.000000
 29 8.988890 -11.098862 149.402069 0.403980 0.150944 0.902228 0.278950 0.218448 1 15 1.000000
 29 9.459308 -12.333166 149.405045 0.519701 -0.332166 0.787132 0.276722 0.234653 1 15 1.000000
LuigiHair_alb.png
 29 -12.299828 -10.870396 144.265991 -0.969340 -0.217444 0.114444 0.205249 0.259663 1 15 1.000000
 29 -11.688307 -11.590139 145.535706 -0.627899 -0.778293 -0.001526 0.225223 0.256306 1 15 1.000000
 29 -12.017060 -11.069275 146.021805 -0.929611 -0.158686 0.332630 0.223697 0.246052 1 15 1.000000
LuigiHair_alb.png
 29 -12.299828 -10.870396 144.265991 -0.969340 -0.217444 0.114444 0.205249 0.259663 1 15 1.000000
 29 -12.041793 -11.172558 144.121887 -0.642042 -0.763450 -0.070194 0.207752 0.264714 1 15 1.000000
 29 -11.688307 -11.590139 145.535706 -0.627899 -0.778293 -0.001526 0.225223 0.256306 1 15 1.000000
LuigiHair_alb.png
 29 -11.688307 -11.590139 145.535706 -0.627899 -0.778293 -0.001526 0.225223 0.256306 1 15 1.000000
 29 -12.041793 -11.172558 144.121887 -0.642042 -0.763450 -0.070194 0.207752 0.264714 1 15 1.000000
 29 -11.206932 -11.723577 145.046982 -0.129321 -0.908109 -0.398263 0.225574 0.265461 1 15 1.000000
LuigiHair_alb.png
 29 -12.041793 -11.172558 144.121887 -0.642042 -0.763450 -0.070194 0.207752 0.264714 1 15 1.000000
 29 -11.810601 -11.205002 144.021133 0.021458 -0.889597 -0.456243 0.208667 0.267918 1 15 1.000000
 29 -11.206932 -11.723577 145.046982 -0.129321 -0.908109 -0.398263 0.225574 0.265461 1 15 1.000000
LuigiHair_alb.png
 29 -11.783089 -10.355295 146.057129 -0.665849 0.655931 0.355527 0.219150 0.237461 1 15 1.000000
 29 -12.255662 -10.486599 144.307968 -0.593744 0.803262 0.047301 0.202152 0.255604 1 15 1.000000
 29 -12.017060 -11.069275 146.021805 -0.929611 -0.158686 0.332630 0.223697 0.246052 1 15 1.000000
LuigiHair_alb.png
 29 -12.255662 -10.486599 144.307968 -0.593744 0.803262 0.047301 0.202152 0.255604 1 15 1.000000
 29 -12.299828 -10.870396 144.265991 -0.969340 -0.217444 0.114444 0.205249 0.259663 1 15 1.000000
 29 -12.017060 -11.069275 146.021805 -0.929611 -0.158686 0.332630 0.223697 0.246052 1 15 1.000000
LuigiHair_alb.png
 29 -12.255662 -10.486599 144.307968 -0.593744 0.803262 0.047301 0.290501 0.181430 1 15 1.000000
 29 -11.783089 -10.355295 146.057129 -0.665849 0.655931 0.355527 0.246265 0.178866 1 15 1.000000
 29 -11.424247 -10.570995 145.485229 0.319186 0.937912 -0.135799 0.257038 0.192386 1 15 1.000000
LuigiHair_alb.png
 29 -12.255662 -10.486599 144.307968 -0.593744 0.803262 0.047301 0.290501 0.181430 1 15 1.000000
 29 -11.424247 -10.570995 145.485229 0.319186 0.937912 -0.135799 0.257038 0.192386 1 15 1.000000
 29 -11.825412 -10.635639 144.142349 0.285619 0.943258 -0.169369 0.291249 0.193225 1 15 1.000000
LuigiHair_alb.png
 29 -11.424247 -10.570995 145.485229 0.319186 0.937912 -0.135799 0.257038 0.192386 1 15 1.000000
 29 -11.783089 -10.355295 146.057129 -0.665849 0.655931 0.355527 0.246265 0.178866 1 15 1.000000
 29 -10.690716 -10.582384 147.772247 -0.682403 0.302962 0.665238 0.198444 0.193179 1 15 1.000000
LuigiHair_alb.png
 29 -11.825412 -10.635639 144.142349 0.285619 0.943258 -0.169369 0.291249 0.193225 1 15 1.000000
 29 -11.988950 -10.716660 143.706573 0.226973 0.935262 -0.271605 0.302785 0.193210 1 15 1.000000
 29 -12.264816 -10.650705 143.701294 -0.530601 0.814402 -0.234975 0.304936 0.186633 1 15 1.000000
LuigiHair_alb.png
 29 -11.825412 -10.635639 144.142349 0.285619 0.943258 -0.169369 0.291249 0.193225 1 15 1.000000
 29 -12.264816 -10.650705 143.701294 -0.530601 0.814402 -0.234975 0.304936 0.186633 1 15 1.000000
 29 -12.255662 -10.486599 144.307968 -0.593744 0.803262 0.047301 0.290501 0.181430 1 15 1.000000
LuigiHair_alb.png
 29 -11.988950 -10.716660 143.706573 0.226973 0.935262 -0.271605 0.302785 0.193210 1 15 1.000000
 29 -12.198564 -10.844345 143.207306 -0.586544 0.183754 -0.788797 0.316350 0.192950 1 15 1.000000
 29 -12.264816 -10.650705 143.701294 -0.530601 0.814402 -0.234975 0.304936 0.186633 1 15 1.000000
LuigiHair_alb.png
 29 -11.684392 -10.968719 143.963043 0.501452 -0.599206 -0.624097 0.208148 0.271473 1 15 1.000000
 29 -10.892700 -11.380955 144.835632 0.307077 -0.686442 -0.659167 0.224613 0.272053 1 15 1.000000
 29 -11.810601 -11.205002 144.021133 0.021458 -0.889597 -0.456243 0.208667 0.267918 1 15 1.000000
LuigiHair_alb.png
 29 -10.892700 -11.380955 144.835632 0.307077 -0.686442 -0.659167 0.224613 0.272053 1 15 1.000000
 29 -9.649522 -11.889072 145.778534 0.127009 -0.691684 -0.710945 0.246464 0.275670 1 15 1.000000
 29 -11.206932 -11.723577 145.046982 -0.129321 -0.908109 -0.398263 0.225574 0.265461 1 15 1.000000
LuigiHair_alb.png
 29 -10.892700 -11.380955 144.835632 0.307077 -0.686442 -0.659167 0.224613 0.272053 1 15 1.000000
 29 -11.206932 -11.723577 145.046982 -0.129321 -0.908109 -0.398263 0.225574 0.265461 1 15 1.000000
 29 -11.810601 -11.205002 144.021133 0.021458 -0.889597 -0.456243 0.208667 0.267918 1 15 1.000000
LuigiHair_alb.png
 29 -9.649522 -11.889072 145.778534 0.127009 -0.691684 -0.710945 0.246464 0.275670 1 15 1.000000
 29 -10.185892 -12.333164 146.101379 -0.209425 -0.912087 -0.352475 0.246509 0.265568 1 15 1.000000
 29 -11.206932 -11.723577 145.046982 -0.129321 -0.908109 -0.398263 0.225574 0.265461 1 15 1.000000
LuigiHair_alb.png
 29 -11.206932 -11.723577 145.046982 -0.129321 -0.908109 -0.398263 0.225574 0.265461 1 15 1.000000
 29 -10.185892 -12.333164 146.101379 -0.209425 -0.912087 -0.352475 0.246509 0.265568 1 15 1.000000
 29 -11.688307 -11.590139 145.535706 -0.627899 -0.778293 -0.001526 0.225223 0.256306 1 15 1.000000
LuigiHair_alb.png
 29 -10.185892 -12.333164 146.101379 -0.209425 -0.912087 -0.352475 0.246509 0.265568 1 15 1.000000
 29 -10.796131 -12.224566 147.023499 -0.549779 -0.831678 0.077818 0.247730 0.251194 1 15 1.000000
 29 -11.688307 -11.590139 145.535706 -0.627899 -0.778293 -0.001526 0.225223 0.256306 1 15 1.000000
LuigiHair_alb.png
 29 -11.688307 -11.590139 145.535706 -0.627899 -0.778293 -0.001526 0.225223 0.256306 1 15 1.000000
 29 -10.796131 -12.224566 147.023499 -0.549779 -0.831678 0.077818 0.247730 0.251194 1 15 1.000000
 29 -12.017060 -11.069275 146.021805 -0.929611 -0.158686 0.332630 0.223697 0.246052 1 15 1.000000
LuigiHair_alb.png
 29 -10.796131 -12.224566 147.023499 -0.549779 -0.831678 0.077818 0.247730 0.251194 1 15 1.000000
 29 -11.135917 -11.632172 147.808289 -0.795354 -0.212832 0.567552 0.247990 0.237827 1 15 1.000000
 29 -12.017060 -11.069275 146.021805 -0.929611 -0.158686 0.332630 0.223697 0.246052 1 15 1.000000
LuigiHair_alb.png
 29 -11.135917 -11.632172 147.808289 -0.795354 -0.212832 0.567552 0.247990 0.237827 1 15 1.000000
 29 -10.690716 -10.582384 147.772247 -0.682403 0.302962 0.665238 0.244388 0.223346 1 15 1.000000
 29 -12.017060 -11.069275 146.021805 -0.929611 -0.158686 0.332630 0.223697 0.246052 1 15 1.000000
LuigiHair_alb.png
 29 -10.690716 -10.582384 147.772247 -0.682403 0.302962 0.665238 0.244388 0.223346 1 15 1.000000
 29 -11.783089 -10.355295 146.057129 -0.665849 0.655931 0.355527 0.219150 0.237461 1 15 1.000000
 29 -12.017060 -11.069275 146.021805 -0.929611 -0.158686 0.332630 0.223697 0.246052 1 15 1.000000
LuigiHair_alb.png
 29 -3.083323 -14.030190 145.017334 0.248585 -0.927484 -0.279247 0.339269 0.316442 1 15 1.000000
 29 -3.612730 -14.076450 145.662689 -0.520756 -0.669673 -0.529482 0.332555 0.307774 1 15 1.000000
 29 -3.596743 -13.772053 145.482971 -0.679578 -0.331050 -0.654661 0.330556 0.311910 1 15 1.000000
LuigiHair_alb.png
 29 -3.612730 -14.076450 145.662689 -0.520756 -0.669673 -0.529482 0.332555 0.307774 1 15 1.000000
 29 -3.424454 -14.168161 145.840347 0.260534 -0.965464 -0.001526 0.335409 0.305562 1 15 1.000000
 29 -4.063595 -14.088215 146.093506 -0.381763 -0.778976 -0.497446 0.327062 0.301625 1 15 1.000000
LuigiHair_alb.png
 29 -3.596743 -13.772053 145.482971 -0.679578 -0.331050 -0.654661 0.330556 0.311910 1 15 1.000000
 29 -3.612730 -14.076450 145.662689 -0.520756 -0.669673 -0.529482 0.332555 0.307774 1 15 1.000000
 29 -4.118076 -13.564543 145.902924 -0.510320 -0.359761 -0.781118 0.322454 0.307225 1 15 1.000000
LuigiHair_alb.png
 29 -3.424454 -14.168161 145.840347 0.260534 -0.965464 -0.001526 0.335409 0.305562 1 15 1.000000
 29 -3.787186 -14.247190 146.455338 0.133128 -0.984820 0.111385 0.331594 0.297276 1 15 1.000000
 29 -4.063595 -14.088215 146.093506 -0.381763 -0.778976 -0.497446 0.327062 0.301625 1 15 1.000000
LuigiHair_alb.png
 29 -3.612730 -14.076450 145.662689 -0.520756 -0.669673 -0.529482 0.332555 0.307774 1 15 1.000000
 29 -4.063595 -14.088215 146.093506 -0.381763 -0.778976 -0.497446 0.327062 0.301625 1 15 1.000000
 29 -4.118076 -13.564543 145.902924 -0.510320 -0.359761 -0.781118 0.322454 0.307225 1 15 1.000000
LuigiHair_alb.png
 29 -3.083323 -14.030190 145.017334 0.248585 -0.927484 -0.279247 0.339269 0.316442 1 15 1.000000
 29 -3.147842 -13.704857 145.811783 0.915746 -0.279714 0.288392 0.342763 0.305440 1 15 1.000000
 29 -3.278767 -13.992746 145.967972 0.836430 -0.464159 0.291446 0.338491 0.303914 1 15 1.000000
LuigiHair_alb.png
 29 -3.278767 -13.992746 145.967972 0.836430 -0.464159 0.291446 0.338491 0.303914 1 15 1.000000
 29 -3.554327 -13.949217 146.745941 0.679068 -0.522349 0.515769 0.336599 0.293477 1 15 1.000000
 29 -3.787186 -14.247190 146.455338 0.133128 -0.984820 0.111385 0.331594 0.297276 1 15 1.000000
LuigiHair_alb.png
 29 -3.278767 -13.992746 145.967972 0.836430 -0.464159 0.291446 0.338491 0.303914 1 15 1.000000
 29 -3.787186 -14.247190 146.455338 0.133128 -0.984820 0.111385 0.331594 0.297276 1 15 1.000000
 29 -3.424454 -14.168161 145.840347 0.260534 -0.965464 -0.001526 0.335409 0.305562 1 15 1.000000
LuigiHair_alb.png
 29 -3.424454 -14.168161 145.840347 0.260534 -0.965464 -0.001526 0.335409 0.305562 1 15 1.000000
 29 -3.083323 -14.030190 145.017334 0.248585 -0.927484 -0.279247 0.339269 0.316442 1 15 1.000000
 29 -3.278767 -13.992746 145.967972 0.836430 -0.464159 0.291446 0.338491 0.303914 1 15 1.000000
LuigiHair_alb.png
 29 -3.147842 -13.704857 145.811783 0.915746 -0.279714 0.288392 0.342763 0.305440 1 15 1.000000
 29 -3.353443 -13.376535 146.675232 0.807429 -0.222867 0.546249 0.344411 0.292439 1 15 1.000000
 29 -3.278767 -13.992746 145.967972 0.836430 -0.464159 0.291446 0.338491 0.303914 1 15 1.000000
LuigiHair_alb.png
 29 -3.353443 -13.376535 146.675232 0.807429 -0.222867 0.546249 0.344411 0.292439 1 15 1.000000
 29 -3.554327 -13.949217 146.745941 0.679068 -0.522349 0.515769 0.336599 0.293477 1 15 1.000000
 29 -3.278767 -13.992746 145.967972 0.836430 -0.464159 0.291446 0.338491 0.303914 1 15 1.000000
LuigiHair_alb.png
 29 -3.083323 -14.030190 145.017334 0.248585 -0.927484 -0.279247 0.339269 0.316442 1 15 1.000000
 29 -3.424454 -14.168161 145.840347 0.260534 -0.965463 -0.001526 0.335409 0.305562 1 15 1.000000
 29 -3.612730 -14.076450 145.662689 -0.520756 -0.669673 -0.529482 0.332555 0.307774 1 15 1.000000
LuigiHair_alb.png
 29 -12.198564 -10.844345 143.207306 -0.586544 0.183754 -0.788797 0.196063 0.269886 1 15 1.000000
 29 -12.300205 -10.851740 143.667862 -0.949783 -0.303465 -0.076295 0.199802 0.265049 1 15 1.000000
 29 -12.264816 -10.650705 143.701294 -0.530601 0.814402 -0.234975 0.198016 0.262974 1 15 1.000000
LuigiHair_alb.png
 29 -11.959067 -10.883282 143.577118 0.724213 -0.414844 -0.550836 0.201801 0.271122 1 15 1.000000
 29 -11.684392 -10.968719 143.963043 0.501452 -0.599206 -0.624097 0.208148 0.271473 1 15 1.000000
 29 -12.016802 -11.027126 143.584274 0.346075 -0.779695 -0.521831 0.201984 0.269123 1 15 1.000000
LuigiHair_alb.png
 29 -11.684392 -10.968719 143.963043 0.501452 -0.599206 -0.624097 0.208148 0.271473 1 15 1.000000
 29 -11.810601 -11.205002 144.021133 0.021458 -0.889597 -0.456243 0.208667 0.267918 1 15 1.000000
 29 -12.016802 -11.027126 143.584274 0.346075 -0.779695 -0.521831 0.201984 0.269123 1 15 1.000000
LuigiHair_alb.png
 29 -3.554327 -13.949217 146.745941 0.679068 -0.522349 0.515769 0.336599 0.293477 1 15 1.000000
 29 -3.353443 -13.376535 146.675232 0.807429 -0.222867 0.546249 0.344411 0.292439 1 15 1.000000
 29 -4.620535 -12.686466 148.644821 0.571687 -0.162522 0.804215 0.336599 0.258839 1 15 1.000000
LuigiHair_alb.png
 29 -3.554327 -13.949217 146.745941 0.679068 -0.522349 0.515769 0.336599 0.293477 1 15 1.000000
 29 -4.620535 -12.686466 148.644821 0.571687 -0.162522 0.804215 0.336599 0.258839 1 15 1.000000
 29 -4.917002 -13.703356 148.656311 0.393386 -0.559828 0.729273 0.325017 0.266346 1 15 1.000000
LuigiHair_alb.png
 29 -4.917002 -13.703356 148.656311 0.393386 -0.559828 0.729273 0.325017 0.266346 1 15 1.000000
 29 -5.210291 -14.197491 147.755890 -0.042917 -0.984616 0.169380 0.317800 0.277867 1 15 1.000000
 29 -3.554327 -13.949217 146.745941 0.679068 -0.522349 0.515769 0.336599 0.293477 1 15 1.000000
LuigiHair_alb.png
 29 -5.210291 -14.197491 147.755890 -0.042917 -0.984616 0.169380 0.317800 0.277867 1 15 1.000000
 29 -3.787186 -14.247190 146.455338 0.133128 -0.984820 0.111385 0.331594 0.297276 1 15 1.000000
 29 -3.554327 -13.949217 146.745941 0.679068 -0.522349 0.515769 0.336599 0.293477 1 15 1.000000
LuigiHair_alb.png
 29 -3.787186 -14.247190 146.455338 0.133128 -0.984820 0.111385 0.331594 0.297276 1 15 1.000000
 29 -5.210291 -14.197491 147.755890 -0.042917 -0.984616 0.169380 0.317800 0.277867 1 15 1.000000
 29 -5.369524 -13.923275 146.781189 -0.309140 -0.844973 -0.436410 0.311559 0.289509 1 15 1.000000
LuigiHair_alb.png
 29 -3.787186 -14.247190 146.455338 0.133128 -0.984820 0.111385 0.331594 0.297276 1 15 1.000000
 29 -5.369524 -13.923275 146.781189 -0.309140 -0.844973 -0.436410 0.311559 0.289509 1 15 1.000000
 29 -4.063595 -14.088215 146.093506 -0.381763 -0.778976 -0.497446 0.327062 0.301625 1 15 1.000000
LuigiHair_alb.png
 29 -4.063595 -14.088215 146.093506 -0.381763 -0.778976 -0.497446 0.327062 0.301625 1 15 1.000000
 29 -5.369524 -13.923275 146.781189 -0.309140 -0.844973 -0.436410 0.311559 0.289509 1 15 1.000000
 29 -5.276583 -13.352303 146.455261 -0.338250 -0.465559 -0.817827 0.307759 0.297276 1 15 1.000000
LuigiHair_alb.png
 29 -4.063595 -14.088215 146.093506 -0.381763 -0.778976 -0.497446 0.327062 0.301625 1 15 1.000000
 29 -5.276583 -13.352303 146.455261 -0.338250 -0.465559 -0.817827 0.307759 0.297276 1 15 1.000000
 29 -4.118076 -13.564543 145.902924 -0.510320 -0.359761 -0.781118 0.322454 0.307225 1 15 1.000000
LuigiHair_alb.png
 29 -4.917002 -13.703356 148.656311 0.393386 -0.559828 0.729273 0.325017 0.266346 1 15 1.000000
 29 -4.620535 -12.686466 148.644821 0.571687 -0.162522 0.804215 0.336599 0.258839 1 15 1.000000
 29 -7.184334 -13.120344 149.794098 -0.027472 -0.497738 0.866892 0.303319 0.244022 1 15 1.000000
LuigiHair_alb.png
 29 -4.620535 -12.686466 148.644821 0.571687 -0.162522 0.804215 0.336599 0.258839 1 15 1.000000
 29 -6.886779 -11.882465 149.841507 0.111531 -0.040990 0.992915 0.310689 0.229740 1 15 1.000000
 29 -7.184334 -13.120344 149.794098 -0.027472 -0.497738 0.866892 0.303319 0.244022 1 15 1.000000
LuigiHair_alb.png
 29 -5.210291 -14.197491 147.755890 -0.042917 -0.984616 0.169380 0.317800 0.277867 1 15 1.000000
 29 -4.917002 -13.703356 148.656311 0.393386 -0.559828 0.729273 0.325017 0.266346 1 15 1.000000
 29 -7.263674 -13.693890 148.583679 -0.240463 -0.948217 0.207515 0.297459 0.259525 1 15 1.000000
LuigiHair_alb.png
 29 -4.917002 -13.703356 148.656311 0.393386 -0.559828 0.729273 0.325017 0.266346 1 15 1.000000
 29 -7.184334 -13.120344 149.794098 -0.027472 -0.497738 0.866892 0.303319 0.244022 1 15 1.000000
 29 -7.263674 -13.693890 148.583679 -0.240463 -0.948217 0.207515 0.297459 0.259525 1 15 1.000000
LuigiHair_alb.png
 29 -5.369524 -13.923275 146.781189 -0.309140 -0.844973 -0.436410 0.311559 0.289509 1 15 1.000000
 29 -5.210291 -14.197491 147.755890 -0.042917 -0.984616 0.169380 0.317800 0.277867 1 15 1.000000
 29 -7.117355 -13.501530 147.114258 -0.272094 -0.890482 -0.364700 0.290593 0.277333 1 15 1.000000
LuigiHair_alb.png
 29 -5.210291 -14.197491 147.755890 -0.042917 -0.984616 0.169380 0.317800 0.277867 1 15 1.000000
 29 -7.263674 -13.693890 148.583679 -0.240463 -0.948217 0.207515 0.297459 0.259525 1 15 1.000000
 29 -7.117355 -13.501530 147.114258 -0.272094 -0.890482 -0.364700 0.290593 0.277333 1 15 1.000000
LuigiHair_alb.png
 29 -5.276583 -13.352303 146.455261 -0.338250 -0.465559 -0.817827 0.307759 0.297276 1 15 1.000000
 29 -5.369524 -13.923275 146.781189 -0.309140 -0.844973 -0.436410 0.311559 0.289509 1 15 1.000000
 29 -6.854788 -12.889650 146.562500 -0.170168 -0.588867 -0.790113 0.286976 0.288029 1 15 1.000000
LuigiHair_alb.png
 29 -5.369524 -13.923275 146.781189 -0.309140 -0.844973 -0.436410 0.311559 0.289509 1 15 1.000000
 29 -7.117355 -13.501530 147.114258 -0.272094 -0.890482 -0.364700 0.290593 0.277333 1 15 1.000000
 29 -6.854788 -12.889650 146.562500 -0.170168 -0.588867 -0.790113 0.286976 0.288029 1 15 1.000000
LuigiHair_alb.png
 29 -7.184334 -13.120344 149.794098 -0.027472 -0.497738 0.866892 0.303319 0.244022 1 15 1.000000
 29 -6.886779 -11.882465 149.841507 0.111531 -0.040990 0.992915 0.310689 0.229740 1 15 1.000000
 29 -9.459309 -12.333166 149.405045 -0.519615 -0.332268 0.787146 0.276722 0.234653 1 15 1.000000
LuigiHair_alb.png
 29 -6.886779 -11.882465 149.841507 0.111531 -0.040990 0.992915 0.310689 0.229740 1 15 1.000000
 29 -8.988889 -11.098862 149.402069 -0.403980 0.150944 0.902228 0.278950 0.218448 1 15 1.000000
 29 -9.459309 -12.333166 149.405045 -0.519615 -0.332268 0.787146 0.276722 0.234653 1 15 1.000000
LuigiHair_alb.png
 29 -7.184334 -13.120344 149.794098 -0.027472 -0.497738 0.866892 0.303319 0.244022 1 15 1.000000
 29 -9.459309 -12.333166 149.405045 -0.519615 -0.332268 0.787146 0.276722 0.234653 1 15 1.000000
 29 -9.235649 -12.990496 148.282410 -0.428691 -0.888854 0.161749 0.273808 0.250782 1 15 1.000000
LuigiHair_alb.png
 29 -7.184334 -13.120344 149.794098 -0.027472 -0.497738 0.866892 0.303319 0.244022 1 15 1.000000
 29 -9.235649 -12.990496 148.282410 -0.428691 -0.888854 0.161749 0.273808 0.250782 1 15 1.000000
 29 -7.263674 -13.693890 148.583679 -0.240463 -0.948217 0.207515 0.297459 0.259525 1 15 1.000000
LuigiHair_alb.png
 29 -7.263674 -13.693890 148.583679 -0.240463 -0.948217 0.207515 0.297459 0.259525 1 15 1.000000
 29 -9.235649 -12.990496 148.282410 -0.428691 -0.888854 0.161749 0.273808 0.250782 1 15 1.000000
 29 -8.703201 -12.961777 146.851074 -0.242796 -0.906719 -0.344835 0.269490 0.270008 1 15 1.000000
LuigiHair_alb.png
 29 -7.263674 -13.693890 148.583679 -0.240463 -0.948217 0.207515 0.297459 0.259525 1 15 1.000000
 29 -8.703201 -12.961777 146.851074 -0.242796 -0.906719 -0.344835 0.269490 0.270008 1 15 1.000000
 29 -7.117355 -13.501530 147.114258 -0.272094 -0.890482 -0.364700 0.290593 0.277333 1 15 1.000000
LuigiHair_alb.png
 29 -6.854788 -12.889650 146.562500 -0.170168 -0.588867 -0.790113 0.286976 0.288029 1 15 1.000000
 29 -7.117355 -13.501530 147.114258 -0.272094 -0.890482 -0.364700 0.290593 0.277333 1 15 1.000000
 29 -8.246471 -12.385107 146.312576 -0.021364 -0.661912 -0.749277 0.267262 0.281727 1 15 1.000000
LuigiHair_alb.png
 29 -7.117355 -13.501530 147.114258 -0.272094 -0.890482 -0.364700 0.290593 0.277333 1 15 1.000000
 29 -8.703201 -12.961777 146.851074 -0.242796 -0.906719 -0.344835 0.269490 0.270008 1 15 1.000000
 29 -8.246471 -12.385107 146.312576 -0.021364 -0.661912 -0.749277 0.267262 0.281727 1 15 1.000000
LuigiHair_alb.png
 29 -8.246471 -12.385107 146.312576 -0.021364 -0.661912 -0.749277 0.267262 0.281727 1 15 1.000000
 29 -8.703201 -12.961777 146.851074 -0.242796 -0.906719 -0.344835 0.269490 0.270008 1 15 1.000000
 29 -9.649522 -11.889072 145.778534 0.127009 -0.691684 -0.710945 0.246464 0.275670 1 15 1.000000
LuigiHair_alb.png
 29 -8.703201 -12.961777 146.851074 -0.242796 -0.906719 -0.344835 0.269490 0.270008 1 15 1.000000
 29 -10.185892 -12.333164 146.101379 -0.209425 -0.912087 -0.352475 0.246509 0.265568 1 15 1.000000
 29 -9.649522 -11.889072 145.778534 0.127009 -0.691684 -0.710945 0.246464 0.275670 1 15 1.000000
LuigiHair_alb.png
 29 -10.185892 -12.333164 146.101379 -0.209425 -0.912087 -0.352475 0.246509 0.265568 1 15 1.000000
 29 -8.703201 -12.961777 146.851074 -0.242796 -0.906719 -0.344835 0.269490 0.270008 1 15 1.000000
 29 -10.796131 -12.224566 147.023499 -0.549779 -0.831678 0.077818 0.247730 0.251194 1 15 1.000000
LuigiHair_alb.png
 29 -8.703201 -12.961777 146.851074 -0.242796 -0.906719 -0.344835 0.269490 0.270008 1 15 1.000000
 29 -9.235649 -12.990496 148.282410 -0.428691 -0.888854 0.161749 0.273808 0.250782 1 15 1.000000
 29 -10.796131 -12.224566 147.023499 -0.549779 -0.831678 0.077818 0.247730 0.251194 1 15 1.000000
LuigiHair_alb.png
 29 -10.796131 -12.224566 147.023499 -0.549779 -0.831678 0.077818 0.247730 0.251194 1 15 1.000000
 29 -9.235649 -12.990496 148.282410 -0.428691 -0.888854 0.161749 0.273808 0.250782 1 15 1.000000
 29 -11.135917 -11.632172 147.808289 -0.795354 -0.212832 0.567552 0.247990 0.237827 1 15 1.000000
LuigiHair_alb.png
 29 -9.235649 -12.990496 148.282410 -0.428691 -0.888854 0.161749 0.273808 0.250782 1 15 1.000000
 29 -9.459309 -12.333166 149.405045 -0.519615 -0.332268 0.787146 0.276722 0.234653 1 15 1.000000
 29 -11.135917 -11.632172 147.808289 -0.795354 -0.212832 0.567552 0.247990 0.237827 1 15 1.000000
LuigiHair_alb.png
 29 -11.135917 -11.632172 147.808289 -0.795354 -0.212832 0.567552 0.247990 0.237827 1 15 1.000000
 29 -9.459309 -12.333166 149.405045 -0.519615 -0.332268 0.787146 0.276722 0.234653 1 15 1.000000
 29 -10.690716 -10.582384 147.772247 -0.682403 0.302962 0.665238 0.244388 0.223346 1 15 1.000000
LuigiHair_alb.png
 29 -9.459309 -12.333166 149.405045 -0.519615 -0.332268 0.787146 0.276722 0.234653 1 15 1.000000
 29 -8.988889 -11.098862 149.402069 -0.403980 0.150944 0.902228 0.278950 0.218448 1 15 1.000000
 29 -10.690716 -10.582384 147.772247 -0.682403 0.302962 0.665238 0.244388 0.223346 1 15 1.000000
end
