version 1
nodes
  0 "nw4f_root"  -1
  1 "AllRoot"   0
  2 "JointRoot"   1
  3 "Hip"   2
  4 "LegL1"   3
  5 "LegL2"   4
  6 "FootL"   5
  7 "ToeL"   6
  8 "LegR1"   3
  9 "LegR2"   8
 10 "FootR"   9
 11 "ToeR"  10
 12 "Spine1"   2
 13 "Spine2"  12
 14 "Bag"  13
 15 "Head"  13
 16 "JoeUnder"  15
 17 "ShoulderL"  13
 18 "ArmL1"  17
 19 "ArmL1Sub"  18
 20 "ArmL2"  18
 21 "ArmL2Sub"  20
 22 "HandL"  20
 23 "ShoulderR"  13
 24 "ArmR1"  23
 25 "ArmR1Sub"  24
 26 "ArmR2"  24
 27 "ArmR2Sub"  26
 28 "HandR"  26
 29 "LuigiUnused_Eyelid1"  -1
end
skeleton
time 0
  0 0.000000 0.000000 0.000000 1.570796 -0.000000 0.000000
  1 0.000000 0.000000 0.000000 0.000000 -0.000000 0.000000
  2 0.000000 68.028503 -3.990591 0.000000 -0.000000 0.000000
  3 0.000000 -2.000000 0.000001 -1.570796 -3.141592 1.570796
  4 4.029991 2.576941 -10.147688 0.000000 -0.000000 0.000000
  5 26.211063 0.000204 -0.000088 0.000000 -0.000000 0.000000
  6 22.942825 0.000005 0.000004 0.000000 0.000000 1.134464
  7 12.169998 0.000008 0.000000 -0.000000 0.000000 0.436332
  8 4.029991 2.576937 10.147690 0.000000 -0.000000 0.000000
  9 26.211067 0.000200 0.000096 0.000000 -0.000000 0.000000
 10 22.942818 0.000005 0.000004 0.000000 0.000000 1.134464
 11 12.170002 0.000010 0.000000 -0.000000 0.000000 0.436332
 12 0.000000 4.277161 -0.000000 1.570796 -0.000000 1.570796
 13 13.929802 0.000000 0.000000 0.000000 -0.000000 0.000000
 14 22.639145 -16.116180 0.000000 -1.570796 -1.570451 0.000000
 15 20.107773 0.000587 -0.000000 0.000000 0.000000 1.570796
 16 0.073432 -15.880157 -0.000000 -3.141592 0.000000 0.575263
 17 10.084557 0.778702 3.123569 -1.570796 -1.570451 0.000000
 18 12.086020 0.000000 0.000000 0.000000 0.000000 0.000000
 19 5.370699 0.000000 0.000001 -0.000000 0.000000 0.000000
 20 12.261209 0.000000 0.000001 -0.000000 0.000000 0.000000
 21 8.518942 0.000023 -0.000006 -0.000000 0.000001 -0.000000
 22 19.602606 0.000038 0.000000 -0.000000 0.000001 -0.000000
 23 10.084557 0.778702 -3.123570 1.570796 1.570451 0.000000
 24 12.086014 0.000000 0.000000 -0.000000 0.000000 0.000000
 25 5.370700 0.000000 0.000000 0.000000 0.000000 -0.000000
 26 12.261210 0.000000 -0.000001 0.000000 0.000001 -0.000000
 27 8.518951 0.000000 0.000006 0.000000 -0.000000 0.000000
 28 19.602608 0.000000 0.000000 0.000000 -0.000000 0.000000
 29 0.000000 0.000000 0.000000 0.000000 -0.000000 0.000000
end
triangles
LuigiEyelid_alb.png
 29 -2.945745 -12.671726 133.962265 0.749432 -0.461681 -0.474555 0.609445 0.523583 1 15 1.000000
 29 -2.792835 -12.783529 134.664490 0.455371 -0.867923 -0.198361 0.578256 0.506569 1 15 1.000000
 29 -3.042849 -13.026688 133.998566 0.608837 -0.732245 -0.305181 0.596368 0.536110 1 15 1.000000
LuigiEyelid_alb.png
 29 -3.707212 -12.653484 132.706528 0.479392 -0.514460 -0.710995 0.653956 0.578973 1 15 1.000000
 29 -2.945745 -12.671726 133.962265 0.749432 -0.461681 -0.474555 0.609445 0.523583 1 15 1.000000
 29 -3.042849 -13.026688 133.998566 0.608837 -0.732245 -0.305181 0.596368 0.536110 1 15 1.000000
LuigiEyelid_alb.png
 29 -3.042849 -13.026688 133.998566 0.608837 -0.732245 -0.305181 0.596368 0.536110 1 15 1.000000
 29 -2.792835 -12.783529 134.664490 0.455371 -0.867923 -0.198361 0.578256 0.506569 1 15 1.000000
 29 -3.336370 -13.036860 134.149109 0.420246 -0.891464 -0.169367 0.582971 0.544945 1 15 1.000000
LuigiEyelid_alb.png
 29 -3.707212 -12.653484 132.706528 0.479392 -0.514460 -0.710995 0.653956 0.578973 1 15 1.000000
 29 -3.042849 -13.026688 133.998566 0.608837 -0.732245 -0.305181 0.596368 0.536110 1 15 1.000000
 29 -3.977880 -13.214581 133.034195 0.383226 -0.766260 -0.515736 0.623041 0.592615 1 15 1.000000
LuigiEyelid_alb.png
 29 -3.977880 -13.214581 133.034195 0.383226 -0.766260 -0.515736 0.623041 0.592615 1 15 1.000000
 29 -3.042849 -13.026688 133.998566 0.608837 -0.732245 -0.305181 0.596368 0.536110 1 15 1.000000
 29 -3.336370 -13.036860 134.149109 0.420246 -0.891464 -0.169367 0.582971 0.544945 1 15 1.000000
LuigiEyelid_alb.png
 29 -4.861422 -12.542734 132.328415 0.093966 -0.446456 -0.889858 0.668650 0.636744 1 15 1.000000
 29 -3.707212 -12.653484 132.706528 0.479392 -0.514460 -0.710995 0.653956 0.578973 1 15 1.000000
 29 -3.977880 -13.214581 133.034195 0.383226 -0.766260 -0.515736 0.623041 0.592615 1 15 1.000000
LuigiEyelid_alb.png
 29 -3.977880 -13.214581 133.034195 0.383226 -0.766260 -0.515736 0.623041 0.592615 1 15 1.000000
 29 -3.336370 -13.036860 134.149109 0.420246 -0.891464 -0.169367 0.582971 0.544945 1 15 1.000000
 29 -4.267656 -13.315123 133.540482 0.219101 -0.961946 -0.163265 0.595071 0.599542 1 15 1.000000
LuigiEyelid_alb.png
 29 -4.861422 -12.542734 132.328415 0.093966 -0.446456 -0.889858 0.668650 0.636744 1 15 1.000000
 29 -3.977880 -13.214581 133.034195 0.383226 -0.766260 -0.515736 0.623041 0.592615 1 15 1.000000
 29 -5.108217 -13.318142 132.645355 0.031280 -0.739077 -0.672894 0.627970 0.647059 1 15 1.000000
LuigiEyelid_alb.png
 29 -5.108217 -13.318142 132.645355 0.031280 -0.739077 -0.672894 0.627970 0.647059 1 15 1.000000
 29 -3.977880 -13.214581 133.034195 0.383226 -0.766260 -0.515736 0.623041 0.592615 1 15 1.000000
 29 -4.267656 -13.315123 133.540482 0.219101 -0.961946 -0.163265 0.595071 0.599542 1 15 1.000000
LuigiEyelid_alb.png
 29 -6.239904 -12.267946 132.275497 -0.162249 -0.400784 -0.901692 0.674189 0.705547 1 15 1.000000
 29 -4.861422 -12.542734 132.328415 0.093966 -0.446456 -0.889858 0.668650 0.636744 1 15 1.000000
 29 -5.108217 -13.318142 132.645355 0.031280 -0.739077 -0.672894 0.627970 0.647059 1 15 1.000000
LuigiEyelid_alb.png
 29 -5.108217 -13.318142 132.645355 0.031280 -0.739077 -0.672894 0.627970 0.647059 1 15 1.000000
 29 -4.267656 -13.315123 133.540482 0.219101 -0.961946 -0.163265 0.595071 0.599542 1 15 1.000000
 29 -5.317440 -13.388550 133.254959 -0.072478 -0.991798 -0.105283 0.597452 0.653422 1 15 1.000000
LuigiEyelid_alb.png
 29 -6.239904 -12.267946 132.275497 -0.162249 -0.400784 -0.901692 0.674189 0.705547 1 15 1.000000
 29 -5.108217 -13.318142 132.645355 0.031280 -0.739077 -0.672894 0.627970 0.647059 1 15 1.000000
 29 -6.471867 -13.090376 132.657059 -0.237185 -0.714990 -0.657672 0.628824 0.709621 1 15 1.000000
LuigiEyelid_alb.png
 29 -6.471867 -13.090376 132.657059 -0.237185 -0.714990 -0.657672 0.628824 0.709621 1 15 1.000000
 29 -5.108217 -13.318142 132.645355 0.031280 -0.739077 -0.672894 0.627970 0.647059 1 15 1.000000
 29 -5.317440 -13.388550 133.254959 -0.072478 -0.991798 -0.105283 0.597452 0.653422 1 15 1.000000
LuigiEyelid_alb.png
 29 -7.890188 -12.055470 132.618835 -0.387168 -0.445855 -0.807040 0.660594 0.786938 1 15 1.000000
 29 -6.239904 -12.267946 132.275497 -0.162249 -0.400784 -0.901692 0.674189 0.705547 1 15 1.000000
 29 -6.471867 -13.090376 132.657059 -0.237185 -0.714990 -0.657672 0.628824 0.709621 1 15 1.000000
LuigiEyelid_alb.png
 29 -6.471867 -13.090376 132.657059 -0.237185 -0.714990 -0.657672 0.628824 0.709621 1 15 1.000000
 29 -5.317440 -13.388550 133.254959 -0.072478 -0.991798 -0.105283 0.597452 0.653422 1 15 1.000000
 29 -6.476549 -13.115620 133.301575 -0.255955 -0.965936 -0.038145 0.597833 0.712383 1 15 1.000000
LuigiEyelid_alb.png
 29 -7.995216 -12.641109 133.015533 -0.440161 -0.739276 -0.509635 0.625971 0.784390 1 15 1.000000
 29 -6.471867 -13.090376 132.657059 -0.237185 -0.714990 -0.657672 0.628824 0.709621 1 15 1.000000
 29 -6.476549 -13.115620 133.301575 -0.255955 -0.965936 -0.038145 0.597833 0.712383 1 15 1.000000
LuigiEyelid_alb.png
 29 -7.890188 -12.055470 132.618835 -0.387168 -0.445855 -0.807040 0.660594 0.786938 1 15 1.000000
 29 -6.471867 -13.090376 132.657059 -0.237185 -0.714990 -0.657672 0.628824 0.709621 1 15 1.000000
 29 -7.995216 -12.641109 133.015533 -0.440161 -0.739276 -0.509635 0.625971 0.784390 1 15 1.000000
LuigiEyelid_alb.png
 29 -7.995216 -12.641109 133.015533 -0.440161 -0.739276 -0.509635 0.625971 0.784390 1 15 1.000000
 29 -6.476549 -13.115620 133.301575 -0.255955 -0.965936 -0.038145 0.597833 0.712383 1 15 1.000000
 29 -7.795940 -12.655756 133.569214 -0.348292 -0.933483 0.085452 0.597772 0.782208 1 15 1.000000
LuigiEyelid_alb.png
 29 -9.051844 -12.056253 133.647491 -0.630015 -0.724050 -0.280770 0.615747 0.847074 1 15 1.000000
 29 -7.890188 -12.055470 132.618835 -0.387168 -0.445855 -0.807040 0.660594 0.786938 1 15 1.000000
 29 -7.995216 -12.641109 133.015533 -0.440161 -0.739276 -0.509635 0.625971 0.784390 1 15 1.000000
LuigiEyelid_alb.png
 29 -9.051844 -12.056253 133.647491 -0.630015 -0.724050 -0.280770 0.615747 0.847074 1 15 1.000000
 29 -7.995216 -12.641109 133.015533 -0.440161 -0.739276 -0.509635 0.625971 0.784390 1 15 1.000000
 29 -7.795940 -12.655756 133.569214 -0.348292 -0.933483 0.085452 0.597772 0.782208 1 15 1.000000
LuigiEyelid_alb.png
 29 -9.158401 -11.659266 133.311386 -0.669486 -0.493245 -0.555426 0.640040 0.856123 1 15 1.000000
 29 -7.890188 -12.055470 132.618835 -0.387168 -0.445855 -0.807040 0.660594 0.786938 1 15 1.000000
 29 -9.051844 -12.056253 133.647491 -0.630015 -0.724050 -0.280770 0.615747 0.847074 1 15 1.000000
LuigiEyelid_alb.png
 29 -9.051844 -12.056253 133.647491 -0.630015 -0.724050 -0.280770 0.615747 0.847074 1 15 1.000000
 29 -7.795940 -12.655756 133.569214 -0.348292 -0.933483 0.085452 0.597772 0.782208 1 15 1.000000
 29 -8.811882 -12.053984 134.017548 -0.395106 -0.895592 0.204467 0.594842 0.843610 1 15 1.000000
LuigiEyelid_alb.png
 29 -9.959624 -11.328724 135.012299 -0.700459 -0.708184 -0.088499 0.578347 0.923079 1 15 1.000000
 29 -9.158401 -11.659266 133.311386 -0.669486 -0.493245 -0.555426 0.640040 0.856123 1 15 1.000000
 29 -9.051844 -12.056253 133.647491 -0.630015 -0.724050 -0.280770 0.615747 0.847074 1 15 1.000000
LuigiEyelid_alb.png
 29 -9.959624 -11.328724 135.012299 -0.700459 -0.708184 -0.088499 0.578347 0.923079 1 15 1.000000
 29 -9.051844 -12.056253 133.647491 -0.630015 -0.724050 -0.280770 0.615747 0.847074 1 15 1.000000
 29 -8.811882 -12.053984 134.017548 -0.395106 -0.895592 0.204467 0.594842 0.843610 1 15 1.000000
LuigiEyelid_alb.png
 29 3.042849 -13.026690 133.998566 -0.608837 -0.732245 -0.305181 0.596368 0.536110 1 15 1.000000
 29 2.792835 -12.783531 134.664490 -0.455371 -0.867923 -0.198361 0.578256 0.506569 1 15 1.000000
 29 2.945745 -12.671730 133.962265 -0.749422 -0.461689 -0.474564 0.609445 0.523583 1 15 1.000000
LuigiEyelid_alb.png
 29 3.707212 -12.653486 132.706528 -0.479356 -0.514472 -0.711011 0.653956 0.578973 1 15 1.000000
 29 3.042849 -13.026690 133.998566 -0.608837 -0.732245 -0.305181 0.596368 0.536110 1 15 1.000000
 29 2.945745 -12.671730 133.962265 -0.749422 -0.461689 -0.474564 0.609445 0.523583 1 15 1.000000
LuigiEyelid_alb.png
 29 3.336370 -13.036861 134.149109 -0.420246 -0.891464 -0.169367 0.582971 0.544945 1 15 1.000000
 29 2.792835 -12.783531 134.664490 -0.455371 -0.867923 -0.198361 0.578256 0.506569 1 15 1.000000
 29 3.042849 -13.026690 133.998566 -0.608837 -0.732245 -0.305181 0.596368 0.536110 1 15 1.000000
LuigiEyelid_alb.png
 29 3.977880 -13.214582 133.034195 -0.383096 -0.766335 -0.515722 0.623041 0.592615 1 15 1.000000
 29 3.042849 -13.026690 133.998566 -0.608837 -0.732245 -0.305181 0.596368 0.536110 1 15 1.000000
 29 3.707212 -12.653486 132.706528 -0.479356 -0.514472 -0.711011 0.653956 0.578973 1 15 1.000000
LuigiEyelid_alb.png
 29 3.977880 -13.214582 133.034195 -0.383096 -0.766335 -0.515722 0.623041 0.592615 1 15 1.000000
 29 3.336370 -13.036861 134.149109 -0.420246 -0.891464 -0.169367 0.582971 0.544945 1 15 1.000000
 29 3.042849 -13.026690 133.998566 -0.608837 -0.732245 -0.305181 0.596368 0.536110 1 15 1.000000
LuigiEyelid_alb.png
 29 4.861422 -12.542736 132.328415 -0.093966 -0.446456 -0.889858 0.668650 0.636744 1 15 1.000000
 29 3.977880 -13.214582 133.034195 -0.383096 -0.766335 -0.515722 0.623041 0.592615 1 15 1.000000
 29 3.707212 -12.653486 132.706528 -0.479356 -0.514472 -0.711011 0.653956 0.578973 1 15 1.000000
LuigiEyelid_alb.png
 29 4.267656 -13.315126 133.540482 -0.219055 -0.961956 -0.163266 0.595071 0.599542 1 15 1.000000
 29 3.336370 -13.036861 134.149109 -0.420246 -0.891464 -0.169367 0.582971 0.544945 1 15 1.000000
 29 3.977880 -13.214582 133.034195 -0.383096 -0.766335 -0.515722 0.623041 0.592615 1 15 1.000000
LuigiEyelid_alb.png
 29 5.108218 -13.318146 132.645355 -0.031280 -0.739077 -0.672894 0.627970 0.647059 1 15 1.000000
 29 3.977880 -13.214582 133.034195 -0.383096 -0.766335 -0.515722 0.623041 0.592615 1 15 1.000000
 29 4.861422 -12.542736 132.328415 -0.093966 -0.446456 -0.889858 0.668650 0.636744 1 15 1.000000
LuigiEyelid_alb.png
 29 5.108218 -13.318146 132.645355 -0.031280 -0.739077 -0.672894 0.627970 0.647059 1 15 1.000000
 29 4.267656 -13.315126 133.540482 -0.219055 -0.961956 -0.163266 0.595071 0.599542 1 15 1.000000
 29 3.977880 -13.214582 133.034195 -0.383096 -0.766335 -0.515722 0.623041 0.592615 1 15 1.000000
LuigiEyelid_alb.png
 29 6.239905 -12.267948 132.275497 0.162249 -0.400784 -0.901692 0.674189 0.705547 1 15 1.000000
 29 5.108218 -13.318146 132.645355 -0.031280 -0.739077 -0.672894 0.627970 0.647059 1 15 1.000000
 29 4.861422 -12.542736 132.328415 -0.093966 -0.446456 -0.889858 0.668650 0.636744 1 15 1.000000
LuigiEyelid_alb.png
 29 5.317441 -13.388552 133.254959 0.072383 -0.991804 -0.105284 0.597452 0.653422 1 15 1.000000
 29 4.267656 -13.315126 133.540482 -0.219055 -0.961956 -0.163266 0.595071 0.599542 1 15 1.000000
 29 5.108218 -13.318146 132.645355 -0.031280 -0.739077 -0.672894 0.627970 0.647059 1 15 1.000000
LuigiEyelid_alb.png
 29 6.471867 -13.090380 132.657059 0.237095 -0.715006 -0.657687 0.628824 0.709621 1 15 1.000000
 29 5.108218 -13.318146 132.645355 -0.031280 -0.739077 -0.672894 0.627970 0.647059 1 15 1.000000
 29 6.239905 -12.267948 132.275497 0.162249 -0.400784 -0.901692 0.674189 0.705547 1 15 1.000000
LuigiEyelid_alb.png
 29 6.471867 -13.090380 132.657059 0.237095 -0.715006 -0.657687 0.628824 0.709621 1 15 1.000000
 29 5.317441 -13.388552 133.254959 0.072383 -0.991804 -0.105284 0.597452 0.653422 1 15 1.000000
 29 5.108218 -13.318146 132.645355 -0.031280 -0.739077 -0.672894 0.627970 0.647059 1 15 1.000000
LuigiEyelid_alb.png
 29 7.890189 -12.055471 132.618835 0.387249 -0.445839 -0.807011 0.660594 0.786938 1 15 1.000000
 29 6.471867 -13.090380 132.657059 0.237095 -0.715006 -0.657687 0.628824 0.709621 1 15 1.000000
 29 6.239905 -12.267948 132.275497 0.162249 -0.400784 -0.901692 0.674189 0.705547 1 15 1.000000
LuigiEyelid_alb.png
 29 6.476548 -13.115623 133.301575 0.256157 -0.965882 -0.038147 0.597833 0.712383 1 15 1.000000
 29 5.317441 -13.388552 133.254959 0.072383 -0.991804 -0.105284 0.597452 0.653422 1 15 1.000000
 29 6.471867 -13.090380 132.657059 0.237095 -0.715006 -0.657687 0.628824 0.709621 1 15 1.000000
LuigiEyelid_alb.png
 29 7.995216 -12.641111 133.015533 0.440161 -0.739276 -0.509635 0.625971 0.784390 1 15 1.000000
 29 6.476548 -13.115623 133.301575 0.256157 -0.965882 -0.038147 0.597833 0.712383 1 15 1.000000
 29 6.471867 -13.090380 132.657059 0.237095 -0.715006 -0.657687 0.628824 0.709621 1 15 1.000000
LuigiEyelid_alb.png
 29 7.995216 -12.641111 133.015533 0.440161 -0.739276 -0.509635 0.625971 0.784390 1 15 1.000000
 29 6.471867 -13.090380 132.657059 0.237095 -0.715006 -0.657687 0.628824 0.709621 1 15 1.000000
 29 7.890189 -12.055471 132.618835 0.387249 -0.445839 -0.807011 0.660594 0.786938 1 15 1.000000
LuigiEyelid_alb.png
 29 7.995216 -12.641111 133.015533 0.440161 -0.739276 -0.509635 0.625971 0.784390 1 15 1.000000
 29 7.795941 -12.655758 133.569214 0.348376 -0.933452 0.085449 0.597772 0.782208 1 15 1.000000
 29 6.476548 -13.115623 133.301575 0.256157 -0.965882 -0.038147 0.597833 0.712383 1 15 1.000000
LuigiEyelid_alb.png
 29 9.051844 -12.056253 133.647491 0.630073 -0.724007 -0.280753 0.615747 0.847074 1 15 1.000000
 29 7.995216 -12.641111 133.015533 0.440161 -0.739276 -0.509635 0.625971 0.784390 1 15 1.000000
 29 7.890189 -12.055471 132.618835 0.387249 -0.445839 -0.807011 0.660594 0.786938 1 15 1.000000
LuigiEyelid_alb.png
 29 9.051844 -12.056253 133.647491 0.630073 -0.724007 -0.280753 0.615747 0.847074 1 15 1.000000
 29 7.795941 -12.655758 133.569214 0.348376 -0.933452 0.085449 0.597772 0.782208 1 15 1.000000
 29 7.995216 -12.641111 133.015533 0.440161 -0.739276 -0.509635 0.625971 0.784390 1 15 1.000000
LuigiEyelid_alb.png
 29 9.051844 -12.056253 133.647491 0.630073 -0.724007 -0.280753 0.615747 0.847074 1 15 1.000000
 29 7.890189 -12.055471 132.618835 0.387249 -0.445839 -0.807011 0.660594 0.786938 1 15 1.000000
 29 9.158402 -11.659269 133.311386 0.669486 -0.493245 -0.555426 0.640040 0.856123 1 15 1.000000
LuigiEyelid_alb.png
 29 9.051844 -12.056253 133.647491 0.630073 -0.724007 -0.280753 0.615747 0.847074 1 15 1.000000
 29 8.811883 -12.053986 134.017548 0.394991 -0.895645 0.204457 0.594842 0.843610 1 15 1.000000
 29 7.795941 -12.655758 133.569214 0.348376 -0.933452 0.085449 0.597772 0.782208 1 15 1.000000
LuigiEyelid_alb.png
 29 9.959623 -11.328726 135.012299 0.700459 -0.708184 -0.088499 0.578347 0.923079 1 15 1.000000
 29 9.051844 -12.056253 133.647491 0.630073 -0.724007 -0.280753 0.615747 0.847074 1 15 1.000000
 29 9.158402 -11.659269 133.311386 0.669486 -0.493245 -0.555426 0.640040 0.856123 1 15 1.000000
LuigiEyelid_alb.png
 29 9.959623 -11.328726 135.012299 0.700459 -0.708184 -0.088499 0.578347 0.923079 1 15 1.000000
 29 8.811883 -12.053986 134.017548 0.394991 -0.895645 0.204457 0.594842 0.843610 1 15 1.000000
 29 9.051844 -12.056253 133.647491 0.630073 -0.724007 -0.280753 0.615747 0.847074 1 15 1.000000
LuigiEyelid_alb.png
 29 -4.647570 -13.798660 134.822342 0.252761 -0.946007 -0.202934 0.153689 0.214572 1 15 1.000000
 29 -4.267656 -13.315123 133.540482 0.219101 -0.961946 -0.163265 0.132494 0.144121 1 15 1.000000
 29 -3.336370 -13.036860 134.149109 0.420246 -0.891464 -0.169367 0.078447 0.173404 1 15 1.000000
LuigiEyelid_alb.png
 29 -4.647570 -13.798660 134.822342 0.252761 -0.946007 -0.202934 0.153689 0.214572 1 15 1.000000
 29 -3.336370 -13.036860 134.149109 0.420246 -0.891464 -0.169367 0.078447 0.173404 1 15 1.000000
 29 -2.792835 -12.783529 134.664490 0.455371 -0.867923 -0.198361 0.045258 0.198856 1 15 1.000000
LuigiEyelid_alb.png
 29 -4.647570 -13.798660 134.822342 0.252761 -0.946007 -0.202934 0.153689 0.214572 1 15 1.000000
 29 -5.317440 -13.388550 133.254959 -0.074433 -0.959094 -0.273128 0.189197 0.130144 1 15 1.000000
 29 -4.267656 -13.315123 133.540482 0.219101 -0.961946 -0.163265 0.132494 0.144121 1 15 1.000000
LuigiEyelid_alb.png
 29 -4.647570 -13.798660 134.822342 0.252761 -0.946007 -0.202934 0.153689 0.214572 1 15 1.000000
 29 -2.792835 -12.783529 134.664490 0.455371 -0.867923 -0.198361 0.045258 0.198856 1 15 1.000000
 29 -2.538630 -12.969398 135.831909 0.473577 -0.866616 -0.157168 0.031907 0.261967 1 15 1.000000
LuigiEyelid_alb.png
 29 -4.647570 -13.798660 134.822342 0.252761 -0.946007 -0.202934 0.153689 0.214572 1 15 1.000000
 29 -6.468594 -13.702797 134.990891 -0.248476 -0.944789 -0.213619 0.248814 0.221256 1 15 1.000000
 29 -5.317440 -13.388550 133.254959 -0.074433 -0.959094 -0.273128 0.189197 0.130144 1 15 1.000000
LuigiEyelid_alb.png
 29 -5.317440 -13.388550 133.254959 -0.074433 -0.959094 -0.273128 0.189197 0.130144 1 15 1.000000
 29 -6.468594 -13.702797 134.990891 -0.248476 -0.944789 -0.213619 0.248814 0.221256 1 15 1.000000
 29 -6.476549 -13.115620 133.301575 -0.305133 -0.899998 -0.311285 0.253285 0.128847 1 15 1.000000
LuigiEyelid_alb.png
 29 -6.468594 -13.702797 134.990891 -0.248476 -0.944789 -0.213619 0.248814 0.221256 1 15 1.000000
 29 -7.795940 -12.655756 133.569214 -0.428655 -0.843577 -0.323470 0.329458 0.139040 1 15 1.000000
 29 -6.476549 -13.115620 133.301575 -0.305133 -0.899998 -0.311285 0.253285 0.128847 1 15 1.000000
LuigiEyelid_alb.png
 29 -4.647570 -13.798660 134.822342 0.252761 -0.946007 -0.202934 0.153689 0.214572 1 15 1.000000
 29 -2.538630 -12.969398 135.831909 0.473577 -0.866616 -0.157168 0.031907 0.261967 1 15 1.000000
 29 -4.210558 -14.034348 136.680939 0.264179 -0.958196 -0.109868 0.131548 0.311864 1 15 1.000000
LuigiEyelid_alb.png
 29 -2.538630 -12.969398 135.831909 0.473577 -0.866616 -0.157168 0.031907 0.261967 1 15 1.000000
 29 -2.518164 -13.090134 138.373383 0.537840 -0.843035 0.004578 0.028901 0.400961 1 15 1.000000
 29 -4.210558 -14.034348 136.680939 0.264179 -0.958196 -0.109868 0.131548 0.311864 1 15 1.000000
LuigiEyelid_alb.png
 29 -4.647570 -13.798660 134.822342 0.252761 -0.946007 -0.202934 0.153689 0.214572 1 15 1.000000
 29 -6.297438 -14.084976 136.995529 -0.164409 -0.980920 -0.103757 0.238956 0.325689 1 15 1.000000
 29 -6.468594 -13.702797 134.990891 -0.248476 -0.944789 -0.213619 0.248814 0.221256 1 15 1.000000
LuigiEyelid_alb.png
 29 -4.647570 -13.798660 134.822342 0.252761 -0.946007 -0.202934 0.153689 0.214572 1 15 1.000000
 29 -4.210558 -14.034348 136.680939 0.264179 -0.958196 -0.109868 0.131548 0.311864 1 15 1.000000
 29 -6.297438 -14.084976 136.995529 -0.164409 -0.980920 -0.103757 0.238956 0.325689 1 15 1.000000
LuigiEyelid_alb.png
 29 -4.210558 -14.034348 136.680939 0.264179 -0.958196 -0.109868 0.131548 0.311864 1 15 1.000000
 29 -2.518164 -13.090134 138.373383 0.537840 -0.843035 0.004578 0.028901 0.400961 1 15 1.000000
 29 -4.053833 -14.095518 138.726852 0.279604 -0.960114 -0.001526 0.124788 0.417685 1 15 1.000000
LuigiEyelid_alb.png
 29 -4.210558 -14.034348 136.680939 0.264179 -0.958196 -0.109868 0.131548 0.311864 1 15 1.000000
 29 -4.053833 -14.095518 138.726852 0.279604 -0.960114 -0.001526 0.124788 0.417685 1 15 1.000000
 29 -6.297438 -14.084976 136.995529 -0.164409 -0.980920 -0.103757 0.238956 0.325689 1 15 1.000000
LuigiEyelid_alb.png
 29 -2.518164 -13.090134 138.373383 0.537840 -0.843035 0.004578 0.028901 0.400961 1 15 1.000000
 29 -2.814756 -13.165514 140.898148 0.543912 -0.835526 0.077821 0.052415 0.538903 1 15 1.000000
 29 -4.053833 -14.095518 138.726852 0.279604 -0.960114 -0.001526 0.124788 0.417685 1 15 1.000000
LuigiEyelid_alb.png
 29 -6.468594 -13.702797 134.990891 -0.248476 -0.944789 -0.213619 0.248814 0.221256 1 15 1.000000
 29 -8.229103 -13.059103 135.177032 -0.479298 -0.849309 -0.221244 0.346685 0.226551 1 15 1.000000
 29 -7.795940 -12.655756 133.569214 -0.428655 -0.843577 -0.323470 0.329458 0.139040 1 15 1.000000
LuigiEyelid_alb.png
 29 -7.795940 -12.655756 133.569214 -0.428655 -0.843577 -0.323470 0.329458 0.139040 1 15 1.000000
 29 -8.229103 -13.059103 135.177032 -0.479298 -0.849309 -0.221244 0.346685 0.226551 1 15 1.000000
 29 -8.811882 -12.053984 134.017548 -0.642082 -0.708455 -0.292956 0.395239 0.157107 1 15 1.000000
LuigiEyelid_alb.png
 29 -8.229103 -13.059103 135.177032 -0.479298 -0.849309 -0.221244 0.346685 0.226551 1 15 1.000000
 29 -9.959624 -11.328724 135.012299 -0.717071 -0.666335 -0.204469 0.472328 0.204791 1 15 1.000000
 29 -8.811882 -12.053984 134.017548 -0.642082 -0.708455 -0.292956 0.395239 0.157107 1 15 1.000000
LuigiEyelid_alb.png
 29 -6.468594 -13.702797 134.990891 -0.248476 -0.944789 -0.213619 0.248814 0.221256 1 15 1.000000
 29 -8.157841 -13.508650 137.124420 -0.432566 -0.894504 -0.112910 0.339284 0.328603 1 15 1.000000
 29 -8.229103 -13.059103 135.177032 -0.479298 -0.849309 -0.221244 0.346685 0.226551 1 15 1.000000
LuigiEyelid_alb.png
 29 -6.468594 -13.702797 134.990891 -0.248476 -0.944789 -0.213619 0.248814 0.221256 1 15 1.000000
 29 -6.297438 -14.084976 136.995529 -0.164409 -0.980920 -0.103757 0.238956 0.325689 1 15 1.000000
 29 -8.157841 -13.508650 137.124420 -0.432566 -0.894504 -0.112910 0.339284 0.328603 1 15 1.000000
LuigiEyelid_alb.png
 29 -8.229103 -13.059103 135.177032 -0.479298 -0.849309 -0.221244 0.346685 0.226551 1 15 1.000000
 29 -9.557865 -12.398474 137.215744 -0.706726 -0.698906 -0.109857 0.431922 0.327916 1 15 1.000000
 29 -9.959624 -11.328724 135.012299 -0.717071 -0.666335 -0.204469 0.472328 0.204791 1 15 1.000000
LuigiEyelid_alb.png
 29 -8.229103 -13.059103 135.177032 -0.479298 -0.849309 -0.221244 0.346685 0.226551 1 15 1.000000
 29 -8.157841 -13.508650 137.124420 -0.432566 -0.894504 -0.112910 0.339284 0.328603 1 15 1.000000
 29 -9.557865 -12.398474 137.215744 -0.706726 -0.698906 -0.109857 0.431922 0.327916 1 15 1.000000
LuigiEyelid_alb.png
 29 -9.959624 -11.328724 135.012299 -0.717071 -0.666335 -0.204469 0.472328 0.204791 1 15 1.000000
 29 -9.557865 -12.398474 137.215744 -0.706726 -0.698906 -0.109857 0.431922 0.327916 1 15 1.000000
 29 -10.333031 -11.170916 137.361816 -0.847667 -0.526644 -0.064090 0.507973 0.329046 1 15 1.000000
LuigiEyelid_alb.png
 29 -9.557865 -12.398474 137.215744 -0.706726 -0.698906 -0.109857 0.431922 0.327916 1 15 1.000000
 29 -10.441151 -11.103468 139.223785 -0.858684 -0.512502 -0.001526 0.520851 0.429770 1 15 1.000000
 29 -10.333031 -11.170916 137.361816 -0.847667 -0.526644 -0.064090 0.507973 0.329046 1 15 1.000000
LuigiEyelid_alb.png
 29 -9.557865 -12.398474 137.215744 -0.706726 -0.698906 -0.109857 0.431922 0.327916 1 15 1.000000
 29 -9.465282 -12.750372 139.417404 -0.692248 -0.721620 -0.007629 0.422232 0.443168 1 15 1.000000
 29 -10.441151 -11.103468 139.223785 -0.858684 -0.512502 -0.001526 0.520851 0.429770 1 15 1.000000
LuigiEyelid_alb.png
 29 -8.157841 -13.508650 137.124420 -0.432566 -0.894504 -0.112910 0.339284 0.328603 1 15 1.000000
 29 -9.465282 -12.750372 139.417404 -0.692248 -0.721620 -0.007629 0.422232 0.443168 1 15 1.000000
 29 -9.557865 -12.398474 137.215744 -0.706726 -0.698906 -0.109857 0.431922 0.327916 1 15 1.000000
LuigiEyelid_alb.png
 29 -9.465282 -12.750372 139.417404 -0.692248 -0.721620 -0.007629 0.422232 0.443168 1 15 1.000000
 29 -10.205042 -11.332687 141.292603 -0.834232 -0.538417 0.119013 0.503182 0.544137 1 15 1.000000
 29 -10.441151 -11.103468 139.223785 -0.858684 -0.512502 -0.001526 0.520851 0.429770 1 15 1.000000
LuigiEyelid_alb.png
 29 -8.157841 -13.508650 137.124420 -0.432566 -0.894504 -0.112910 0.339284 0.328603 1 15 1.000000
 29 -8.049006 -13.732712 139.310852 -0.418867 -0.907831 -0.019837 0.333745 0.439872 1 15 1.000000
 29 -9.465282 -12.750372 139.417404 -0.692248 -0.721620 -0.007629 0.422232 0.443168 1 15 1.000000
LuigiEyelid_alb.png
 29 -6.297438 -14.084976 136.995529 -0.164409 -0.980920 -0.103757 0.238956 0.325689 1 15 1.000000
 29 -8.049006 -13.732712 139.310852 -0.418867 -0.907831 -0.019837 0.333745 0.439872 1 15 1.000000
 29 -8.157841 -13.508650 137.124420 -0.432566 -0.894504 -0.112910 0.339284 0.328603 1 15 1.000000
LuigiEyelid_alb.png
 29 -9.465282 -12.750372 139.417404 -0.692248 -0.721620 -0.007629 0.422232 0.443168 1 15 1.000000
 29 -9.217535 -12.763256 141.395920 -0.675789 -0.720803 0.154117 0.412711 0.545953 1 15 1.000000
 29 -10.205042 -11.332687 141.292603 -0.834232 -0.538417 0.119013 0.503182 0.544137 1 15 1.000000
LuigiEyelid_alb.png
 29 -8.049006 -13.732712 139.310852 -0.418867 -0.907831 -0.019837 0.333745 0.439872 1 15 1.000000
 29 -9.217535 -12.763256 141.395920 -0.675789 -0.720803 0.154117 0.412711 0.545953 1 15 1.000000
 29 -9.465282 -12.750372 139.417404 -0.692248 -0.721620 -0.007629 0.422232 0.443168 1 15 1.000000
LuigiEyelid_alb.png
 29 -9.217535 -12.763256 141.395920 -0.675789 -0.720803 0.154117 0.412711 0.545953 1 15 1.000000
 29 -9.521141 -11.669802 143.077301 -0.691411 -0.650498 0.314330 0.457038 0.641489 1 15 1.000000
 29 -10.205042 -11.332687 141.292603 -0.834232 -0.538417 0.119013 0.503182 0.544137 1 15 1.000000
LuigiEyelid_alb.png
 29 -6.297438 -14.084976 136.995529 -0.164409 -0.980920 -0.103757 0.238956 0.325689 1 15 1.000000
 29 -6.062651 -14.253590 139.100311 -0.090028 -0.995844 -0.013733 0.228626 0.432822 1 15 1.000000
 29 -8.049006 -13.732712 139.310852 -0.418867 -0.907831 -0.019837 0.333745 0.439872 1 15 1.000000
LuigiEyelid_alb.png
 29 -6.297438 -14.084976 136.995529 -0.164409 -0.980920 -0.103757 0.238956 0.325689 1 15 1.000000
 29 -4.053833 -14.095518 138.726852 0.279604 -0.960114 -0.001526 0.124788 0.417685 1 15 1.000000
 29 -6.062651 -14.253590 139.100311 -0.090028 -0.995844 -0.013733 0.228626 0.432822 1 15 1.000000
LuigiEyelid_alb.png
 29 -9.217535 -12.763256 141.395920 -0.675789 -0.720803 0.154117 0.412711 0.545953 1 15 1.000000
 29 -7.799994 -13.233423 143.150467 -0.393800 -0.852064 0.344831 0.334920 0.637354 1 15 1.000000
 29 -9.521141 -11.669802 143.077301 -0.691411 -0.650498 0.314330 0.457038 0.641489 1 15 1.000000
LuigiEyelid_alb.png
 29 -9.521141 -11.669802 143.077301 -0.691411 -0.650498 0.314330 0.457038 0.641489 1 15 1.000000
 29 -7.799994 -13.233423 143.150467 -0.393800 -0.852064 0.344831 0.334920 0.637354 1 15 1.000000
 29 -7.959894 -12.317884 144.483826 -0.488620 -0.744636 0.454717 0.361334 0.716335 1 15 1.000000
LuigiEyelid_alb.png
 29 -7.799994 -13.233423 143.150467 -0.393800 -0.852064 0.344831 0.334920 0.637354 1 15 1.000000
 29 -6.573174 -12.734434 144.552063 -0.207614 -0.835892 0.508115 0.281956 0.722850 1 15 1.000000
 29 -7.959894 -12.317884 144.483826 -0.488620 -0.744636 0.454717 0.361334 0.716335 1 15 1.000000
LuigiEyelid_alb.png
 29 -8.049006 -13.732712 139.310852 -0.418867 -0.907831 -0.019837 0.333745 0.439872 1 15 1.000000
 29 -7.919657 -13.736481 141.333038 -0.374042 -0.918511 0.128178 0.329931 0.541909 1 15 1.000000
 29 -9.217535 -12.763256 141.395920 -0.675789 -0.720803 0.154117 0.412711 0.545953 1 15 1.000000
LuigiEyelid_alb.png
 29 -9.217535 -12.763256 141.395920 -0.675789 -0.720803 0.154117 0.412711 0.545953 1 15 1.000000
 29 -7.919657 -13.736481 141.333038 -0.374042 -0.918511 0.128178 0.329931 0.541909 1 15 1.000000
 29 -7.799994 -13.233423 143.150467 -0.393800 -0.852064 0.344831 0.334920 0.637354 1 15 1.000000
LuigiEyelid_alb.png
 29 -7.799994 -13.233423 143.150467 -0.393800 -0.852064 0.344831 0.334920 0.637354 1 15 1.000000
 29 -6.081667 -13.696825 143.098541 -0.088122 -0.947219 0.308237 0.242817 0.637659 1 15 1.000000
 29 -6.573174 -12.734434 144.552063 -0.207614 -0.835892 0.508115 0.281956 0.722850 1 15 1.000000
LuigiEyelid_alb.png
 29 -7.919657 -13.736481 141.333038 -0.374042 -0.918511 0.128178 0.329931 0.541909 1 15 1.000000
 29 -6.081667 -13.696825 143.098541 -0.088122 -0.947219 0.308237 0.242817 0.637659 1 15 1.000000
 29 -7.799994 -13.233423 143.150467 -0.393800 -0.852064 0.344831 0.334920 0.637354 1 15 1.000000
LuigiEyelid_alb.png
 29 -6.081667 -13.696825 143.098541 -0.088122 -0.947219 0.308237 0.242817 0.637659 1 15 1.000000
 29 -5.431942 -13.002113 144.404770 0.005722 -0.884274 0.466933 0.217533 0.716457 1 15 1.000000
 29 -6.573174 -12.734434 144.552063 -0.207614 -0.835892 0.508115 0.281956 0.722850 1 15 1.000000
LuigiEyelid_alb.png
 29 -6.081667 -13.696825 143.098541 -0.088122 -0.947219 0.308237 0.242817 0.637659 1 15 1.000000
 29 -4.350155 -13.099493 143.869583 0.168366 -0.885365 0.433337 0.155871 0.692378 1 15 1.000000
 29 -5.431942 -13.002113 144.404770 0.005722 -0.884274 0.466933 0.217533 0.716457 1 15 1.000000
LuigiEyelid_alb.png
 29 -8.049006 -13.732712 139.310852 -0.418867 -0.907831 -0.019837 0.333745 0.439872 1 15 1.000000
 29 -6.074804 -14.178513 141.227722 -0.074387 -0.989155 0.126648 0.233921 0.539910 1 15 1.000000
 29 -7.919657 -13.736481 141.333038 -0.374042 -0.918511 0.128178 0.329931 0.541909 1 15 1.000000
LuigiEyelid_alb.png
 29 -7.919657 -13.736481 141.333038 -0.374042 -0.918511 0.128178 0.329931 0.541909 1 15 1.000000
 29 -6.074804 -14.178513 141.227722 -0.074387 -0.989155 0.126648 0.233921 0.539910 1 15 1.000000
 29 -6.081667 -13.696825 143.098541 -0.088122 -0.947219 0.308237 0.242817 0.637659 1 15 1.000000
LuigiEyelid_alb.png
 29 -8.049006 -13.732712 139.310852 -0.418867 -0.907831 -0.019837 0.333745 0.439872 1 15 1.000000
 29 -6.062651 -14.253590 139.100311 -0.090028 -0.995844 -0.013733 0.228626 0.432822 1 15 1.000000
 29 -6.074804 -14.178513 141.227722 -0.074387 -0.989155 0.126648 0.233921 0.539910 1 15 1.000000
LuigiEyelid_alb.png
 29 -4.464279 -13.663160 142.806961 0.164027 -0.946112 0.279227 0.157946 0.629602 1 15 1.000000
 29 -4.350155 -13.099493 143.869583 0.168366 -0.885365 0.433337 0.155871 0.692378 1 15 1.000000
 29 -6.081667 -13.696825 143.098541 -0.088122 -0.947219 0.308237 0.242817 0.637659 1 15 1.000000
LuigiEyelid_alb.png
 29 -6.074804 -14.178513 141.227722 -0.074387 -0.989155 0.126648 0.233921 0.539910 1 15 1.000000
 29 -4.464279 -13.663160 142.806961 0.164027 -0.946112 0.279227 0.157946 0.629602 1 15 1.000000
 29 -6.081667 -13.696825 143.098541 -0.088122 -0.947219 0.308237 0.242817 0.637659 1 15 1.000000
LuigiEyelid_alb.png
 29 -3.536438 -13.152618 143.038879 0.460068 -0.849612 0.257869 0.106294 0.651942 1 15 1.000000
 29 -4.350155 -13.099493 143.869583 0.168366 -0.885365 0.433337 0.155871 0.692378 1 15 1.000000
 29 -4.464279 -13.663160 142.806961 0.164027 -0.946112 0.279227 0.157946 0.629602 1 15 1.000000
LuigiEyelid_alb.png
 29 -6.062651 -14.253590 139.100311 -0.090028 -0.995844 -0.013733 0.228626 0.432822 1 15 1.000000
 29 -4.152884 -14.005213 141.039886 0.285534 -0.952735 0.103761 0.135012 0.537057 1 15 1.000000
 29 -6.074804 -14.178513 141.227722 -0.074387 -0.989155 0.126648 0.233921 0.539910 1 15 1.000000
LuigiEyelid_alb.png
 29 -4.152884 -14.005213 141.039886 0.285534 -0.952735 0.103761 0.135012 0.537057 1 15 1.000000
 29 -4.464279 -13.663160 142.806961 0.164027 -0.946112 0.279227 0.157946 0.629602 1 15 1.000000
 29 -6.074804 -14.178513 141.227722 -0.074387 -0.989155 0.126648 0.233921 0.539910 1 15 1.000000
LuigiEyelid_alb.png
 29 -4.152884 -14.005213 141.039886 0.285534 -0.952735 0.103761 0.135012 0.537057 1 15 1.000000
 29 -3.536438 -13.152618 143.038879 0.460068 -0.849612 0.257869 0.106294 0.651942 1 15 1.000000
 29 -4.464279 -13.663160 142.806961 0.164027 -0.946112 0.279227 0.157946 0.629602 1 15 1.000000
LuigiEyelid_alb.png
 29 -4.053833 -14.095518 138.726852 0.279604 -0.960114 -0.001526 0.124788 0.417685 1 15 1.000000
 29 -4.152884 -14.005213 141.039886 0.285534 -0.952735 0.103761 0.135012 0.537057 1 15 1.000000
 29 -6.062651 -14.253590 139.100311 -0.090028 -0.995844 -0.013733 0.228626 0.432822 1 15 1.000000
LuigiEyelid_alb.png
 29 -2.814756 -13.165514 140.898148 0.543912 -0.835526 0.077821 0.052415 0.538903 1 15 1.000000
 29 -3.536438 -13.152618 143.038879 0.460068 -0.849612 0.257869 0.106294 0.651942 1 15 1.000000
 29 -4.152884 -14.005213 141.039886 0.285534 -0.952735 0.103761 0.135012 0.537057 1 15 1.000000
LuigiEyelid_alb.png
 29 -4.053833 -14.095518 138.726852 0.279604 -0.960114 -0.001526 0.124788 0.417685 1 15 1.000000
 29 -2.814756 -13.165514 140.898148 0.543912 -0.835526 0.077821 0.052415 0.538903 1 15 1.000000
 29 -4.152884 -14.005213 141.039886 0.285534 -0.952735 0.103761 0.135012 0.537057 1 15 1.000000
LuigiEyelid_alb.png
 29 4.647570 -13.798662 134.822342 -0.252583 -0.946053 -0.202944 0.153689 0.214572 1 15 1.000000
 29 3.336370 -13.036861 134.149109 -0.420246 -0.891464 -0.169367 0.078447 0.173404 1 15 1.000000
 29 4.267656 -13.315126 133.540482 -0.219055 -0.961956 -0.163266 0.132494 0.144121 1 15 1.000000
LuigiEyelid_alb.png
 29 4.647570 -13.798662 134.822342 -0.252583 -0.946053 -0.202944 0.153689 0.214572 1 15 1.000000
 29 2.792835 -12.783531 134.664490 -0.455371 -0.867923 -0.198361 0.045258 0.198856 1 15 1.000000
 29 3.336370 -13.036861 134.149109 -0.420246 -0.891464 -0.169367 0.078447 0.173404 1 15 1.000000
LuigiEyelid_alb.png
 29 4.647570 -13.798662 134.822342 -0.252583 -0.946053 -0.202944 0.153689 0.214572 1 15 1.000000
 29 4.267656 -13.315126 133.540482 -0.219055 -0.961956 -0.163266 0.132494 0.144121 1 15 1.000000
 29 5.317441 -13.388552 133.254959 0.074341 -0.958661 -0.274666 0.189197 0.130144 1 15 1.000000
LuigiEyelid_alb.png
 29 4.647570 -13.798662 134.822342 -0.252583 -0.946053 -0.202944 0.153689 0.214572 1 15 1.000000
 29 2.538630 -12.969400 135.831909 -0.473464 -0.866679 -0.157162 0.031907 0.261967 1 15 1.000000
 29 2.792835 -12.783531 134.664490 -0.455371 -0.867923 -0.198361 0.045258 0.198856 1 15 1.000000
LuigiEyelid_alb.png
 29 4.647570 -13.798662 134.822342 -0.252583 -0.946053 -0.202944 0.153689 0.214572 1 15 1.000000
 29 5.317441 -13.388552 133.254959 0.074341 -0.958661 -0.274666 0.189197 0.130144 1 15 1.000000
 29 6.468595 -13.702799 134.990891 0.248431 -0.944800 -0.213622 0.248814 0.221256 1 15 1.000000
LuigiEyelid_alb.png
 29 6.468595 -13.702799 134.990891 0.248431 -0.944800 -0.213622 0.248814 0.221256 1 15 1.000000
 29 5.317441 -13.388552 133.254959 0.074341 -0.958661 -0.274666 0.189197 0.130144 1 15 1.000000
 29 6.476548 -13.115623 133.301575 0.305220 -0.899971 -0.311275 0.253285 0.128847 1 15 1.000000
LuigiEyelid_alb.png
 29 6.468595 -13.702799 134.990891 0.248431 -0.944800 -0.213622 0.248814 0.221256 1 15 1.000000
 29 6.476548 -13.115623 133.301575 0.305220 -0.899971 -0.311275 0.253285 0.128847 1 15 1.000000
 29 7.795941 -12.655758 133.569214 0.428577 -0.843612 -0.323483 0.329458 0.139040 1 15 1.000000
LuigiEyelid_alb.png
 29 4.210557 -14.034349 136.680939 -0.264066 -0.958228 -0.109860 0.131548 0.311864 1 15 1.000000
 29 2.538630 -12.969400 135.831909 -0.473464 -0.866679 -0.157162 0.031907 0.261967 1 15 1.000000
 29 4.647570 -13.798662 134.822342 -0.252583 -0.946053 -0.202944 0.153689 0.214572 1 15 1.000000
LuigiEyelid_alb.png
 29 2.518164 -13.090136 138.373383 -0.537840 -0.843035 0.004578 0.028901 0.400961 1 15 1.000000
 29 2.538630 -12.969400 135.831909 -0.473464 -0.866679 -0.157162 0.031907 0.261967 1 15 1.000000
 29 4.210557 -14.034349 136.680939 -0.264066 -0.958228 -0.109860 0.131548 0.311864 1 15 1.000000
LuigiEyelid_alb.png
 29 6.297438 -14.084978 136.995529 0.164409 -0.980920 -0.103757 0.238956 0.325689 1 15 1.000000
 29 4.647570 -13.798662 134.822342 -0.252583 -0.946053 -0.202944 0.153689 0.214572 1 15 1.000000
 29 6.468595 -13.702799 134.990891 0.248431 -0.944800 -0.213622 0.248814 0.221256 1 15 1.000000
LuigiEyelid_alb.png
 29 6.297438 -14.084978 136.995529 0.164409 -0.980920 -0.103757 0.238956 0.325689 1 15 1.000000
 29 4.210557 -14.034349 136.680939 -0.264066 -0.958228 -0.109860 0.131548 0.311864 1 15 1.000000
 29 4.647570 -13.798662 134.822342 -0.252583 -0.946053 -0.202944 0.153689 0.214572 1 15 1.000000
LuigiEyelid_alb.png
 29 4.053833 -14.095520 138.726852 -0.279604 -0.960114 -0.001526 0.124788 0.417685 1 15 1.000000
 29 2.518164 -13.090136 138.373383 -0.537840 -0.843035 0.004578 0.028901 0.400961 1 15 1.000000
 29 4.210557 -14.034349 136.680939 -0.264066 -0.958228 -0.109860 0.131548 0.311864 1 15 1.000000
LuigiEyelid_alb.png
 29 4.053833 -14.095520 138.726852 -0.279604 -0.960114 -0.001526 0.124788 0.417685 1 15 1.000000
 29 4.210557 -14.034349 136.680939 -0.264066 -0.958228 -0.109860 0.131548 0.311864 1 15 1.000000
 29 6.297438 -14.084978 136.995529 0.164409 -0.980920 -0.103757 0.238956 0.325689 1 15 1.000000
LuigiEyelid_alb.png
 29 2.814757 -13.165514 140.898148 -0.544039 -0.835443 0.077822 0.052415 0.538903 1 15 1.000000
 29 2.518164 -13.090136 138.373383 -0.537840 -0.843035 0.004578 0.028901 0.400961 1 15 1.000000
 29 4.053833 -14.095520 138.726852 -0.279604 -0.960114 -0.001526 0.124788 0.417685 1 15 1.000000
LuigiEyelid_alb.png
 29 6.468595 -13.702799 134.990891 0.248431 -0.944800 -0.213622 0.248814 0.221256 1 15 1.000000
 29 7.795941 -12.655758 133.569214 0.428577 -0.843612 -0.323483 0.329458 0.139040 1 15 1.000000
 29 8.229102 -13.059105 135.177032 0.479410 -0.849243 -0.221251 0.346685 0.226551 1 15 1.000000
LuigiEyelid_alb.png
 29 8.229102 -13.059105 135.177032 0.479410 -0.849243 -0.221251 0.346685 0.226551 1 15 1.000000
 29 7.795941 -12.655758 133.569214 0.428577 -0.843612 -0.323483 0.329458 0.139040 1 15 1.000000
 29 8.811883 -12.053986 134.017548 0.641926 -0.708589 -0.292972 0.395239 0.157107 1 15 1.000000
LuigiEyelid_alb.png
 29 8.229102 -13.059105 135.177032 0.479410 -0.849243 -0.221251 0.346685 0.226551 1 15 1.000000
 29 8.811883 -12.053986 134.017548 0.641926 -0.708589 -0.292972 0.395239 0.157107 1 15 1.000000
 29 9.959623 -11.328726 135.012299 0.717117 -0.666289 -0.204455 0.472328 0.204791 1 15 1.000000
LuigiEyelid_alb.png
 29 4.152884 -14.005215 141.039886 -0.285534 -0.952735 0.103761 0.135012 0.537057 1 15 1.000000
 29 2.814757 -13.165514 140.898148 -0.544039 -0.835443 0.077822 0.052415 0.538903 1 15 1.000000
 29 4.053833 -14.095520 138.726852 -0.279604 -0.960114 -0.001526 0.124788 0.417685 1 15 1.000000
LuigiEyelid_alb.png
 29 4.152884 -14.005215 141.039886 -0.285534 -0.952735 0.103761 0.135012 0.537057 1 15 1.000000
 29 3.536438 -13.152620 143.038879 -0.460011 -0.849640 0.257877 0.106294 0.651942 1 15 1.000000
 29 2.814757 -13.165514 140.898148 -0.544039 -0.835443 0.077822 0.052415 0.538903 1 15 1.000000
LuigiEyelid_alb.png
 29 8.229102 -13.059105 135.177032 0.479410 -0.849243 -0.221251 0.346685 0.226551 1 15 1.000000
 29 9.959623 -11.328726 135.012299 0.717117 -0.666289 -0.204455 0.472328 0.204791 1 15 1.000000
 29 9.557864 -12.398476 137.215744 0.706773 -0.698857 -0.109864 0.431922 0.327916 1 15 1.000000
LuigiEyelid_alb.png
 29 9.557864 -12.398476 137.215744 0.706773 -0.698857 -0.109864 0.431922 0.327916 1 15 1.000000
 29 9.959623 -11.328726 135.012299 0.717117 -0.666289 -0.204455 0.472328 0.204791 1 15 1.000000
 29 10.333032 -11.170918 137.361816 0.847667 -0.526644 -0.064090 0.507973 0.329046 1 15 1.000000
LuigiEyelid_alb.png
 29 9.557864 -12.398476 137.215744 0.706773 -0.698857 -0.109864 0.431922 0.327916 1 15 1.000000
 29 10.333032 -11.170918 137.361816 0.847667 -0.526644 -0.064090 0.507973 0.329046 1 15 1.000000
 29 10.441152 -11.103470 139.223785 0.858684 -0.512502 -0.001526 0.520851 0.429770 1 15 1.000000
LuigiEyelid_alb.png
 29 8.157841 -13.508652 137.124420 0.432681 -0.894448 -0.112915 0.339284 0.328603 1 15 1.000000
 29 6.468595 -13.702799 134.990891 0.248431 -0.944800 -0.213622 0.248814 0.221256 1 15 1.000000
 29 8.229102 -13.059105 135.177032 0.479410 -0.849243 -0.221251 0.346685 0.226551 1 15 1.000000
LuigiEyelid_alb.png
 29 8.157841 -13.508652 137.124420 0.432681 -0.894448 -0.112915 0.339284 0.328603 1 15 1.000000
 29 8.229102 -13.059105 135.177032 0.479410 -0.849243 -0.221251 0.346685 0.226551 1 15 1.000000
 29 9.557864 -12.398476 137.215744 0.706773 -0.698857 -0.109864 0.431922 0.327916 1 15 1.000000
LuigiEyelid_alb.png
 29 6.297438 -14.084978 136.995529 0.164409 -0.980920 -0.103757 0.238956 0.325689 1 15 1.000000
 29 6.468595 -13.702799 134.990891 0.248431 -0.944800 -0.213622 0.248814 0.221256 1 15 1.000000
 29 8.157841 -13.508652 137.124420 0.432681 -0.894448 -0.112915 0.339284 0.328603 1 15 1.000000
LuigiEyelid_alb.png
 29 9.465281 -12.750374 139.417404 0.692295 -0.721574 -0.007630 0.422232 0.443168 1 15 1.000000
 29 9.557864 -12.398476 137.215744 0.706773 -0.698857 -0.109864 0.431922 0.327916 1 15 1.000000
 29 10.441152 -11.103470 139.223785 0.858684 -0.512502 -0.001526 0.520851 0.429770 1 15 1.000000
LuigiEyelid_alb.png
 29 8.157841 -13.508652 137.124420 0.432681 -0.894448 -0.112915 0.339284 0.328603 1 15 1.000000
 29 9.557864 -12.398476 137.215744 0.706773 -0.698857 -0.109864 0.431922 0.327916 1 15 1.000000
 29 9.465281 -12.750374 139.417404 0.692295 -0.721574 -0.007630 0.422232 0.443168 1 15 1.000000
LuigiEyelid_alb.png
 29 9.465281 -12.750374 139.417404 0.692295 -0.721574 -0.007630 0.422232 0.443168 1 15 1.000000
 29 10.441152 -11.103470 139.223785 0.858684 -0.512502 -0.001526 0.520851 0.429770 1 15 1.000000
 29 10.205042 -11.332687 141.292603 0.834088 -0.538638 0.119019 0.503182 0.544137 1 15 1.000000
LuigiEyelid_alb.png
 29 8.049007 -13.732714 139.310852 0.418752 -0.907884 -0.019836 0.333745 0.439872 1 15 1.000000
 29 6.297438 -14.084978 136.995529 0.164409 -0.980920 -0.103757 0.238956 0.325689 1 15 1.000000
 29 8.157841 -13.508652 137.124420 0.432681 -0.894448 -0.112915 0.339284 0.328603 1 15 1.000000
LuigiEyelid_alb.png
 29 8.049007 -13.732714 139.310852 0.418752 -0.907884 -0.019836 0.333745 0.439872 1 15 1.000000
 29 8.157841 -13.508652 137.124420 0.432681 -0.894448 -0.112915 0.339284 0.328603 1 15 1.000000
 29 9.465281 -12.750374 139.417404 0.692295 -0.721574 -0.007630 0.422232 0.443168 1 15 1.000000
LuigiEyelid_alb.png
 29 9.217535 -12.763260 141.395920 0.675742 -0.720849 0.154107 0.412711 0.545953 1 15 1.000000
 29 9.465281 -12.750374 139.417404 0.692295 -0.721574 -0.007630 0.422232 0.443168 1 15 1.000000
 29 10.205042 -11.332687 141.292603 0.834088 -0.538638 0.119019 0.503182 0.544137 1 15 1.000000
LuigiEyelid_alb.png
 29 8.049007 -13.732714 139.310852 0.418752 -0.907884 -0.019836 0.333745 0.439872 1 15 1.000000
 29 9.465281 -12.750374 139.417404 0.692295 -0.721574 -0.007630 0.422232 0.443168 1 15 1.000000
 29 9.217535 -12.763260 141.395920 0.675742 -0.720849 0.154107 0.412711 0.545953 1 15 1.000000
LuigiEyelid_alb.png
 29 9.217535 -12.763260 141.395920 0.675742 -0.720849 0.154107 0.412711 0.545953 1 15 1.000000
 29 10.205042 -11.332687 141.292603 0.834088 -0.538638 0.119019 0.503182 0.544137 1 15 1.000000
 29 9.521140 -11.669804 143.077301 0.691503 -0.650400 0.314328 0.457038 0.641489 1 15 1.000000
LuigiEyelid_alb.png
 29 8.049007 -13.732714 139.310852 0.418752 -0.907884 -0.019836 0.333745 0.439872 1 15 1.000000
 29 6.062651 -14.253592 139.100311 0.090028 -0.995844 -0.013733 0.228626 0.432822 1 15 1.000000
 29 6.297438 -14.084978 136.995529 0.164409 -0.980920 -0.103757 0.238956 0.325689 1 15 1.000000
LuigiEyelid_alb.png
 29 6.062651 -14.253592 139.100311 0.090028 -0.995844 -0.013733 0.228626 0.432822 1 15 1.000000
 29 4.053833 -14.095520 138.726852 -0.279604 -0.960114 -0.001526 0.124788 0.417685 1 15 1.000000
 29 6.297438 -14.084978 136.995529 0.164409 -0.980920 -0.103757 0.238956 0.325689 1 15 1.000000
LuigiEyelid_alb.png
 29 4.152884 -14.005215 141.039886 -0.285534 -0.952735 0.103761 0.135012 0.537057 1 15 1.000000
 29 4.053833 -14.095520 138.726852 -0.279604 -0.960114 -0.001526 0.124788 0.417685 1 15 1.000000
 29 6.062651 -14.253592 139.100311 0.090028 -0.995844 -0.013733 0.228626 0.432822 1 15 1.000000
LuigiEyelid_alb.png
 29 7.799994 -13.233425 143.150467 0.393638 -0.852128 0.344857 0.334920 0.637354 1 15 1.000000
 29 9.217535 -12.763260 141.395920 0.675742 -0.720849 0.154107 0.412711 0.545953 1 15 1.000000
 29 9.521140 -11.669804 143.077301 0.691503 -0.650400 0.314328 0.457038 0.641489 1 15 1.000000
LuigiEyelid_alb.png
 29 7.799994 -13.233425 143.150467 0.393638 -0.852128 0.344857 0.334920 0.637354 1 15 1.000000
 29 9.521140 -11.669804 143.077301 0.691503 -0.650400 0.314328 0.457038 0.641489 1 15 1.000000
 29 7.959894 -12.317886 144.483826 0.488620 -0.744636 0.454717 0.361334 0.716335 1 15 1.000000
LuigiEyelid_alb.png
 29 7.799994 -13.233425 143.150467 0.393638 -0.852128 0.344857 0.334920 0.637354 1 15 1.000000
 29 7.959894 -12.317886 144.483826 0.488620 -0.744636 0.454717 0.361334 0.716335 1 15 1.000000
 29 6.573174 -12.734436 144.552078 0.207808 -0.836764 0.506598 0.281956 0.722850 1 15 1.000000
LuigiEyelid_alb.png
 29 7.799994 -13.233425 143.150467 0.393638 -0.852128 0.344857 0.334920 0.637354 1 15 1.000000
 29 7.919656 -13.736485 141.333038 0.374083 -0.918495 0.128175 0.329931 0.541909 1 15 1.000000
 29 9.217535 -12.763260 141.395920 0.675742 -0.720849 0.154107 0.412711 0.545953 1 15 1.000000
LuigiEyelid_alb.png
 29 7.919656 -13.736485 141.333038 0.374083 -0.918495 0.128175 0.329931 0.541909 1 15 1.000000
 29 8.049007 -13.732714 139.310852 0.418752 -0.907884 -0.019836 0.333745 0.439872 1 15 1.000000
 29 9.217535 -12.763260 141.395920 0.675742 -0.720849 0.154107 0.412711 0.545953 1 15 1.000000
LuigiEyelid_alb.png
 29 6.081667 -13.696827 143.098541 0.088028 -0.947227 0.308240 0.242817 0.637659 1 15 1.000000
 29 7.799994 -13.233425 143.150467 0.393638 -0.852128 0.344857 0.334920 0.637354 1 15 1.000000
 29 6.573174 -12.734436 144.552078 0.207808 -0.836764 0.506598 0.281956 0.722850 1 15 1.000000
LuigiEyelid_alb.png
 29 6.081667 -13.696827 143.098541 0.088028 -0.947227 0.308240 0.242817 0.637659 1 15 1.000000
 29 7.919656 -13.736485 141.333038 0.374083 -0.918495 0.128175 0.329931 0.541909 1 15 1.000000
 29 7.799994 -13.233425 143.150467 0.393638 -0.852128 0.344857 0.334920 0.637354 1 15 1.000000
LuigiEyelid_alb.png
 29 6.081667 -13.696827 143.098541 0.088028 -0.947227 0.308240 0.242817 0.637659 1 15 1.000000
 29 6.573174 -12.734436 144.552078 0.207808 -0.836764 0.506598 0.281956 0.722850 1 15 1.000000
 29 5.431943 -13.002115 144.404770 -0.005818 -0.884274 0.466933 0.217533 0.716457 1 15 1.000000
LuigiEyelid_alb.png
 29 6.081667 -13.696827 143.098541 0.088028 -0.947227 0.308240 0.242817 0.637659 1 15 1.000000
 29 5.431943 -13.002115 144.404770 -0.005818 -0.884274 0.466933 0.217533 0.716457 1 15 1.000000
 29 4.350157 -13.099495 143.869583 -0.168459 -0.885351 0.433330 0.155871 0.692378 1 15 1.000000
LuigiEyelid_alb.png
 29 6.074804 -14.178516 141.227722 0.074387 -0.989155 0.126648 0.233921 0.539910 1 15 1.000000
 29 8.049007 -13.732714 139.310852 0.418752 -0.907884 -0.019836 0.333745 0.439872 1 15 1.000000
 29 7.919656 -13.736485 141.333038 0.374083 -0.918495 0.128175 0.329931 0.541909 1 15 1.000000
LuigiEyelid_alb.png
 29 6.081667 -13.696827 143.098541 0.088028 -0.947227 0.308240 0.242817 0.637659 1 15 1.000000
 29 6.074804 -14.178516 141.227722 0.074387 -0.989155 0.126648 0.233921 0.539910 1 15 1.000000
 29 7.919656 -13.736485 141.333038 0.374083 -0.918495 0.128175 0.329931 0.541909 1 15 1.000000
LuigiEyelid_alb.png
 29 6.074804 -14.178516 141.227722 0.074387 -0.989155 0.126648 0.233921 0.539910 1 15 1.000000
 29 6.062651 -14.253592 139.100311 0.090028 -0.995844 -0.013733 0.228626 0.432822 1 15 1.000000
 29 8.049007 -13.732714 139.310852 0.418752 -0.907884 -0.019836 0.333745 0.439872 1 15 1.000000
LuigiEyelid_alb.png
 29 6.074804 -14.178516 141.227722 0.074387 -0.989155 0.126648 0.233921 0.539910 1 15 1.000000
 29 4.152884 -14.005215 141.039886 -0.285534 -0.952735 0.103761 0.135012 0.537057 1 15 1.000000
 29 6.062651 -14.253592 139.100311 0.090028 -0.995844 -0.013733 0.228626 0.432822 1 15 1.000000
LuigiEyelid_alb.png
 29 4.464280 -13.663162 142.806961 -0.164135 -0.946087 0.279248 0.157946 0.629602 1 15 1.000000
 29 6.081667 -13.696827 143.098541 0.088028 -0.947227 0.308240 0.242817 0.637659 1 15 1.000000
 29 4.350157 -13.099495 143.869583 -0.168459 -0.885351 0.433330 0.155871 0.692378 1 15 1.000000
LuigiEyelid_alb.png
 29 4.464280 -13.663162 142.806961 -0.164135 -0.946087 0.279248 0.157946 0.629602 1 15 1.000000
 29 6.074804 -14.178516 141.227722 0.074387 -0.989155 0.126648 0.233921 0.539910 1 15 1.000000
 29 6.081667 -13.696827 143.098541 0.088028 -0.947227 0.308240 0.242817 0.637659 1 15 1.000000
LuigiEyelid_alb.png
 29 4.464280 -13.663162 142.806961 -0.164135 -0.946087 0.279248 0.157946 0.629602 1 15 1.000000
 29 4.152884 -14.005215 141.039886 -0.285534 -0.952735 0.103761 0.135012 0.537057 1 15 1.000000
 29 6.074804 -14.178516 141.227722 0.074387 -0.989155 0.126648 0.233921 0.539910 1 15 1.000000
LuigiEyelid_alb.png
 29 4.464280 -13.663162 142.806961 -0.164135 -0.946087 0.279248 0.157946 0.629602 1 15 1.000000
 29 4.350157 -13.099495 143.869583 -0.168459 -0.885351 0.433330 0.155871 0.692378 1 15 1.000000
 29 3.536438 -13.152620 143.038879 -0.460011 -0.849640 0.257877 0.106294 0.651942 1 15 1.000000
LuigiEyelid_alb.png
 29 4.464280 -13.663162 142.806961 -0.164135 -0.946087 0.279248 0.157946 0.629602 1 15 1.000000
 29 3.536438 -13.152620 143.038879 -0.460011 -0.849640 0.257877 0.106294 0.651942 1 15 1.000000
 29 4.152884 -14.005215 141.039886 -0.285534 -0.952735 0.103761 0.135012 0.537057 1 15 1.000000
end
