# This file uses centimeters as units for non-parametric coordinates.

mtllib arboooooo.mtl
g default
v 1.162641 1.992736 -0.923574
v 0.858743 1.992736 -1.227478
v -0.756101 1.992736 -1.227478
v -1.060000 1.992736 -0.923574
v -1.290661 1.923419 -0.528123
v -1.095542 2.350224 0.703786
v 0.475808 1.992736 1.190279
v 0.858743 1.992736 0.995165
v 1.424987 2.169272 -0.116154
v 0.970309 7.865243 -0.411281
v 0.833736 7.865243 -0.679321
v 0.621018 7.865243 -0.892039
v 0.352977 7.640652 -1.028612
v 0.055852 7.640652 -1.075677
v -0.241274 7.865243 -1.028612
v -0.509316 7.640127 -0.892039
v -0.722034 7.640127 -0.679321
v -0.858608 7.640127 -0.411280
v -0.905666 7.865243 -0.114155
v -0.858608 7.556637 0.182970
v -0.722034 7.556637 0.451012
v -0.509316 7.865243 0.663731
v -0.241273 7.865243 0.800304
v 0.055852 7.865243 0.847362
v 0.352977 7.865243 0.800304
v 0.621017 7.666076 0.663731
v 0.833735 7.666076 0.451012
v 0.970309 7.865243 0.182970
v 1.017369 7.459850 -0.114155
v 0.015777 1.833464 -0.103637
v 0.055852 7.459850 -0.114155
v 1.166336 2.694887 -0.478444
v 0.999809 2.694887 -0.805270
v 0.740438 2.694887 -1.064642
v 0.413612 2.694887 -1.231172
v 0.051322 2.694887 -1.288553
v -0.310968 2.694887 -1.231172
v -0.637796 2.694887 -1.064642
v -0.897167 2.694887 -0.805270
v -1.099238 2.625571 -0.465926
v -1.156619 2.625571 -0.103637
v -1.099238 2.625571 0.258653
v -0.932711 2.625571 0.585481
v -0.637796 2.694887 0.832335
v -0.310968 2.694887 0.998859
v 0.051322 2.694887 1.056239
v 0.413612 2.694887 0.998859
v 0.740438 2.694887 0.832335
v 0.999808 2.694887 0.572964
v 1.166336 2.694887 0.246136
v 1.223716 2.694887 -0.116154
v 1.012307 3.078046 -0.428397
v 1.061760 3.078046 -0.116154
v 1.012305 3.078046 0.196088
v 0.868783 3.078046 0.477768
v 0.645242 3.078046 0.701310
v 0.363564 3.078046 0.844832
v 0.051322 3.078046 0.894284
v -0.260921 3.078046 0.844832
v -0.542600 3.078046 0.701310
v -0.766141 3.078046 0.477768
v -0.909662 3.078046 0.196088
v -0.959116 3.078046 -0.116154
v -0.909662 3.078046 -0.428397
v -0.766141 3.078046 -0.710074
v -0.542601 3.078046 -0.933616
v -0.260921 3.078046 -1.077141
v 0.051322 3.078046 -1.126597
v 0.363565 3.078046 -1.077141
v 0.645243 3.078046 -0.933616
v 0.868784 3.078046 -0.710074
v 1.727512 1.843501 1.081279
v 2.031416 1.843501 0.777382
v 0.920090 1.843501 -0.030040
v 2.226533 1.843501 0.394447
v 2.293764 1.843501 -0.030040
v 1.868576 2.118848 0.659078
v 1.609206 2.118848 0.918447
v 2.035110 2.118848 0.332249
v 2.092493 2.118848 -0.030040
v -1.189081 2.007094 1.472922
v -0.987221 2.007094 1.776821
v -0.179800 2.007094 0.665505
v -0.604288 2.007094 1.971936
v -0.179800 2.007094 2.039167
v 0.244687 2.007094 1.971936
v -0.868918 2.212626 1.613989
v -1.026251 2.212626 1.354618
v -0.542091 2.212626 1.780516
v -0.179800 2.212626 1.837896
v 0.182490 2.212626 1.780516
v -1.933563 2.032496 -0.404595
v -2.000793 2.032496 0.019891
v -0.627131 2.032496 0.019891
v -1.933563 2.032496 0.444378
v -1.738451 2.032496 0.713556
v -1.799526 2.238027 0.019891
v -1.742145 2.238027 -0.342399
v -1.742145 2.238027 0.382181
v -1.575619 2.238027 0.595251
v 0.752205 2.030992 -1.926569
v 0.537039 2.030992 -2.121679
v 0.230414 1.961675 -0.802725
v 0.112552 2.030992 -2.188910
v -0.158527 2.030992 -2.121679
v -0.541463 2.030992 -1.926569
v 0.474842 2.236524 -1.930262
v 0.633900 2.236524 -1.763734
v 0.112552 2.236524 -1.987643
v -0.096331 2.236524 -1.930262
v -0.423158 2.236524 -1.763734
v -0.845363 2.030992 -1.622667
v -0.682530 2.236524 -1.504362
v 1.837713 2.112436 -0.599952
v 1.642598 2.112436 -0.982886
v 0.495733 1.940332 -0.162948
v 1.904943 2.112436 -0.175465
v 1.479765 2.317968 -0.864582
v 1.646291 2.317968 -0.537755
v 1.703672 2.317968 -0.175465
v 1.132027 2.589968 -0.906967
v 0.835172 2.589968 -1.203827
v 0.739588 2.134000 -1.938596
v 0.533298 2.134000 -2.129185
v 0.118650 2.134000 -2.194855
v -0.142591 2.134000 -2.129185
v -0.516651 2.134000 -1.938595
v -0.813506 2.134000 -1.641738
v -1.039097 2.589968 -0.906967
v -1.267050 2.517114 -0.519752
v -1.942763 2.135580 -0.389920
v -2.008436 2.135580 0.024727
v -1.942763 2.135580 0.439376
v -1.752175 2.135580 0.699678
v -1.076456 2.517114 0.683604
v -1.179976 2.108882 1.491993
v -0.985159 2.108882 1.788848
v -0.611101 2.108882 1.979441
v -0.196452 2.108882 2.045114
v 0.218196 2.108882 1.979441
v 0.461113 2.589968 1.157892
v 0.835171 2.589968 0.967300
v 1.748278 1.978830 1.057808
v 2.045140 1.978830 0.760956
v 2.235734 1.978830 0.386895
v 2.301406 1.978830 -0.027753
v 1.388292 2.589968 -0.118261
v 1.892743 2.219601 -0.180599
v 1.827070 2.219601 -0.595247
v 1.636477 2.219601 -0.969305
v 0.927927 4.702482 -0.399693
v 0.972952 4.702482 -0.115413
v 0.927926 4.702482 0.168867
v 0.797256 4.702482 0.425320
v 0.593734 4.702482 0.628845
v 0.337281 4.702482 0.759514
v 0.053001 4.702482 0.804540
v -0.231279 4.702482 0.759514
v -0.487734 4.702482 0.628845
v -0.691256 4.702482 0.425322
v -0.821926 4.702482 0.168867
v -0.866952 4.702482 -0.115413
v -0.821926 4.702482 -0.399693
v -0.691256 4.702482 -0.656146
v -0.487734 4.702482 -0.859669
v -0.231279 4.702482 -0.990338
v 0.053001 4.702482 -1.035364
v 0.337282 4.702482 -0.990338
v 0.593735 4.702482 -0.859669
v 0.797257 4.702482 -0.656146
v 0.924498 6.157746 -0.397427
v 0.969269 6.157746 -0.114749
v 0.924497 6.157746 0.167928
v 0.794564 6.157746 0.422936
v 0.592190 6.157746 0.625312
v 0.337183 6.157746 0.755245
v 0.054506 6.157746 0.800017
v -0.228172 6.157746 0.755245
v -0.483181 6.157746 0.625312
v -0.685555 6.157746 0.422936
v -0.815488 6.157746 0.167928
v -0.860261 6.157746 -0.114749
v -0.815488 6.157746 -0.397427
v -0.685555 6.157746 -0.652433
v -0.483181 6.157746 -0.854808
v -0.228172 6.157746 -0.984741
v 0.054506 6.157746 -1.029514
v 0.337183 6.157746 -0.984741
v 0.592190 6.157746 -0.854808
v 0.794565 6.157746 -0.652434
v 0.475808 1.992736 1.489759
v 0.858743 1.992736 1.294645
v 0.835171 2.589968 1.266780
v 0.461113 2.589968 1.457372
v 0.947711 6.702701 -0.404447
v 0.993642 6.702701 -0.114448
v 0.947710 6.702701 0.175550
v 0.814413 6.817534 0.437163
v 0.606797 6.817534 0.644779
v 0.345186 6.817534 0.778077
v 0.055188 6.817534 0.824008
v -0.234811 6.817534 0.778077
v -0.496424 6.817534 0.644779
v -0.704040 6.817534 0.437163
v -0.837338 6.817534 0.175550
v -0.883269 6.817534 -0.114448
v -0.837338 6.817534 -0.404447
v -0.704040 6.817534 -0.666057
v -0.496424 6.817534 -0.873674
v -0.234811 6.817534 -1.006971
v 0.055188 6.817534 -1.052904
v 0.345186 6.817534 -1.006971
v 0.606797 6.817534 -0.873674
v 0.814413 6.817534 -0.666058
v 1.337688 6.968254 -0.453237
v 1.388096 6.978166 -0.128883
v 1.223878 7.678040 -0.460879
v 1.275524 7.688194 -0.128555
v 1.337688 6.968254 0.195470
v 1.223878 7.678039 0.203768
v 1.674998 7.250861 -0.499559
v 1.729090 7.273667 -0.128930
v 1.420946 7.937187 -0.508293
v 1.476366 7.960553 -0.128555
v 1.674998 7.250860 0.241699
v 1.420946 7.937186 0.251182
v 2.048928 7.936898 -0.380044
v 2.078208 7.963845 -0.128809
v 1.686498 8.359600 -0.385965
v 1.716497 8.387210 -0.128555
v 2.048927 7.936897 0.122425
v 1.686498 8.359600 0.128853
v 2.225578 8.795820 -0.281542
v 2.219264 8.819187 -0.128710
v 1.895677 8.719016 -0.285144
v 1.889207 8.742959 -0.128556
v 2.225579 8.795819 0.024122
v 1.895677 8.719016 0.028033
v 2.144631 9.451845 -0.207910
v 2.141357 9.463964 -0.128636
v 1.973509 9.412008 -0.209778
v 1.970152 9.424429 -0.128556
v 2.144632 9.451845 -0.049361
v 1.973509 9.412008 -0.047333
v 0.958437 7.122383 -0.473839
v 0.823584 7.122383 -0.672353
v 0.613546 7.122383 -0.882390
v 0.348884 7.122383 -1.017242
v -0.237878 7.122383 -1.017242
v -0.502543 7.122383 -0.882390
v -0.847433 7.122383 -0.407690
v -0.893900 7.122383 -0.114309
v -0.847433 7.122383 0.179072
v -0.712580 7.122383 0.443735
v -0.502543 7.122383 0.653774
v -0.237878 7.122383 0.788627
v 0.055503 7.122383 0.835094
v 0.348883 7.122383 0.788627
v 0.613546 7.122383 0.653774
v 0.823583 7.122383 0.443735
v 0.958436 7.122383 0.252071
v 1.283673 7.305124 0.277230
v 1.554423 7.576597 0.335118
v 1.876912 8.137516 0.185766
v 2.069007 8.759367 0.062672
v 2.063419 9.432937 -0.029343
v 2.060106 9.445200 -0.128598
v 2.063418 9.432937 -0.227779
v 2.069007 8.759367 -0.319891
v 1.876912 8.137516 -0.443113
v 1.554423 7.576597 -0.592624
v 1.283673 7.305124 -0.534674
v -0.591455 6.202330 0.607923
v -0.793830 6.202330 0.405548
v -0.604698 6.862118 0.627390
v -0.812314 6.862118 0.419773
v -0.923760 6.202330 0.150539
v -0.945611 6.862118 0.158161
v -0.913550 6.587100 0.597188
v -1.058111 6.610727 0.450710
v -0.845985 7.059944 0.611278
v -0.994288 7.084182 0.461005
v -1.150924 6.625895 0.266136
v -1.089505 7.099744 0.271652
v -1.106422 6.810828 0.554394
v -1.185793 6.844076 0.483699
v -0.992284 7.040315 0.536873
v -1.073707 7.074424 0.464346
v -1.243007 6.863244 0.390092
v -1.132404 7.094088 0.368315
v -1.008874 7.377006 -0.815671
v -1.017142 7.926749 -0.818327
v -0.916073 7.926749 -1.016687
v -0.753643 7.377006 -1.166968
v -0.758656 7.926749 -1.174108
v -0.902758 7.151408 -1.006871
v -0.749115 7.151408 -1.160517
v -1.001401 7.151408 -0.813270
v -1.081549 7.716557 -1.116976
v -1.008397 8.031267 -1.047023
v -0.932547 8.037754 -1.157128
v -0.903176 7.716119 -1.307628
v -0.827747 8.030822 -1.240111
v -1.035299 7.592956 -1.252146
v -0.933011 7.586191 -1.333139
v -1.109329 7.586624 -1.144684
v -1.169202 7.945315 -1.402377
v -1.130700 8.110954 -1.365560
v -1.090779 8.114368 -1.423510
v -1.075318 7.945084 -1.502722
v -1.035618 8.110720 -1.467186
v -1.144860 7.880261 -1.473520
v -1.091023 7.876700 -1.516148
v -1.183821 7.876928 -1.416960
v -1.282565 8.095377 -1.713478
v -1.293602 8.094432 -1.697455
v -1.282821 8.140815 -1.687146
v -1.271642 8.141771 -1.703373
v -1.267313 8.094368 -1.725554
v -1.256196 8.140749 -1.715603
v -1.286786 8.076217 -1.717377
v -1.271711 8.075219 -1.729314
v -1.297697 8.075283 -1.701539
v 1.709215 7.637508 0.401674
v 1.853120 7.887810 0.335027
v 1.763021 7.492153 0.359987
v 1.929879 7.798287 0.306763
v 1.970449 7.693682 0.442732
v 2.060642 7.850552 0.400964
v 2.004172 7.602585 0.416607
v 2.108747 7.794446 0.383250
v 2.199287 7.783430 0.444853
v 2.244023 7.861241 0.424135
v 2.216014 7.738244 0.431894
v 2.267885 7.833411 0.415348
v 0.055566 7.382385 1.071691
v 0.295462 7.382385 1.033696
v 0.298809 7.989817 1.043245
v 0.055852 7.989817 1.081724
v -0.184329 7.382385 1.033696
v -0.187106 7.989817 1.043245
v 0.055677 7.829166 1.415894
v 0.202752 7.816107 1.396605
v 0.204804 8.127768 1.192679
v 0.055852 8.140993 1.212214
v -0.091398 7.816107 1.396605
v -0.093100 8.127768 1.192679
v 0.055747 8.291932 1.511376
v 0.144143 8.280314 1.503563
v 0.145376 8.408143 1.319797
v 0.055852 8.419910 1.327710
v -0.032650 8.280314 1.503563
v -0.033673 8.408143 1.319797
v 0.055804 8.699432 1.545842
v 0.095686 8.694191 1.542317
v 0.096242 8.751863 1.459408
v 0.055852 8.757171 1.462978
v 0.015923 8.694191 1.542317
v 0.015461 8.751863 1.459408
v -0.147104 7.324240 -1.348900
v -0.149450 7.817826 -1.207844
v 0.055852 7.678699 -1.283890
v 0.258326 7.324240 -1.348900
v 0.261154 7.669286 -1.252763
v 0.055393 7.129752 -1.433458
v 0.255770 7.120565 -1.403078
v -0.144984 7.120565 -1.403078
v -0.090313 7.534656 -1.514659
v -0.092003 7.852039 -1.325059
v 0.055852 7.769300 -1.403755
v 0.201669 7.534656 -1.514659
v 0.203706 7.756984 -1.383837
v 0.055521 7.414966 -1.609534
v 0.199829 7.402945 -1.590093
v -0.088786 7.402945 -1.590093
v 0.079836 8.014549 -1.718671
v 0.079064 8.159534 -1.632059
v 0.146606 8.121738 -1.668008
v 0.213218 8.014549 -1.718671
v 0.214148 8.116111 -1.658909
v 0.146455 7.959873 -1.762011
v 0.212377 7.954382 -1.753130
v 0.080534 7.954382 -1.753130
v 0.046342 8.040326 -1.836089
v 0.002424 8.036666 -1.830173
v 0.001916 8.132143 -1.773137
v 0.046394 8.107254 -1.796810
v 0.090259 8.036666 -1.830173
v 0.090872 8.103548 -1.790818
v 0.046295 8.000662 -1.858713
v 0.089705 7.997045 -1.852864
v 0.002884 7.997045 -1.852864
v 0.588510 1.992736 1.132855
v 0.588510 1.992736 1.432335
v 0.571202 2.589968 1.401279
v 0.571202 2.589968 1.101799
v 0.509800 2.694887 0.949850
v 0.446465 3.078046 0.802592
v 0.412758 4.702482 0.721057
v 0.412234 6.157746 0.717005
v 0.422181 6.817534 0.738846
v 0.426776 7.122383 0.748938
v 0.431864 7.806626 0.760109
v 0.559778 7.813929 -0.923242
v 0.553078 7.122383 -0.913200
v 0.547027 6.817534 -0.904129
v 0.533928 6.157746 -0.884494
v 0.535143 4.702482 -0.889523
v 0.580887 3.078046 -0.966407
v 0.665767 2.694887 -1.102690
v 0.597559 2.236524 -1.801781
v 0.692456 2.134000 -1.982140
v 0.703045 2.030992 -1.971146
v 0.964249 4.003222 -0.412049
v 0.828047 4.003222 -0.679360
v 0.615907 4.003222 -0.891500
v 0.554834 4.003222 -0.922619
v 0.348596 4.003222 -1.027703
v 0.052278 4.003222 -1.074636
v -0.244039 4.003222 -1.027703
v -0.511352 4.003222 -0.891500
v -0.723492 4.003222 -0.679360
v -0.859693 4.003222 -0.412049
v -0.906625 4.003222 -0.115732
v -0.859693 4.003222 0.180585
v -0.723492 4.003222 0.447898
v -0.511352 4.003222 0.660038
v -0.244039 4.003222 0.796240
v 0.052278 4.003222 0.843172
v 0.348595 4.003222 0.796240
v 0.427268 4.003222 0.756155
v 0.615906 4.003222 0.660038
v 0.828046 4.003222 0.447897
v 0.964248 4.003222 0.180585
v 1.011181 4.003222 -0.115732
v 1.005591 7.561316 -0.188523
v 1.262597 7.685652 -0.211734
v 1.462495 7.954704 -0.223601
v 1.708988 8.380299 -0.192983
v 1.890827 8.736966 -0.167748
v 1.970993 9.421319 -0.148885
v 2.060934 9.442131 -0.153422
v 2.142176 9.460930 -0.148477
v 2.220843 8.813337 -0.166963
v 2.070879 7.957100 -0.191691
v 1.715552 7.267958 -0.221696
v 1.375479 6.975685 -0.210066
v 0.982146 6.702701 -0.187033
v 0.958063 6.157746 -0.185501
v 0.961682 4.702482 -0.186566
v 0.999434 4.003222 -0.189898
v 1.049383 3.078046 -0.194306
v 1.209354 2.694887 -0.206832
v 1.689310 2.317968 -0.266144
v 1.876306 2.219601 -0.284382
v 1.888117 2.112436 -0.281711
v -0.824893 7.556637 0.249140
v -0.814143 7.122383 0.244407
v -0.804431 6.817534 0.240133
v -0.912706 6.862118 0.222744
v -1.066000 7.095902 0.318397
v -1.117913 7.089234 0.392022
v -1.228883 6.858512 0.413200
v -1.128013 6.622150 0.311700
v -0.891686 6.202330 0.213491
v -0.783413 6.157746 0.230880
v -0.789669 4.702482 0.232176
v -0.826070 4.003222 0.246575
v -0.874232 3.078046 0.265625
v -1.058129 2.625571 0.339335
v -1.701036 2.238027 0.434780
v -1.895714 2.135580 0.503635
v -1.885397 2.032496 0.510828
v -0.898933 4.031597 0.201203
v -0.865310 4.031597 0.267193
v -0.828908 4.730856 0.252795
v -0.861166 4.730856 0.189486
v 0.412758 4.702482 0.664603
v 0.337281 4.702482 0.703060
v 0.412234 6.157746 0.660550
v 0.337183 6.157746 0.698790
v 1.029228 4.003222 -0.115732
v 1.017481 4.003222 -0.189898
v 0.979730 4.702482 -0.186566
v 0.990999 4.702482 -0.115413
v 0.534680 6.159175 -0.898990
v 0.592941 6.159175 -0.869304
v 0.547778 6.818964 -0.918624
v 0.607548 6.818964 -0.888169
v 0.616658 4.004652 -0.905996
v 0.555585 4.004652 -0.937115
v 0.535894 4.703911 -0.904019
v 0.594486 4.703911 -0.874164
v -1.144627 7.065110 0.435938
v -1.217953 6.912653 0.449933
v -1.189481 6.903114 0.496517
v -1.115417 7.055323 0.483728
v -1.178964 7.069626 0.491512
v -1.232673 6.957957 0.501763
v -1.211818 6.950969 0.535884
v -1.157568 7.062458 0.526517
vt 0.700665 0.626293
vt 0.715172 0.581635
vt 0.715172 0.534680
vt 0.700665 0.490022
vt 0.673057 0.452034
vt 0.635074 0.424436
vt 0.590418 0.409919
vt 0.543463 0.409919
vt 0.498807 0.424436
vt 0.460810 0.452034
vt 0.433221 0.490022
vt 0.418714 0.534680
vt 0.418714 0.581635
vt 0.433221 0.626293
vt 0.460810 0.664281
vt 0.498807 0.691879
vt 0.543463 0.706396
vt 0.590418 0.706396
vt 0.635074 0.691879
vt 0.673056 0.664281
vt 0.000000 0.381833
vt 0.071197 0.323842
vt 0.098031 0.298222
vt 0.103313 0.209984
vt 0.132739 0.180714
vt 0.158184 0.168822
vt 0.263572 0.124521
vt 0.313541 0.141591
vt 0.348757 0.125264
vt 0.398257 0.049398
vt 0.437884 0.037051
vt 0.511038 0.094886
vt 0.582638 0.004791
vt 0.624871 0.000000
vt 0.664228 0.010542
vt 0.727687 0.078328
vt 0.777266 0.087118
vt 0.902534 0.052914
vt 0.943591 0.067725
vt 0.931586 0.170839
vt 1.000000 0.191337
vt 0.194029 0.549094
vt 0.229258 0.539417
vt 0.263280 0.527096
vt 0.292479 0.508873
vt 0.342852 0.523634
vt 0.380129 0.482615
vt 0.400458 0.457619
vt 0.450687 0.461703
vt 0.472639 0.418245
vt 0.498495 0.415918
vt 0.524393 0.401425
vt 0.560978 0.399352
vt 0.591679 0.400787
vt 0.616004 0.407921
vt 0.662262 0.442159
vt 0.705805 0.406980
vt 0.727174 0.391757
vt 0.755106 0.404912
vt 0.785562 0.441693
vt 0.208646 0.548409
vt 0.155471 0.549416
vt 0.160033 0.122806
vt 0.168270 0.097460
vt 0.168270 0.070808
vt 0.160033 0.045462
vt 0.144364 0.023901
vt 0.122806 0.008237
vt 0.097460 0.000000
vt 0.070809 0.000000
vt 0.045464 0.008237
vt 0.023901 0.023901
vt 0.008237 0.045462
vt 0.000000 0.070808
vt 0.000000 0.097460
vt 0.008237 0.122806
vt 0.023901 0.144364
vt 0.045464 0.160033
vt 0.070809 0.168270
vt 0.097460 0.168270
vt 0.122806 0.160033
vt 0.144364 0.144364
vt 0.571186 0.553912
vt 0.086544 0.081725
vt 0.926027 0.231079
vt 0.090073 0.397385
vt 0.110050 0.354945
vt 0.142312 0.322707
vt 0.176839 0.292544
vt 0.214920 0.264479
vt 0.254532 0.238517
vt 0.295266 0.214238
vt 0.335160 0.191551
vt 0.378848 0.168463
vt 0.426478 0.156709
vt 0.472252 0.143174
vt 0.516651 0.129061
vt 0.565678 0.133364
vt 0.614547 0.133917
vt 0.663598 0.136506
vt 0.712653 0.137340
vt 0.765832 0.142262
vt 0.809220 0.156485
vt 0.853726 0.174697
vt 0.897192 0.195779
vt 0.908531 0.240077
vt 0.113274 0.398722
vt 0.878768 0.214819
vt 0.840470 0.197252
vt 0.799223 0.182187
vt 0.756334 0.170169
vt 0.709058 0.165540
vt 0.662715 0.162867
vt 0.615529 0.161102
vt 0.569052 0.161237
vt 0.523487 0.164118
vt 0.478935 0.176082
vt 0.433454 0.187840
vt 0.389649 0.200317
vt 0.347673 0.216469
vt 0.308956 0.237705
vt 0.270359 0.260627
vt 0.232570 0.284848
vt 0.196720 0.310789
vt 0.163078 0.337903
vt 0.133720 0.366507
vt 0.543463 0.706396
vt 0.571186 0.553912
vt 0.673056 0.664281
vt 0.890734 0.081997
vt 0.851928 0.076045
vt 0.859683 0.045401
vt 0.927564 0.095975
vt 0.984617 0.096941
vt 0.962341 0.117344
vt 0.418714 0.534680
vt 0.571186 0.553912
vt 0.498807 0.691879
vt 0.584511 0.035152
vt 0.556776 0.049752
vt 0.550829 0.019286
vt 0.621634 0.031143
vt 0.657032 0.039720
vt 0.696848 0.024337
vt 0.690870 0.052525
vt 0.498807 0.424436
vt 0.571186 0.553912
vt 0.418714 0.534680
vt 0.410686 0.078195
vt 0.378169 0.096382
vt 0.365498 0.070759
vt 0.446305 0.065414
vt 0.470623 0.039193
vt 0.474528 0.069671
vt 0.715172 0.534680
vt 0.571186 0.553912
vt 0.590418 0.409919
vt 0.127554 0.228651
vt 0.121751 0.252487
vt 0.097671 0.236365
vt 0.153354 0.201972
vt 0.174528 0.194341
vt 0.211051 0.184477
vt 0.197621 0.157763
vt 0.243038 0.156635
vt 0.252349 0.180359
vt 0.571186 0.553912
vt 0.715172 0.581635
vt 0.673056 0.664281
vt 0.026073 0.342534
vt 0.049778 0.356172
vt 0.026745 0.394552
vt 0.973417 0.203722
vt 0.949531 0.167160
vt 0.972203 0.150829
vt 0.091393 0.344746
vt 0.124097 0.309470
vt 0.102324 0.236587
vt 0.107473 0.212387
vt 0.135198 0.184854
vt 0.158829 0.173597
vt 0.197247 0.162603
vt 0.241606 0.161432
vt 0.325775 0.169085
vt 0.368443 0.146871
vt 0.369477 0.073244
vt 0.400628 0.053707
vt 0.438212 0.041925
vt 0.468581 0.043565
vt 0.512131 0.104385
vt 0.554197 0.022586
vt 0.584405 0.009248
vt 0.624046 0.004818
vt 0.661308 0.014560
vt 0.693455 0.027982
vt 0.716751 0.113059
vt 0.772313 0.119479
vt 0.861635 0.051774
vt 0.902789 0.059471
vt 0.941971 0.073956
vt 0.979243 0.099306
vt 0.912421 0.181987
vt 0.970303 0.155876
vt 0.995706 0.194273
vt 0.004133 0.384989
vt 0.029417 0.346653
vt 0.881349 0.284829
vt 0.155368 0.432943
vt 0.846590 0.272961
vt 0.811028 0.266964
vt 0.776318 0.257235
vt 0.740058 0.248636
vt 0.695976 0.245234
vt 0.657100 0.241103
vt 0.617397 0.239872
vt 0.577535 0.240388
vt 0.536739 0.243370
vt 0.494757 0.253682
vt 0.456231 0.264177
vt 0.418113 0.275912
vt 0.379799 0.289549
vt 0.344207 0.309301
vt 0.309703 0.329084
vt 0.276122 0.349050
vt 0.243895 0.370508
vt 0.211760 0.391395
vt 0.183691 0.412567
vt 0.879998 0.335510
vt 0.177719 0.480216
vt 0.841831 0.329808
vt 0.803403 0.332809
vt 0.767248 0.327798
vt 0.732975 0.319732
vt 0.692445 0.313706
vt 0.655226 0.310367
vt 0.618792 0.311073
vt 0.583841 0.310630
vt 0.546907 0.305840
vt 0.507737 0.321903
vt 0.474763 0.332994
vt 0.440941 0.342927
vt 0.404632 0.352337
vt 0.372439 0.374161
vt 0.340302 0.392915
vt 0.305857 0.408694
vt 0.272904 0.429983
vt 0.241481 0.448959
vt 0.210297 0.465670
vt 0.732028 0.089949
vt 0.756857 0.090175
vt 0.755721 0.110357
vt 0.722475 0.103975
vt 0.088668 0.559546
vt 0.184272 0.499812
vt 0.843428 0.348241
vt 0.328465 0.542946
vt 0.762857 0.361887
vt 0.730078 0.351546
vt 0.695747 0.345643
vt 0.657361 0.338453
vt 0.619706 0.345246
vt 0.587046 0.349119
vt 0.556572 0.370015
vt 0.514364 0.365534
vt 0.484844 0.366254
vt 0.454003 0.373945
vt 0.415955 0.376349
vt 0.383443 0.405555
vt 0.354931 0.424519
vt 0.314326 0.432744
vt 0.281921 0.460795
vt 0.249888 0.478662
vt 0.218638 0.493554
vt 0.355065 0.594479
vt 0.113355 0.593411
vt 0.157273 0.576706
vt 0.209787 0.575403
vt 0.312118 0.579456
vt 0.261983 0.568459
vt 0.345006 0.631098
vt 0.127689 0.623773
vt 0.163925 0.598361
vt 0.211938 0.599161
vt 0.307654 0.610250
vt 0.260157 0.590464
vt 0.311608 0.669993
vt 0.150777 0.662390
vt 0.183136 0.628411
vt 0.215001 0.629742
vt 0.289657 0.651323
vt 0.245524 0.623136
vt 0.269634 0.693101
vt 0.183313 0.687343
vt 0.197143 0.654273
vt 0.217869 0.651621
vt 0.264274 0.679172
vt 0.239026 0.650498
vt 0.227413 0.693586
vt 0.217524 0.691690
vt 0.215780 0.676312
vt 0.222791 0.676018
vt 0.234886 0.688002
vt 0.229511 0.673971
vt 0.113926 0.556719
vt 0.193891 0.514781
vt 0.222056 0.506699
vt 0.254346 0.492709
vt 0.283062 0.479484
vt 0.329826 0.482741
vt 0.365692 0.440310
vt 0.386015 0.425581
vt 0.427333 0.416473
vt 0.463113 0.389190
vt 0.489650 0.381331
vt 0.520155 0.381308
vt 0.557707 0.381214
vt 0.588329 0.365036
vt 0.619433 0.361365
vt 0.658652 0.349358
vt 0.697978 0.360694
vt 0.729278 0.366255
vt 0.759597 0.377663
vt 0.301885 0.543213
vt 0.288697 0.574100
vt 0.281429 0.599627
vt 0.264813 0.637604
vt 0.255770 0.664953
vt 0.233157 0.680743
vt 0.224847 0.685101
vt 0.215606 0.683884
vt 0.187172 0.671736
vt 0.165010 0.645583
vt 0.144908 0.610801
vt 0.134129 0.585822
vt 0.539700 0.311457
vt 0.573569 0.316018
vt 0.576304 0.349305
vt 0.548118 0.367600
vt 0.511136 0.329452
vt 0.517183 0.359899
vt 0.536610 0.328660
vt 0.554269 0.331043
vt 0.556962 0.349042
vt 0.543885 0.353984
vt 0.520891 0.340097
vt 0.526942 0.354970
vt 0.537695 0.340105
vt 0.543321 0.337535
vt 0.547551 0.347810
vt 0.540434 0.348809
vt 0.529266 0.339058
vt 0.531514 0.350133
vt 0.444168 0.407232
vt 0.447597 0.431751
vt 0.433993 0.443587
vt 0.412894 0.440101
vt 0.398512 0.428163
vt 0.398533 0.419151
vt 0.416178 0.400388
vt 0.438020 0.399082
vt 0.436122 0.416217
vt 0.437374 0.433388
vt 0.428476 0.437745
vt 0.416387 0.435849
vt 0.408739 0.426223
vt 0.408395 0.420568
vt 0.418036 0.409778
vt 0.431573 0.410720
vt 0.429981 0.415648
vt 0.431819 0.421850
vt 0.427929 0.426789
vt 0.421385 0.425740
vt 0.417287 0.420697
vt 0.417938 0.417837
vt 0.420752 0.411938
vt 0.427430 0.413005
vt 0.428828 0.415931
vt 0.429805 0.418093
vt 0.428257 0.418547
vt 0.426416 0.419414
vt 0.426262 0.417795
vt 0.426265 0.417097
vt 0.426758 0.415570
vt 0.428258 0.415245
vt 0.277797 0.628098
vt 0.285223 0.613191
vt 0.294130 0.615102
vt 0.284771 0.632918
vt 0.285980 0.625597
vt 0.285875 0.620407
vt 0.289053 0.624620
vt 0.287584 0.625699
vt 0.287625 0.624977
vt 0.288068 0.624791
vt 0.288444 0.624740
vt 0.287987 0.625218
vt 0.658700 0.366715
vt 0.686820 0.378162
vt 0.686243 0.407263
vt 0.661494 0.421098
vt 0.631645 0.379189
vt 0.635313 0.408460
vt 0.659094 0.383522
vt 0.673543 0.385680
vt 0.677906 0.406528
vt 0.661172 0.414328
vt 0.645230 0.387687
vt 0.643510 0.408122
vt 0.659786 0.391224
vt 0.667398 0.390853
vt 0.670472 0.407054
vt 0.661093 0.409542
vt 0.652265 0.392357
vt 0.651339 0.408535
vt 0.660308 0.398941
vt 0.662821 0.398534
vt 0.664156 0.404510
vt 0.660656 0.404019
vt 0.657778 0.399166
vt 0.657410 0.405454
vt 0.352923 0.462983
vt 0.362043 0.487559
vt 0.338170 0.505037
vt 0.311003 0.501259
vt 0.306023 0.482537
vt 0.306180 0.471271
vt 0.324397 0.457766
vt 0.346203 0.455387
vt 0.347167 0.469226
vt 0.352509 0.488695
vt 0.336954 0.498105
vt 0.318878 0.496621
vt 0.312270 0.481912
vt 0.314957 0.473551
vt 0.327711 0.467225
vt 0.340484 0.464922
vt 0.336016 0.479223
vt 0.337414 0.488281
vt 0.330693 0.490997
vt 0.324658 0.489067
vt 0.322482 0.483788
vt 0.324295 0.480971
vt 0.327411 0.477391
vt 0.333026 0.477437
vt 0.332449 0.482287
vt 0.335524 0.484644
vt 0.331275 0.486140
vt 0.328429 0.487368
vt 0.328101 0.484199
vt 0.327677 0.481994
vt 0.328500 0.480413
vt 0.331072 0.481238
vt 0.744078 0.064905
vt 0.511950 0.696151
vt 0.738392 0.092921
vt 0.730673 0.110056
vt 0.730319 0.127287
vt 0.727640 0.143470
vt 0.722785 0.168730
vt 0.712662 0.247435
vt 0.708750 0.314745
vt 0.706175 0.345727
vt 0.707041 0.361062
vt 0.162457 0.052921
vt 0.711601 0.398680
vt 0.065018 0.166383
vt 0.269898 0.522318
vt 0.261576 0.489481
vt 0.258318 0.474470
vt 0.249409 0.445118
vt 0.219691 0.386917
vt 0.171588 0.332623
vt 0.150802 0.316936
vt 0.123516 0.246876
vt 0.103715 0.231309
vt 0.098948 0.231008
vt 0.711852 0.524476
vt 0.890207 0.264459
vt 0.139578 0.416774
vt 0.164595 0.390700
vt 0.193266 0.366619
vt 0.201825 0.361771
vt 0.225284 0.343314
vt 0.258319 0.320617
vt 0.293334 0.299082
vt 0.329498 0.278229
vt 0.366620 0.258150
vt 0.406378 0.243386
vt 0.447007 0.230718
vt 0.488005 0.220431
vt 0.531132 0.209360
vt 0.573601 0.206455
vt 0.616560 0.205755
vt 0.659657 0.207262
vt 0.702407 0.211113
vt 0.714927 0.213614
vt 0.744761 0.214376
vt 0.784112 0.224089
vt 0.821019 0.235908
vt 0.857086 0.246869
vt 0.138970 0.148289
vt 0.194879 0.549096
vt 0.196890 0.574948
vt 0.199907 0.598347
vt 0.206896 0.629250
vt 0.212682 0.651867
vt 0.221043 0.676260
vt 0.222846 0.685770
vt 0.225368 0.695256
vt 0.272030 0.696452
vt 0.318699 0.673451
vt 0.357035 0.633220
vt 0.365898 0.595304
vt 0.856447 0.348244
vt 0.851791 0.330472
vt 0.855726 0.276677
vt 0.866080 0.252364
vt 0.885995 0.221661
vt 0.903513 0.205011
vt 0.954884 0.176600
vt 0.974972 0.165422
vt 0.978780 0.161791
vt 0.679979 0.654768
vt 0.051719 0.006204
vt 0.532625 0.401572
vt 0.528870 0.382539
vt 0.526383 0.372398
vt 0.522700 0.365997
vt 0.531013 0.354492
vt 0.533566 0.350102
vt 0.531309 0.338941
vt 0.522865 0.335236
vt 0.514308 0.321663
vt 0.516719 0.314482
vt 0.506376 0.251072
vt 0.500719 0.218259
vt 0.490473 0.174603
vt 0.484017 0.142532
vt 0.453422 0.067157
vt 0.445702 0.042092
vt 0.446486 0.037367
vt 0.429633 0.501050
vt 0.491508 0.222232
vt 0.498322 0.221997
vt 0.502854 0.249250
vt 0.497107 0.250757
vt 0.700705 0.248128
vt 0.708330 0.250350
vt 0.704533 0.311618
vt 0.697178 0.311369
vt 0.858088 0.248199
vt 0.864447 0.251922
vt 0.854639 0.275295
vt 0.848313 0.272256
vt 0.242866 0.449229
vt 0.248757 0.446517
vt 0.257013 0.474325
vt 0.250975 0.477576
vt 0.194775 0.366333
vt 0.201119 0.362974
vt 0.218263 0.386740
vt 0.212440 0.390039
vt 0.534788 0.347395
vt 0.532733 0.339669
vt 0.537581 0.341250
vt 0.538908 0.344063
vt 0.534588 0.346553
vt 0.534457 0.341153
vt 0.535126 0.343472
vt 0.536867 0.344850
vt 0.376016 0.557231
vt 0.366282 0.555868
vt 0.783620 0.387891
vt 0.259618 0.541380
vt 0.798742 0.359849
vt 0.893149 0.359214
vt 0.083889 0.606701
vt 0.063094 0.571674
vt 0.100140 0.641458
vt 0.137439 0.678451
vt 0.182043 0.698426
vn 0.869377 0.389249 -0.304416
vn 0.679634 0.517582 -0.519814
vn 0.796436 0.174971 -0.578856
vn 0.929249 0.174744 -0.325516
vn 0.554274 0.571071 -0.605523
vn 0.654706 0.174376 -0.735496
vn 0.447503 0.168535 -0.878258
vn 0.418953 0.385260 -0.822224
vn 0.266697 0.389268 -0.881671
vn 0.284863 0.175381 -0.942388
vn 0.000000 0.389336 -0.921096
vn -0.000179 0.175646 -0.984453
vn -0.284638 0.389337 -0.876013
vn -0.304345 0.175840 -0.936191
vn -0.541409 0.389337 -0.745180
vn -0.578693 0.175985 -0.796331
vn -0.725335 0.517947 -0.453455
vn -0.798115 0.180426 -0.574855
vn -0.815539 0.525525 -0.242322
vn -0.933704 0.188389 -0.304478
vn -0.916437 0.400152 0.004757
vn -0.980980 0.194100 -0.001702
vn -0.893775 0.401979 0.198945
vn -0.957484 0.194860 0.212729
vn -0.875072 0.188284 0.445867
vn -0.816728 0.399728 0.416141
vn -0.736243 0.398917 0.546637
vn -0.780567 0.190571 0.595313
vn -0.548792 0.391671 0.738527
vn -0.579637 0.180861 0.794550
vn -0.284631 0.389332 0.876017
vn -0.304415 0.175267 0.936276
vn -0.000000 0.389331 0.921098
vn -0.000179 0.175042 0.984561
vn 0.217814 0.456428 0.862688
vn 0.222487 0.174204 0.959246
vn 0.372315 0.572222 0.730714
vn 0.447593 0.167283 0.878451
vn 0.511217 0.499042 0.699724
vn 0.745183 0.389336 0.541406
vn 0.796564 0.174619 0.578787
vn 0.600223 0.174643 0.780533
vn 0.876014 0.389336 0.284634
vn 0.936453 0.174606 0.304251
vn 0.917591 0.387855 0.087146
vn 0.980354 0.173916 0.093057
vn 0.973703 0.167693 -0.154215
vn 0.911449 0.385256 -0.144356
vn 0.109167 -0.992466 -0.055623
vn 0.115120 -0.992647 -0.037414
vn 0.115123 -0.992647 -0.037404
vn 0.080455 -0.993506 -0.080454
vn 0.080455 -0.993506 -0.080454
vn 0.080455 -0.993506 -0.080454
vn 0.017265 -0.998675 -0.048471
vn 0.039291 -0.998288 -0.043329
vn 0.039291 -0.998288 -0.043329
vn -0.001854 -0.998865 -0.047587
vn -0.000296 -0.998753 -0.049918
vn -0.018567 -0.998722 -0.047012
vn -0.023249 -0.998688 -0.045629
vn -0.045254 -0.990089 -0.132949
vn -0.083431 -0.993015 -0.083429
vn -0.044237 -0.989958 -0.134259
vn -0.009845 -0.983943 -0.178214
vn 0.000000 -1.000000 0.000000
vn 0.000000 -1.000000 0.000000
vn 0.000000 -1.000000 0.000000
vn 0.000000 -1.000000 0.000000
vn 0.000000 -1.000000 0.000000
vn 0.000000 -1.000000 0.000000
vn 0.000000 -1.000000 0.000000
vn 0.000000 -1.000000 0.000000
vn 0.000000 -1.000000 0.000000
vn 0.000000 -1.000000 0.000000
vn 0.000000 -1.000000 0.000000
vn 0.000000 -1.000000 0.000000
vn 0.052740 -0.993229 0.103509
vn 0.052740 -0.993229 0.103509
vn 0.052740 -0.993229 0.103509
vn 0.052740 -0.993229 0.103509
vn 0.000000 -1.000000 0.000000
vn 0.000000 -1.000000 0.000001
vn 0.000000 -1.000000 0.000000
vn 0.000000 -1.000000 0.000000
vn 0.000000 -1.000000 0.000000
vn 0.121037 -0.992463 -0.019170
vn 0.121037 -0.992463 -0.019170
vn -0.152107 0.784111 0.601691
vn -0.314303 0.921449 0.228355
vn -0.032810 0.999107 -0.026619
vn -0.479345 0.871229 0.105775
vn -0.626440 0.777881 -0.049746
vn -0.387409 0.920202 0.056060
vn 0.351126 0.920201 0.173032
vn 0.119299 0.921449 0.369730
vn -0.183281 0.920016 0.346379
vn 0.149087 0.982874 0.108318
vn 0.272789 0.920016 -0.281350
vn 0.385415 0.914133 0.125761
vn 0.227312 0.882284 0.412194
vn 0.090340 0.994847 -0.046031
vn -0.199861 0.882284 -0.426181
vn -0.138435 0.833472 -0.534940
vn 0.120051 0.921449 -0.369484
vn 0.000000 0.921449 -0.388499
vn 0.163323 0.881167 -0.443701
vn 0.357316 0.805297 -0.473098
vn 0.137064 0.928287 -0.345683
vn -0.345683 0.928287 0.137063
vn -0.260343 0.879402 -0.398590
vn -0.000000 1.000000 0.000004
vn -0.000000 0.591153 0.806559
vn 0.706695 0.663371 -0.246010
vn 0.681564 0.644104 -0.347275
vn 0.414501 0.885203 -0.211199
vn 0.434533 0.887665 -0.152422
vn 0.686140 0.241746 -0.686128
vn 0.686486 0.239770 -0.686474
vn 0.329718 0.881762 -0.337316
vn 0.522988 0.647461 -0.554327
vn 0.244102 0.649072 -0.720500
vn 0.167567 0.897501 -0.407939
vn 0.011541 0.656106 -0.754580
vn -0.004133 0.897151 -0.441705
vn -0.264368 0.671618 -0.692126
vn -0.176270 0.890279 -0.419919
vn -0.416547 0.661557 -0.623563
vn -0.276979 0.886163 -0.371480
vn -0.559097 0.612230 -0.559093
vn -0.336124 0.879797 -0.336123
vn -0.854501 0.256223 -0.451860
vn -0.858713 0.225280 -0.460284
vn -0.774606 0.620431 -0.122684
vn -0.745482 0.666501 0.005835
vn -0.440313 0.897844 -0.000919
vn -0.440525 0.895025 -0.069772
vn -0.744805 0.646455 0.165414
vn -0.427874 0.897662 0.105487
vn -0.364625 0.889597 0.275075
vn -0.596866 0.669561 0.442086
vn -0.624344 0.630143 0.461642
vn -0.363435 0.890360 0.274178
vn -0.652284 0.629024 0.422911
vn -0.472580 0.655331 0.589244
vn -0.297371 0.897041 0.326937
vn -0.392818 0.885350 0.248695
vn -0.234901 0.667311 0.706766
vn -0.135854 0.896985 0.420667
vn -0.019384 0.665370 0.746262
vn 0.003239 0.894085 0.447885
vn 0.124444 0.605934 0.785721
vn 0.071449 0.889598 0.451120
vn 0.245436 0.841264 0.481700
vn 0.245437 0.841263 0.481702
vn 0.608473 0.509414 0.608488
vn 0.686586 0.553261 0.471702
vn 0.456949 0.822542 0.338559
vn 0.409804 0.814933 0.409810
vn 0.794519 0.554732 0.247006
vn 0.530967 0.829115 0.175049
vn 0.827625 0.545761 0.131082
vn 0.553928 0.827929 0.087734
vn 0.458765 0.885582 -0.072660
vn 0.730706 0.672812 -0.115730
vn 0.987554 0.016507 -0.156411
vn 0.986248 0.053990 -0.156202
vn 0.942406 0.054783 -0.329955
vn 0.943601 0.020093 -0.330475
vn 0.949642 0.054499 0.308563
vn 0.991677 0.054162 0.116801
vn 0.993524 0.017261 0.112301
vn 0.950873 0.019802 0.308947
vn 0.807821 0.054519 0.586901
vn 0.808847 0.019822 0.587685
vn 0.608778 0.054610 0.791459
vn 0.609509 0.019931 0.792528
vn 0.225730 0.054737 0.972651
vn 0.453327 0.054063 0.889703
vn 0.453862 0.023851 0.890753
vn 0.183706 0.023164 0.982708
vn 0.000044 0.055163 0.998477
vn -0.000093 0.020473 0.999790
vn -0.308493 0.055504 0.949606
vn -0.309045 0.020817 0.950819
vn -0.586830 0.055855 0.807782
vn -0.587734 0.021172 0.808777
vn -0.794432 0.056147 0.604752
vn -0.795580 0.021482 0.605468
vn -0.890858 0.018255 0.453914
vn -0.889628 0.055645 0.453283
vn -0.998394 0.056645 0.000019
vn -0.979202 0.056153 0.194961
vn -0.979693 0.019264 0.199578
vn -0.999759 0.021971 -0.000041
vn -0.949526 0.056735 -0.308514
vn -0.950821 0.022062 -0.308953
vn -0.807709 0.056717 -0.586846
vn -0.808833 0.022042 -0.587625
vn -0.586825 0.056590 -0.807734
vn -0.587684 0.021914 -0.808793
vn -0.308495 0.056369 -0.949554
vn -0.309017 0.021690 -0.950809
vn 0.000043 0.056074 -0.998427
vn -0.000093 0.021391 -0.999771
vn 0.289127 0.055745 -0.955666
vn 0.289372 0.021060 -0.956985
vn 0.453919 0.017680 -0.890867
vn 0.453310 0.054873 -0.889662
vn 0.807814 0.055052 -0.586862
vn 0.679641 0.054849 -0.731491
vn 0.677280 0.018177 -0.735501
vn 0.808797 0.020361 -0.587735
vn -0.089880 -0.986318 0.138196
vn -0.089880 -0.986318 0.138196
vn -0.089880 -0.986318 0.138196
vn -0.089880 -0.986318 0.138196
vn 0.032114 -0.301654 -0.952876
vn 0.032114 -0.301654 -0.952876
vn 0.032114 -0.301654 -0.952877
vn 0.032114 -0.301654 -0.952876
vn 0.458935 0.760761 0.458935
vn 0.458935 0.760761 0.458935
vn 0.458935 0.760761 0.458935
vn 0.458935 0.760761 0.458935
vn 0.511140 0.809968 0.287556
vn 0.233810 0.492705 0.838197
vn 0.025792 0.207469 0.977901
vn 0.511140 0.809968 0.287556
vn 0.515040 0.816004 0.262431
vn 0.515040 0.816004 0.262431
vn 0.515040 0.816004 0.262431
vn 0.515040 0.816004 0.262431
vn 0.103850 0.009097 -0.994551
vn 0.220244 0.189379 -0.956885
vn 0.546232 0.832981 0.088167
vn 0.546232 0.832981 0.088167
vn 0.544598 0.834250 0.086256
vn 0.544598 0.834250 0.086256
vn 0.544598 0.834250 0.086256
vn 0.544598 0.834250 0.086256
vn -0.352050 -0.920847 -0.167633
vn -0.352050 -0.920847 -0.167633
vn -0.352050 -0.920847 -0.167633
vn -0.352050 -0.920847 -0.167633
vn -0.096579 -0.990920 0.093546
vn -0.096579 -0.990920 0.093546
vn -0.096579 -0.990920 0.093546
vn -0.096579 -0.990920 0.093546
vn -0.509708 0.787004 0.347596
vn -0.509708 0.787003 0.347596
vn -0.509708 0.787003 0.347596
vn -0.509708 0.787003 0.347596
vn -0.288691 0.863547 0.413454
vn -0.570990 0.755782 0.320567
vn -0.873908 0.468090 0.131055
vn -0.288691 0.863547 0.413454
vn -0.234084 0.856818 0.459420
vn -0.234084 0.856818 0.459420
vn -0.234084 0.856818 0.459421
vn -0.234084 0.856818 0.459420
vn -0.080160 0.858734 0.506114
vn -0.080160 0.858734 0.506114
vn -0.080160 0.858734 0.506114
vn -0.080160 0.858733 0.506114
vn 0.928254 0.146129 0.342038
vn 0.733107 0.475515 0.486250
vn -0.029272 0.860587 0.508461
vn -0.029272 0.860588 0.508461
vn 0.085746 0.836391 0.541385
vn 0.085746 0.836391 0.541385
vn 0.085746 0.836391 0.541385
vn 0.085746 0.836391 0.541385
vn -0.150130 -0.918949 0.364683
vn -0.150130 -0.918949 0.364683
vn -0.150130 -0.918949 0.364683
vn -0.150130 -0.918949 0.364683
vn 0.130351 -0.862049 0.489776
vn 0.130351 -0.862049 0.489776
vn 0.130351 -0.862049 0.489776
vn 0.130351 -0.862049 0.489776
vn -0.526157 0.846294 -0.083335
vn -0.526157 0.846294 -0.083335
vn -0.526157 0.846294 -0.083335
vn -0.526157 0.846294 -0.083335
vn -0.500841 0.865308 0.020010
vn -0.403621 0.448753 -0.797315
vn -0.232352 0.103038 -0.967159
vn -0.500841 0.865308 0.020010
vn -0.503335 0.860406 0.079720
vn -0.503335 0.860406 0.079720
vn -0.503335 0.860406 0.079720
vn -0.503335 0.860406 0.079720
vn -0.174263 0.340177 0.924073
vn -0.429798 0.758056 0.490535
vn -0.499453 0.859888 0.105545
vn -0.499453 0.859888 0.105545
vn -0.475789 0.829143 0.293508
vn -0.472762 0.831530 0.291640
vn -0.469255 0.834269 0.289476
vn -0.475789 0.829143 0.293508
vn -0.032507 -0.992164 -0.120641
vn -0.032507 -0.992164 -0.120641
vn -0.032507 -0.992164 -0.120641
vn -0.032507 -0.992164 -0.120641
vn 0.017354 -0.993449 -0.112952
vn 0.017354 -0.993449 -0.112952
vn 0.017354 -0.993449 -0.112952
vn 0.017354 -0.993449 -0.112952
vn 0.352558 0.781770 -0.514332
vn 0.359420 0.771933 -0.524343
vn 0.353957 0.779790 -0.516373
vn 0.352558 0.781770 -0.514332
vn 0.024704 0.841322 -0.539969
vn 0.733234 0.529032 -0.427193
vn 0.948986 0.200153 -0.243646
vn 0.024704 0.841322 -0.539969
vn 0.085691 0.836624 -0.541033
vn 0.085691 0.836624 -0.541033
vn 0.085691 0.836624 -0.541033
vn 0.085691 0.836624 -0.541033
vn -0.112569 0.820630 -0.560262
vn -0.112569 0.820630 -0.560262
vn -0.112569 0.820630 -0.560262
vn -0.112569 0.820630 -0.560262
vn -0.298440 0.753574 -0.585714
vn -0.298440 0.753574 -0.585714
vn -0.298440 0.753574 -0.585714
vn -0.298440 0.753574 -0.585714
vn -0.078481 -0.993822 -0.078480
vn -0.078481 -0.993822 -0.078480
vn -0.078481 -0.993822 -0.078480
vn -0.078481 -0.993822 -0.078480
vn -0.804301 0.371030 -0.464152
vn -0.695121 0.500181 -0.516359
vn -0.129815 0.817479 -0.561138
vn -0.129815 0.817479 -0.561138
vn -0.566404 0.598643 -0.566403
vn -0.566404 0.598643 -0.566403
vn -0.566404 0.598643 -0.566403
vn -0.566404 0.598643 -0.566403
vn 0.244505 -0.958231 0.148362
vn 0.244505 -0.958231 0.148362
vn 0.244505 -0.958231 0.148362
vn 0.244505 -0.958231 0.148362
vn 0.125825 -0.661777 0.739067
vn 0.125825 -0.661777 0.739067
vn 0.125825 -0.661777 0.739067
vn 0.125825 -0.661777 0.739067
vn -0.070737 0.092976 -0.993152
vn 0.270601 0.510456 -0.816217
vn 0.608776 0.789860 0.074247
vn 0.608776 0.789860 0.074247
vn 0.568724 0.769793 -0.289779
vn 0.568724 0.769793 -0.289779
vn 0.568724 0.769793 -0.289779
vn 0.568724 0.769793 -0.289779
vn 0.607385 0.788561 -0.096199
vn 0.607386 0.788561 -0.096199
vn 0.607386 0.788561 -0.096199
vn 0.607385 0.788561 -0.096199
vn 0.254153 0.472201 -0.844057
vn 0.338193 0.316833 0.886139
vn 0.136794 0.030218 0.990139
vn 0.254153 0.472201 -0.844057
vn 0.706011 0.055823 -0.705998
vn 0.706011 0.055823 -0.705998
vn 0.986515 0.053549 -0.154663
vn 0.986515 0.053549 -0.154663
vn 0.675045 -0.015100 -0.737622
vn 0.372038 -0.050005 -0.926869
vn -0.019369 -0.054587 -0.998321
vn -0.398366 -0.006352 -0.917205
vn -0.634590 0.062919 -0.770284
vn -0.704402 0.087430 -0.704396
vn -0.947663 0.070305 -0.311435
vn -0.947663 0.070305 -0.311435
vn -0.865371 0.042817 -0.499299
vn -0.865371 0.042817 -0.499299
vn -0.195824 0.036462 -0.979961
vn -0.195824 0.036462 -0.979961
vn -0.985552 -0.065747 -0.156094
vn -0.997234 -0.073383 -0.011801
vn -0.966766 -0.074044 0.244706
vn -0.807775 -0.035449 0.588424
vn -0.807813 -0.034055 0.588454
vn -0.047374 0.125955 0.990904
vn -0.047374 0.125955 0.990904
vn -0.991810 0.103758 -0.074475
vn -0.991810 0.103758 -0.074475
vn -0.833879 -0.038370 0.550611
vn -0.676557 -0.067576 0.733283
vn -0.298094 -0.090020 0.950282
vn 0.039507 -0.051835 0.997874
vn 0.156352 -0.032096 0.987180
vn 0.951368 0.066759 0.300737
vn 0.951368 0.066759 0.300737
vn 0.453189 0.059384 0.889434
vn 0.453188 0.059385 0.889435
vn 0.453188 0.059385 0.889435
vn 0.453189 0.059384 0.889434
vn -0.068998 0.069475 0.995195
vn -0.068998 0.069475 0.995195
vn 0.707026 0.014131 0.707047
vn 0.785362 -0.004499 0.619020
vn 0.944057 -0.045964 0.326563
vn 0.986007 -0.058326 0.156166
vn 0.101567 0.005631 -0.994813
vn 0.101567 0.005631 -0.994813
vn 0.133697 0.025974 0.990682
vn 0.133697 0.025974 0.990682
vn 0.982294 0.104379 -0.155577
vn 0.937402 0.107632 -0.331198
vn 0.885815 0.107786 -0.451346
vn -0.113367 0.036639 -0.992877
vn -0.113367 0.036639 -0.992877
vn 0.987637 -0.010268 -0.156424
vn 0.942599 -0.010152 -0.333774
vn 0.995462 -0.010530 0.094572
vn 0.949922 -0.010486 0.312311
vn 0.807007 -0.010152 0.590455
vn 0.609683 -0.009895 0.792584
vn 0.453985 0.002645 0.891005
vn 0.453985 0.002645 0.891005
vn 0.453985 0.002645 0.891005
vn 0.453985 0.002645 0.891005
vn 0.182417 -0.011767 0.983151
vn 0.000101 -0.009363 0.999956
vn -0.308899 -0.009020 0.951052
vn -0.563339 -0.003621 0.826218
vn -0.795552 0.004110 0.605871
vn -0.890999 0.004235 0.453986
vn -0.979632 -0.006150 0.200709
vn -0.999969 -0.007867 0.000045
vn -0.951031 -0.007776 -0.308999
vn -0.808978 -0.007796 -0.587787
vn -0.587721 -0.007924 -0.809025
vn -0.308929 -0.008149 -0.951050
vn 0.000101 -0.008447 -0.999964
vn 0.289624 -0.008770 -0.957100
vn 0.453979 -0.006779 -0.890986
vn 0.676827 -0.007514 -0.736104
vn 0.807066 -0.009606 -0.590383
vn 0.986730 -0.044045 -0.156280
vn 0.923946 -0.048333 -0.379457
vn 0.994524 -0.044532 0.094545
vn 0.932020 -0.049052 0.359072
vn 0.793928 -0.046952 0.606196
vn 0.609296 -0.036860 0.792086
vn 0.453955 -0.012692 0.890934
vn 0.453692 -0.036316 0.890418
vn 0.225951 -0.036428 0.973457
vn 0.000098 -0.036339 0.999339
vn -0.308715 -0.035998 0.950473
vn -0.520407 -0.035618 0.853175
vn -0.546703 0.330650 0.769277
vn -0.546703 0.330650 0.769277
vn -0.546703 0.330650 0.769277
vn -0.546703 0.330650 0.769277
vn -0.740682 0.405422 0.535745
vn -0.740682 0.405422 0.535745
vn -0.740682 0.405422 0.535745
vn -0.740682 0.405422 0.535745
vn -0.983248 -0.034627 0.178954
vn -0.999392 -0.034851 0.000043
vn -0.959494 -0.034749 -0.279577
vn -0.808490 -0.034781 -0.587481
vn -0.562321 -0.034910 -0.826182
vn -0.337641 -0.035090 -0.940621
vn 0.000273 -0.035429 -0.999372
vn 0.318943 -0.035779 -0.947098
vn 0.453704 -0.035505 -0.890445
vn 0.691366 -0.035939 -0.721610
vn 0.795149 -0.045415 -0.604711
vn 0.000000 -1.000000 0.000000
vn 0.000000 -1.000000 0.000000
vn 0.000000 -1.000000 0.000000
vn 0.000000 -1.000000 0.000000
vn 0.999222 0.039437 0.000000
vn 0.999222 0.039437 0.000000
vn 0.999222 0.039437 0.000000
vn 0.999222 0.039437 0.000000
vn 0.000000 1.000000 0.000000
vn 0.000000 1.000000 0.000000
vn 0.000000 1.000000 0.000000
vn 0.000000 1.000000 0.000000
vn -0.999697 -0.024598 0.000000
vn -0.999697 -0.024598 0.000000
vn -0.999697 -0.024598 0.000000
vn -0.999697 -0.024598 0.000000
vn -0.236660 0.961410 -0.140294
vn -0.223230 0.964638 -0.140147
vn -0.222972 0.964699 -0.140143
vn -0.240488 0.960458 -0.140309
vn -0.222836 0.964738 0.140086
vn -0.224554 0.970788 0.084539
vn -0.236271 0.967993 0.084655
vn -0.236879 0.961365 0.140236
vn 0.788678 -0.025661 0.614270
vn 0.856036 -0.024723 0.516325
vn 0.859185 0.009874 0.511569
vn 0.796153 -0.004955 0.605076
vn 0.602947 -0.026901 0.797328
vn 0.590311 -0.021643 0.806886
vn 0.307142 -0.029790 0.951197
vn 0.449996 -0.024559 0.892693
vn 0.448305 -0.018855 0.893682
vn 0.448813 -0.017192 0.893460
vn -0.000057 0.820466 0.571696
vn 0.156412 0.810325 0.564720
vn 0.156412 0.810325 0.564720
vn 0.000054 0.820465 0.571696
vn -0.156410 0.810410 0.564599
vn -0.156410 0.810410 0.564599
vn -0.574711 -0.023490 0.818019
vn -0.390988 -0.024946 0.920058
vn -0.453930 -0.016080 0.890892
vn -0.552365 -0.017786 0.833413
vn -0.783861 -0.027369 0.620333
vn -0.767363 -0.022489 0.640819
vn -0.890682 -0.026996 0.453824
vn -0.890601 -0.030157 0.453784
vn -0.999692 -0.024379 -0.004530
vn -0.978920 -0.025807 0.202605
vn -0.982151 -0.020829 0.186936
vn -0.999738 -0.019251 -0.012343
vn -0.988141 -0.023507 -0.151736
vn -0.988582 -0.018399 -0.149559
vn -0.696383 0.299794 -0.652055
vn -0.794395 0.297193 -0.529729
vn -0.793299 0.301915 -0.528701
vn -0.694790 0.305397 -0.651153
vn -0.580681 0.296659 -0.758158
vn -0.579575 0.301361 -0.757149
vn -0.449631 -0.023656 -0.892901
vn -0.449634 -0.023662 -0.892900
vn -0.447686 -0.018518 -0.893999
vn -0.447686 -0.018518 -0.893999
vn -0.012167 0.503368 -0.863986
vn -0.161286 0.498984 -0.851470
vn -0.163333 0.502909 -0.848767
vn -0.036776 0.507944 -0.860605
vn 0.156392 0.496286 -0.853956
vn 0.156409 0.499833 -0.851882
vn 0.460186 -0.018782 -0.887624
vn 0.458165 -0.024330 -0.888534
vn 0.458289 -0.024989 -0.888452
vn 0.460521 -0.019815 -0.887428
vn 0.788281 -0.021543 -0.614937
vn 0.666302 -0.022111 -0.745354
vn 0.673156 -0.016462 -0.739317
vn 0.788324 -0.005756 -0.615233
vn 0.861220 -0.021820 -0.507764
vn 0.864351 0.006002 -0.502853
vn 0.562232 -0.823583 -0.074876
vn 0.561912 -0.823806 -0.074823
vn 0.560309 -0.824921 -0.074555
vn 0.560309 -0.824921 -0.074555
vn -0.104872 -0.049004 -0.993278
vn -0.100506 -0.057461 -0.993276
vn -0.185421 0.111349 -0.976330
vn -0.185421 0.111349 -0.976330
vn 0.175956 0.845866 0.503538
vn -0.005450 0.846491 0.532376
vn -0.012822 0.845912 0.533169
vn 0.175956 0.845866 0.503538
vn 0.565778 -0.821096 0.075475
vn 0.565778 -0.821096 0.075475
vn 0.565778 -0.821096 0.075475
vn 0.565778 -0.821096 0.075475
vn -0.060890 0.840989 -0.537615
vn -0.060890 0.840989 -0.537615
vn -0.060890 0.840989 -0.537615
vn -0.060890 0.840989 -0.537615
vn -0.077608 0.123078 0.989358
vn 0.000071 -0.055123 0.998480
vn -0.003636 -0.046667 0.998904
vn -0.077608 0.123078 0.989358
vn 0.645261 -0.761509 -0.061173
vn 0.644785 -0.761920 -0.061082
vn 0.642845 -0.763587 -0.060714
vn 0.642845 -0.763586 -0.060714
vn -0.090964 -0.117158 -0.988939
vn -0.142698 -0.071011 -0.987216
vn -0.337940 0.112397 -0.934432
vn -0.337940 0.112397 -0.934432
vn -0.791222 0.604796 0.090498
vn -0.793122 0.602241 0.090903
vn -0.793469 0.601772 0.090978
vn -0.791222 0.604796 0.090498
vn 0.645029 -0.761709 0.061128
vn 0.645029 -0.761709 0.061128
vn 0.645029 -0.761709 0.061128
vn 0.645029 -0.761709 0.061128
vn -0.793294 0.602009 -0.090940
vn -0.793294 0.602009 -0.090940
vn -0.793294 0.602009 -0.090940
vn -0.793294 0.602009 -0.090940
vn -0.337164 0.111751 0.934790
vn -0.141723 -0.071794 0.987299
vn -0.090048 -0.117878 0.988937
vn -0.337164 0.111751 0.934790
vn 0.885385 -0.457553 -0.082094
vn 0.885008 -0.458301 -0.081984
vn 0.884158 -0.459982 -0.081735
vn 0.884158 -0.459982 -0.081735
vn 0.304716 0.053306 -0.950950
vn 0.221192 0.116340 -0.968266
vn 0.028207 0.250640 -0.967669
vn 0.028207 0.250640 -0.967669
vn -0.859561 0.505531 0.074793
vn -0.861061 0.502909 0.075203
vn -0.861891 0.501452 0.075431
vn -0.859561 0.505531 0.074793
vn 0.885180 -0.457960 0.082035
vn 0.885180 -0.457960 0.082035
vn 0.885180 -0.457960 0.082035
vn 0.885180 -0.457960 0.082035
vn -0.861459 0.502211 -0.075312
vn -0.861459 0.502211 -0.075312
vn -0.861459 0.502211 -0.075312
vn -0.861459 0.502211 -0.075312
vn 0.028984 0.250056 0.967798
vn 0.028984 0.250056 0.967798
vn 0.028984 0.250056 0.967798
vn 0.028984 0.250056 0.967798
vn 0.983131 -0.179813 -0.033486
vn 0.982939 -0.180887 -0.033340
vn 0.982249 -0.184690 -0.032823
vn 0.982249 -0.184690 -0.032823
vn 0.222342 0.112592 -0.968446
vn 0.099111 0.172071 -0.980086
vn -0.110253 0.263871 -0.958236
vn -0.110253 0.263871 -0.958236
vn -0.876889 0.480588 -0.010004
vn -0.880626 0.473727 -0.008939
vn -0.882086 0.471011 -0.008519
vn -0.876889 0.480588 -0.010004
vn 0.983048 -0.180275 0.033424
vn 0.983048 -0.180275 0.033424
vn 0.983048 -0.180275 0.033424
vn 0.983048 -0.180275 0.033424
vn -0.881572 0.471970 0.008668
vn -0.881572 0.471970 0.008668
vn -0.881572 0.471970 0.008668
vn -0.881572 0.471970 0.008668
vn -0.109573 0.263507 0.958414
vn 0.099969 0.171638 0.980075
vn 0.223397 0.112065 0.968264
vn -0.109573 0.263507 0.958414
vn 0.992525 0.119921 0.022668
vn 0.992525 0.119921 0.022671
vn 0.992524 0.119921 0.022679
vn 0.992524 0.119921 0.022679
vn -0.011616 0.135365 -0.990728
vn -0.030579 0.135157 -0.990352
vn -0.223854 0.130207 -0.965886
vn -0.223854 0.130207 -0.965886
vn -0.991292 0.117746 -0.058958
vn -0.991292 0.117746 -0.058963
vn -0.991292 0.117746 -0.058964
vn -0.991292 0.117746 -0.058958
vn 0.992524 0.119927 -0.022671
vn 0.992524 0.119927 -0.022671
vn 0.992524 0.119927 -0.022671
vn 0.992524 0.119927 -0.022671
vn -0.991292 0.117747 0.058963
vn -0.991292 0.117747 0.058964
vn -0.991292 0.117747 0.058964
vn -0.991292 0.117747 0.058963
vn -0.223423 0.130129 0.965996
vn -0.029697 0.135070 0.990391
vn -0.010608 0.135278 0.990751
vn -0.223423 0.130129 0.965996
vn 0.156352 0.489225 -0.858028
vn -0.000185 0.495460 -0.868631
vn -0.156354 0.489507 -0.857868
vn -0.583705 0.283445 -0.760886
vn -0.699373 0.287273 -0.654485
vn -0.797338 0.284033 -0.532520
vn -0.890469 -0.034728 0.453717
vn -0.795365 -0.035328 0.605101
vn 0.000273 -0.036339 0.999339
vn 0.064270 -0.200833 0.977515
vn 0.064270 -0.200833 0.977515
vn 0.054437 -0.241788 0.968801
vn 0.054437 -0.241788 0.968801
vn 0.418027 -0.037939 0.907642
vn 0.418027 -0.037939 0.907642
vn 0.418027 -0.037939 0.907642
vn 0.418027 -0.037939 0.907642
vn 0.323179 0.060721 0.944388
vn 0.323179 0.060721 0.944388
vn 0.207449 0.134117 0.969009
vn 0.207449 0.134117 0.969009
vn -0.207246 0.968236 0.139886
vn -0.210926 0.973852 0.084398
vn -0.207504 0.968172 -0.139945
vn -0.203543 0.969018 -0.139907
vn 0.206059 0.134240 -0.969288
vn 0.206059 0.134240 -0.969288
vn 0.322169 0.061228 -0.944700
vn 0.322170 0.061228 -0.944700
vn 0.417457 -0.037265 -0.907932
vn 0.417457 -0.037265 -0.907932
vn 0.053522 -0.241097 -0.969024
vn 0.053522 -0.241096 -0.969024
vn -0.026788 -0.196922 -0.980053
vn -0.026788 -0.196922 -0.980053
vn -0.403060 -0.821637 0.403058
vn -0.403060 -0.821637 0.403058
vn -0.403060 -0.821637 0.403058
vn -0.403060 -0.821637 0.403058
vn -0.171519 -0.032495 0.984645
vn -0.171519 -0.032495 0.984645
vn -0.171519 -0.032495 0.984645
vn -0.171519 -0.032495 0.984645
vn 0.403058 0.821638 -0.403057
vn 0.403058 0.821638 -0.403057
vn 0.403058 0.821638 -0.403057
vn 0.403058 0.821638 -0.403057
vn -0.400593 -0.893232 0.204110
vn -0.400592 -0.893233 0.204110
vn -0.400592 -0.893233 0.204110
vn -0.400592 -0.893233 0.204110
vn 0.400587 0.893235 -0.204111
vn 0.400587 0.893235 -0.204111
vn 0.400587 0.893235 -0.204110
vn 0.400587 0.893235 -0.204111
vn 0.165317 0.016866 -0.986096
vn 0.165317 0.016866 -0.986096
vn 0.165317 0.016866 -0.986096
vn 0.165317 0.016866 -0.986096
vn -0.633040 -0.493872 0.596113
vn -0.633040 -0.493872 0.596113
vn -0.633040 -0.493872 0.596113
vn -0.633040 -0.493872 0.596113
vn -0.074360 -0.025969 0.996893
vn -0.074360 -0.025969 0.996893
vn -0.074360 -0.025969 0.996893
vn -0.074360 -0.025969 0.996893
vn 0.579147 0.615761 -0.534255
vn 0.579147 0.615761 -0.534254
vn 0.579147 0.615761 -0.534254
vn 0.579147 0.615761 -0.534255
vn -0.766754 -0.524277 0.370435
vn -0.766591 -0.524581 0.370342
vn -0.765463 -0.526676 0.369701
vn -0.765463 -0.526676 0.369701
vn 0.707317 0.621411 -0.336973
vn 0.710340 0.617035 -0.338652
vn 0.709943 0.617612 -0.338432
vn 0.707317 0.621411 -0.336973
vn -0.489616 0.027190 -0.871514
vn -0.489616 0.027190 -0.871514
vn -0.489616 0.027190 -0.871514
vn -0.489616 0.027190 -0.871514
vn -0.675297 -0.461248 0.575521
vn -0.675297 -0.461248 0.575521
vn -0.675297 -0.461248 0.575521
vn -0.675297 -0.461248 0.575521
vn -0.283361 0.077979 0.955838
vn -0.283361 0.077979 0.955838
vn -0.283361 0.077979 0.955838
vn -0.283361 0.077979 0.955838
vn -0.262096 0.832423 0.488239
vn -0.262096 0.832423 0.488239
vn -0.262096 0.832423 0.488239
vn -0.262096 0.832423 0.488239
vn -0.790689 -0.490892 0.365836
vn -0.790454 -0.491415 0.365643
vn -0.791168 -0.489826 0.366229
vn -0.791168 -0.489826 0.366229
vn -0.039627 0.988867 0.143432
vn -0.005076 0.992119 0.125198
vn -0.024926 0.990437 0.135696
vn -0.039627 0.988867 0.143432
vn -0.751870 0.168833 -0.637328
vn -0.751870 0.168833 -0.637328
vn -0.751870 0.168833 -0.637327
vn -0.751870 0.168833 -0.637328
vn -0.934063 -0.014926 0.356797
vn -0.934063 -0.014926 0.356797
vn -0.934063 -0.014926 0.356797
vn -0.934063 -0.014926 0.356797
vn 0.588273 0.751059 0.299741
vn 0.588273 0.751059 0.299741
vn 0.588273 0.751059 0.299741
vn 0.588273 0.751059 0.299741
vn 0.428851 0.795097 0.428845
vn 0.428851 0.795097 0.428845
vn 0.428851 0.795097 0.428845
vn 0.428851 0.795097 0.428845
vn 0.748509 -0.002165 -0.663121
vn 0.748509 -0.002165 -0.663121
vn 0.748509 -0.002165 -0.663121
vn 0.748509 -0.002165 -0.663121
vn -0.465679 -0.752523 -0.465674
vn -0.465679 -0.752523 -0.465674
vn -0.465679 -0.752523 -0.465674
vn -0.465679 -0.752523 -0.465674
vn 0.748069 -0.003960 -0.663609
vn 0.748069 -0.003960 -0.663609
vn 0.748069 -0.003960 -0.663609
vn 0.748069 -0.003960 -0.663609
vn -0.632011 -0.704884 -0.322025
vn -0.632011 -0.704884 -0.322025
vn -0.632011 -0.704884 -0.322025
vn -0.632011 -0.704884 -0.322025
vn -0.935198 -0.027216 0.353078
vn -0.935198 -0.027216 0.353078
vn -0.935198 -0.027216 0.353078
vn -0.935198 -0.027216 0.353078
vn -0.983670 0.060639 0.169460
vn -0.983670 0.060639 0.169460
vn -0.983670 0.060639 0.169460
vn -0.983670 0.060639 0.169460
vn 0.636206 0.671997 0.379028
vn 0.636206 0.671997 0.379028
vn 0.636206 0.671997 0.379028
vn 0.636206 0.671997 0.379028
vn 0.495110 0.696063 0.519964
vn 0.495110 0.696063 0.519964
vn 0.495110 0.696063 0.519964
vn 0.495110 0.696063 0.519964
vn 0.682118 -0.004493 -0.731229
vn 0.682118 -0.004493 -0.731229
vn 0.682118 -0.004493 -0.731229
vn 0.682118 -0.004493 -0.731229
vn -0.588099 -0.511227 -0.626727
vn -0.588099 -0.511227 -0.626727
vn -0.588099 -0.511227 -0.626727
vn -0.588099 -0.511227 -0.626727
vn 0.674285 -0.008409 -0.738424
vn 0.674285 -0.008409 -0.738424
vn 0.674285 -0.008409 -0.738424
vn 0.674285 -0.008409 -0.738424
vn -0.749204 -0.494967 -0.440114
vn -0.749204 -0.494967 -0.440114
vn -0.749204 -0.494967 -0.440114
vn -0.749204 -0.494967 -0.440114
vn -0.950013 0.032157 0.310549
vn -0.950013 0.032157 0.310549
vn -0.950013 0.032157 0.310549
vn -0.950013 0.032157 0.310549
vn -0.914846 0.127485 0.383150
vn -0.914846 0.127485 0.383150
vn -0.914846 0.127485 0.383151
vn -0.914846 0.127485 0.383150
vn 0.172758 0.969094 0.176103
vn 0.172758 0.969094 0.176103
vn 0.172758 0.969094 0.176103
vn 0.172758 0.969094 0.176103
vn 0.193356 0.967428 0.163390
vn 0.193356 0.967428 0.163390
vn 0.193356 0.967428 0.163390
vn 0.193356 0.967428 0.163390
vn 0.732102 -0.029466 -0.680558
vn 0.732102 -0.029466 -0.680558
vn 0.732102 -0.029466 -0.680558
vn 0.732102 -0.029466 -0.680558
vn -0.502697 -0.639707 -0.581438
vn -0.502698 -0.639707 -0.581438
vn -0.502698 -0.639707 -0.581438
vn -0.502698 -0.639707 -0.581438
vn 0.729619 -0.033440 -0.683036
vn 0.729619 -0.033440 -0.683036
vn 0.729619 -0.033440 -0.683036
vn 0.729619 -0.033440 -0.683036
vn -0.636503 -0.608187 -0.474313
vn -0.636503 -0.608187 -0.474313
vn -0.636503 -0.608187 -0.474313
vn -0.636503 -0.608187 -0.474313
vn -0.919398 0.116444 0.375696
vn -0.919398 0.116444 0.375696
vn -0.919398 0.116444 0.375696
vn -0.919398 0.116444 0.375696
vn -0.894281 0.111543 0.433382
vn -0.894281 0.111543 0.433382
vn -0.894281 0.111543 0.433382
vn -0.894281 0.111543 0.433382
vn 0.029112 0.996469 0.078756
vn 0.029112 0.996469 0.078756
vn 0.029112 0.996469 0.078756
vn 0.029112 0.996469 0.078756
vn 0.094551 0.994858 0.036302
vn 0.094551 0.994858 0.036302
vn 0.094551 0.994858 0.036302
vn 0.094551 0.994858 0.036302
vn 0.745139 -0.035723 -0.665951
vn 0.745139 -0.035723 -0.665951
vn 0.745139 -0.035723 -0.665951
vn 0.745139 -0.035723 -0.665951
vn -0.391884 -0.815009 -0.426835
vn -0.391883 -0.815009 -0.426835
vn -0.391884 -0.815009 -0.426835
vn -0.391884 -0.815009 -0.426835
vn 0.743660 -0.039753 -0.667375
vn 0.743660 -0.039753 -0.667375
vn 0.743660 -0.039753 -0.667375
vn 0.743660 -0.039753 -0.667375
vn -0.469525 -0.801345 -0.370666
vn -0.469525 -0.801345 -0.370666
vn -0.469525 -0.801345 -0.370666
vn -0.469525 -0.801345 -0.370666
vn -0.897637 0.100375 0.429153
vn -0.897637 0.100375 0.429153
vn -0.897637 0.100375 0.429153
vn -0.897637 0.100375 0.429153
vn -0.499021 0.479163 0.722067
vn -0.499021 0.479163 0.722067
vn -0.499021 0.479163 0.722067
vn -0.499021 0.479163 0.722067
vn -0.249768 -0.351244 0.902354
vn -0.249768 -0.351244 0.902354
vn -0.249768 -0.351244 0.902354
vn -0.249768 -0.351244 0.902354
vn 0.869878 -0.433078 0.236127
vn 0.869878 -0.433078 0.236127
vn 0.869878 -0.433078 0.236127
vn 0.869878 -0.433078 0.236127
vn 0.650029 0.343303 0.677942
vn 0.650029 0.343303 0.677942
vn 0.650029 0.343303 0.677942
vn 0.650029 0.343303 0.677942
vn -0.221023 0.367601 0.903337
vn -0.221023 0.367602 0.903337
vn -0.221023 0.367602 0.903337
vn -0.221023 0.367602 0.903337
vn -0.083965 -0.303301 0.949188
vn -0.083965 -0.303301 0.949188
vn -0.083965 -0.303301 0.949188
vn -0.083965 -0.303301 0.949188
vn 0.362308 -0.347817 -0.864729
vn 0.362308 -0.347817 -0.864729
vn 0.362308 -0.347817 -0.864729
vn 0.362308 -0.347817 -0.864729
vn 0.341523 0.536474 -0.771724
vn 0.341523 0.536474 -0.771724
vn 0.341523 0.536474 -0.771724
vn 0.341523 0.536474 -0.771724
vn -0.137214 0.327779 0.934737
vn -0.137214 0.327779 0.934737
vn -0.137214 0.327779 0.934737
vn -0.137214 0.327779 0.934737
vn 0.087034 -0.244731 0.965677
vn 0.087034 -0.244731 0.965677
vn 0.087034 -0.244731 0.965677
vn 0.087034 -0.244731 0.965677
vn 0.258764 -0.300637 -0.917964
vn 0.258764 -0.300637 -0.917964
vn 0.258764 -0.300637 -0.917964
vn 0.258764 -0.300637 -0.917964
vn 0.094899 0.372791 -0.923050
vn 0.094899 0.372791 -0.923050
vn 0.094899 0.372791 -0.923050
vn 0.094899 0.372791 -0.923050
vn 0.116345 -0.668479 0.734574
vn 0.116345 -0.668479 0.734574
vn 0.116345 -0.668479 0.734574
vn 0.116345 -0.668479 0.734574
vn 0.975020 -0.008861 0.221941
vn 0.975020 -0.008861 0.221941
vn 0.975020 -0.008861 0.221941
vn 0.975020 -0.008861 0.221941
vn -0.074132 0.880578 -0.468067
vn -0.074132 0.880578 -0.468067
vn -0.074132 0.880578 -0.468067
vn -0.074132 0.880578 -0.468067
vn -0.116350 -0.668448 0.734602
vn -0.116350 -0.668448 0.734602
vn -0.116350 -0.668448 0.734602
vn -0.116350 -0.668448 0.734602
vn 0.074132 0.880578 -0.468067
vn 0.074132 0.880578 -0.468067
vn 0.074132 0.880578 -0.468067
vn 0.074132 0.880578 -0.468067
vn -0.975129 -0.007939 0.221494
vn -0.975129 -0.007939 0.221494
vn -0.975129 -0.007939 0.221494
vn -0.975129 -0.007939 0.221494
vn 0.094790 -0.617258 0.781029
vn 0.094790 -0.617258 0.781029
vn 0.094790 -0.617258 0.781029
vn 0.094790 -0.617258 0.781029
vn 0.956330 0.055090 0.287051
vn 0.956330 0.055090 0.287051
vn 0.956330 0.055090 0.287051
vn 0.956330 0.055090 0.287051
vn -0.085093 0.678637 -0.729528
vn -0.085093 0.678637 -0.729528
vn -0.085093 0.678637 -0.729528
vn -0.085093 0.678637 -0.729528
vn -0.094794 -0.617229 0.781052
vn -0.094794 -0.617229 0.781052
vn -0.094794 -0.617229 0.781052
vn -0.094794 -0.617229 0.781052
vn 0.085093 0.678638 -0.729527
vn 0.085093 0.678638 -0.729527
vn 0.085093 0.678638 -0.729527
vn 0.085093 0.678638 -0.729527
vn -0.956431 0.055941 0.286550
vn -0.956431 0.055941 0.286550
vn -0.956431 0.055941 0.286550
vn -0.956431 0.055941 0.286550
vn 0.090432 -0.207031 0.974146
vn 0.090432 -0.207031 0.974146
vn 0.090432 -0.207031 0.974146
vn 0.090432 -0.207031 0.974146
vn 0.984158 0.113091 0.136541
vn 0.984158 0.113091 0.136541
vn 0.984158 0.113091 0.136541
vn 0.984158 0.113091 0.136541
vn -0.064645 0.391337 -0.917974
vn -0.064645 0.391337 -0.917974
vn -0.064645 0.391337 -0.917974
vn -0.064645 0.391337 -0.917974
vn -0.090435 -0.207005 0.974151
vn -0.090435 -0.207005 0.974151
vn -0.090435 -0.207005 0.974151
vn -0.090435 -0.207005 0.974151
vn 0.064645 0.391337 -0.917974
vn 0.064645 0.391337 -0.917974
vn 0.064645 0.391337 -0.917974
vn 0.064645 0.391337 -0.917974
vn -0.984226 0.113564 0.135656
vn -0.984226 0.113564 0.135656
vn -0.984226 0.113564 0.135656
vn -0.984226 0.113564 0.135656
vn 0.076772 -0.084039 0.993501
vn 0.076772 -0.084039 0.993501
vn 0.076772 -0.084039 0.993501
vn 0.076772 -0.084039 0.993501
vn 0.990729 0.108318 0.081997
vn 0.990729 0.108318 0.081997
vn 0.990729 0.108318 0.081997
vn 0.990729 0.108318 0.081997
vn -0.033090 0.372047 -0.927624
vn -0.033090 0.372047 -0.927624
vn -0.033090 0.372047 -0.927624
vn -0.033090 0.372047 -0.927624
vn -0.076775 -0.084018 0.993502
vn -0.076775 -0.084018 0.993502
vn -0.076775 -0.084018 0.993502
vn -0.076775 -0.084018 0.993502
vn 0.033090 0.372047 -0.927624
vn 0.033090 0.372047 -0.927624
vn 0.033090 0.372047 -0.927624
vn 0.033090 0.372047 -0.927624
vn -0.990762 0.108680 0.081115
vn -0.990762 0.108680 0.081115
vn -0.990762 0.108680 0.081115
vn -0.990762 0.108680 0.081115
vn -0.944081 0.030054 -0.328341
vn -0.944081 0.030054 -0.328341
vn -0.944081 0.030054 -0.328341
vn -0.944081 0.030054 -0.328341
vn 0.601582 0.789208 0.123491
vn 0.601582 0.789208 0.123491
vn 0.601582 0.789208 0.123491
vn 0.601582 0.789208 0.123491
vn -0.005382 0.988128 0.153540
vn -0.005382 0.988128 0.153540
vn -0.005382 0.988128 0.153540
vn -0.005382 0.988128 0.153540
vn 0.952606 0.022153 -0.303400
vn 0.952606 0.022153 -0.303400
vn 0.952606 0.022153 -0.303400
vn 0.952606 0.022153 -0.303400
vn 0.082657 -0.776528 -0.624637
vn 0.082657 -0.776528 -0.624637
vn 0.082657 -0.776528 -0.624637
vn 0.082657 -0.776528 -0.624637
vn 0.972051 0.008305 -0.234624
vn 0.972051 0.008305 -0.234624
vn 0.972051 0.008305 -0.234624
vn 0.972051 0.008305 -0.234624
vn -0.082667 -0.776484 -0.624691
vn -0.082667 -0.776484 -0.624691
vn -0.082667 -0.776484 -0.624691
vn -0.082667 -0.776484 -0.624691
vn -0.972157 0.010297 -0.234105
vn -0.972157 0.010297 -0.234105
vn -0.972157 0.010297 -0.234105
vn -0.972157 0.010297 -0.234105
vn -0.951330 0.112280 -0.286992
vn -0.951330 0.112280 -0.286992
vn -0.951330 0.112280 -0.286992
vn -0.951330 0.112280 -0.286992
vn 0.607757 0.632461 0.480234
vn 0.607757 0.632461 0.480234
vn 0.607757 0.632461 0.480234
vn 0.607757 0.632461 0.480234
vn -0.034528 0.810944 0.584104
vn -0.034528 0.810944 0.584103
vn -0.034528 0.810944 0.584104
vn -0.034528 0.810944 0.584104
vn 0.958116 0.099242 -0.268633
vn 0.958116 0.099242 -0.268633
vn 0.958117 0.099242 -0.268633
vn 0.958116 0.099242 -0.268633
vn 0.089201 -0.530488 -0.842986
vn 0.089201 -0.530488 -0.842986
vn 0.089201 -0.530488 -0.842986
vn 0.089201 -0.530488 -0.842986
vn 0.974435 0.069763 -0.213564
vn 0.974435 0.069763 -0.213564
vn 0.974435 0.069763 -0.213564
vn 0.974435 0.069763 -0.213564
vn -0.089210 -0.530429 -0.843022
vn -0.089210 -0.530429 -0.843022
vn -0.089210 -0.530429 -0.843022
vn -0.089210 -0.530429 -0.843022
vn -0.974583 0.071460 -0.212323
vn -0.974583 0.071460 -0.212323
vn -0.974583 0.071460 -0.212323
vn -0.974583 0.071460 -0.212323
vn -0.926135 0.189794 -0.325962
vn -0.926135 0.189794 -0.325962
vn -0.926135 0.189794 -0.325962
vn -0.926135 0.189794 -0.325962
vn 0.591392 0.380706 0.710857
vn 0.591392 0.380706 0.710857
vn 0.591392 0.380705 0.710858
vn 0.591392 0.380706 0.710858
vn -0.056015 0.608142 0.791849
vn -0.056015 0.608142 0.791849
vn -0.056015 0.608142 0.791849
vn -0.056015 0.608142 0.791849
vn 0.999733 -0.017809 0.014701
vn 0.999733 -0.017809 0.014701
vn 0.999733 -0.017809 0.014701
vn 0.999733 -0.017809 0.014701
vn 0.104720 -0.284158 -0.953041
vn 0.104720 -0.284158 -0.953041
vn 0.104720 -0.284158 -0.953041
vn 0.104720 -0.284158 -0.953042
vn 0.999754 -0.019760 0.010113
vn 0.999754 -0.019760 0.010113
vn 0.999754 -0.019760 0.010113
vn 0.999754 -0.019760 0.010113
vn -0.108670 -0.251016 -0.961864
vn -0.108670 -0.251016 -0.961864
vn -0.108670 -0.251016 -0.961864
vn -0.108670 -0.251016 -0.961864
vn -0.922896 0.183255 -0.338645
vn -0.922896 0.183255 -0.338645
vn -0.922896 0.183255 -0.338645
vn -0.922896 0.183255 -0.338645
vn -0.809733 -0.304108 0.501848
vn -0.809733 -0.304108 0.501848
vn -0.809733 -0.304108 0.501848
vn -0.809733 -0.304108 0.501848
vn 0.312973 0.885624 -0.343101
vn 0.312973 0.885624 -0.343101
vn 0.312973 0.885624 -0.343101
vn 0.312973 0.885624 -0.343101
vn 0.107273 0.975290 -0.193140
vn 0.107273 0.975290 -0.193140
vn 0.107273 0.975290 -0.193140
vn 0.107273 0.975290 -0.193140
vn 0.658446 0.377200 -0.651282
vn 0.658446 0.377200 -0.651282
vn 0.658446 0.377200 -0.651282
vn 0.658446 0.377200 -0.651282
vn -0.028659 -0.931295 -0.363137
vn -0.028659 -0.931295 -0.363137
vn -0.028659 -0.931295 -0.363137
vn -0.028659 -0.931295 -0.363137
vn 0.660368 0.366236 -0.655581
vn 0.660368 0.366236 -0.655581
vn 0.660368 0.366236 -0.655581
vn 0.660368 0.366236 -0.655581
vn 0.021217 -0.913122 -0.407133
vn 0.021217 -0.913122 -0.407133
vn 0.021217 -0.913122 -0.407133
vn 0.021217 -0.913122 -0.407133
vn -0.810804 -0.297941 0.503814
vn -0.810804 -0.297941 0.503814
vn -0.810804 -0.297941 0.503814
vn -0.810804 -0.297941 0.503814
vn 0.000000 -1.000000 0.000000
vn 0.000000 -1.000000 0.000000
vn 0.453188 0.059385 0.889435
vn 0.453188 0.059385 0.889435
vn 0.000000 1.000000 0.000000
vn 0.000000 1.000000 0.000000
vn 0.245437 0.841263 0.481703
vn 0.453709 -0.035505 -0.890442
vn 0.453709 -0.035505 -0.890442
vn 0.453709 -0.035505 -0.890442
vn 0.453709 -0.035505 -0.890442
vn 0.453309 0.054873 -0.889663
vn 0.453309 0.054873 -0.889663
vn 0.453309 0.054873 -0.889663
vn 0.453309 0.054873 -0.889663
vn 0.370952 0.754673 -0.541168
vn 0.370952 0.754673 -0.541168
vn 0.523637 0.645709 -0.555755
vn 0.322545 0.887175 -0.329978
vn 0.675111 -0.006386 -0.737688
vn -0.454906 0.720325 0.523633
vn -0.454906 0.720325 0.523633
vn -0.799379 0.593704 0.092244
vn -0.799379 0.593704 0.092244
vn -0.867027 0.492300 0.076851
vn -0.867027 0.492300 0.076851
vn -0.895184 0.445672 -0.004628
vn -0.895184 0.445672 -0.004628
vn -0.991291 0.117745 -0.058979
vn -0.991291 0.117745 -0.058979
vn 0.992525 0.119922 0.022640
vn 0.992525 0.119922 0.022640
vn 0.985324 -0.167024 -0.035218
vn 0.985324 -0.167024 -0.035218
vn 0.888241 -0.451830 -0.082933
vn 0.888241 -0.451830 -0.082933
vn 0.651468 -0.756109 -0.062354
vn 0.651468 -0.756109 -0.062354
vn 0.567293 -0.820027 -0.075722
vn 0.567293 -0.820027 -0.075722
vn 0.986248 0.053990 -0.156205
vn 0.986248 0.053990 -0.156205
vn 0.986248 0.053990 -0.156205
vn 0.986248 0.053990 -0.156205
vn 0.607386 0.788561 -0.096199
vn 0.607386 0.788561 -0.096199
vn 0.752144 0.648144 -0.119122
vn 0.458765 0.885582 -0.072659
vn 0.982295 0.104380 -0.155570
vn 0.400587 0.893235 -0.204109
vn 0.400587 0.893235 -0.204109
vn 0.718390 0.605124 -0.343134
vn 0.718390 0.605124 -0.343134
vn 0.046316 0.994135 0.097729
vn 0.046316 0.994135 0.097729
vn -0.740686 0.405422 0.535740
vn -0.740686 0.405422 0.535740
vn -0.740686 0.405422 0.535740
vn -0.740686 0.405422 0.535740
vn -0.788930 -0.494778 0.364395
vn -0.788930 -0.494778 0.364395
vn -0.770246 -0.517708 0.372424
vn -0.770246 -0.517708 0.372424
vn -0.400596 -0.893231 0.204110
vn -0.400596 -0.893231 0.204110
vn -0.889625 0.055645 0.453288
vn -0.889625 0.055645 0.453288
vn -0.889625 0.055645 0.453288
vn -0.889625 0.055645 0.453288
vn -0.459258 0.841914 0.283307
vn -0.459258 0.841914 0.283307
vn -0.480392 -0.842206 0.244771
vn -0.480392 -0.842206 0.244771
vn -0.480392 -0.842206 0.244771
vn -0.480392 -0.842206 0.244771
vn 0.461856 -0.005780 0.886936
vn 0.461856 -0.005780 0.886936
vn 0.461856 -0.005780 0.886936
vn 0.461856 -0.005780 0.886936
vn 0.480391 0.842206 -0.244772
vn 0.480391 0.842206 -0.244772
vn 0.480391 0.842206 -0.244772
vn 0.480391 0.842206 -0.244772
vn -0.459477 0.009934 -0.888134
vn -0.459477 0.009934 -0.888134
vn -0.459477 0.009934 -0.888134
vn -0.459477 0.009934 -0.888134
vn 0.000000 1.000000 0.000000
vn 0.000000 1.000000 0.000000
vn 0.000000 1.000000 0.000000
vn 0.000000 1.000000 0.000000
vn -1.000000 -0.000360 0.000000
vn -1.000000 -0.000360 0.000000
vn -1.000000 -0.000360 0.000000
vn -1.000000 -0.000360 0.000000
vn 0.000000 -1.000000 0.000000
vn 0.000000 -1.000000 0.000000
vn 0.000000 -1.000000 0.000000
vn 0.000000 -1.000000 0.000000
vn 1.000000 0.000068 0.000000
vn 1.000000 0.000068 0.000000
vn 1.000000 0.000068 0.000000
vn 1.000000 0.000068 0.000000
vn 0.000000 -1.000000 -0.000001
vn 0.000000 -1.000000 -0.000001
vn 0.000000 -1.000000 -0.000001
vn 0.000000 -1.000000 -0.000001
vn 0.000000 0.004764 -0.999989
vn 0.000000 0.004764 -0.999989
vn 0.000000 0.004764 -0.999989
vn 0.000000 0.004764 -0.999989
vn 0.000000 1.000000 0.000000
vn 0.000000 1.000000 0.000000
vn 0.000000 1.000000 0.000000
vn 0.000000 1.000000 0.000000
vn 0.000000 -0.000456 1.000000
vn 0.000000 -0.000456 1.000000
vn 0.000000 -0.000456 1.000000
vn 0.000000 -0.000456 1.000000
vn 0.048654 -0.994241 -0.095489
vn 0.048654 -0.994241 -0.095489
vn 0.048654 -0.994241 -0.095489
vn 0.048654 -0.994241 -0.095489
vn -0.998584 0.018338 -0.049940
vn -0.998584 0.018338 -0.049940
vn -0.998584 0.018338 -0.049940
vn -0.998584 0.018338 -0.049940
vn -0.048675 0.994236 0.095528
vn -0.048675 0.994236 0.095528
vn -0.048675 0.994236 0.095528
vn -0.048675 0.994236 0.095528
vn 0.998550 -0.020686 0.049705
vn 0.998550 -0.020686 0.049705
vn 0.998550 -0.020686 0.049705
vn 0.998550 -0.020686 0.049705
vn 0.048674 -0.994236 -0.095533
vn 0.048674 -0.994236 -0.095533
vn 0.048674 -0.994236 -0.095533
vn 0.048674 -0.994236 -0.095533
vn -0.998201 -0.025542 -0.054244
vn -0.998201 -0.025542 -0.054244
vn -0.998201 -0.025542 -0.054244
vn -0.998201 -0.025542 -0.054244
vn -0.048674 0.994236 0.095528
vn -0.048674 0.994236 0.095528
vn -0.048674 0.994236 0.095528
vn -0.048674 0.994236 0.095528
vn 0.998083 0.029162 0.054597
vn 0.998083 0.029162 0.054597
vn 0.998083 0.029162 0.054597
vn 0.998083 0.029162 0.054597
vn -0.866544 0.387957 -0.313991
vn -0.866544 0.387957 -0.313991
vn -0.866544 0.387957 -0.313991
vn -0.866544 0.387957 -0.313991
vn -0.856489 -0.160034 0.490730
vn -0.856489 -0.160034 0.490730
vn -0.856489 -0.160034 0.490730
vn -0.856489 -0.160034 0.490730
vn 0.474802 -0.158300 0.865739
vn 0.474802 -0.158300 0.865739
vn 0.474802 -0.158300 0.865739
vn 0.474802 -0.158300 0.865739
vn -0.255546 0.904506 0.341417
vn -0.255546 0.904506 0.341417
vn -0.255546 0.904506 0.341417
vn -0.255546 0.904506 0.341417
vn -0.789943 0.332651 -0.515106
vn -0.789943 0.332651 -0.515106
vn -0.789943 0.332651 -0.515106
vn -0.789943 0.332651 -0.515106
vn -0.728685 -0.604660 0.321566
vn -0.728685 -0.604660 0.321566
vn -0.728685 -0.604660 0.321566
vn -0.728685 -0.604660 0.321565
vn 0.664561 -0.264660 0.698794
vn 0.664561 -0.264660 0.698794
vn 0.664561 -0.264660 0.698794
vn 0.664561 -0.264660 0.698794
vn 0.226257 0.972169 0.060784
vn 0.226257 0.972169 0.060784
vn 0.226257 0.972169 0.060784
vn 0.226257 0.972169 0.060784
s 1
g pCylinder1
usemtl initialShadingGroup
f 32/86/1 33/87/2 71/126/3 52/107/4
f 33/87/2 34/88/5 70/125/6 71/126/3
f 409/472/7 410/473/8 35/89/9 69/124/10
f 35/89/9 36/90/11 68/123/12 69/124/10
f 36/90/11 37/91/13 67/122/14 68/123/12
f 37/91/13 38/92/15 66/121/16 67/122/14
f 38/92/15 39/93/17 65/120/18 66/121/16
f 39/93/17 40/94/19 64/119/20 65/120/18
f 40/94/19 41/95/21 63/118/22 64/119/20
f 41/95/21 42/96/23 62/117/24 63/118/22
f 469/537/25 470/538/26 43/97/27 61/116/28
f 43/97/27 44/98/29 60/115/30 61/116/28
f 44/98/29 45/99/31 59/114/32 60/115/30
f 45/99/31 46/100/33 58/113/34 59/114/32
f 46/100/33 47/101/35 57/112/36 58/113/34
f 47/101/35 397/458/37 398/459/38 57/112/36
f 48/102/39 49/103/40 55/110/41 56/111/42
f 49/103/40 50/104/43 54/109/44 55/110/41
f 50/104/43 51/105/45 53/108/46 54/109/44
f 452/518/47 453/519/48 32/85/1 52/106/4
s 3
f 115/168/49 114/1/50 116/167/51
s off
f 2/3/52 1/2/53 30/83/54
s 4
f 102/4/55 413/477/56 101/155/57 103/156/58
f 104/5/59 102/4/55 103/156/58
f 105/6/60 104/5/59 103/156/58
f 106/157/61 105/6/60 103/156/58
s 5
f 4/8/62 3/7/63 30/83/64
f 5/9/65 4/8/62 30/83/64
s 6
f 93/10/66 92/146/67 94/147/68
f 95/11/69 93/10/66 94/147/68
f 96/148/70 473/542/71 95/11/69 94/147/68
s 7
f 82/13/72 81/136/73 83/137/74
f 84/14/75 82/13/72 83/137/74
f 85/15/76 84/14/75 83/137/74
f 86/138/77 85/15/76 83/137/74
s off
f 8/17/78 393/454/79 7/16/80 30/83/81
s 8
f 73/18/82 72/127/83 74/128/84
f 75/19/85 73/18/82 74/128/84
f 76/129/86 75/19/85 74/128/84
s 3
f 114/1/50 456/523/87 117/169/88 116/167/51
s 9
f 10/81/89 11/80/90 31/84/91
f 11/80/90 12/79/92 31/84/91
f 12/79/92 404/466/93 13/78/94 31/84/91
f 13/78/94 14/77/95 31/84/91
f 14/77/95 15/76/96 31/84/91
f 15/76/96 16/75/97 31/84/91
f 16/75/97 17/74/98 31/84/91
f 17/74/98 18/73/99 31/84/91
f 18/73/99 19/72/100 31/84/91
f 19/72/100 20/71/101 31/84/91
f 20/71/101 457/524/102 21/70/103 31/84/91
f 21/70/103 22/69/104 31/84/91
f 22/69/104 23/68/105 31/84/91
f 23/68/105 24/67/106 31/84/91
f 24/67/106 25/66/107 31/84/91
f 25/66/107 403/464/108 26/65/109 31/84/91
f 26/65/109 27/64/110 31/84/91
f 27/64/110 28/63/111 31/84/91
f 28/63/111 29/82/112 31/84/91
f 29/82/112 436/501/113 10/81/89 31/84/91
s 10
f 149/205/114 150/206/115 118/171/116 119/172/117
s 1
f 121/176/118 122/177/119 34/88/5 33/87/2
s 11
f 411/474/120 412/475/121 124/179/122 107/158/123
f 124/179/122 125/180/124 109/161/125 107/158/123
f 125/180/124 126/181/126 110/162/127 109/161/125
f 126/181/126 127/182/128 111/163/129 110/162/127
f 127/182/128 128/183/130 113/166/131 111/163/129
s 1
f 129/184/132 130/185/133 40/94/19 39/93/17
s 12
f 131/186/134 132/187/135 97/149/136 98/150/137
f 132/187/135 133/188/138 99/152/139 97/149/136
f 471/539/140 472/540/141 134/189/142 100/154/143
s 13
f 136/191/144 137/192/145 87/139/146 88/140/147
f 137/192/145 138/193/148 89/142/149 87/139/146
f 138/193/148 139/194/150 90/143/151 89/142/149
f 139/194/150 140/195/152 91/145/153 90/143/151
s 1
f 141/196/154 396/457/155 397/458/37 47/101/35
s 14
f 143/198/156 144/199/157 77/130/158 78/131/159
f 144/199/157 145/200/160 79/133/161 77/130/158
f 145/200/160 146/201/162 80/135/163 79/133/161
s 10
f 454/520/164 455/521/165 149/204/114 119/173/117
s 1
f 450/516/166 451/517/167 414/478/168 151/207/169
f 434/499/170 435/500/171 152/209/172 153/210/173
f 433/498/174 434/499/170 153/210/173 154/211/175
f 432/497/176 433/498/174 154/211/175 155/212/177
f 430/495/178 431/496/179 399/460/180 156/213/181
f 429/494/182 430/495/178 156/213/181 157/214/183
f 428/493/184 429/494/182 157/214/183 158/215/185
f 427/492/186 428/493/184 158/215/185 159/216/187
f 426/491/188 427/492/186 159/216/187 160/217/189
f 467/535/190 468/536/191 426/491/188 160/217/189
f 424/489/192 425/490/193 161/218/194 162/219/195
f 423/488/196 424/489/192 162/219/195 163/220/197
f 422/487/198 423/488/196 163/220/197 164/221/199
f 421/486/200 422/487/198 164/221/199 165/222/201
f 420/485/202 421/486/200 165/222/201 166/223/203
f 419/484/204 420/485/202 166/223/203 167/224/205
f 418/483/206 419/484/204 167/224/205 168/225/207
f 408/471/208 417/482/209 418/483/206 168/225/207
f 415/480/210 416/481/211 169/226/212 170/227/213
f 414/479/168 415/480/210 170/227/213 151/208/169
s off
f 8/17/214 30/83/215 74/128/216 72/127/217
f 30/83/218 9/20/219 76/129/220 74/128/221
f 49/103/222 48/102/223 78/131/224 77/130/225
s 15
f 48/102/226 142/197/227 143/198/228 78/131/229
s off
f 50/104/230 49/103/231 77/130/232 79/133/233
s 16
f 146/201/234 147/202/235 51/105/236 80/135/237
s off
f 51/105/238 50/104/239 79/133/240 80/135/241
f 6/12/242 30/83/243 83/137/244 81/136/245
f 30/83/246 7/16/247 86/138/248 83/137/249
f 44/98/250 43/97/251 88/140/252 87/139/253
s 17
f 43/97/254 135/190/255 136/191/256 88/140/257
s off
f 45/99/258 44/98/259 87/139/260 89/142/261
f 46/100/262 45/99/263 89/142/264 90/143/265
s 18
f 140/195/266 141/196/267 47/101/268 91/145/269
s off
f 47/101/270 46/100/271 90/143/272 91/145/273
f 5/9/274 30/83/275 94/147/276 92/146/277
f 30/83/278 6/12/279 96/148/280 94/147/281
f 41/95/282 40/94/283 98/150/284 97/149/285
s 19
f 40/94/286 130/185/287 131/186/288 98/150/289
s off
f 42/96/290 41/95/291 97/149/292 99/152/293
s 20
f 134/189/294 135/190/295 43/97/296 100/154/297
s 21
f 43/97/298 470/538/299 471/539/300 100/154/301
s off
f 2/3/302 30/83/303 103/156/304 101/155/305
f 30/83/306 3/7/307 106/157/308 103/156/309
s 22
f 35/89/310 410/473/311 411/474/312 107/158/313
s 23
f 34/88/314 122/177/315 123/178/316 108/159/317
s off
f 36/90/318 35/89/319 107/158/320 109/161/321
f 37/91/322 36/90/323 109/161/324 110/162/325
f 38/92/326 37/91/327 110/162/328 111/163/329
f 3/27/330 4/28/331 112/165/332 106/164/333
s 24
f 128/183/334 129/184/335 39/93/336 113/166/337
s off
f 39/93/338 38/92/339 111/163/340 113/166/341
f 30/83/342 1/2/343 115/168/344 116/167/345
f 9/20/346 30/83/347 116/167/348 117/169/349
s 25
f 150/206/350 121/176/351 33/87/352 118/171/353
s off
f 33/87/354 32/86/355 119/172/356 118/171/357
s 26
f 32/85/358 453/519/359 454/520/360 119/173/361
s 27
f 51/105/362 147/202/363 148/203/364 120/174/365
s 1
f 1/22/366 2/23/367 122/177/119 121/176/118
s 23
f 123/178/316 122/177/315 2/23/368 101/160/369
s 11
f 412/475/121 413/476/370 102/24/371 124/179/122
f 102/24/371 104/25/372 125/180/124 124/179/122
f 104/25/372 105/26/373 126/181/126 125/180/124
f 105/26/373 106/164/374 127/182/128 126/181/126
f 106/164/374 112/165/375 128/183/130 127/182/128
s 24
f 4/28/376 129/184/335 128/183/334 112/165/377
s 1
f 4/28/378 5/29/379 130/185/133 129/184/132
s 19
f 131/186/288 130/185/287 5/29/380 92/151/381
s 12
f 92/151/382 93/30/383 132/187/135 131/186/134
f 93/30/383 95/31/384 133/188/138 132/187/135
f 472/540/141 473/541/385 96/153/386 134/189/142
s 20
f 6/32/387 135/190/295 134/189/294 96/153/388
s 17
f 136/191/256 135/190/255 6/32/389 81/141/390
s 13
f 81/141/391 82/33/392 137/192/145 136/191/144
f 82/33/392 84/34/393 138/193/148 137/192/145
f 84/34/393 85/35/394 139/194/150 138/193/148
f 85/35/394 86/144/395 140/195/152 139/194/150
s 18
f 7/36/396 141/196/267 140/195/266 86/144/397
s 28
f 191/249/398 394/455/399 395/456/400 194/252/401
s 15
f 143/198/228 142/197/227 8/37/402 72/132/403
s 14
f 72/132/404 73/38/405 144/199/157 143/198/156
f 73/38/405 75/39/406 145/200/160 144/199/157
f 75/39/406 76/134/407 146/201/162 145/200/160
s 16
f 9/40/408 147/202/235 146/201/234 76/134/409
s 27
f 148/203/364 147/202/363 9/40/410 117/175/411
s 10
f 455/521/165 456/522/412 114/41/413 149/204/114
f 114/21/413 115/170/414 150/206/115 149/205/114
s 25
f 1/22/415 121/176/351 150/206/350 115/170/416
s 1
f 449/515/417 450/516/166 151/207/169 171/228/418
f 153/210/173 152/209/172 172/230/419 173/231/420
f 154/211/175 153/210/173 173/231/420 174/232/421
f 155/212/177 154/211/175 174/232/421 175/233/422
s off
f 479/547/423 478/548/424 480/549/425 481/550/426
s 1
f 157/214/183 156/213/181 176/234/427 177/235/428
f 158/215/185 157/214/183 177/235/428 178/236/429
f 159/216/187 158/215/185 178/236/429 179/237/430
f 160/217/189 159/216/187 179/237/430 180/238/431
f 466/534/432 467/535/190 160/217/189 180/238/431
f 162/219/195 161/218/194 181/239/433 182/240/434
f 163/220/197 162/219/195 182/240/434 183/241/435
f 164/221/199 163/220/197 183/241/435 184/242/436
f 165/222/201 164/221/199 184/242/436 185/243/437
f 166/223/203 165/222/201 185/243/437 186/244/438
f 167/224/205 166/223/203 186/244/438 187/245/439
f 168/225/207 167/224/205 187/245/439 188/246/440
f 407/470/441 408/471/208 168/225/207 188/246/440
f 170/227/213 169/226/212 189/247/442 190/248/443
f 151/208/169 170/227/213 190/248/443 171/229/418
f 448/514/444 449/515/417 171/228/418 195/576/445
f 173/231/420 172/230/419 196/255/446 197/575/447
f 174/232/421 173/231/420 197/575/447 198/257/448
f 175/233/422 174/232/421 198/257/448 199/258/449
f 176/234/427 400/461/450 401/462/451 200/259/452
f 177/235/428 176/234/427 200/259/452 201/260/453
f 178/236/429 177/235/428 201/260/453 202/261/454
f 179/237/430 178/236/429 202/261/454 203/262/455
s off
f 286/347/456 285/348/457 287/349/458 288/350/459
f 498/567/460 499/568/461 500/569/462 501/570/463
s 1
f 182/240/434 181/239/433 205/264/464 206/265/465
f 183/241/435 182/240/434 206/265/465 207/266/466
f 184/242/436 183/241/435 207/266/466 208/267/467
f 185/243/437 184/242/436 208/267/467 209/268/468
f 186/244/438 185/243/437 209/268/468 210/269/469
f 187/245/439 186/244/438 210/269/469 211/270/470
f 188/246/440 187/245/439 211/270/470 212/271/471
f 406/469/472 407/470/441 188/246/440 212/271/471
f 190/248/443 189/247/442 213/272/473 214/273/474
f 171/229/418 190/248/443 214/273/474 195/254/445
s 29
f 7/36/475 393/453/476 394/455/477 191/249/478
s off
f 8/37/479 142/197/480 193/251/481 192/250/482
s 30
f 395/456/483 396/457/484 141/196/485 194/252/486
s off
f 141/196/487 7/36/488 191/249/489 194/252/490
s 31
f 441/507/491 442/508/492 268/330/493 241/300/494
f 266/328/495 267/329/496 242/301/497 244/303/498
s 1
f 260/322/499 261/573/500 28/60/501 27/59/502
f 259/321/503 260/322/499 27/59/502 26/58/504
f 258/320/505 402/463/506 403/465/507 25/57/508
s 33
f 354/415/509 355/416/510 356/417/511 357/418/512
f 358/419/513 354/415/509 357/418/512 359/420/514
s 1
f 255/317/515 256/318/516 23/55/517 22/54/518
f 254/316/519 255/317/515 22/54/518 21/53/520
f 457/525/521 458/526/522 254/316/519 21/53/520
f 252/314/523 253/315/524 20/52/525 19/51/526
f 251/313/527 252/314/523 19/51/526 18/50/528
s 34
f 315/312/529 316/377/530 317/378/531 318/379/532
f 319/381/533 315/312/529 318/379/532 320/380/534
s 1
f 249/310/535 250/311/536 16/48/537 15/47/538
s 35
f 384/309/539 385/445/540 386/446/541 387/447/542
f 388/449/543 384/309/539 387/447/542 389/448/544
s 1
f 404/467/545 405/468/546 248/308/547 13/45/548
f 246/306/549 247/307/550 12/44/551 11/43/552
f 245/305/553 246/306/549 11/43/552 10/42/554
s 37
f 447/577/555 448/578/556 195/253/557 215/275/558
s 38
f 272/334/559 245/304/560 10/62/561 217/276/562
s 39
f 10/62/563 436/502/564 437/503/565 217/276/566
s off
f 197/256/567 196/572/568 216/274/569 219/278/570
f 29/61/571 28/574/572 220/279/573 218/277/574
s 40
f 28/574/575 261/323/576 262/324/577 220/279/578
s 41
f 446/579/579 447/577/580 215/275/581 221/281/582
s 42
f 271/333/583 272/334/584 217/276/585 223/282/586
s 43
f 217/276/587 437/503/588 438/504/589 223/282/590
s off
f 219/278/591 216/274/592 222/280/593 225/284/594
f 218/277/595 220/279/596 226/285/597 224/283/598
s 44
f 220/279/599 262/324/600 263/325/601 226/285/602
s 45
f 445/580/603 446/579/604 221/281/605 227/287/606
s 46
f 270/332/607 271/333/608 223/282/609 229/288/610
s 47
f 223/282/611 438/504/612 439/505/613 229/288/614
s off
f 225/284/615 222/280/616 228/286/617 231/290/618
f 224/283/619 226/285/620 232/291/621 230/289/622
f 226/285/623 263/325/624 264/326/625 232/291/626
s 48
f 444/581/627 445/580/628 227/287/629 233/293/630
s 49
f 269/331/631 270/332/632 229/288/633 235/294/634
s 50
f 229/288/635 439/505/636 440/506/637 235/294/638
s off
f 231/290/639 228/286/640 234/292/641 237/296/642
f 230/289/643 232/291/644 238/297/645 236/295/646
s 51
f 232/291/647 264/326/648 265/327/649 238/297/650
s 52
f 443/509/651 444/581/652 233/293/653 239/299/654
s 53
f 268/330/655 269/331/656 235/294/657 241/300/658
s 54
f 235/294/659 440/506/660 441/507/661 241/300/662
s off
f 237/296/663 234/292/664 240/298/665 243/302/666
f 236/295/667 238/297/668 244/303/669 242/301/670
s 55
f 238/297/671 265/327/672 266/328/673 244/303/674
s 1
f 195/254/445 214/273/474 246/306/549 245/305/553
f 214/273/474 213/272/473 247/307/550 246/306/549
f 405/468/546 406/469/472 212/271/471 248/308/547
s 35
f 391/450/675 390/451/676 384/309/539 388/449/543
f 390/451/676 392/452/677 385/445/540 384/309/539
s 1
f 210/269/469 209/268/468 250/311/536 249/310/535
s 34
f 322/382/678 321/383/679 315/312/529 319/381/533
f 321/383/679 323/384/680 316/377/530 315/312/529
s 1
f 207/266/466 206/265/465 252/314/523 251/313/527
f 206/265/465 205/264/464 253/315/524 252/314/523
f 458/526/522 459/527/681 204/263/682 254/316/519
f 204/263/682 203/262/455 255/317/515 254/316/519
f 203/262/455 202/261/454 256/318/516 255/317/515
f 202/261/454 201/260/453 257/319/683 256/318/516
f 201/260/453 200/259/452 258/320/505 257/319/683
f 200/259/452 401/462/451 402/463/506 258/320/505
f 199/258/449 198/257/448 260/322/499 259/321/503
f 198/257/448 197/575/447 261/573/500 260/322/499
s 40
f 262/324/577 261/323/576 197/256/684 219/278/685
s 44
f 263/325/601 262/324/600 219/278/686 225/284/687
s off
f 333/393/688 332/394/689 334/395/690 335/396/691
s 51
f 265/327/649 264/326/648 231/290/692 237/296/693
s 55
f 266/328/673 265/327/672 237/296/694 243/302/695
s 31
f 243/302/696 240/298/697 267/329/496 266/328/495
f 442/508/492 443/509/698 239/299/699 268/330/493
s 53
f 233/293/700 269/331/656 268/330/655 239/299/701
s 49
f 227/287/702 270/332/632 269/331/631 233/293/703
s 46
f 221/281/704 271/333/608 270/332/607 227/287/705
s 42
f 215/275/706 272/334/584 271/333/583 221/281/707
s 38
f 195/253/708 245/304/560 272/334/559 215/275/709
s off
f 180/238/710 179/237/711 273/336/712 274/335/713
f 179/237/714 203/262/715 275/337/716 273/336/717
f 203/262/718 204/263/719 276/338/720 275/337/721
s 56
f 465/533/722 466/534/723 180/238/724 274/335/725
s 57
f 204/263/726 459/527/727 460/528/728 276/338/729
s off
f 205/264/730 181/239/731 277/339/732 278/340/733
f 274/335/734 273/336/735 279/342/736 280/341/737
f 273/336/738 275/337/739 281/343/740 279/342/741
f 275/337/742 276/338/743 282/344/744 281/343/745
s 58
f 464/532/746 465/533/747 274/335/748 280/341/749
s 59
f 276/338/750 460/528/751 461/529/752 282/344/753
s off
f 278/340/754 277/339/755 283/345/756 284/346/757
f 280/341/758 279/342/759 285/348/760 286/347/761
f 279/342/762 281/343/763 287/349/764 285/348/765
f 281/343/766 282/344/767 288/350/768 287/349/769
s 60
f 463/531/770 464/532/771 280/341/772 286/347/773
s 61
f 282/344/774 461/529/775 462/530/776 288/350/777
s off
f 284/346/778 283/345/779 289/351/780 290/352/781
f 251/313/782 18/50/783 292/354/784 291/353/785
f 18/50/786 17/49/787 293/355/788 292/354/789
f 17/49/790 16/48/791 295/356/792 293/355/793
f 16/48/794 250/311/795 294/357/796 295/356/797
f 209/268/798 208/267/799 296/359/800 297/358/801
f 250/311/802 209/268/803 297/358/804 294/357/805
f 208/267/806 207/266/807 298/360/808 296/359/809
f 207/266/810 251/313/811 291/353/812 298/360/813
f 291/353/814 292/354/815 300/362/816 299/361/817
f 292/354/818 293/355/819 301/363/820 300/362/821
f 293/355/822 295/356/823 303/364/824 301/363/825
f 295/356/826 294/357/827 302/365/828 303/364/829
f 297/358/830 296/359/831 304/367/832 305/366/833
f 294/357/834 297/358/835 305/366/836 302/365/837
f 296/359/838 298/360/839 306/368/840 304/367/841
f 298/360/842 291/353/843 299/361/844 306/368/845
f 299/361/846 300/362/847 308/370/848 307/369/849
f 300/362/850 301/363/851 309/371/852 308/370/853
f 301/363/854 303/364/855 311/372/856 309/371/857
f 303/364/858 302/365/859 310/373/860 311/372/861
f 305/366/862 304/367/863 312/375/864 313/374/865
f 302/365/866 305/366/867 313/374/868 310/373/869
f 304/367/870 306/368/871 314/376/872 312/375/873
f 306/368/874 299/361/875 307/369/876 314/376/877
f 307/369/878 308/370/879 317/378/880 316/377/881
f 308/370/882 309/371/883 318/379/884 317/378/885
f 309/371/886 311/372/887 320/380/888 318/379/889
f 311/372/890 310/373/891 319/381/892 320/380/893
f 313/374/894 312/375/895 321/383/896 322/382/897
f 310/373/898 313/374/899 322/382/900 319/381/901
f 312/375/902 314/376/903 323/384/904 321/383/905
f 314/376/906 307/369/907 316/377/908 323/384/909
f 264/326/910 263/325/911 324/386/912 325/385/913
f 263/325/914 225/284/915 326/387/916 324/386/917
f 225/284/918 231/290/919 327/388/920 326/387/921
f 231/290/922 264/326/923 325/385/924 327/388/925
f 325/385/926 324/386/927 328/390/928 329/389/929
f 324/386/930 326/387/931 330/391/932 328/390/933
f 326/387/934 327/388/935 331/392/936 330/391/937
f 327/388/938 325/385/939 329/389/940 331/392/941
f 329/389/942 328/390/943 332/394/944 333/393/945
f 328/390/946 330/391/947 334/395/948 332/394/949
f 330/391/950 331/392/951 335/396/952 334/395/953
f 331/392/954 329/389/955 333/393/956 335/396/957
f 257/319/958 258/320/959 337/398/960 336/397/961
f 258/320/962 25/57/963 338/399/964 337/398/965
f 25/57/966 24/56/967 339/400/968 338/399/969
f 256/318/970 257/319/971 336/397/972 340/401/973
f 24/56/974 23/55/975 341/402/976 339/400/977
f 23/55/978 256/318/979 340/401/980 341/402/981
f 336/397/982 337/398/983 343/404/984 342/403/985
f 337/398/986 338/399/987 344/405/988 343/404/989
f 338/399/990 339/400/991 345/406/992 344/405/993
f 340/401/994 336/397/995 342/403/996 346/407/997
f 339/400/998 341/402/999 347/408/1000 345/406/1001
f 341/402/1002 340/401/1003 346/407/1004 347/408/1005
f 342/403/1006 343/404/1007 349/410/1008 348/409/1009
f 343/404/1010 344/405/1011 350/411/1012 349/410/1013
f 344/405/1014 345/406/1015 351/412/1016 350/411/1017
f 346/407/1018 342/403/1019 348/409/1020 352/413/1021
f 345/406/1022 347/408/1023 353/414/1024 351/412/1025
f 347/408/1026 346/407/1027 352/413/1028 353/414/1029
f 348/409/1030 349/410/1031 355/416/1032 354/415/1033
f 349/410/1034 350/411/1035 356/417/1036 355/416/1037
f 350/411/1038 351/412/1039 357/418/1040 356/417/1041
f 352/413/1042 348/409/1043 354/415/1044 358/419/1045
f 351/412/1046 353/414/1047 359/420/1048 357/418/1049
f 353/414/1050 352/413/1051 358/419/1052 359/420/1053
f 249/310/1054 15/47/1055 361/422/1056 360/421/1057
f 15/47/1058 14/46/1059 362/423/1060 361/422/1061
f 14/46/1062 13/45/1063 364/424/1064 362/423/1065
f 13/45/1066 248/308/1067 363/425/1068 364/424/1069
f 212/271/1070 211/270/1071 365/427/1072 366/426/1073
f 248/308/1074 212/271/1075 366/426/1076 363/425/1077
f 211/270/1078 210/269/1079 367/428/1080 365/427/1081
f 210/269/1082 249/310/1083 360/421/1084 367/428/1085
f 360/421/1086 361/422/1087 369/430/1088 368/429/1089
f 361/422/1090 362/423/1091 370/431/1092 369/430/1093
f 362/423/1094 364/424/1095 372/432/1096 370/431/1097
f 364/424/1098 363/425/1099 371/433/1100 372/432/1101
f 366/426/1102 365/427/1103 373/435/1104 374/434/1105
f 363/425/1106 366/426/1107 374/434/1108 371/433/1109
f 365/427/1110 367/428/1111 375/436/1112 373/435/1113
f 367/428/1114 360/421/1115 368/429/1116 375/436/1117
f 368/429/1118 369/430/1119 377/438/1120 376/437/1121
f 369/430/1122 370/431/1123 378/439/1124 377/438/1125
f 370/431/1126 372/432/1127 380/440/1128 378/439/1129
f 372/432/1130 371/433/1131 379/441/1132 380/440/1133
f 374/434/1134 373/435/1135 381/443/1136 382/442/1137
f 371/433/1138 374/434/1139 382/442/1140 379/441/1141
f 373/435/1142 375/436/1143 383/444/1144 381/443/1145
f 375/436/1146 368/429/1147 376/437/1148 383/444/1149
f 376/437/1150 377/438/1151 386/446/1152 385/445/1153
f 377/438/1154 378/439/1155 387/447/1156 386/446/1157
f 378/439/1158 380/440/1159 389/448/1160 387/447/1161
f 380/440/1162 379/441/1163 388/449/1164 389/448/1165
f 382/442/1166 381/443/1167 390/451/1168 391/450/1169
f 379/441/1170 382/442/1171 391/450/1172 388/449/1173
f 381/443/1174 383/444/1175 392/452/1176 390/451/1177
f 383/444/1178 376/437/1179 385/445/1180 392/452/1181
s 29
f 394/455/477 393/453/476 8/37/1182 192/250/1183
s 28
f 395/456/400 394/455/399 192/250/1184 193/251/1185
s 30
f 142/197/1186 396/457/484 395/456/483 193/251/1187
s 1
f 397/458/37 396/457/155 142/197/1188 48/102/39
f 398/459/38 397/458/37 48/102/39 56/111/42
f 399/460/180 431/496/179 432/497/176 155/212/177
f 400/461/450 399/460/180 155/212/177 175/233/422
f 401/462/451 400/461/450 175/233/422 199/258/449
f 402/463/506 401/462/451 199/258/449 259/321/503
f 403/465/507 402/463/506 259/321/503 26/58/504
f 247/307/550 405/468/546 404/467/545 12/44/551
f 213/272/473 406/469/472 405/468/546 247/307/550
s off
f 487/555/1189 486/556/1190 488/557/1191 489/558/1192
s 1
f 169/226/212 408/471/208 407/470/441 189/247/442
s off
f 490/559/1193 491/560/1194 492/561/1195 493/562/1196
s 1
f 34/88/5 410/473/8 409/472/7 70/125/6
s 22
f 411/474/312 410/473/311 34/88/1197 108/159/1198
s 11
f 123/178/1199 412/475/121 411/474/120 108/159/1200
f 101/160/1201 413/476/370 412/475/121 123/178/1199
s 1
f 52/107/4 71/126/3 415/480/210 414/479/168
f 71/126/3 70/125/6 416/481/211 415/480/210
f 70/125/6 409/472/7 417/482/209 416/481/211
f 418/483/206 417/482/209 409/472/7 69/124/10
f 69/124/10 68/123/12 419/484/204 418/483/206
f 68/123/12 67/122/14 420/485/202 419/484/204
f 67/122/14 66/121/16 421/486/200 420/485/202
f 66/121/16 65/120/18 422/487/198 421/486/200
f 65/120/18 64/119/20 423/488/196 422/487/198
f 64/119/20 63/118/22 424/489/192 423/488/196
f 63/118/22 62/117/24 425/490/193 424/489/192
f 468/536/191 469/537/25 61/116/28 426/491/188
f 61/116/28 60/115/30 427/492/186 426/491/188
f 60/115/30 59/114/32 428/493/184 427/492/186
f 59/114/32 58/113/34 429/494/182 428/493/184
f 58/113/34 57/112/36 430/495/178 429/494/182
f 57/112/36 398/459/38 431/496/179 430/495/178
f 432/497/176 431/496/179 398/459/38 56/111/42
f 56/111/42 55/110/41 433/498/174 432/497/176
f 55/110/41 54/109/44 434/499/170 433/498/174
f 54/109/44 53/108/46 435/500/171 434/499/170
f 451/517/167 452/518/47 52/106/4 414/478/168
s 39
f 437/503/565 436/502/564 29/61/1202 218/277/1203
s 43
f 438/504/589 437/503/588 218/277/1204 224/283/1205
s 47
f 439/505/613 438/504/612 224/283/1206 230/289/1207
s 50
f 440/506/637 439/505/636 230/289/1208 236/295/1209
s 54
f 441/507/661 440/506/660 236/295/1210 242/301/1211
s 31
f 267/329/496 442/508/492 441/507/491 242/301/497
f 240/298/697 443/509/698 442/508/492 267/329/496
s 52
f 234/292/1212 444/510/652 443/509/651 240/298/1213
s 48
f 228/286/1214 445/511/628 444/510/627 234/292/1215
s 45
f 222/280/1216 446/512/604 445/511/603 228/286/1217
s 41
f 216/274/1218 447/513/580 446/512/579 222/280/1219
s 37
f 196/572/1220 448/571/556 447/513/555 216/274/1221
s 1
f 172/230/419 449/515/417 448/514/444 196/255/446
f 152/209/172 450/516/166 449/515/417 172/230/419
s off
f 482/551/1222 483/552/1223 484/553/1224 485/554/1225
s 1
f 53/108/46 452/518/47 451/517/167 435/500/171
f 51/105/45 453/519/48 452/518/47 53/108/46
s 26
f 454/520/360 453/519/359 51/105/1226 120/174/1227
s 10
f 148/203/1228 455/521/165 454/520/164 120/174/1229
f 117/175/1230 456/522/412 455/521/165 148/203/1228
s 1
f 253/315/524 458/526/522 457/525/521 20/52/525
f 205/264/464 459/527/681 458/526/522 253/315/524
s 57
f 460/528/728 459/527/727 205/264/1231 278/340/1232
s 59
f 461/529/752 460/528/751 278/340/1233 284/346/1234
s 61
f 462/530/776 461/529/775 284/346/1235 290/352/1236
s off
f 289/351/1237 463/531/1238 462/530/1239 290/352/1240
s 60
f 283/345/1241 464/532/771 463/531/770 289/351/1242
s 58
f 277/339/1243 465/533/747 464/532/746 283/345/1244
s 56
f 181/239/1245 466/534/723 465/533/722 277/339/1246
s 1
f 161/218/194 467/535/190 466/534/432 181/239/433
s off
f 474/543/1247 475/544/1248 476/545/1249 477/546/1250
s 1
f 62/117/24 469/537/25 468/536/191 425/490/193
f 42/96/23 470/538/26 469/537/25 62/117/24
s 21
f 471/539/300 470/538/299 42/96/1251 99/152/1252
s 12
f 133/188/138 472/540/141 471/539/140 99/152/139
f 95/31/384 473/541/385 472/540/141 133/188/138
s off
f 425/490/1253 468/536/1254 475/544/1255 474/543/1256
f 468/536/1257 467/535/1258 476/545/1259 475/544/1260
f 467/535/1261 161/218/1262 477/546/1263 476/545/1264
f 161/218/1265 425/490/1266 474/543/1267 477/546/1268
f 156/213/1269 399/460/1270 478/548/1271 479/547/1272
f 399/460/1273 400/461/1274 480/549/1275 478/548/1276
f 400/461/1277 176/234/1278 481/550/1279 480/549/1280
f 176/234/1281 156/213/1282 479/547/1283 481/550/1284
f 435/500/1285 451/517/1286 483/552/1287 482/551/1288
f 451/517/1289 450/516/1290 484/553/1291 483/552/1292
f 450/516/1293 152/209/1294 485/554/1295 484/553/1296
f 152/209/1297 435/500/1298 482/551/1299 485/554/1300
f 189/247/1301 407/470/1302 486/556/1303 487/555/1304
f 407/470/1305 406/469/1306 488/557/1307 486/556/1308
f 406/469/1309 213/272/1310 489/558/1311 488/557/1312
f 213/272/1313 189/247/1314 487/555/1315 489/558/1316
f 416/481/1317 417/482/1318 491/560/1319 490/559/1320
f 417/482/1321 408/471/1322 492/561/1323 491/560/1324
f 408/471/1325 169/226/1326 493/562/1327 492/561/1328
f 169/226/1329 416/481/1330 490/559/1331 493/562/1332
f 462/530/1333 463/531/1334 495/564/1335 494/563/1336
f 463/531/1337 286/347/1338 496/565/1339 495/564/1340
f 286/347/1341 288/350/1342 497/566/1343 496/565/1344
f 288/350/1345 462/530/1346 494/563/1347 497/566/1348
f 494/563/1349 495/564/1350 499/568/1351 498/567/1352
f 495/564/1353 496/565/1354 500/569/1355 499/568/1356
f 496/565/1357 497/566/1358 501/570/1359 500/569/1360
f 497/566/1361 494/563/1362 498/567/1363 501/570/1364
